<svg id="Layer_1" data-name="Layer 1" xmlns="http://www.w3.org/2000/svg" viewBox="0 0 560.08 554.17"><defs><style>.cls-1{fill:#fefefe;}.cls-2{fill:#5d3419;}.cls-3{fill:#130908;}.cls-4{fill:#d28b5e;}.cls-5{fill:#e31922;}.cls-6{fill:#f1f9f9;}</style></defs><title>brownbear</title><path class="cls-1" d="M280.45.45q139,0,278,0c1.71,0,2.09.38,2.09,2.09q-.07,275,0,550c0,1.71-.38,2.09-2.09,2.09q-278-.07-555.91,0c-1.71,0-2.09-.38-2.09-2.09q.07-275,0-550C.41.8.8.41,2.5.41Q141.48.48,280.45.45ZM154.66,287a.43.43,0,0,0,.47-.44h0a2,2,0,0,0,1.81-.71c1.06-1.28,1.75-.34,2.17.52s0,2.06,1.33,1.93c1-.1.52-1.59,1.36-2.08.16-.1.05-.59.16-.86,1.09-2.68,2.42-5.14,6-5.57,0,4.76-2,9.8,1.84,14.22a5.51,5.51,0,0,0,.34-.78,79.89,79.89,0,0,1,2.2-9.71c.61-1.74,1.72-1.56,3-1.5,1.53.07,1.2,1.26,1.25,2.19.14,3.22,1.2,6.25,1.94,9.34a1.38,1.38,0,0,0,1.27,1.12c.71-.05.79-.71.87-1.36a23,23,0,0,0,.42-4.57,14.71,14.71,0,0,1,.94-6.13,2.63,2.63,0,0,1,2.66-2c1.59,0,1.07,1.39,1.39,2.12.81,1.87.7,4.07,2.14,5.74.34.39.44,1,1.13.73s.34-.76.38-1.17c.18-1.94.17-3.91.52-5.81s.73-4.18,2.41-5.58a17.84,17.84,0,0,0,5.61-9.31c.46-1.69,1.14-1.88,2.46-1.71,2.28.3,4.13,1.8,6.44,2.17,5.87.93,11.64,2.75,17.66,2.26,2.8-.23,5.1-.33,7.68,1.71a27.22,27.22,0,0,0,9.1,4.88,4.86,4.86,0,0,1,3.68,5c0,4.88,1.4,9.58,2.29,14.33a114.2,114.2,0,0,0,3.91,15.26,2.35,2.35,0,0,1-.74,2.82c-4.56,3.82-7.8,8.77-11.35,13.43a88.4,88.4,0,0,0-8.4,13.91,136.15,136.15,0,0,0-6.52,14.42A137.1,137.1,0,0,0,220,372.17a57.28,57.28,0,0,0-1.21,20,36.65,36.65,0,0,0,6,16.91,4.13,4.13,0,0,1,.63,3.55,77.63,77.63,0,0,0-1.95,10.68,83.81,83.81,0,0,0,.17,14.53c.41,3.67.4,7.43,1.46,11,.35,1.19.79,3-.34,3.62-1.41.75-2.44-.9-3.33-1.9-4.39-4.93-9-9.39-16.27-9.28a1.54,1.54,0,0,1-1-.38c-2.77-2.72-6.22-4.15-9.86-5.23-.79-.23-1.76-.7-2.2.14s.41,1.34,1.05,1.92a32.2,32.2,0,0,1,4.86,4.74,1.22,1.22,0,0,1-.32,1.93c-.73.53-1.26,2-2.35,1.22a39.5,39.5,0,0,0-3.71-1.9c-3.1-1.78-6.31-1.56-9.52-1.52a.86.86,0,0,0,.48,1.16,32.84,32.84,0,0,1,8.33,6.16c.55.59,1.52,1.13.84,2s-.87,2-2.64,1.63c-3.23-.75-6.35-2.57-9.87-1.49-.63.19-1.75-.46-1.78.74,0,.9.86,1.19,1.67,1.53a23.75,23.75,0,0,1,8.67,5.87c1.11,1.25.77,3,.3,4.22s-1.61,0-2.43-.41a3.83,3.83,0,0,0-.89-.09c-2.71-.46-5,1.34-7.6,1.49-.82,0-.47.75.14,1.19,2.1,1.5,4.77,1.51,6.95,2.74,2.39,1.35,5.34,1.86,6.41,5.11.66,2,2.32,3.53,3.88,5a37.46,37.46,0,0,0,7.63,5.35,50.41,50.41,0,0,0,8.33,3.91,49.6,49.6,0,0,1,5.69,2,46.05,46.05,0,0,0,13,3.52,38.25,38.25,0,0,0,13.24.13,23.08,23.08,0,0,0,8.39-3.27c5.09-3.38,8.58-8.3,11.48-13.49a91.15,91.15,0,0,0,6.33-14.38,139.93,139.93,0,0,0,5.22-20.41c1-5.42,1.64-11,4.55-15.84,2.06-3.45,4.41-6.76,6.25-10.32,2.36-4.56,4.7-9.17,5.86-14.24.17-.73.14-1.84,1.35-1.71.91.1.86,1,1.15,1.68,2.37,5.23,5.43,10,10,13.55,2.07,1.61,3.49,3.15,3.25,6.13-.19,2.37.78,4.89,1.56,7.09a97.2,97.2,0,0,0,4,10.54A58.36,58.36,0,0,0,318,449.45c3.12,4,6.77,7.65,10,11.64,2,2.43,3.1,5.16,2.3,8.34-1.3,5.2-5.54,6.42-10,7.37-4.76,1-9.67,2.2-12.86,6.07-2,2.41-4.73,2.84-7.05,4.25-2.94,1.79-5.65,3.58-7.29,7,3.48,0,6.38-1.82,9.68-1.71,1.11,0,2,0,2.34.93s-.24,1.66-1.14,2.31c-3.16,2.26-6.61,4.2-8.78,7.67-.51.81-1.17,1.73-.68,2.32s1.48-.18,2.17-.55a58.45,58.45,0,0,1,9.43-3.72c1.23-.41,1.76.45,2.16,1.41s1.35,2.46.22,3c-2,.91-2.95,2.8-4.5,4.1a14.31,14.31,0,0,0-4.29,7.22c3.61-1.24,6.28-3.4,9.35-4.76,1.85-.82,3.5-2.24,5.77-1.9s2.7,1.34,1.39,3a23.15,23.15,0,0,0-3,4.79c-.75,1.68-1.75,3.38-.77,5.53,1.6-1.38,3-2.74,4.52-3.84,3.28-2.31,6.3-5.45,10.82-4.89,5.25.64,9.76-1.64,14.28-3.57a69.66,69.66,0,0,0,13.75-8.27c6-4.45,11.56-9.43,15.68-15.69,3.88-5.89,5-12.77,5.53-19.63.51-6.7,1-13.41-.25-20.18A90.22,90.22,0,0,0,372.26,431a41.37,41.37,0,0,1-3.35-17.92,120.29,120.29,0,0,1,3.16-21.81c2.2-9.06,4.07-18.18,3.69-27.6,0-.52-.38-1.28.43-1.57s1.07.36,1.49.78c1.16,1.14,2.26,2.35,3.5,3.4a3,3,0,0,0,3,.17c.48-.16.34-1,.08-1.42-1-1.51-.76-3.25-.71-4.82.26-7.12,2-14.06,2.94-21.09s1.51-14.15.69-21.31c-.69-6-1.32-11.94-3.75-17.48-2.32-5.28-4.36-10.7-7.66-15.52-2.65-3.86-3.57-8.43-4.45-12.87a86.57,86.57,0,0,1-1.67-9.3c-.39-4.46-1.12-8.89-1.61-13.35s1-9,1.09-13.55c.08-5.76,1.65-11.26,2.51-16.88.54-3.51,1.22-7,1.82-10.51.77-4.53,1.65-9.05,2.21-13.61.38-3,.14-6.15.44-9.23.19-1.93-.72-3.95-.76-5.94a27.68,27.68,0,0,0-3.87-13.48c-.38-.65-.08-1,.16-1.4.52-.89.74.1,1.1.22,2.43.83,3.82,2.78,5.11,4.81.36.57.65,1,1.36.81.9-.23.6-1.24.53-1.54a82,82,0,0,0-3.17-11.47A76.5,76.5,0,0,0,371.14,146c0-.22,0-.6.11-.65,3.36-1.63,6.22-4.05,9.49-5.83l2.3,0,.41.11.48.45h0c2.06,1.41,4.24,1,6.43.44a4.15,4.15,0,0,1,1-.46,5.59,5.59,0,0,0,4.76-4.41,7,7,0,0,1,3.24-4.69c1-.7,2.13-1.32,3.16-2,3.1-2.11,2.94-2,5.07.75,4.7,6,5.52,13.24,6.34,20.41.51,4.5-1.32,8.78-2.08,13.17a12.1,12.1,0,0,0-.57,2.3c0,1,.29,1.16,1.32.92,1.93-.45,3.2-1.86,4.8-2.78a23.91,23.91,0,0,0,8.41-8.7,33.06,33.06,0,0,0,4.6-14.38c.84-8.56.81-17-2.54-25.1-1.31-3.17-1.32-3.38,1.71-4.89,3.58-1.78,7.37-2.9,11.48-2.06.85.17,1.9.44,2.4-.65,1.21-2.66,3-5,4.45-7.46,3-5.32,6.93-9.81,11-14.23,4.29-4.64,8.38-9.48,13.56-13.21a2.14,2.14,0,0,0,.5-2.13c-.13-.78-1-.27-1.54-.42-1.37-.38-2,.91-2.93,1.39a109.84,109.84,0,0,1-15.68,6.22A122.26,122.26,0,0,1,438.63,82c-2,.37-4,.06-6,.8a8.48,8.48,0,0,1-3.22.67c-1.56,0-3.52-.05-4.32,2.69-1,3.53-3.65,6.43-6.43,9-1.5,1.37-2.66,1.15-3.21-.6a13.18,13.18,0,0,1,1.8-12.12,15.31,15.31,0,0,1,13-6.89c2,0,2.19-.72,1.56-2.54a17.26,17.26,0,0,0-4.71-6.62A41,41,0,0,0,408.17,56a46.12,46.12,0,0,0-17.41-.53A39.29,39.29,0,0,0,358.89,82.3c-.13.16-.36.31-.39.48-.59,3.42-1.25,6.83-1.69,10.27-.7,5.45.44,10.77,1.81,16a32.25,32.25,0,0,0,5.33,10.77c.68.92,1.21,2.45,2.72,2.07s.75-1.86.87-2.89a.73.73,0,0,0,0-.22l.13-.9c.65-.33.37-.88.33-1.37a6.54,6.54,0,0,1,.18-2,20.26,20.26,0,0,1,6.14-8.49,13.38,13.38,0,0,1,7.88-3,15,15,0,0,1,11.07,5.54c1.21,1.39.72,2.12-.39,2.9a38.55,38.55,0,0,1-5.18,3.31c-.88.42-1.58,1.4-2.94,1a8.47,8.47,0,0,0-9.48,3.75,8.9,8.9,0,0,0-1.24,5.54c.08,1.46,0,2.48-1.61,3.45a49,49,0,0,0-8.4,5.79,2.61,2.61,0,0,1-1.93-.9c-1.08-1.35-2.48-2.44-3.6-3.76-2.06-2.41-5-4.09-6.31-7.12A91,91,0,0,0,340.78,103,85.16,85.16,0,0,0,326.5,88.23c-1.31-1-2.54-2.22-2.11-4.11.95-4.15-.86-7.48-3.19-10.56-3.51-4.63-10.29-4.25-14-2.66-2,.84-2-.35-2.29-1.14a7.12,7.12,0,0,0-6.66-5.49c-3-.27-6.24.06-7.79,2.61-1.65,2.72-3.5,2.9-6,2.24-6.65-1.78-13.44-1.83-20.23-1.72a13.4,13.4,0,0,0-8.62,2.78c-3.09,2.48-6.65,4.32-11,3.59a12.81,12.81,0,0,0-4.08,0,76.73,76.73,0,0,0-8.68,1.75,4.84,4.84,0,0,1-3.81,0c-3.12-1.56-6.26.5-6.58,3.95-.24,2.69,1.18,5.05,1,7.69a18.58,18.58,0,0,0,3.17,11.24c2.12,3.45,5.43,5.4,9,7.3a97,97,0,0,0,11.68,5.16c1.11.41,3.09,0,2.81,1.72-.24,1.46-2.35.34-3.38,1.14-.08.06-.28-.05-.42-.07-5.12-.77-10.36-.71-15.32-2.53a5,5,0,0,0-2.48,0c-2.12.38-3.36,3.17-1.81,4.38,2.24,1.75,2.51,4.36,3.66,6.59,2.51,4.88,2.13,5.38,7.43,5.39,4.15,0,7.58,1.9,10.92,4.66,6.53,5.39,10.52,16,7,24-.64,1.46-.07,1.73,1.18,1.73a7.81,7.81,0,0,0,4.15-1.39c1.6-1,2.55-.56,2.42,1.22-.25,3.51-1.68,6.84-5.51,7.67-4.34.95-9,.82-12.65-1.9-5.39-4-9.81-9.13-13.91-14.39-3.52-4.51-6.66-9.28-11.1-13a46.23,46.23,0,0,0-6.65-4.79c-3.9-2.24-8.32-3.39-12-6.1a90,90,0,0,1-10.21-8.26c-2.29-2.27-4.08-5-6.88-6.85-2.39-1.54-4.83-3.07-6.26-5.73s-4.14-4.06-6.59-5.34c-1.46-.77-3.24-1.82-5.21-1.61-1.06.11-1.32.17-.48,1.19a55.31,55.31,0,0,1,3.44,5c1.13,1.73.87,2.08-1.19,2.43-3.08.52-5.62-1.22-8.27-2.09s-5.34-.43-8-.52c-.39,0-.81.59-1.22.91.35.36.68,1,1.07,1,1.05.12,1.69,1.13,2.37,1.3,1.49.36,1.83,2,3.44,2.33a2.5,2.5,0,0,1,1.39,3.48c-.8,1.49-1.6,1.73-3.38,1.44-3.4-.56-6.93-.57-10.17,1.17-.33.18-.71.19-.74.67a1,1,0,0,0,.7,1c.7.24,1.44.36,2.17.54a20.94,20.94,0,0,1,6.92,2.71c.7.48,1.46.88,1.1,1.9a2,2,0,0,1-1.86,1.36c-3.1.35-5.51,2.19-8,3.9-.49.34-1.07,1.18-1,1.63.16.65,1,.49,1.69.41a65.75,65.75,0,0,1,7-.47,3,3,0,0,1,3.17,2c2.74,5.79,6,11.29,11,15.56,2.83,2.39,5.86,4.48,8.81,6.67a18.1,18.1,0,0,0,5.81,3c3.12.85,4.88,2.52,5.59,5.7,1.33,6,3.85,11.54,6.11,17.19,1.1,2.75,2.55,5.3,3.83,7.95q3.55,7.35,7.65,14.4c2.25,3.89,4.62,7.72,7.24,11.4,1.25,1.75.92,2.33-1.18,3.1-4.18,1.53-8.57,2.68-12.45,4.78s-8,4.05-11.62,6.71c-2.52,1.84-5.27,3.38-7.73,5.3a106.28,106.28,0,0,0-12.49,11.43,28.34,28.34,0,0,0-7,13.19c-.75,3.38-.65,7-.93,10.45a9.47,9.47,0,0,1-3.51,3.38,37.54,37.54,0,0,0-5.07,3.31,119.84,119.84,0,0,1-10.85,7c-3,1.85-6.3,1.19-9.49,1.51-1.13.11-2.34.53-2.44,1.57a20.61,20.61,0,0,0,1.74,11.16c2.11,4.34,6.46,5.3,10.51,6.62a1.6,1.6,0,0,0,2.13-1.05,37.22,37.22,0,0,1,1.86-3.72c2.3-4.21,6.07-6.88,10-9.41.38.07.78.17.9-.38l0,0c.3,0,.44-.13.46-.42Z" transform="translate(-0.41 -0.41)"/><path class="cls-2" d="M158.42,267.52c.28-3.49.18-7.06.93-10.45a28.34,28.34,0,0,1,7-13.19,106.28,106.28,0,0,1,12.49-11.43c2.45-1.92,5.21-3.46,7.73-5.3,3.63-2.66,7.71-4.59,11.62-6.71s8.27-3.25,12.45-4.78c2.11-.77,2.43-1.35,1.18-3.1-2.62-3.67-5-7.5-7.24-11.4q-4.08-7.06-7.65-14.4c-1.28-2.65-2.73-5.2-3.83-7.95-2.26-5.65-4.78-11.22-6.11-17.19-.71-3.18-2.47-4.85-5.59-5.7a18.1,18.1,0,0,1-5.81-3c-3-2.19-6-4.28-8.81-6.67-5.08-4.28-8.29-9.77-11-15.56a3,3,0,0,0-3.17-2,65.75,65.75,0,0,0-7,.47c-.7.08-1.52.24-1.69-.41-.11-.45.46-1.28,1-1.63,2.44-1.71,4.85-3.55,8-3.9a2,2,0,0,0,1.86-1.36c.36-1-.39-1.42-1.1-1.9a20.94,20.94,0,0,0-6.92-2.71c-.72-.18-1.46-.31-2.17-.54a1,1,0,0,1-.7-1c0-.48.41-.49.74-.67,3.24-1.74,6.77-1.74,10.17-1.17,1.79.3,2.58.06,3.38-1.44a2.5,2.5,0,0,0-1.39-3.48c-1.61-.29-1.95-2-3.44-2.33-.68-.17-1.32-1.17-2.37-1.3-.39,0-.71-.68-1.07-1,.41-.32.82-.92,1.22-.91,2.66.09,5.25-.38,8,.52s5.19,2.61,8.27,2.09c2.05-.35,2.32-.7,1.19-2.43a55.31,55.31,0,0,0-3.44-5c-.84-1-.58-1.07.48-1.19,2-.21,3.75.84,5.21,1.61,2.45,1.28,5.16,2.68,6.59,5.34s3.87,4.2,6.26,5.73c2.8,1.8,4.59,4.58,6.88,6.85a90,90,0,0,0,10.21,8.26c3.68,2.72,8.1,3.86,12,6.1a46.23,46.23,0,0,1,6.65,4.79c4.43,3.71,7.58,8.49,11.1,13,4.1,5.26,8.52,10.4,13.91,14.39,3.68,2.73,8.3,2.85,12.65,1.9,3.83-.83,5.25-4.16,5.51-7.67.13-1.78-.82-2.21-2.42-1.22a7.81,7.81,0,0,1-4.15,1.39c-1.25,0-1.82-.27-1.18-1.73,3.53-8-.46-18.62-7-24-3.34-2.76-6.77-4.65-10.92-4.66-5.3,0-4.92-.51-7.43-5.39-1.15-2.23-1.42-4.84-3.66-6.59-1.55-1.21-.31-4,1.81-4.38a5,5,0,0,1,2.48,0c5,1.82,10.2,1.76,15.32,2.53.14,0,.35.13.42.07,1-.8,3.14.32,3.38-1.14.29-1.76-1.7-1.31-2.81-1.72a97,97,0,0,1-11.68-5.16c-3.57-1.9-6.88-3.85-9-7.3a18.58,18.58,0,0,1-3.17-11.24c.2-2.63-1.23-5-1-7.69.31-3.44,3.46-5.51,6.58-3.95a4.84,4.84,0,0,0,3.81,0,76.73,76.73,0,0,1,8.68-1.75,12.81,12.81,0,0,1,4.08,0c4.32.74,7.88-1.11,11-3.59a13.4,13.4,0,0,1,8.62-2.78c6.79-.11,13.58-.05,20.23,1.72,2.46.66,4.31.47,6-2.24,1.55-2.55,4.81-2.88,7.79-2.61a7.12,7.12,0,0,1,6.66,5.49c.24.79.32,2,2.29,1.14,3.74-1.6,10.52-2,14,2.66,2.33,3.07,4.14,6.41,3.19,10.56-.43,1.89.81,3.07,2.11,4.11A85.16,85.16,0,0,1,340.78,103a91,91,0,0,1,11.35,19.54c1.33,3,4.25,4.71,6.31,7.12,1.13,1.32,2.52,2.41,3.6,3.76a2.61,2.61,0,0,0,1.93.9,10.72,10.72,0,0,1-5,3.73c-6.39,2.28-11.53,6.55-16.8,10.55a100.31,100.31,0,0,1-17.61,11c-3.52,1.67-7.44,2.52-10.26,5.55a17,17,0,0,1-5.74,4.38c-4.92,2-8.78,5.58-12.9,8.72-4.56,3.48-8.84,7.29-14.14,9.74a55.29,55.29,0,0,0-9,5.26,87.85,87.85,0,0,1-11.42,7.32c-2.66,1.34-5.58,2.58-7.57,4.84a22.92,22.92,0,0,1-7.37,5.85A2.47,2.47,0,0,0,244.8,215c-4.68.16-9.34.54-14,1.09-3.54.42-7.06.79-10.37,2.19-.65.27-1.78.3-1.43,1.33s1.2.22,1.76.06a36.2,36.2,0,0,1,8.5-1.28c10.6-.47,21.14.61,31.63,1.88a175,175,0,0,1,31.36,6.93c.6.19,1.25.59,1.95-.17-3.19-3.23-7.34-4.75-11.29-6.49-4.81-2.11-4.84-2-1.06-5.95a71.76,71.76,0,0,1,13.45-11.43c4.57-2.89,9.05-6,14.37-7.5a5.77,5.77,0,0,0,3.21-1.73c-.42-.58-.78-.4-1.14-.36-7.16.91-13.33,4.34-19.36,7.91a95,95,0,0,0-20,15.51,2.68,2.68,0,0,1-2.19,1,54.67,54.67,0,0,1-8.59-1.49c.8-.56,1.58-1.14,2.4-1.66,4.45-2.84,9.38-4.8,13.71-7.9a104.48,104.48,0,0,1,13.19-8.35,48.42,48.42,0,0,0,10.53-7.35,64.56,64.56,0,0,1,12.42-8.94c3.66-2,7.28-4,10-7.29a4.3,4.3,0,0,1,2.19-1.12,70.16,70.16,0,0,0,17.38-9.12c7.35-5.09,14.39-10.61,22.38-14.73,2-1,4.12-2,5.39-4a76.48,76.48,0,0,1,5.41,11.51A82,82,0,0,1,379.73,169c.07.3.36,1.31-.53,1.54-.71.18-1-.24-1.36-.81-1.28-2-2.68-4-5.11-4.81-.35-.12-.58-1.11-1.1-.22-.24.41-.54.76-.16,1.4a27.68,27.68,0,0,1,3.87,13.48c0,2,1,4,.76,5.94-.3,3.08-.06,6.18-.44,9.23-.56,4.56-1.44,9.08-2.21,13.61-.59,3.51-1.28,7-1.82,10.51-.86,5.62-2.43,11.12-2.51,16.88-.06,4.53-1.6,9-1.09,13.55s1.22,8.89,1.61,13.35a86.57,86.57,0,0,0,1.67,9.3c.88,4.44,1.81,9,4.45,12.87,3.3,4.81,5.34,10.24,7.66,15.52,2.43,5.54,3.06,11.51,3.75,17.48.82,7.16.24,14.26-.69,21.31s-2.68,14-2.94,21.09c-.06,1.58-.3,3.31.71,4.82.27.4.4,1.26-.08,1.42a3,3,0,0,1-3-.17c-1.24-1-2.34-2.26-3.5-3.4-.42-.41-.78-1-1.49-.78s-.45,1-.43,1.57c.38,9.42-1.48,18.54-3.69,27.6a120.29,120.29,0,0,0-3.16,21.81A41.37,41.37,0,0,0,372.26,431a90.22,90.22,0,0,1,4.51,16.62c1.29,6.78.76,13.48.25,20.18-.52,6.86-1.65,13.74-5.53,19.63-4.12,6.27-9.65,11.25-15.68,15.69a69.66,69.66,0,0,1-13.75,8.27c-4.52,1.93-9,4.21-14.28,3.57-4.52-.55-7.54,2.58-10.82,4.89-1.55,1.1-2.92,2.46-4.52,3.84-1-2.15,0-3.85.77-5.53a23.15,23.15,0,0,1,3-4.79c1.31-1.67.79-2.69-1.39-3s-3.91,1.08-5.77,1.9c-3.06,1.36-5.74,3.51-9.35,4.76a14.31,14.31,0,0,1,4.29-7.22c1.55-1.3,2.47-3.19,4.5-4.1,1.13-.51.2-2-.22-3s-.93-1.83-2.16-1.41a58.45,58.45,0,0,0-9.43,3.72c-.69.37-1.59,1.26-2.17.55s.18-1.51.68-2.32c2.16-3.47,5.61-5.41,8.78-7.67.9-.64,1.54-1.3,1.14-2.31s-1.23-.89-2.34-.93c-3.31-.11-6.2,1.66-9.68,1.71,1.64-3.39,4.35-5.18,7.29-7,2.32-1.41,5.07-1.84,7.05-4.25,3.19-3.87,8.1-5.06,12.86-6.07,4.49-1,8.73-2.17,10-7.37.79-3.18-.35-5.91-2.3-8.34-3.2-4-6.85-7.63-10-11.64a58.36,58.36,0,0,1-6.15-10.13,97.2,97.2,0,0,1-4-10.54c-.78-2.2-1.76-4.72-1.56-7.09.24-3-1.18-4.53-3.25-6.13-4.58-3.56-7.64-8.32-10-13.55-.29-.64-.24-1.58-1.15-1.68-1.21-.13-1.18,1-1.35,1.71-1.16,5.08-3.5,9.68-5.86,14.24-1.84,3.56-4.18,6.87-6.25,10.32-2.91,4.87-3.53,10.43-4.55,15.84a139.93,139.93,0,0,1-5.22,20.41,91.15,91.15,0,0,1-6.33,14.38c-2.9,5.19-6.39,10.12-11.48,13.49a23.08,23.08,0,0,1-8.39,3.27,38.25,38.25,0,0,1-13.24-.13,46.05,46.05,0,0,1-13-3.52,49.6,49.6,0,0,0-5.69-2,50.41,50.41,0,0,1-8.33-3.91,37.46,37.46,0,0,1-7.63-5.35c-1.55-1.46-3.22-3-3.88-5-1.08-3.24-4-3.76-6.41-5.11-2.18-1.23-4.85-1.24-6.95-2.74-.61-.44-1-1.14-.14-1.19,2.62-.15,4.89-1.95,7.6-1.49a3.83,3.83,0,0,1,.89.09c.82.37,2,1.53,2.43.41s.81-3-.3-4.22a23.75,23.75,0,0,0-8.67-5.87c-.81-.35-1.69-.63-1.67-1.53,0-1.2,1.15-.55,1.78-.74,3.52-1.08,6.64.74,9.87,1.49,1.77.41,2-.81,2.64-1.63s-.29-1.46-.84-2a32.84,32.84,0,0,0-8.33-6.16.86.86,0,0,1-.48-1.16c3.21,0,6.42-.26,9.52,1.52a39.5,39.5,0,0,1,3.71,1.9c1.1.78,1.62-.68,2.35-1.22a1.22,1.22,0,0,0,.32-1.93,32.2,32.2,0,0,0-4.86-4.74c-.64-.58-1.44-1.18-1.05-1.92s1.42-.37,2.2-.14c3.64,1.08,7.09,2.51,9.86,5.23a1.54,1.54,0,0,0,1,.38c7.26-.1,11.88,4.35,16.27,9.28.89,1,1.92,2.65,3.33,1.9,1.13-.6.69-2.43.34-3.62-1.06-3.61-1-7.37-1.46-11a83.81,83.81,0,0,1-.17-14.53,77.63,77.63,0,0,1,1.95-10.68,4.13,4.13,0,0,0-.63-3.55,36.65,36.65,0,0,1-6-16.91,57.28,57.28,0,0,1,1.21-20,137.1,137.1,0,0,1,4.41-16.32,136.15,136.15,0,0,1,6.52-14.42,88.4,88.4,0,0,1,8.4-13.91c3.56-4.67,6.8-9.62,11.35-13.43a2.35,2.35,0,0,0,.74-2.82A114.2,114.2,0,0,1,247.52,296c-.89-4.75-2.3-9.44-2.29-14.33a4.86,4.86,0,0,0-3.68-5,27.22,27.22,0,0,1-9.1-4.88c-2.58-2-4.88-1.93-7.68-1.71-6,.49-11.79-1.33-17.66-2.26-2.31-.37-4.16-1.87-6.44-2.17-1.32-.17-2,0-2.46,1.71a17.84,17.84,0,0,1-5.61,9.31c-1.67,1.4-2,3.57-2.41,5.58s-.35,3.87-.52,5.81c0,.41.21,1-.38,1.17s-.79-.33-1.13-.73c-1.45-1.67-1.33-3.87-2.14-5.74-.32-.74.2-2.1-1.39-2.12a2.63,2.63,0,0,0-2.66,2,14.71,14.71,0,0,0-.94,6.13,23,23,0,0,1-.42,4.57c-.08.65-.17,1.31-.87,1.36a1.38,1.38,0,0,1-1.27-1.12c-.74-3.09-1.8-6.12-1.94-9.34,0-.94.29-2.12-1.25-2.19-1.25-.06-2.35-.24-3,1.5a79.89,79.89,0,0,0-2.2,9.71,5.51,5.51,0,0,1-.34.78c-3.86-4.41-1.88-9.46-1.84-14.22-3.55.43-4.87,2.89-6,5.57-.11.27,0,.76-.16.86-.84.49-.33,2-1.36,2.08-1.34.13-1-1.18-1.33-1.93s-1.12-1.81-2.17-.52a2,2,0,0,1-1.81.71,1.23,1.23,0,0,1,.56-1.17c4.06-2.88,7.84-6.34,12.26-8.51,6.54-3.22,12.39-7.42,18.51-11.23a2.32,2.32,0,0,0,1.41-2.13,1.36,1.36,0,0,0-1.59-1.48l-1.13-.22c-.12-1.79-1.5-1.59-2.67-1.65-3.89-.18-7.8.37-11.68-.37.17-.15.31-.39.51-.43,7-1.6,14-2.48,21.06-.56a96.92,96.92,0,0,1,12.4,4.31,31.08,31.08,0,0,0,14.39,2.48c.67,0,1.86.32,1.79-.75s-1.24-.59-1.92-.59a32.67,32.67,0,0,1-10.63-2c-.72-.25-1.47-.55-1.48-1.5a1.72,1.72,0,0,1,1.32-1.65,6.32,6.32,0,0,0,2.47-1.56c.27-.29.5-.64.25-1s-.66-.22-1-.06a21.21,21.21,0,0,1-6.17,1.31c-3.14.34-6.35.48-9.4-.77-2-.84-2.19-1.64-.66-3.11a8.53,8.53,0,0,0,1.35-1.79c.29-.49.79-1.12.25-1.65s-1.21,0-1.78.35a23.42,23.42,0,0,1-9,3.6A106.63,106.63,0,0,0,171,257.09a25.09,25.09,0,0,0-6,3.16c-.59.37-1.09,1.05-.62,1.73s1.08,0,1.56-.24,1.11-.81,1.86-.71c0,.88-.18,1.75-1.18,1.87C163.23,263.3,160.75,265.26,158.42,267.52Zm158.74-18.29a26.34,26.34,0,0,1-2.85,11.43C312,265.11,307.87,268,305,272c-.82,1.15-1.23,0-1.45-.68-1.14-3.41-.72-6.87-.25-10.33.11-.83,1-1.9-.24-2.39s-1.41.87-1.89,1.54A23.75,23.75,0,0,1,290.26,269c-1.12.44-2.38,1.46-3.33.49s.2-2.23.44-3.37c.2-.95,1.33-2.21.12-2.8-.88-.43-1.42,1.07-2,1.82a24,24,0,0,1-13.34,8.43c-1.29.35-1.75-.27-1.35-1.46a29.15,29.15,0,0,0,1.15-2.69c.16-.72,1-1.68.08-2.25s-1.55.36-2.1.95a14.88,14.88,0,0,1-5.61,4.13,34.46,34.46,0,0,1-16.94,1.78c-.63-.09-1.62-.5-1.83.25-.29,1,.9,1.11,1.51,1.25a69.26,69.26,0,0,0,12.78,1.8,76.29,76.29,0,0,0,37.64-8.53c2.65-1.33,2.57-1.34,2.82,1.74a14.62,14.62,0,0,0,3.56,8.42c.33.39.71.85,1.34.65s.5-.68.55-1.12a11.46,11.46,0,0,1,2.93-6c2.17-2.61,4.39-5.19,6.57-7.8.87-1,1.5-2.39,2.56-3.15a89.06,89.06,0,0,0,11-9.69,39.6,39.6,0,0,0,11.33-23.18c.07-.49.33-1.19-.36-1.37s-.78.56-.91,1a33.41,33.41,0,0,1-2.95,7.83c-.65,1.13-.83,3.1-2.31,3.06-1.29,0-.87-2-1.45-3-.29-.5-.25-1.32-1.09-1.19s-.75.88-.7,1.47a17.54,17.54,0,0,1-1.52,7.73,16.05,16.05,0,0,1-6,7.83c-2.57,1.77-3.39,1.31-3.51-1.84a15.83,15.83,0,0,0-.76-4.23c-.18-.57-.6-1.16-1.33-.94s-.44.81-.37,1.35C317.07,247.36,317.1,248.35,317.16,249.24Zm-118.5-101a1.92,1.92,0,0,0-1.17-1.85c-5.05-3.46-8-8.45-10.56-13.86-1.81-3.89-1.84-8.23-3.46-12.17-2.69-6.49-7-11.47-15.81-9.43-5.31,1.23-10.38,8.62-9.33,14a1.16,1.16,0,0,0,.38.74c.4.23.76-.09.94-.4s.38-1,.62-1.44c1.77-3.41,4.09-6.32,8.14-6.88,4.25-.59,7.93.68,10.5,4.36a39.94,39.94,0,0,1,5.4,12.17c2.19,7.7,3,15.71,5,23.45a86.41,86.41,0,0,0,9.6,23.39,1.37,1.37,0,0,0,1.84.8c-1.51-1.82-2-3.94-2.61-5.91-.91-2.78-2.64-5.3-2.68-8.36,0-1.71.66-2.23,2.25-1.42s2.8,1.72,4.68,1.75c-.35-1.71-1.79-2.14-2.79-2.92a26.55,26.55,0,0,1-9.79-15.33c-.26-1.11-.45-2.27.74-3.08s2-.05,2.91.48A15.41,15.41,0,0,0,198.66,148.28Zm91.56,220.3a82.32,82.32,0,0,0,1,12.88,47.25,47.25,0,0,0,1.92,8.15c.22.69.43,1.66,1.4,1.51s.62-1.08.64-1.71a11,11,0,0,0-.12-2.27c-1.46-8.37,1.2-15.48,6.58-21.77.28-.33.82-.63.55-1.12s-1-.38-1.43-.22a14.7,14.7,0,0,0-3.91,2.67c-.62.47-1,1.54-2,1-.83-.41-.89-1.35-1-2.18-.45-3.72,1-7,2.49-10.23,1.64-3.64,4.5-6.38,7.48-9,.49-.43,1.28-.89.69-1.65s-1.19-.26-1.82.11c-1.1.66-2.24,1.26-3.38,1.86a1.32,1.32,0,0,1-1.68,0,1.38,1.38,0,0,1-.27-1.66,28.81,28.81,0,0,1,4.37-8.4,37.69,37.69,0,0,1,7.07-6.32c.5-.37,1.09-.72.72-1.44s-.93-.4-1.43-.35a7.57,7.57,0,0,0-1.09.3c-2.16.54-2.65,0-2-2.13a8.4,8.4,0,0,1,.84-1.84,41.72,41.72,0,0,1,8.76-10.61c.43-.37,1.29-.74.87-1.37s-1.22-.21-1.77.2a28.17,28.17,0,0,0-5.36,4.52C296.13,332.35,290.54,349.54,290.22,368.58Zm31-250c-.12,1.16.25,2.74-1,3.44s-1.68-.92-2.5-1.47c-.58-.39-1.09-1.41-1.84-.65s.3,1.15.65,1.69c2.55,3.85,4.3,7.85,2.36,12.55-.5,1.2-1,2.5-2.44,2.77-1.65.32-1.75-1.34-2.41-2.27,0-.06-.07-.13-.11-.2-.35-.58-.68-1.39-1.5-1s-.31,1.07-.11,1.6a11.38,11.38,0,0,1-.34,8.62,12.52,12.52,0,0,1-7.19,7.44c-2.06.79-2.46.48-2.37-1.66a47.31,47.31,0,0,0,.28-4.75c-.07-1.21.29-3.29-.82-3.44-1.63-.22-1.1,1.89-1.57,3a3.66,3.66,0,0,0-.1.67c-1.2,5.46-3.46,10.19-9,12.46-1.55.63-3.42,1.58-4.91.36-1.71-1.39-.37-3.28.09-4.84a34.21,34.21,0,0,0,1-5.32c.08-.63.21-1.6-.65-1.7s-.6.89-.76,1.4a40.74,40.74,0,0,1-5,10.64c-1.48,2.2-1.12,2.88,1.63,3.12a35.41,35.41,0,0,0,18.44-3.43,38.94,38.94,0,0,0,18.43-18.08c2.66-5.16,3.69-10.72,4.15-16.33a17.51,17.51,0,0,0-2.3-10.26c-.25-.42-.57-1.1-1.18-.83s-.19.89,0,1.35A15.63,15.63,0,0,1,321.26,118.62ZM268,159.51c-.06-2,.12-3.63-.46-5.25-.24-.66-.42-1.49-1.26-1.26s-.38,1-.21,1.53a12.47,12.47,0,0,1-.66,8.88A81.44,81.44,0,0,1,254.59,181a94.23,94.23,0,0,0-13.33,21.2,23.75,23.75,0,0,0-2,7.65c0,.58-.18,1.29.57,1.56a1.73,1.73,0,0,0,1.91-.34,6.93,6.93,0,0,0,.76-1.11c3.57-5.33,7.32-10.45,14.1-12,.38-.09.79-.2.75-.67s-.55-.63-1-.68a18,18,0,0,0-5.17.56c-.92.16-2,1-2.69-.11s.16-2.05.73-2.91c2.83-4.29,7.2-6.32,11.83-7.93.63-.22,1.81.37,1.76-.8,0-.9-1.18-.74-1.86-1a6.61,6.61,0,0,0-1.35-.09c-.71-.08-1.63.32-2.06-.52a2.41,2.41,0,0,1,.54-2.54,7.17,7.17,0,0,1,1.43-1.44,16.77,16.77,0,0,1,10.31-4.18c.54,0,1.15,0,1.17-.75s-.51-.9-1.07-.93c-1.06-.05-2.12-.06-3.18-.07-2.46,0-2.69-.42-1.72-2.64C266.7,167.39,268.19,163.51,268,159.51ZM192.91,460.86c0,.45,0,.91,0,1.36s.17,1,.63,1.11c.7.17.93-.51,1-1,.34-1.92,1.52-3.45,2.28-5.16a8.19,8.19,0,0,1,6.82-4.95c2.74-.33,4.35,1.74,5.67,3.85a15.65,15.65,0,0,1,1.25,2.41c3.57,8.79,8.25,16.79,15.77,22.88a37.63,37.63,0,0,0,9.09,5.45c.53.22,1.23.61,1.54-.22.23-.61-.37-.9-.82-1.18l-1.15-.72a41.28,41.28,0,0,1-14.82-16.14c-2.73-5.08-4.44-10.58-6.34-16-1.67-4.76-5.25-6.52-10.16-5.59C199.49,447.79,192.7,455.35,192.91,460.86ZM267.14,77.67a3.12,3.12,0,0,1,2.23-1.34c5.59-1.59,11.28-.95,16.92-.52a28.63,28.63,0,0,1,9.22,2.26c.73.32,1.67,1.1,2.14,0s-.82-1.28-1.5-1.59a54.62,54.62,0,0,0-13.48-3.87c-6.71-1.11-13.56-.93-20.37-.69A9.47,9.47,0,0,0,256,74.66a10.33,10.33,0,0,1-5.93,3.09c-.5.06-1.19,0-1.13.77s.72.73,1.22.79c3,.4,5.84.42,8.15-2.15a5.6,5.6,0,0,1,6.26-1.83c-1,.83-2.05,1.61-3,2.43a1.9,1.9,0,0,0-.85,2c.23.9,1,.72,1.68.8,4.73.61,9.5,1.11,13.05,4.88.25.27.59.56,1,.2a.83.83,0,0,0,.06-1.06,9,9,0,0,0-1-1.25A18.92,18.92,0,0,0,267.14,77.67Zm19.47,283c.26-1.38-.81-2.08-1.56-2.87a63.16,63.16,0,0,1-7.19-9c-2.52-3.85-4.89-7.8-7.4-11.66-4-6.19-6.71-13.08-10-19.63a43.41,43.41,0,0,1-4.06-11c-.1-.51-.3-1.19-.94-1.09-.84.13-.59.93-.56,1.49a7.16,7.16,0,0,0,.34,1.31c2.4,9.1,6.23,17.61,10.52,25.94,2.14,4.16,4.09,8.42,6.34,12.51a141,141,0,0,0,11.71,17.2c.5.66.95,1.85,2,1.51.79-.26.32-1.35.44-2.06Q286.4,362,286.61,360.68Zm44.56,41.55c0-.76,0-1.52,0-2.27s.31-1.63-.54-1.75-1,.94-1.14,1.64A22.3,22.3,0,0,1,318.29,415c-.53.31-1.58.42-1.34,1.26s1.17.34,1.8.34a3.91,3.91,0,0,0,1.1-.24c6-1.77,11.61-4.25,16.39-8.39a38.74,38.74,0,0,0,13.07-22.47c.14-.75.52-2-.44-2.21-1.23-.27-.79,1.17-1.07,1.82-1.11,2.63-1.55,5.55-3.35,7.9-.32.42-.58,1-1.21.81s-.66-.76-.7-1.3c0-.3,0-.61,0-.91-.08-.71.21-1.85-.72-1.9-1.09-.05-.9,1.16-1,1.93-.08.45-.14.9-.21,1.34a22.13,22.13,0,0,1-6.82,12.75c-.53.5-1.19,1.11-2,.76s-.69-1.26-.68-2S331.13,403,331.16,402.23ZM253,395.54c-.2-1,.5-2.3-.55-2.73s-1,.95-1.13,1.54c-1.88,6.58-6,11.18-12,14.28-.6.31-1.81.34-1.48,1.33s1.34.44,2,.31c10.09-1.85,18.62-6.4,25.1-14.53a41.52,41.52,0,0,0,6.13-11c.23-.6,1-1.55,0-2s-.94.74-1.26,1.26c-.87,1.42-1.66,2.88-2.53,4.3-.46.75-.91,1.88-2,1.52s0-1.32-.14-2a6.36,6.36,0,0,1,0-1.13c0-.47-.11-1-.63-1.08-.69-.13-.87.43-1,1-.23,1-.41,1.92-.71,2.86-1.48,4.71-3.58,9-8.29,11.35-1.43.72-2.18.54-2-1.22C252.6,398.19,252.81,396.85,253,395.54ZM319.35,82.68c.12-5.36-1.63-7.82-6.5-8.74-2.88-.55-5.31.8-7.54,2.41-.93.67-2.35,1.75-1.6,2.9s1.83-.33,2.67-.74c3.84-1.88,7.51-.83,8.61,2.8a6,6,0,0,1-2.55,7c-3.25,1.7-2.65,3.29-1.26,5.54.07.12,0,.3.08.44.37,1.29,1.1,1.66,2.11.65C316.77,91.56,319.27,87.7,319.35,82.68Zm-57.21.2c-2.46-.26-3.42.63-3.65,2.31a13.61,13.61,0,0,0,.94,7.36,7.93,7.93,0,0,0,8.08,4.28c3-.57,6.16-4.1,6.3-7a1.43,1.43,0,0,0-.56-1.19C269.79,85.73,266.2,83.09,262.14,82.88Zm59.75,398.38c-4.62.11-8.26,1.72-10.2,4.5-5,7.1-.57,16,5.66,20.14.37.25.82.59,1.21.15s-.06-.83-.34-1.15a21.26,21.26,0,0,1-4-6.81c-2.6-7.53.9-12.38,8.5-15.3.65-.25,1.95.19,1.84-.79-.13-1.23-1.46-.56-2.26-.74A1.91,1.91,0,0,0,321.89,481.26Zm-93.81-41.19c-.28,4.89,1.11,9.08,1.06,13.33-.06,4.86,3.15,7.52,6.17,10.41.39.37.84.76,1.39.38s.37-.81.12-1.22c-3.2-5.39-4.36-11.53-6.44-17.33C229.78,444,229.95,441.91,228.08,440.08Zm2.63-342.87a.68.68,0,0,0,0-1c-1.89-2.79-2.93-5.77-2.08-9.19a2,2,0,0,0-.48-1.7c-.68-.9-1.36-2.1-.42-2.81s1.29.83,1.93,1.34a5.26,5.26,0,0,0,.51.44c.73.43,1.49.89,2.22,0a1.51,1.51,0,0,0,0-2.24c-1-1-1.89-2.17-3.38-2.58s-2.93-.81-4,.44-.78,2.68-.21,4.08c.34.82,1,1.56.66,2.56-.57,1.77.07,3.51.54,5.11A7.76,7.76,0,0,0,230.71,97.21Zm18.18,21.88a9.42,9.42,0,0,0,4-.47c2.47-.89,3-2.71,1.31-4.73-.86-1-1.63-1.46-2.24.18a3.59,3.59,0,0,1-2.9,2.2c-2.4.6-4.8.33-7.2.36-.51,0-1.21,0-1.29.66s.67.79,1.13.85C244.08,118.43,246.39,119.35,248.88,119.09Zm-6.27,48.45c1.41,2.47,9.05,6.57,11.46,6.09a2.89,2.89,0,0,0,2.33-3c0-1.55-1.53-.88-2.34-.86a22.48,22.48,0,0,1-6.69-.88C245.82,168.47,244.38,167.6,242.62,167.53ZM262.46,100c.37,0,1,.23,1.1-.38s-.42-.93-.86-1.19c-3.22-1.88-6-4.09-6.28-8.21a.77.77,0,0,0-.68-.78c-.57,0-.83.41-.86.86-.08,1.35.26,2.82-.16,4-.89,2.57.7,3.39,2.47,4.23A25.46,25.46,0,0,0,262.46,100Zm17.06-8.8c0-1.28-1.08-1-1.76-1.34-.89-.4-1.65-.24-2,.79A23.27,23.27,0,0,1,273.91,95c-.43.78-1.9,1.56-1,2.39.69.67,1.66-.62,2.48-1.05A8.94,8.94,0,0,0,279.52,91.2Z" transform="translate(-0.41 -0.41)"/><path class="cls-3" d="M244.8,215a2.47,2.47,0,0,1,1.35-3.71,22.92,22.92,0,0,0,7.37-5.85c2-2.27,4.91-3.51,7.57-4.84a87.85,87.85,0,0,0,11.42-7.32,55.29,55.29,0,0,1,9-5.26c5.3-2.44,9.58-6.25,14.14-9.74,4.12-3.15,8-6.7,12.9-8.72a17,17,0,0,0,5.74-4.38c2.82-3,6.74-3.88,10.26-5.55a100.31,100.31,0,0,0,17.61-11c5.27-4,10.41-8.27,16.8-10.55a10.72,10.72,0,0,0,5-3.73,49,49,0,0,1,8.4-5.79c1.6-1,1.7-2,1.61-3.45a8.9,8.9,0,0,1,1.24-5.54,8.47,8.47,0,0,1,9.48-3.75c1.36.37,2.07-.61,2.94-1a38.55,38.55,0,0,0,5.18-3.31c1.1-.77,1.6-1.5.39-2.9A15,15,0,0,0,382.15,103a13.38,13.38,0,0,0-7.88,3,20.26,20.26,0,0,0-6.14,8.49,6.54,6.54,0,0,0-.18,2c-.44.38-1.11.7-.33,1.37l-.13.9c-.53.25-.15,1.36-1,1.2a1.34,1.34,0,0,1-1.11-1.25c0-1-1-2.2.45-3.19a1.6,1.6,0,0,0,0-2.22l.21-.89c.58-.49,1.24-.95.57-1.83a3.68,3.68,0,0,1,.83-2.07,16.82,16.82,0,0,1,13.23-8c7.15-.6,14.38,3.08,17.34,8.89.68,1.33.63,2.15-.69,3-3.25,2.06-6.46,4.2-9.65,6.35a2,2,0,0,1-1.91.33c-3.58-1.4-6.11.2-8.27,2.88-1.4.69-1.24,2-1.29,3.25,0,.9,0,.9.85,1.43l1,0,4.21.64a4.82,4.82,0,0,1,2.36,3.09c-.29.52-.23.93.37,1.18.26,1.32.69,2.65-.34,3.86l-1.65-.23-.05-1.05.21-1.64c0-.06.12-.13.11-.17a2.13,2.13,0,0,0-.18-.35c-.6-3.59-2.88-4.69-5.88-2.75-5.44,3.52-10.76,7.24-16.29,10.61-6.78,4.13-13.24,8.73-19.92,13-5.48,3.49-10.67,7.46-16.26,10.75-5.92,3.48-11.58,7.36-17.35,11.06-6,3.85-11.93,7.83-17.86,11.79s-11.76,7.57-17.55,11.5c-6.84,4.64-13.76,9.15-20.64,13.72,3.89.9,7.66,1.83,11.56,1.06a2.18,2.18,0,0,0,.79-.43c3.24-2.38,6.64-4.58,10-6.66,3.56-2.18,7-4.52,10.57-6.7,5.7-3.5,11.1-7.51,16.68-11.21,5.21-3.45,10.5-6.77,15.74-10.17,3.3-2.14,6.57-4.33,9.88-6.46,4-2.56,8.12-4.93,12-7.66,4.24-3,8.68-5.67,13-8.56,5-3.34,9.93-6.69,15-9.85,3.64-2.26,7-5,10.91-6.79.84.18.89-.48,1.06-1l1.18-.44c.31.07.39-.07.33-.35l0-.07c.48.07.61-.26.73-.61l.74-.18,1.43-.39c0,1.27,0,2.58,1.94,2.2l1.24.59c.68,1.25,1.46,1.11,2.3.17l1.66-.82a.38.38,0,0,0,.56-.25c1.28-1.19,2.61-2.35,3-4.16.66-.26.61-.69.3-1.18a1.54,1.54,0,0,1,.61-1.4c3.79-2.5,7.59-5,11.38-7.48.68-.45,1-.19,1.44.42,7.3,10.11,10,21.4,8.61,33.72-.13,1.24-.82,2.42-.47,3.71.24,0,.44.1.53,0a20.2,20.2,0,0,0,1.61-1.25c8.69-7.7,11-17.82,10.54-28.79a39.63,39.63,0,0,0-5.14-17.7c-.39-.71-.47-1.18.19-1.75,2.81-2.4,5.77-4.44,9.66-4.55a11.9,11.9,0,0,0,3.38-.28c1.9-.64,4.3-.07,5.54-2.43,4.36-8.31,10.27-15.48,16.69-22.27,1-1,2.33-1.72,2.89-3.53-4.44,1.38-8.57,2.95-12.81,4.18a106.17,106.17,0,0,1-17.27,3.66c-1.48.17-3,.35-3.74,2.06a27.37,27.37,0,0,1-10.06,12c-1.81,1.21-2.67.73-3.56-.9-5.68-10.37-.55-24.08,11.92-26,.5-.08,1.16,0,1.38-.57s-.46-1-.83-1.47a38.58,38.58,0,0,0-12.31-9.49c-12.21-6.08-24.14-5.26-35.76,1.38-7.91,4.52-13.28,11.35-16.63,19.78-1.55,1.43-1.16,3.83-2.62,5.53-1.62-2.09.17-4.11-.36-6a39.29,39.29,0,0,1,31.87-26.79,46.12,46.12,0,0,1,17.41.53A41,41,0,0,1,427.1,66.34,17.26,17.26,0,0,1,431.81,73c.63,1.82.44,2.5-1.56,2.54a15.31,15.31,0,0,0-13,6.89,13.18,13.18,0,0,0-1.8,12.12c.55,1.76,1.71,2,3.21.6,2.78-2.54,5.4-5.44,6.43-9,.8-2.74,2.76-2.7,4.32-2.69a8.48,8.48,0,0,0,3.22-.67c1.95-.74,4-.42,6-.8a122.26,122.26,0,0,0,14.21-3.86,109.84,109.84,0,0,0,15.68-6.22c1-.48,1.56-1.77,2.93-1.39.53.15,1.41-.36,1.54.42a2.14,2.14,0,0,1-.5,2.13c-5.18,3.73-9.28,8.58-13.56,13.21-4.08,4.41-8,8.9-11,14.23-1.41,2.5-3.25,4.8-4.45,7.46-.5,1.1-1.55.83-2.4.65-4.11-.83-7.91.28-11.48,2.06-3,1.51-3,1.72-1.71,4.89,3.35,8.13,3.39,16.54,2.54,25.1a33.06,33.06,0,0,1-4.6,14.38,23.91,23.91,0,0,1-8.41,8.7c-1.6.91-2.88,2.33-4.8,2.78-1,.24-1.31,0-1.32-.92a12.1,12.1,0,0,1,.57-2.3c.75-4.38,2.59-8.67,2.08-13.17-.82-7.17-1.64-14.37-6.34-20.41-2.13-2.74-2-2.85-5.07-.75-1,.7-2.12,1.32-3.16,2a7,7,0,0,0-3.24,4.69,5.59,5.59,0,0,1-4.76,4.41,4.15,4.15,0,0,0-1,.46c-2.11-.65-4.28-.34-6.43-.44h0l-.48-.45-.41-.11c-.74-1.27-1.48-2.61-2.3,0-3.27,1.77-6.13,4.2-9.49,5.83-.11.06-.08.43-.11.65-1.26,2-3.42,3-5.39,4-8,4.13-15,9.64-22.38,14.73A70.16,70.16,0,0,1,326,173.89a4.3,4.3,0,0,0-2.19,1.12c-2.71,3.28-6.34,5.29-10,7.29a64.56,64.56,0,0,0-12.42,8.94,48.42,48.42,0,0,1-10.53,7.35,104.48,104.48,0,0,0-13.19,8.35c-4.32,3.1-9.26,5.06-13.71,7.9-.82.52-1.6,1.11-2.4,1.66a22.71,22.71,0,0,1-6.39-.48c-3-.56-6.09-1.13-9.2-.61Z" transform="translate(-0.41 -0.41)"/><path class="cls-3" d="M158.42,267.52c2.33-2.26,4.81-4.22,8.21-4.63,1-.12,1.19-1,1.18-1.87a5.79,5.79,0,0,1,3-1.17c3.87.74,7.79.18,11.68.37,1.17.06,2.54-.14,2.67,1.65-3.18.1-6.35.3-9.53.24a5.8,5.8,0,0,0-3.58,1.1c-2.36,1.65-4.83,3.13-7.25,4.69-6.31,4.06-12.5,8.32-18.72,12.52-4.18,2.82-8.46,5.3-13.78,4.93-1.69-.12-2,1-2.08,2.34a10.44,10.44,0,0,0,7.39,10.64c1.06.32,1.8.22,2.23-1.11a15.33,15.33,0,0,1,2.77-4.62c3.67-4.64,9.1-6.87,13.74-10.18,3.86-2.76,8.18-4.89,12.05-7.63,4.47-3.16,9.11-6.06,13.63-9.13,1.5-1,3.86-1.19,4.25-3.57a1.36,1.36,0,0,1,1.59,1.48,2.32,2.32,0,0,1-1.41,2.13c-6.13,3.81-12,8-18.51,11.23-4.41,2.17-8.19,5.62-12.26,8.51a1.23,1.23,0,0,0-.56,1.17h0a.43.43,0,0,0-.47.44h0a.41.41,0,0,0-.46.42l0,0a.72.72,0,0,0-.9.38c-3.9,2.53-7.67,5.2-10,9.41a37.22,37.22,0,0,0-1.86,3.72,1.6,1.6,0,0,1-2.13,1.05c-4.05-1.32-8.4-2.28-10.51-6.62a20.61,20.61,0,0,1-1.74-11.16c.1-1,1.31-1.45,2.44-1.57,3.19-.32,6.49.34,9.49-1.51a119.84,119.84,0,0,0,10.85-7,37.54,37.54,0,0,1,5.07-3.31A9.47,9.47,0,0,0,158.42,267.52Z" transform="translate(-0.41 -0.41)"/><path class="cls-2" d="M358.89,82.3c.54,1.9-1.26,3.92.36,6,1.46-1.69,1.07-4.1,2.62-5.53a45.39,45.39,0,0,0-2.17,12.63,34.74,34.74,0,0,0,5.16,19.47l1-1.59a1.6,1.6,0,0,1,0,2.22c-1.45,1-.42,2.14-.45,3.19a1.34,1.34,0,0,0,1.11,1.25c.88.16.49-1,1-1.2a.73.73,0,0,1,0,.22c-.12,1,.68,2.49-.87,2.89s-2-1.15-2.72-2.07A32.25,32.25,0,0,1,358.62,109c-1.38-5.19-2.52-10.51-1.81-16,.44-3.44,1.11-6.85,1.69-10.27C358.53,82.61,358.76,82.46,358.89,82.3Z" transform="translate(-0.41 -0.41)"/><path class="cls-2" d="M383.91,140.14c2.15.1,4.32-.21,6.43.44C388.15,141.13,386,141.55,383.91,140.14Z" transform="translate(-0.41 -0.41)"/><path class="cls-2" d="M380.74,139.55c.81-2.57,1.55-1.23,2.3,0Z" transform="translate(-0.41 -0.41)"/><path class="cls-2" d="M367.62,117.83c-.77-.67-.1-1,.33-1.37C368,117,368.27,117.5,367.62,117.83Z" transform="translate(-0.41 -0.41)"/><path class="cls-2" d="M153.27,287.86a.72.72,0,0,1,.9-.38C154,288,153.65,287.93,153.27,287.86Z" transform="translate(-0.41 -0.41)"/><path class="cls-2" d="M154.2,287.46a.41.41,0,0,1,.46-.42C154.64,287.33,154.5,287.48,154.2,287.46Z" transform="translate(-0.41 -0.41)"/><path class="cls-2" d="M154.66,287a.43.43,0,0,1,.47-.44A.43.43,0,0,1,154.66,287Z" transform="translate(-0.41 -0.41)"/><path class="cls-2" d="M383.45,139.7l.48.45Z" transform="translate(-0.41 -0.41)"/><path class="cls-4" d="M317.16,249.24c-.06-.89-.09-1.87-.21-2.85-.06-.53-.31-1.14.37-1.35s1.15.37,1.33.94a15.83,15.83,0,0,1,.76,4.23c.12,3.14.94,3.6,3.51,1.84a16.05,16.05,0,0,0,6-7.83,17.54,17.54,0,0,0,1.52-7.73c-.05-.59-.09-1.34.7-1.47s.8.69,1.09,1.19c.58,1,.16,3,1.45,3,1.48,0,1.66-1.93,2.31-3.06a33.41,33.41,0,0,0,2.95-7.83c.13-.47.19-1.22.91-1s.42.88.36,1.37a39.6,39.6,0,0,1-11.33,23.18,89.06,89.06,0,0,1-11,9.69c-1.06.76-1.69,2.11-2.56,3.15-2.18,2.61-4.4,5.19-6.57,7.8a11.46,11.46,0,0,0-2.93,6c-.05.45,0,1-.55,1.12s-1-.26-1.34-.65a14.62,14.62,0,0,1-3.56-8.42c-.24-3.08-.16-3.07-2.82-1.74a76.29,76.29,0,0,1-37.64,8.53,69.26,69.26,0,0,1-12.78-1.8c-.61-.14-1.8-.25-1.51-1.25.22-.75,1.21-.34,1.83-.25a34.46,34.46,0,0,0,16.94-1.78,14.88,14.88,0,0,0,5.61-4.13c.56-.58,1.28-1.43,2.1-.95s.08,1.53-.08,2.25a29.15,29.15,0,0,1-1.15,2.69c-.4,1.19.06,1.81,1.35,1.46a24,24,0,0,0,13.34-8.43c.58-.74,1.11-2.25,2-1.82,1.21.58.08,1.85-.12,2.8-.24,1.14-1.36,2.43-.44,3.37s2.21-.06,3.33-.49a23.75,23.75,0,0,0,10.94-8.83c.47-.67.73-2,1.89-1.54s.35,1.56.24,2.39c-.47,3.46-.89,6.92.25,10.33.23.67.64,1.83,1.45.68,2.84-4,7-6.93,9.28-11.38A26.34,26.34,0,0,0,317.16,249.24Z" transform="translate(-0.41 -0.41)"/><path class="cls-5" d="M186.27,262.08c-.39,2.39-2.74,2.56-4.25,3.57-4.53,3.07-9.16,6-13.63,9.13-3.88,2.74-8.19,4.87-12.05,7.63-4.63,3.31-10.06,5.55-13.74,10.18a15.33,15.33,0,0,0-2.77,4.62c-.43,1.32-1.17,1.43-2.23,1.11a10.44,10.44,0,0,1-7.39-10.64c.08-1.32.39-2.46,2.08-2.34,5.32.38,9.6-2.11,13.78-4.93,6.22-4.2,12.41-8.46,18.72-12.52,2.42-1.56,4.89-3,7.25-4.69a5.8,5.8,0,0,1,3.58-1.1c3.17.06,6.35-.14,9.53-.24Z" transform="translate(-0.41 -0.41)"/><path class="cls-4" d="M198.66,148.28a15.41,15.41,0,0,1-5.17-1.94c-.91-.53-1.78-1.24-2.91-.48s-1,2-.74,3.08a26.55,26.55,0,0,0,9.79,15.33c1,.78,2.44,1.21,2.79,2.92-1.88,0-3.24-1-4.68-1.75s-2.27-.29-2.25,1.42c0,3.05,1.78,5.58,2.68,8.36.65,2,1.1,4.09,2.61,5.91a1.37,1.37,0,0,1-1.84-.8,86.41,86.41,0,0,1-9.6-23.39c-2.07-7.73-2.83-15.74-5-23.45a39.94,39.94,0,0,0-5.4-12.17c-2.58-3.69-6.25-5-10.5-4.36-4,.56-6.37,3.47-8.14,6.88-.24.46-.35,1-.62,1.44s-.54.62-.94.4a1.16,1.16,0,0,1-.38-.74c-1.05-5.36,4-12.76,9.33-14,8.83-2,13.12,2.94,15.81,9.43,1.63,3.93,1.65,8.28,3.46,12.17,2.52,5.41,5.51,10.4,10.56,13.86A1.92,1.92,0,0,1,198.66,148.28Z" transform="translate(-0.41 -0.41)"/><path class="cls-4" d="M244.8,215l1.17.42c3,1.24,6.1,1,9.2.61a22.71,22.71,0,0,0,6.39.48,54.67,54.67,0,0,0,8.59,1.49,2.68,2.68,0,0,0,2.19-1,95,95,0,0,1,20-15.51c6-3.57,12.2-7,19.36-7.91.36,0,.73-.22,1.14.36a5.77,5.77,0,0,1-3.21,1.73c-5.32,1.5-9.8,4.61-14.37,7.5a71.76,71.76,0,0,0-13.45,11.43c-3.78,4-3.75,3.83,1.06,5.95,4,1.74,8.1,3.26,11.29,6.49-.7.76-1.35.36-1.95.17a175,175,0,0,0-31.36-6.93c-10.49-1.27-21-2.34-31.63-1.88a36.2,36.2,0,0,0-8.5,1.28c-.57.16-1.45.88-1.76-.06s.78-1.06,1.43-1.33c3.32-1.4,6.84-1.77,10.37-2.19C235.46,215.54,240.12,215.16,244.8,215Z" transform="translate(-0.41 -0.41)"/><path class="cls-4" d="M290.22,368.58c.32-19,5.91-36.23,18.13-51A28.17,28.17,0,0,1,313.7,313c.56-.41,1.3-.92,1.77-.2s-.44,1-.87,1.37a41.72,41.72,0,0,0-8.76,10.61,8.4,8.4,0,0,0-.84,1.84c-.65,2.17-.16,2.67,2,2.13a7.57,7.57,0,0,1,1.09-.3c.51,0,1.14-.23,1.43.35s-.21,1.07-.72,1.44a37.69,37.69,0,0,0-7.07,6.32,28.81,28.81,0,0,0-4.37,8.4,1.38,1.38,0,0,0,.27,1.66,1.32,1.32,0,0,0,1.68,0c1.14-.6,2.28-1.19,3.38-1.86.63-.38,1.3-.77,1.82-.11s-.19,1.22-.69,1.65c-3,2.59-5.84,5.33-7.48,9-1.45,3.22-2.94,6.51-2.49,10.23.1.83.17,1.77,1,2.18,1,.49,1.42-.57,2-1a14.7,14.7,0,0,1,3.91-2.67c.48-.17,1.11-.36,1.43.22s-.26.79-.55,1.12c-5.38,6.29-8,13.4-6.58,21.77a11,11,0,0,1,.12,2.27c0,.63.28,1.57-.64,1.71s-1.18-.82-1.4-1.51a47.25,47.25,0,0,1-1.92-8.15A82.32,82.32,0,0,1,290.22,368.58Z" transform="translate(-0.41 -0.41)"/><path class="cls-4" d="M321.26,118.62a15.63,15.63,0,0,0-1.12-5.17c-.17-.47-.67-1,0-1.35s.93.41,1.18.83a17.51,17.51,0,0,1,2.3,10.26c-.46,5.62-1.49,11.17-4.15,16.33a38.94,38.94,0,0,1-18.43,18.08A35.41,35.41,0,0,1,282.63,161c-2.75-.25-3.11-.92-1.63-3.12a40.74,40.74,0,0,0,5-10.64c.16-.51-.09-1.51.76-1.4s.73,1.07.65,1.7a34.21,34.21,0,0,1-1,5.32c-.46,1.57-1.8,3.45-.09,4.84,1.49,1.21,3.36.27,4.91-.36,5.56-2.26,7.81-7,9-12.46a3.66,3.66,0,0,1,.1-.67c.47-1.07-.06-3.18,1.57-3,1.1.15.74,2.23.82,3.44a47.31,47.31,0,0,1-.28,4.75c-.09,2.15.31,2.46,2.37,1.66a12.52,12.52,0,0,0,7.19-7.44,11.38,11.38,0,0,0,.34-8.62c-.2-.53-.64-1.27.11-1.6s1.15.44,1.5,1c0,.06.07.14.11.2.66.92.76,2.58,2.41,2.27,1.4-.27,1.94-1.57,2.44-2.77,1.94-4.69.19-8.7-2.36-12.55-.35-.54-1.28-1.05-.65-1.69s1.26.26,1.84.65c.82.55,1.33,2.1,2.5,1.47S321.14,119.78,321.26,118.62Z" transform="translate(-0.41 -0.41)"/><path class="cls-4" d="M268,159.51c.22,4-1.26,7.88-2.94,11.71-1,2.22-.74,2.62,1.72,2.64,1.06,0,2.12,0,3.18.07.57,0,1.09.27,1.07.93s-.64.74-1.17.75a16.77,16.77,0,0,0-10.31,4.18,7.17,7.17,0,0,0-1.43,1.44,2.41,2.41,0,0,0-.54,2.54c.44.84,1.35.44,2.06.52a6.61,6.61,0,0,1,1.35.09c.67.23,1.82.07,1.86,1,.05,1.18-1.13.59-1.76.8-4.64,1.62-9,3.64-11.83,7.93-.57.86-1.4,1.87-.73,2.91s1.77.27,2.69.11a18,18,0,0,1,5.17-.56c.46.05,1,.09,1,.68s-.37.58-.75.67c-6.77,1.57-10.53,6.68-14.1,12a6.93,6.93,0,0,1-.76,1.11,1.73,1.73,0,0,1-1.91.34c-.75-.28-.61-1-.57-1.56a23.75,23.75,0,0,1,2-7.65A94.23,94.23,0,0,1,254.59,181a81.44,81.44,0,0,0,10.78-17.54,12.47,12.47,0,0,0,.66-8.88c-.16-.54-.64-1.3.21-1.53s1,.59,1.26,1.26C268.09,155.88,267.91,157.55,268,159.51Z" transform="translate(-0.41 -0.41)"/><path class="cls-4" d="M192.91,460.86c-.21-5.52,6.57-13.07,10.77-13.87,4.9-.93,8.48.83,10.16,5.59,1.9,5.42,3.61,10.91,6.34,16A41.28,41.28,0,0,0,235,484.72l1.15.72c.45.28,1.05.57.82,1.18-.31.83-1,.45-1.54.22a37.63,37.63,0,0,1-9.09-5.45c-7.52-6.09-12.2-14.08-15.77-22.88a15.65,15.65,0,0,0-1.25-2.41c-1.33-2.11-2.94-4.19-5.67-3.85a8.19,8.19,0,0,0-6.82,4.95c-.77,1.72-1.94,3.24-2.28,5.16-.08.47-.31,1.15-1,1-.46-.11-.61-.64-.63-1.11S192.91,461.32,192.91,460.86Z" transform="translate(-0.41 -0.41)"/><path class="cls-4" d="M267.14,77.67a18.92,18.92,0,0,1,8.34,5.66,9,9,0,0,1,1,1.25.83.83,0,0,1-.06,1.06c-.37.35-.72.06-1-.2-3.55-3.77-8.33-4.26-13.05-4.88-.65-.08-1.45.09-1.68-.8a1.9,1.9,0,0,1,.85-2c1-.82,2-1.59,3-2.43a5.6,5.6,0,0,0-6.26,1.83c-2.31,2.56-5.15,2.54-8.15,2.15-.5-.07-1.17-.1-1.22-.79s.63-.72,1.13-.77A10.33,10.33,0,0,0,256,74.66a9.47,9.47,0,0,1,6.29-2.75c6.81-.24,13.66-.42,20.37.69a54.62,54.62,0,0,1,13.48,3.87c.68.3,2,.5,1.5,1.59s-1.41.32-2.14,0a28.63,28.63,0,0,0-9.22-2.26c-5.64-.43-11.32-1.07-16.92.52A3.12,3.12,0,0,0,267.14,77.67Z" transform="translate(-0.41 -0.41)"/><path class="cls-4" d="M286.61,360.68q-.21,1.34-.42,2.68c-.11.71.36,1.8-.44,2.06-1,.34-1.48-.85-2-1.51a141,141,0,0,1-11.71-17.2c-2.25-4.1-4.2-8.36-6.34-12.51-4.29-8.33-8.12-16.84-10.52-25.94a7.16,7.16,0,0,1-.34-1.31c0-.56-.28-1.36.56-1.49.64-.1.84.59.94,1.09a43.41,43.41,0,0,0,4.06,11c3.33,6.55,6,13.43,10,19.63,2.51,3.86,4.88,7.8,7.4,11.66a63.16,63.16,0,0,0,7.19,9C285.8,358.6,286.87,359.31,286.61,360.68Z" transform="translate(-0.41 -0.41)"/><path class="cls-4" d="M331.16,402.23c0,.76-.1,1.51-.1,2.27s-.18,1.63.68,2,1.47-.26,2-.76A22.13,22.13,0,0,0,340.56,393c.08-.45.13-.9.21-1.34.14-.77-.05-2,1-1.93.93,0,.63,1.19.72,1.9,0,.3,0,.61,0,.91,0,.54.1,1.13.7,1.3s.89-.39,1.21-.81c1.8-2.35,2.24-5.26,3.35-7.9.27-.65-.17-2.09,1.07-1.82,1,.21.58,1.46.44,2.21A38.74,38.74,0,0,1,336.23,408c-4.78,4.15-10.4,6.62-16.39,8.39a3.91,3.91,0,0,1-1.1.24c-.63,0-1.56.49-1.8-.34s.81-.94,1.34-1.26a22.3,22.3,0,0,0,11.18-15.17c.14-.69.14-1.78,1.14-1.64s.5,1.12.54,1.75S331.16,401.47,331.16,402.23Z" transform="translate(-0.41 -0.41)"/><path class="cls-4" d="M170.8,259.86a5.79,5.79,0,0,0-3,1.17c-.75-.1-1.27.38-1.86.71s-1.06,1-1.56.24,0-1.36.62-1.73a25.09,25.09,0,0,1,6-3.16,106.63,106.63,0,0,1,13.55-2.64,23.42,23.42,0,0,0,9-3.6c.57-.37,1.14-1,1.78-.35s0,1.16-.25,1.65a8.53,8.53,0,0,1-1.35,1.79c-1.53,1.47-1.39,2.27.66,3.11,3,1.26,6.25,1.12,9.4.77a21.21,21.21,0,0,0,6.17-1.31c.36-.15.75-.32,1,.06s0,.72-.25,1a6.32,6.32,0,0,1-2.47,1.56,1.72,1.72,0,0,0-1.32,1.65c0,.95.75,1.25,1.48,1.5a32.67,32.67,0,0,0,10.63,2c.68,0,1.85-.39,1.92.59s-1.12.7-1.79.75a31.08,31.08,0,0,1-14.39-2.48,96.92,96.92,0,0,0-12.4-4.31c-7.09-1.92-14.08-1-21.06.56C171.11,259.47,171,259.71,170.8,259.86Z" transform="translate(-0.41 -0.41)"/><path class="cls-4" d="M253,395.54c-.17,1.31-.38,2.65-.53,4-.19,1.76.57,1.94,2,1.22,4.72-2.37,6.81-6.64,8.29-11.35.29-.93.48-1.9.71-2.86.13-.54.31-1.1,1-1,.52.1.61.61.63,1.08a6.36,6.36,0,0,0,0,1.13c.17.69-.85,1.66.14,2s1.5-.77,2-1.52c.87-1.41,1.66-2.88,2.53-4.3.32-.52.39-1.64,1.26-1.26s.26,1.38,0,2a41.52,41.52,0,0,1-6.13,11c-6.48,8.13-15,12.67-25.1,14.53-.68.12-1.74.54-2-.31s.88-1,1.48-1.33c6-3.09,10.16-7.7,12-14.28.17-.59.12-2,1.13-1.54S252.79,394.57,253,395.54Z" transform="translate(-0.41 -0.41)"/><path class="cls-4" d="M319.35,82.68c-.08,5-2.58,8.87-6,12.27-1,1-1.74.64-2.11-.65,0-.14,0-.32-.08-.44-1.39-2.26-2-3.84,1.26-5.54a6,6,0,0,0,2.55-7c-1.09-3.63-4.76-4.68-8.61-2.8-.84.41-1.86,2-2.67.74s.67-2.22,1.6-2.9c2.23-1.61,4.67-3,7.54-2.41C317.72,74.86,319.47,77.33,319.35,82.68Z" transform="translate(-0.41 -0.41)"/><path class="cls-6" d="M262.14,82.88c4.06.21,7.65,2.84,11.11,5.74a1.43,1.43,0,0,1,.56,1.19c-.14,2.92-3.3,6.45-6.3,7a7.93,7.93,0,0,1-8.08-4.28,13.61,13.61,0,0,1-.94-7.36C258.72,83.52,259.68,82.63,262.14,82.88Zm5.24,6.59a1.35,1.35,0,0,0,1.72-.71,1.41,1.41,0,0,0-.56-1.79,12.21,12.21,0,0,0-4.3-2.44c-2.91-.89-3.69-.25-3.36,2.83.1.9.1,1.82.28,2.7.58,2.8,2.77,5.09,5,5.23,1.16.07,2.37,0,2.88-1.28s-.62-1.69-1.35-2.3c-.35-.29-.7-.58-1-.88s-.78-.85-.46-1.37S267,89.39,267.38,89.47Z" transform="translate(-0.41 -0.41)"/><path class="cls-4" d="M321.89,481.26a2,2,0,0,1,.45,0c.8.18,2.14-.49,2.26.74.1,1-1.2.54-1.84.79-7.6,2.92-11.1,7.76-8.5,15.3a21.26,21.26,0,0,0,4,6.81c.27.32.75.69.34,1.15s-.84.1-1.21-.15c-6.23-4.19-10.61-13-5.66-20.14C313.63,483,317.27,481.37,321.89,481.26Z" transform="translate(-0.41 -0.41)"/><path class="cls-4" d="M228.08,440.08c1.87,1.83,1.7,3.88,2.31,5.57,2.08,5.8,3.24,11.94,6.44,17.33.25.42.32.92-.12,1.22s-1,0-1.39-.38c-3-2.89-6.23-5.55-6.17-10.41C229.19,449.15,227.8,445,228.08,440.08Z" transform="translate(-0.41 -0.41)"/><path class="cls-4" d="M230.71,97.21a7.76,7.76,0,0,1-4.74-5.5c-.47-1.6-1.1-3.34-.54-5.11.32-1-.32-1.73-.66-2.56-.57-1.4-.83-2.89.21-4.08s2.6-.83,4-.44,2.36,1.6,3.38,2.58a1.51,1.51,0,0,1,0,2.24c-.74.87-1.49.41-2.22,0a5.26,5.26,0,0,1-.51-.44c-.64-.5-.89-2.12-1.93-1.34s-.27,1.92.42,2.81a2,2,0,0,1,.48,1.7c-.85,3.42.19,6.39,2.08,9.19A.68.68,0,0,1,230.71,97.21Z" transform="translate(-0.41 -0.41)"/><path class="cls-4" d="M248.88,119.09c-2.49.26-4.81-.65-7.2-.94-.45-.05-1.22-.14-1.13-.85s.79-.65,1.29-.66c2.4,0,4.8.23,7.2-.36a3.59,3.59,0,0,0,2.9-2.2c.61-1.64,1.39-1.22,2.24-.18,1.67,2,1.16,3.84-1.31,4.73A9.42,9.42,0,0,1,248.88,119.09Z" transform="translate(-0.41 -0.41)"/><path class="cls-4" d="M242.62,167.53c1.77.06,3.2.94,4.75,1.38a22.48,22.48,0,0,0,6.69.88c.81,0,2.31-.69,2.34.86a2.89,2.89,0,0,1-2.33,3C251.67,174.11,244,170,242.62,167.53Z" transform="translate(-0.41 -0.41)"/><path class="cls-4" d="M262.46,100a25.46,25.46,0,0,1-5.28-1.43c-1.77-.84-3.36-1.66-2.47-4.23.42-1.22.09-2.69.16-4,0-.45.29-.9.86-.86a.77.77,0,0,1,.68.78c.29,4.13,3.07,6.33,6.28,8.21.44.26,1,.58.86,1.19S262.83,100,262.46,100Z" transform="translate(-0.41 -0.41)"/><path class="cls-4" d="M279.52,91.2a8.94,8.94,0,0,1-4.17,5.12c-.82.43-1.79,1.72-2.48,1.05-.86-.83.61-1.61,1-2.39a23.27,23.27,0,0,0,1.87-4.34c.32-1,1.09-1.19,2-.79C278.44,90.16,279.56,89.92,279.52,91.2Z" transform="translate(-0.41 -0.41)"/><path class="cls-6" d="M365.85,113.29l-1,1.59a34.74,34.74,0,0,1-5.16-19.47,45.39,45.39,0,0,1,2.17-12.63c3.36-8.43,8.73-15.26,16.63-19.78,11.62-6.65,23.55-7.47,35.76-1.38a38.58,38.58,0,0,1,12.31,9.49c.37.44,1.1.74.83,1.47s-.88.49-1.38.57c-12.48,1.89-17.61,15.6-11.92,26,.9,1.63,1.76,2.11,3.56.9a27.37,27.37,0,0,0,10.06-12c.75-1.71,2.25-1.89,3.74-2.06a106.17,106.17,0,0,0,17.27-3.66c4.24-1.23,8.38-2.8,12.81-4.18-.56,1.81-1.93,2.51-2.89,3.53-6.42,6.79-12.32,14-16.69,22.27-1.24,2.36-3.64,1.79-5.54,2.43a11.9,11.9,0,0,1-3.38.28c-3.89.11-6.85,2.15-9.66,4.55-.66.57-.59,1-.19,1.75a39.63,39.63,0,0,1,5.14,17.7c.42,11-1.84,21.09-10.54,28.79a20.2,20.2,0,0,1-1.61,1.25c-.09.07-.28,0-.53,0-.35-1.29.33-2.47.47-3.71,1.35-12.32-1.31-23.6-8.61-33.72-.44-.61-.76-.87-1.44-.42-3.79,2.5-7.59,5-11.38,7.48a1.54,1.54,0,0,0-.61,1.4.9.9,0,0,0-.3,1.19c-.44,1.81-1.77,3-3,4.16a.41.41,0,0,0-.56.25l-1.66.82-2.3-.17L385,137.3c-.8-.55-1.27-1.14-.3-2,1-1.2.6-2.54.34-3.86a1,1,0,0,0-.37-1.18,4.82,4.82,0,0,0-2.36-3.09c-1.29-1-2.6-1.78-4.22-.64l-1,0a7.08,7.08,0,0,1,.44-4.67c2.16-2.68,4.69-4.28,8.27-2.88a2,2,0,0,0,1.91-.33c3.2-2.15,6.4-4.29,9.65-6.35,1.32-.84,1.36-1.66.69-3-3-5.81-10.19-9.5-17.34-8.89a16.82,16.82,0,0,0-13.23,8,3.68,3.68,0,0,0-.83,2.07,1.74,1.74,0,0,0-.57,1.83Z" transform="translate(-0.41 -0.41)"/><path class="cls-5" d="M379.78,136.71l-1.18.44c-.81-.14-1,.35-1.06,1-3.93,1.78-7.27,4.53-10.91,6.79-5.09,3.15-10.05,6.51-15,9.85-4.3,2.89-8.74,5.57-13,8.56-3.87,2.73-8,5.1-12,7.66-3.31,2.13-6.58,4.32-9.88,6.46-5.24,3.39-10.53,6.72-15.74,10.17-5.58,3.7-11,7.7-16.68,11.21-3.55,2.18-7,4.53-10.57,6.7-3.4,2.08-6.8,4.28-10,6.66a2.18,2.18,0,0,1-.79.43c-3.9.77-7.67-.16-11.56-1.06,6.88-4.57,13.8-9.09,20.64-13.72,5.79-3.93,11.74-7.61,17.55-11.5s11.86-7.94,17.86-11.79c5.76-3.7,11.42-7.58,17.35-11.06,5.59-3.29,10.78-7.26,16.26-10.75,6.69-4.26,13.14-8.86,19.92-13,5.53-3.37,10.86-7.08,16.29-10.61,3-1.94,5.28-.85,5.88,2.75l.07.52-.21,1.65c-.83.12-1,.86-1.36,1.43l-.74.18c-.47-.06-.68.18-.72.61l0,.07Z" transform="translate(-0.41 -0.41)"/><path class="cls-2" d="M255.17,216c-3.11.38-6.2.63-9.2-.61C249.08,214.91,252.13,215.47,255.17,216Z" transform="translate(-0.41 -0.41)"/><path class="cls-2" d="M377.51,121.94a7.08,7.08,0,0,0-.44,4.67c-.84-.53-.88-.53-.85-1.43C376.27,124,376.11,122.64,377.51,121.94Z" transform="translate(-0.41 -0.41)"/><path class="cls-2" d="M378.09,126.57c1.61-1.13,2.93-.33,4.22.64Z" transform="translate(-0.41 -0.41)"/><path class="cls-2" d="M384.69,135.34c-1,.82-.5,1.41.3,2-1.91.38-1.91-.92-1.94-2.2h0Z" transform="translate(-0.41 -0.41)"/><path class="cls-2" d="M386.22,137.89l2.3.17C387.68,139,386.9,139.14,386.22,137.89Z" transform="translate(-0.41 -0.41)"/><path class="cls-2" d="M366.06,112.4a1.74,1.74,0,0,1,.57-1.83C367.3,111.45,366.64,111.91,366.06,112.4Z" transform="translate(-0.41 -0.41)"/><path class="cls-2" d="M381.62,135.49c.36-.57.53-1.31,1.36-1.43l.05,1.05h0Z" transform="translate(-0.41 -0.41)"/><path class="cls-2" d="M377.54,138.15c.05-.66.25-1.16,1.06-1C378.43,137.67,378.38,138.33,377.54,138.15Z" transform="translate(-0.41 -0.41)"/><path class="cls-2" d="M393.78,132.84a.9.9,0,0,1,.3-1.19C394.39,132.15,394.44,132.58,393.78,132.84Z" transform="translate(-0.41 -0.41)"/><path class="cls-2" d="M384.66,130.31a1,1,0,0,1,.37,1.18C384.43,131.24,384.37,130.83,384.66,130.31Z" transform="translate(-0.41 -0.41)"/><path class="cls-2" d="M380.16,136.29c0-.43.26-.67.72-.61C380.76,136,380.64,136.36,380.16,136.29Z" transform="translate(-0.41 -0.41)"/><path class="cls-2" d="M379.78,136.71l.33-.35C380.17,136.63,380.09,136.78,379.78,136.71Z" transform="translate(-0.41 -0.41)"/><path class="cls-2" d="M390.18,137.24a.41.41,0,0,1,.56-.25A.38.38,0,0,1,390.18,137.24Z" transform="translate(-0.41 -0.41)"/><path class="cls-2" d="M383.19,132.42l-.07-.52a2.12,2.12,0,0,1,.18.35S383.23,132.36,383.19,132.42Z" transform="translate(-0.41 -0.41)"/><path class="cls-5" d="M267.38,89.47c-.41-.08-.91-.52-1.22,0s.05,1,.46,1.37.68.59,1,.88c.73.61,1.85,1.07,1.35,2.3s-1.72,1.35-2.88,1.28c-2.19-.14-4.37-2.43-5-5.23-.18-.88-.18-1.8-.28-2.7-.34-3.08.44-3.72,3.36-2.83a12.21,12.21,0,0,1,4.3,2.44,1.41,1.41,0,0,1,.56,1.79A1.35,1.35,0,0,1,267.38,89.47Z" transform="translate(-0.41 -0.41)"/></svg>