<svg id="Layer_1" data-name="Layer 1" xmlns="http://www.w3.org/2000/svg" viewBox="0 0 560.34 560.35"><defs><style>.cls-1{fill:#fefefe;}.cls-2{fill:#040302;}.cls-3{fill:#824422;}.cls-4{fill:#7d4121;}.cls-5{fill:#f1f1f1;}.cls-6{fill:#e61821;}</style></defs><title>bull</title><path class="cls-1" d="M280.9,561.79q-136,0-271.92.18c-6.15,0-7.36-1.21-7.35-7.35Q1.94,281.8,1.62,9c0-6.14,1.2-7.36,7.35-7.35q272.82.32,545.64,0c6.14,0,7.36,1.2,7.35,7.35q-.32,272.82,0,545.64c0,6.14-1.2,7.37-7.35,7.36Q417.76,561.59,280.9,561.79ZM193.33,316.36c2.46,21.54,10.77,44.65,24.11,63.15,5.91,8.18,5.73,14.53-.27,21.7a15.34,15.34,0,0,0-3.65,10.48c.16,15.68,12.42,31.12,27.55,35.56,3.78,1.11,7.81,1.75,11.09,6,17,21.74,46.56,20.42,62.26-2.24,1.57-2.27,2.73-3.88,6-4.17,25.13-2.18,41.57-31.55,29.2-53.33-4.09-7.2-3.1-12.4.36-18.52,10.64-18.82,20.78-37.81,19.75-60.43-.22-4.88,2.2-4.81,5.47-3,2,1.14,3.79,2.84,5.9,3.76,3,1.3,6.34.7,4.35-3.21-4.38-8.6-.85-17.23-1.35-25.8-.3-5.14,1.58-5,5.88-3.38,20.29,7.76,39.28,6.37,56.41-8.48,5.66-4.9,10.64-9.63,11.36-17.64s-2.29-14.12-10.64-18.48c5.84-2.1,10.47-3.08,14.36-5.32,7.16-4.13,15.79-5.27,21.48-12.54,12.48-16,15.66-34.68,18-53.91.69-5.73-.79-4.65-5.12-3.49-13.62,3.68-25.2,11.59-37.88,17.17-13.42,5.91-26.86,11-42,10.16-11.24-.62-22.62-1.18-33.64-2.55-9-1.11-18.94,1.92-27.33-4.63-9.07-7.09-19.27-8.91-30.39-4.45-1.82.73-4.2,3.06-6.82.46-10.68-10.6-22.79-8.66-34.79-3.09-3.24,1.5-4.89,1.25-7.88-.35-10.3-5.52-20.83-6.6-30.88.9-4.09,3.05-7.67,3.84-13.11,1.8-11.38-4.27-27.08.15-32.83,9.06-2.68,4.15-5.42,4.58-9.41,4.54-11.11-.09-22.6-1.81-33.28.39-30,6.18-53.76-5.21-75.77-23.67-3.82-3.2-6.34-11.13-9.81-9.94-5,1.73-2.6,9.81-5,14.73-.72,1.48-.48,3.52-.38,5.29,1.27,22.21,11.83,39,30.47,50.63,6.06,3.79,12.83,6.45,19.72,9.85-4.58,4.47-8.17,9.3-7.15,16.08,1.38,9.1,7.06,15.44,13.91,20.69,16.22,12.44,34.77,13.8,54,10,6.32-1.23,7.61-.87,6.32,6.38s-3.44,14-5.4,20.91c2.73,1.7,5.37-.11,7.59-.59,2.8,3.14-2.77,5.5.31,8.69Z" transform="translate(-1.62 -1.62)"/><path class="cls-2" d="M193.33,316.36l-8.92,5.21c-3.08-3.19,2.49-5.55-.31-8.69-2.22.48-4.86,2.29-7.59.58,2-6.93,4.12-13.71,5.4-20.9s0-7.61-6.32-6.38c-19.23,3.75-37.78,2.39-54-10-6.85-5.25-12.53-11.59-13.91-20.69-1-6.78,2.57-11.61,7.15-16.08-6.89-3.4-13.66-6.06-19.72-9.85-18.64-11.65-29.2-28.42-30.47-50.63-.1-1.77-.34-3.81.38-5.29,2.38-4.92,0-13,5-14.73,3.46-1.2,6,6.74,9.81,9.94,22,18.45,45.72,29.84,75.77,23.67,10.67-2.19,22.16-.48,33.28-.39,4,0,6.73-.39,9.41-4.54,5.75-8.9,21.44-13.33,32.83-9.06,5.44,2,9,1.26,13.11-1.8,10.05-7.5,20.58-6.42,30.88-.9,3,1.6,4.64,1.85,7.88.35,12-5.57,24.11-7.51,34.79,3.09,2.61,2.6,5,.27,6.82-.46,11.12-4.47,21.32-2.64,30.39,4.45,8.39,6.55,18.36,3.52,27.33,4.63,11,1.36,22.4,1.93,33.64,2.55,15.18.84,28.62-4.25,42-10.16,12.68-5.58,24.26-13.49,37.88-17.17,4.32-1.17,5.8-2.24,5.12,3.49-2.31,19.23-5.49,37.95-18,53.91-5.68,7.27-14.32,8.41-21.48,12.54-3.89,2.24-8.51,3.21-14.36,5.32,8.36,4.36,11.37,10.38,10.64,18.48s-5.7,12.74-11.36,17.64c-17.13,14.85-36.13,16.25-56.41,8.48-4.3-1.65-6.18-1.75-5.88,3.38.5,8.57-3,17.2,1.35,25.8,2,3.91-1.36,4.51-4.35,3.21-2.11-.92-3.87-2.62-5.9-3.76-3.27-1.84-5.69-1.9-5.47,3,1,22.63-9.11,41.62-19.75,60.43-3.46,6.12-4.45,11.32-.36,18.52,12.37,21.78-4.07,51.15-29.2,53.33-3.29.29-4.44,1.89-6,4.17-15.7,22.66-45.3,24-62.26,2.24-3.29-4.21-7.31-4.86-11.09-6-15.13-4.44-27.4-19.88-27.55-35.56a15.34,15.34,0,0,1,3.65-10.48c6-7.17,6.17-13.52.27-21.7C204.1,361,195.79,337.9,193.33,316.36Zm132.35,101c8.34-11.21,8.5-17.68.47-25.85s-16.68-15.94-25.3-23.6A17.69,17.69,0,0,1,295,351c1.06-5.4,7.07-2.23,10.82-2.54,6.53-.54,8.79-4.59,7-9.71-5-14.25-2.18-26.89,5.55-39.24,2.47-3.95,2.7-8.28-1.67-12-6.9-5.88-15-7-23.58-7.41-6.82-.31-13.64-.07-20.51-1.29-9.57-1.7-22.65,5.92-27.19,14.58-1.48,2.83-2.33,6,.09,8.37,11.23,11,10.19,24.7,8.71,38.54-.7,6.51,2.33,9.21,8.19,6.24,5.71-2.89,5.41.36,5.29,3.91-.37,10.79-1.19,21.14-9.29,29.92A74.42,74.42,0,0,0,244.19,402c-1.18,2.85-3.16,5.77.57,9,4.14-5.18,8.07-10,13-13.89,3.72-2.95,6.74-3.36,8.78.65,3.21,6.28,8.29,6.79,14.29,6.56a70.38,70.38,0,0,1,15.19.63c6.69,1.23,11.84.06,15.11-6.27,2.76-5.34,5.28-4.21,8.45-.12C323.62,403.68,324.52,409.8,325.68,417.41ZM242.3,239.68c0-11.73-.92-14.93-6.77-23s-15.7-9.38-23.23-2.62c-4.42,4-8.24,8.63-12.69,12.56-4.24,3.75-4.72,8.84-5.58,13.7s4.2,4.81,6.68,7c1.87,1.64,2.9,4.4,3.93,6.82,1.28,3,2.11,6.18,3.28,9.23,1.06,2.75,3,4.46,6.15,4.13s4.44-2.53,4.85-5.48c.57-4.11,1.3-8.2,1.88-12.3,1.44-10.14,1.63-10.18,10.37-4.53,3.14,2,6.59,6.46,9.79,4.71S241.6,242.74,242.3,239.68ZM354.53,217.1c-11.52-.21-22.46,10.78-20.14,18.4,1.47,4.83.64,7.53-2.84,10.84-3.23,3.07-4.37,7.69-5.78,12-1.06,3.23-.63,5.88,2.24,7.87s4.93-.24,7.28-1.41c13.31-6.62,21.48-20.44,35.86-25.62,1-.36,1.73-2.35,2-3.71,2.41-10.39-.39-14.76-10.77-16.93C358.94,217.79,355.42,217.26,354.53,217.1Zm52.91,57.33c8,.69,14.19-6.25,22-8.51s8.65-8.16,6.3-13.1c-2.91-6.12-7.22-12.66-15.17-13.77a38.84,38.84,0,0,1-16.4-6.68c-3.85-2.59-7.78-2.61-11.94-2.5-2.44.06-5.1.28-5.79,3.1s2.08,3.2,3.8,4.12c9.29,5,16.94,13.42,28.78,13.07,2.35-.07,5.66,1.32,5.58,4.73-.08,3.58-3.64,3.36-6,4.32-5,2-9.34-.38-13.75-2s-8.66-4-13.55-4.34c-5.35-.41-7.92.83-6.08,7.06C388,269,395.33,274.38,407.43,274.44ZM279.82,459c19.6,0,31.91-12.92,29.23-30.88-.53-3.56-1.52-8.16-5.83-7.59-3.9.52-7.92,3.27-6.18,8.86a4,4,0,0,1,.28.85c.42,6.29-.45,11.84-7,15-8.15,3.9-15.55,2.76-22.76-2.32-6.12-4.31-3.81-8.88-1.24-14a6.85,6.85,0,0,0-2.1-8.87c-3.49-2.62-6.16-.17-8.79,1.75-2.3,1.67-3.21,4.25-4,6.85C246.93,444,260.92,458.94,279.82,459ZM142.45,253c11.72-5.73,22.9-11.16,34-16.67,2.81-1.39,7.37-2.24,6.15-6.31s-5.64-1.88-8.65-1.9c-2,0-4,1-6,1.62-8.56,2.5-16.78,6.08-25.66,7.54-7.31,1.21-12.92,5-14.73,12.48-1.62,6.72.5,12.76,6.64,16.15,7.08,3.92,15.11,7.15,22.76,2.5,6.61-4,12.16-9.75,20.41-16.57C164.16,252.31,153.92,265.78,142.45,253Zm89.65,65c-7.26-2-10.09,2-11.78,8.87-1.56,6.33-1.22,12.2.12,18.46,2.16,10.06,10,16.79,14.23,25.63,2.17,4.52,6.8,3.23,9.55-.4a12.83,12.83,0,0,0,1.4-14.28c-4.43-8.81-5.3-18.09-3.81-27.72C242.93,321.36,241.22,316.53,232.1,318ZM89,195.6c6.93,22,16.24,26.33,39.55,27.37,16.1.72,30.14-6.38,45.35-8.79,6.54-1,13.42,2.77,20.39-1.87-12.1-4.46-23.79-2.73-35.23-1.73C134.21,212.76,109.9,213.14,89,195.6Zm290.65,11.52c8.18,2.94,16.5,5.53,24.5,8.9,13.26,5.58,26.9,5.06,40.37,2.31,10.19-2.08,15.73-10.87,22.15-18.75C438.07,209.6,409,206.12,379.69,207.12ZM347.6,328.87c-.25-5.31-11.9-15.33-17-14.57-7.26,1.08-5.1,7.26-6,11.95-2.39,13,1.54,26.86-5.67,39.14-1.69,2.87-.51,5.39,2.16,6.77,3.92,2,4.38-1.74,5.4-3.91a110.25,110.25,0,0,1,11.25-18.17C342.58,343.56,344.84,335.78,347.6,328.87ZM270.34,208.39v-.26c3,0,5.94,0,8.91,0,4.11-.08,5-2.31,4-5.94-3.41-12.08-27.48-20.86-37.52-13.72-1.72,1.23-4.15,2.21-2.52,4.68,4.14,6.29,5.79,15.43,16.49,14.55C263.2,207.41,266.79,208.13,270.34,208.39Zm39.59-2.25c3.87,0,6.56.18,9.22-.05,2.48-.22,5.91,1.36,7.08-1.91.89-2.48-1.65-4.28-3.34-5.88-3.66-3.45-7.59-6.62-11.22-10.1-6-5.73-18.24-8.09-25-4.6-1.69.87-3.55,2.45-2,4.05,5.08,5.15,7.33,12.23,11.85,17.4C299.76,208.77,306.17,205.64,309.93,206.15Zm-58,45.57c7.21,10.39,9,10.61,16.49,2.66q4.91-5.21,9.43-10.78c3.2-3.94,6-5.89,11-1.88,2.72,2.18,7.75,6.92,9.61,4.55,4.41-5.6,8.65-6,14.57-4.08,1.75.57,3-1.49,4.16-2.91,4.71-5.8,9.5-11.52,14.21-17.3,1.25-1.54,3.53-3.3,1.44-5.31-2.37-2.28-4.61-.24-6,1.63a90.17,90.17,0,0,0-6.79,10.53c-3.45,6.29-7.74,9.11-14.38,4.29-2.71-2-5-2.07-6.33,1.44-3.38,9-7.24,4.91-11.52.69-2.59-2.55-5.31-6.53-9.54-1.79s-9.1,8.83-12.55,14C262.13,252.84,258.34,254.81,251.93,251.72Zm109.47-40.2c1.95.26,4.49.53,5.74-2.15,1.7-3.63-.44-6.41-2.81-8.66-8.42-8-18.29-13-30.12-13.45-2.48-.1-6.36,1.13-4.77,3.14,4.12,5.21,5.59,12.94,11.76,15.82S354.32,209.76,361.39,211.52ZM224.24,188.43c-3.42-.06-11.2,3-15.51,6.07-2.53,1.81-4.76,3.95-3.49,7.36s4.26,5.24,7.79,4.42c5.6-1.3,11-1.58,16.58.08,2.6.77,5.54.13,6.64-3C237.59,199.62,228.53,188.51,224.24,188.43ZM333.87,289.07c4.5-1.26,8.73-3,13.11-3.51s7.8-1,6.36-6.69c-1.28-5-3.88-10-9.46-8.55-6.21,1.67-12,5.63-14.53,12.23C327.73,286.66,330,288.68,333.87,289.07ZM227.26,288c3.5-2.55,10.94,3.76,11-4.53.06-5.51-3.24-11.09-10-11.86-4.15-.48-13.8,8.46-13,12C217,290.86,223.45,285.46,227.26,288Zm-2.15,21c5.75-.33,9.06-.22,12.26-.79,2.8-.49,3.44-3,3.38-5.54-.05-2.2-1.47-3.46-3.39-3.29-8.09.73-16-.54-24-1.43-3.55-.4-4.18,1.34-2.15,4.26C215.26,308,220.83,309.8,225.12,309Zm130.47-13.46c-9.34,1-17.47,1.84-25.59,2.78-2.1.24-2.94,1.86-2.91,3.8a4.68,4.68,0,0,0,2.53,4.32C337,310.29,350.44,305.35,355.59,295.51Z" transform="translate(-1.62 -1.62)"/><path class="cls-3" d="M325.68,417.41c-1.16-7.61-2.06-13.73-6.07-18.9-3.17-4.09-5.68-5.22-8.45.12-3.28,6.33-8.42,7.5-15.11,6.27a70.38,70.38,0,0,0-15.19-.63c-6,.22-11.08-.28-14.29-6.56-2-4-5.06-3.59-8.78-.65-5,3.94-8.9,8.71-13,13.89-3.73-3.18-1.75-6.1-.57-9a74.42,74.42,0,0,1,14.21-21.64c8.1-8.78,8.92-19.14,9.29-29.92.12-3.55.42-6.8-5.29-3.91-5.86,3-8.89.28-8.19-6.24,1.48-13.84,2.52-27.5-8.71-38.54-2.42-2.38-1.57-5.54-.09-8.37,4.54-8.66,17.61-16.28,27.19-14.58,6.87,1.22,13.69,1,20.51,1.29,8.61.4,16.68,1.53,23.58,7.41,4.37,3.73,4.14,8.06,1.67,12-7.73,12.35-10.57,25-5.55,39.24,1.8,5.12-.45,9.17-7,9.71-3.75.31-9.76-2.86-10.82,2.54a17.69,17.69,0,0,0,5.87,17c8.62,7.66,17.22,15.38,25.3,23.6S334,406.2,325.68,417.41Zm-43.09-36.75c-2.39,0-4.78,0-7.16,0s-5,.13-6,2.87,1.42,4.37,3.05,5.94a22.31,22.31,0,0,0,5,3.48c7,3.7,12.52-.66,18.26-3.54a2.94,2.94,0,0,0,1.29-4.51C293.58,379.2,287.87,380.54,282.59,380.66Z" transform="translate(-1.62 -1.62)"/><path class="cls-3" d="M242.3,239.68c-.7,3.06,1.9,8.39-1.34,10.16s-6.65-2.68-9.79-4.71c-8.75-5.65-8.93-5.61-10.37,4.53-.58,4.11-1.32,8.19-1.88,12.3-.41,3-1.67,5.14-4.85,5.48s-5.09-1.38-6.15-4.13c-1.17-3-2-6.23-3.28-9.23-1-2.42-2.06-5.18-3.93-6.82-2.48-2.18-7.54-2.1-6.68-7s1.34-10,5.58-13.7c4.45-3.93,8.27-8.59,12.69-12.56,7.53-6.76,17.35-5.53,23.23,2.62S242.34,228,242.3,239.68Z" transform="translate(-1.62 -1.62)"/><path class="cls-4" d="M354.53,217.1c.9.16,4.41.69,7.89,1.41,10.38,2.16,13.18,6.54,10.77,16.93-.31,1.36-1,3.35-2,3.71-14.38,5.18-22.54,19-35.86,25.62-2.35,1.17-4.4,3.41-7.28,1.41s-3.3-4.64-2.24-7.87c1.4-4.27,2.54-8.89,5.78-12,3.48-3.31,4.31-6,2.84-10.84C332.07,227.88,343,216.9,354.53,217.1Z" transform="translate(-1.62 -1.62)"/><path class="cls-4" d="M407.43,274.44c-12.1-.06-19.45-5.47-22.14-14.55-1.85-6.23.73-7.47,6.08-7.06,4.89.38,9.1,2.67,13.55,4.34s8.8,4.07,13.75,2c2.34-1,5.89-.74,6-4.32.08-3.41-3.23-4.8-5.58-4.73-11.85.35-19.49-8.11-28.78-13.07-1.73-.92-4.48-1.35-3.8-4.12s3.35-3,5.79-3.1c4.16-.1,8.09-.09,11.94,2.5a38.84,38.84,0,0,0,16.4,6.68c7.94,1.11,12.25,7.65,15.17,13.77,2.35,4.94,1.53,10.85-6.3,13.1S415.4,275.13,407.43,274.44Z" transform="translate(-1.62 -1.62)"/><path class="cls-5" d="M279.82,459c-18.89,0-32.89-15-28.39-30.39.76-2.6,1.67-5.18,4-6.85,2.63-1.92,5.31-4.37,8.79-1.75a6.85,6.85,0,0,1,2.1,8.87c-2.57,5.16-4.88,9.73,1.24,14,7.21,5.07,14.61,6.21,22.76,2.32,6.58-3.15,7.45-8.7,7-15a4,4,0,0,0-.28-.85c-1.74-5.59,2.28-8.35,6.18-8.86,4.31-.57,5.3,4,5.83,7.59C311.73,446.06,299.42,459,279.82,459Z" transform="translate(-1.62 -1.62)"/><path class="cls-4" d="M142.45,253c11.47,12.75,21.71-.72,35-1.15-8.25,6.82-13.8,12.56-20.41,16.57-7.65,4.64-15.68,1.42-22.76-2.5-6.13-3.39-8.25-9.43-6.64-16.15,1.81-7.5,7.41-11.27,14.73-12.48,8.88-1.46,17.11-5,25.66-7.54,2-.58,4-1.63,6-1.62,3,0,7.44-2.15,8.65,1.9s-3.34,4.92-6.15,6.31C165.35,241.86,154.18,247.3,142.45,253Z" transform="translate(-1.62 -1.62)"/><path class="cls-3" d="M232.1,318c9.12-1.46,10.83,3.37,9.72,10.57-1.49,9.63-.62,18.91,3.81,27.72a12.83,12.83,0,0,1-1.4,14.28c-2.75,3.62-7.38,4.92-9.55.4-4.25-8.84-12.07-15.57-14.23-25.63-1.35-6.26-1.69-12.13-.12-18.46C222,320,224.84,316,232.1,318Z" transform="translate(-1.62 -1.62)"/><path class="cls-5" d="M89,195.6c20.86,17.54,45.17,17.17,70.06,15,11.44-1,23.13-2.73,35.23,1.73-7,4.64-13.85.83-20.39,1.87-15.21,2.41-29.25,9.51-45.35,8.79C105.28,221.93,96,217.63,89,195.6Z" transform="translate(-1.62 -1.62)"/><path class="cls-5" d="M379.69,207.12c29.31-1,58.38,2.48,87-7.54-6.42,7.87-12,16.66-22.15,18.75-13.47,2.75-27.11,3.28-40.37-2.31C396.2,212.65,387.87,210.06,379.69,207.12Z" transform="translate(-1.62 -1.62)"/><path class="cls-4" d="M347.6,328.87c-2.76,6.91-5,14.69-9.83,21.21a110.25,110.25,0,0,0-11.25,18.17c-1,2.17-1.49,5.93-5.4,3.91-2.67-1.38-3.85-3.89-2.16-6.77,7.21-12.29,3.28-26.17,5.67-39.14.87-4.69-1.29-10.87,6-11.95C335.7,313.55,347.35,323.56,347.6,328.87Z" transform="translate(-1.62 -1.62)"/><path class="cls-4" d="M270.34,208.39c-3.55-.26-7.13-1-10.64-.7-10.7.88-12.35-8.26-16.49-14.55-1.62-2.47.8-3.45,2.52-4.68,10-7.14,34.11,1.64,37.52,13.72,1,3.63.12,5.86-4,5.94-3,.06-5.94,0-8.91,0Z" transform="translate(-1.62 -1.62)"/><path class="cls-4" d="M309.93,206.15c-3.76-.51-10.16,2.62-13.4-1.09-4.52-5.17-6.77-12.26-11.85-17.4-1.59-1.61.28-3.19,2-4.05,6.8-3.49,19.06-1.13,25,4.6,3.63,3.48,7.56,6.65,11.22,10.1,1.69,1.59,4.23,3.4,3.34,5.88-1.17,3.27-4.61,1.7-7.08,1.91C316.49,206.33,313.8,206.15,309.93,206.15Z" transform="translate(-1.62 -1.62)"/><path class="cls-4" d="M251.93,251.72c6.41,3.09,10.2,1.12,13.81-4.27,3.45-5.15,8.37-9.3,12.55-14s7-.76,9.54,1.79c4.28,4.23,8.14,8.28,11.52-.69,1.33-3.51,3.62-3.41,6.33-1.44,6.64,4.82,10.93,2,14.38-4.29a90.17,90.17,0,0,1,6.79-10.53c1.4-1.87,3.64-3.91,6-1.63,2.09,2-.18,3.77-1.44,5.31-4.71,5.79-9.51,11.51-14.21,17.3-1.15,1.42-2.41,3.48-4.16,2.91-5.92-1.92-10.16-1.52-14.57,4.08-1.86,2.36-6.89-2.37-9.61-4.55-5-4-7.82-2.06-11,1.88q-4.51,5.56-9.43,10.78C260.92,262.33,259.14,262.1,251.93,251.72Z" transform="translate(-1.62 -1.62)"/><path class="cls-4" d="M361.39,211.52c-7.08-1.76-14.12-2.48-20.19-5.31s-7.64-10.61-11.76-15.82c-1.59-2,2.29-3.24,4.77-3.14,11.82.48,21.69,5.45,30.12,13.45,2.37,2.25,4.51,5,2.81,8.66C365.88,212,363.34,211.78,361.39,211.52Z" transform="translate(-1.62 -1.62)"/><path class="cls-4" d="M224.24,188.43c4.29.08,13.35,11.19,12,15-1.1,3.09-4,3.73-6.64,3-5.6-1.66-11-1.38-16.58-.08-3.53.82-6.51-.94-7.79-4.42s1-5.54,3.49-7.36C213,191.42,220.82,188.37,224.24,188.43Z" transform="translate(-1.62 -1.62)"/><path class="cls-4" d="M333.87,289.07c-3.87-.39-6.14-2.41-4.53-6.52,2.58-6.6,8.33-10.56,14.53-12.23,5.58-1.5,8.18,3.55,9.46,8.55,1.45,5.66-1.83,6.21-6.36,6.69S338.37,287.81,333.87,289.07Z" transform="translate(-1.62 -1.62)"/><path class="cls-4" d="M227.26,288c-3.82-2.51-10.27,2.89-12-4.42-.81-3.53,8.84-12.46,13-12,6.75.77,10.05,6.35,10,11.86C238.2,291.73,230.77,285.42,227.26,288Z" transform="translate(-1.62 -1.62)"/><path class="cls-6" d="M225.12,309c-4.29.84-9.86-1-13.91-6.79-2-2.92-1.4-4.65,2.15-4.26,8,.89,15.91,2.15,24,1.43,1.92-.17,3.34,1.1,3.39,3.29.06,2.57-.57,5-3.38,5.54C234.18,308.74,230.86,308.64,225.12,309Z" transform="translate(-1.62 -1.62)"/><path class="cls-6" d="M355.59,295.51c-5.15,9.84-18.58,14.78-26,10.91a4.68,4.68,0,0,1-2.53-4.32c0-1.95.81-3.56,2.91-3.8C338.12,297.34,346.25,296.51,355.59,295.51Z" transform="translate(-1.62 -1.62)"/><path class="cls-2" d="M282.59,380.66c5.28-.11,11-1.46,14.52,4.25a2.94,2.94,0,0,1-1.29,4.51c-5.74,2.88-11.28,7.23-18.26,3.54a22.31,22.31,0,0,1-5-3.48c-1.64-1.57-4-3.11-3.05-5.94s3.53-2.85,6-2.87S280.2,380.66,282.59,380.66Z" transform="translate(-1.62 -1.62)"/></svg>