<svg id="Layer_1" data-name="Layer 1" xmlns="http://www.w3.org/2000/svg" viewBox="0 0 560.34 560.35"><defs><style>.cls-1{fill:#fefefe;}.cls-2{fill:#0e0f0e;}.cls-3{fill:#3c763c;}.cls-4{fill:#3b733b;}.cls-5{fill:#f2f2f2;}.cls-6{fill:#cf8181;}</style></defs><title>greenbull</title><path class="cls-1" d="M280.9,561.79q-136,0-271.92.18c-6.15,0-7.36-1.21-7.35-7.35Q1.94,281.8,1.62,9c0-6.14,1.2-7.36,7.35-7.35q272.82.32,545.64,0c6.14,0,7.36,1.2,7.35,7.35q-.32,272.82,0,545.64c0,6.14-1.2,7.37-7.35,7.36Q417.76,561.59,280.9,561.79ZM193.42,316.17a134.35,134.35,0,0,0,24.19,63.53c5.57,7.84,5.68,14.12-.08,21a16.64,16.64,0,0,0-4,12.16c.79,15.47,12.86,30,27.8,34.53,3.5,1,7.33,1.37,10.46,5.36,17.46,22.28,46.49,21.11,62.76-2.11,1.69-2.41,3.12-3.61,6.23-3.83,24.52-1.74,41.4-32.46,28.74-53.7-4.42-7.41-2.71-12.63.63-18.51C360.7,356,370.6,337.3,369.75,315c-.19-5,1.79-5.84,5.77-3.15a35.29,35.29,0,0,0,5.19,3.25c1.26.56,3.09,1,4.2.48,1.51-.7,1.26-2.67.52-4-4.61-8.1-.89-16.6-1.32-24.89-.29-5.56,1.49-5.36,6.28-3.55,17.87,6.76,35.52,6.52,51.57-5.15,8.53-6.2,16.82-12.65,15.95-25.37-.48-7-5.5-10.25-9.59-14.64,6.36-2.49,12.32-4.21,17.67-7.07,6-3.19,12.57-4.76,17.32-10.93,12.4-16.11,15.4-34.87,17.72-54,.61-5-1.21-3.86-4.94-2.92-13.73,3.45-25.29,11.45-38,17.09-13.71,6.11-27.45,11.18-42.92,10.24-11.23-.68-22.61-1.22-33.64-2.57-8.36-1-17.55,1.78-25.64-4.24-9.48-7.06-20.24-10-32-4.41-1.45.69-4,2.36-6.15.18-10.64-10.74-22.74-8.65-34.75-3.28-3.17,1.42-4.83,1.47-7.87-.2-10.28-5.65-20.83-6.73-30.89.78-4.14,3.09-7.79,3.8-13.13,1.86-11.37-4.13-27.15.17-32.86,9-2.67,4.11-5.36,4.64-9.38,4.6-11.12-.1-22.61-1.81-33.28.38-30.05,6.18-53.78-5.2-75.8-23.65-3.82-3.2-6.38-11.13-9.81-9.94-5,1.74-2.61,9.82-5,14.74-.72,1.48-.48,3.52-.37,5.29,1.29,22.21,11.93,38.84,30.45,50.71,6.08,3.9,12.78,6.59,19.94,9.27-3.14,4.13-7,7-7.38,12.15-.76,11.46,6,18.87,14,25.11,16.18,12.5,34.74,13.71,54,10,5.11-1,7.62-1.39,6.4,5.67a158.77,158.77,0,0,1-5.54,21.65c2.79,1.85,5.42-.41,7.54-.54,2.81,3.14-2.92,5.52.55,8.66Z" transform="translate(-1.62 -1.62)"/><path class="cls-2" d="M193.42,316.17l-8.79,5.43c-3.47-3.14,2.26-5.52-.55-8.66-2.11.13-4.75,2.39-7.54.54a158.77,158.77,0,0,0,5.54-21.65c1.22-7.05-1.29-6.65-6.4-5.67-19.26,3.7-37.83,2.49-54-10-8.08-6.24-14.79-13.65-14-25.11.34-5.13,4.24-8,7.38-12.15-7.16-2.69-13.86-5.37-19.94-9.27-18.52-11.87-29.16-28.5-30.45-50.71-.1-1.77-.34-3.81.37-5.29,2.37-4.92,0-13,5-14.74,3.43-1.19,6,6.74,9.81,9.94,22,18.45,45.75,29.83,75.8,23.65,10.67-2.19,22.17-.48,33.28-.38,4,0,6.72-.49,9.38-4.6,5.72-8.81,21.49-13.12,32.86-9,5.34,1.94,9,1.23,13.13-1.86,10.05-7.51,20.61-6.44,30.89-.78,3,1.68,4.7,1.62,7.87.2,12-5.37,24.11-7.47,34.75,3.28,2.15,2.17,4.7.5,6.15-.18,11.75-5.57,22.5-2.65,32,4.41,8.09,6,17.27,3.22,25.64,4.24,11,1.35,22.4,1.89,33.64,2.57,15.48.94,29.22-4.13,42.92-10.24,12.66-5.64,24.22-13.64,38-17.09,3.73-.94,5.55-2.11,4.94,2.92-2.32,19.18-5.32,37.94-17.72,54-4.74,6.16-11.35,7.73-17.32,10.93-5.35,2.86-11.31,4.59-17.67,7.07,4.09,4.39,9.11,7.67,9.59,14.64.88,12.72-7.42,19.18-15.95,25.37-16,11.67-33.69,11.9-51.57,5.15-4.79-1.81-6.57-2-6.28,3.55.43,8.29-3.28,16.79,1.32,24.89.74,1.3,1,3.27-.52,4-1.11.51-2.94.09-4.2-.48a35.29,35.29,0,0,1-5.19-3.25c-4-2.69-6-1.88-5.77,3.15.85,22.3-9,41-19.59,59.62-3.34,5.88-5,11.1-.63,18.51,12.66,21.24-4.22,52-28.74,53.7-3.11.22-4.54,1.42-6.23,3.83-16.26,23.22-45.29,24.39-62.76,2.11-3.12-4-7-4.31-10.46-5.36-14.94-4.48-27-19.06-27.8-34.53a16.64,16.64,0,0,1,4-12.16c5.75-6.89,5.65-13.17.08-21A134.35,134.35,0,0,1,193.42,316.17ZM326,417.4c8.1-12.49,7.9-18.16-.79-26.79q-11.63-11.55-24-22.31a17.84,17.84,0,0,1-6.26-16.83c1.06-6.18,7.38-2.53,11.32-3,5.91-.77,8.29-4.54,6.67-9.26-5-14.5-2.55-27.43,5.56-40.08,2.12-3.31,2.61-8.33-1.69-11.31-6.49-4.5-13.37-7.72-21.7-7.74a162.32,162.32,0,0,1-23.17-1.33c-11.89-1.73-19.62,6-26.31,14.53-1.93,2.45-2.61,6-.21,8.32,11.7,11.28,10.11,25.23,8.71,39.36-.58,5.85,2.41,9,8.11,5.8,5.26-3,5.54-.35,5.43,3.61-.31,10.79-1.1,21.1-9.17,29.91a75.4,75.4,0,0,0-14.23,21.61c-1.18,2.83-3.27,5.72-.8,8,5-4.53,9.67-8.69,14.27-12.93,3.36-3.11,6.9-3.16,8.92.84,3.2,6.34,8.38,6.7,14.32,6.46,5.37-.22,11-.87,16.08.33,6.69,1.57,11-.11,14.15-5.91,2.85-5.32,5.31-4.05,8.48,0C323.69,403.69,324.27,409.89,326,417.4ZM242.18,239.25c2.11-8.85-2.16-15.84-6.72-22.52-5.75-8.42-15.6-9.5-23.22-2.62a168.6,168.6,0,0,0-13.9,14c-6,6.8-5.08,13.41,2,18.67,2.31,1.71,3.25,4.22,4.16,6.75,1.11,3.09,2,6.24,3.19,9.31s3.25,5.14,6.79,4.54c3.16-.54,4.14-2.92,4.49-5.87.45-3.84,1.26-7.63,1.79-11.46,1.44-10.35,1.82-10.53,10.2-5.07,3.17,2.06,6.64,6.46,9.81,4.93C244.29,248.21,241.5,242.84,242.18,239.25Zm109.76-22.16c-8.9-.13-19.79,10.72-17.55,18.4,1.41,4.82.63,7.51-2.85,10.83-3.21,3.06-4.32,7.7-5.76,12-1.11,3.27-.57,5.85,2.24,7.86s4.94-.2,7.28-1.36c13.3-6.59,21.49-20.36,35.83-25.53.87-.32,1.53-1.78,1.91-2.85,3.2-9.15-.77-15.61-10.53-17.92A41.46,41.46,0,0,0,351.94,217.08ZM309.1,432.32c.09-3.81,1-11.16-5.56-11.64s-7.2,5.73-6.25,11.85-2.22,10.83-8.26,13.3c-8.36,3.42-15.79,1.69-22.57-3.84-5-4.11-2.44-8.25-.3-12.75,1.61-3.39,1.26-7.15-2.41-9.49s-6.37.22-8.66,2.42a15.06,15.06,0,0,0-3.51,6.08c-4.1,12.59,1.63,21.87,17.4,28.56C287.66,464.71,307.67,453.25,309.1,432.32Zm85.74-202.53c-3.09.33-7.3-.9-8.23,3.3-.76,3.42,3.3,3.64,5.41,4.93,8.53,5.23,16.09,12.51,27.25,12.22,2.3-.06,5.63,1.38,5.39,4.88-.2,3-3.26,2.92-5.35,3.89-5,2.32-9.32-.05-13.79-1.55-4.23-1.42-8.34-3.22-12.65-4.33-2.49-.64-5.54-1-7.44,1.54s-.19,5.36.72,7.65c3.36,8.41,14.18,13.23,23.93,11.82,8.59-1.24,15.09-6.88,22.75-10,4.91-2,4.94-8.13,2.64-11.79-3.51-5.59-7-12.13-14.84-13.14-6.1-.79-11.25-3.84-16.5-6.63C401.21,231,398.34,229.44,394.84,229.79ZM142.29,253c11.76-5.7,22.94-11.07,34.08-16.53,2.82-1.38,7.36-2.22,6.25-6.28s-5.59-1.92-8.59-2c-1.69-.07-3.42.86-5.13,1.37-10,3-19.86,6.23-29.9,9-7.35,2-10.92,6.76-11.62,14-.74,7.64,3.35,12.36,10,15.09,13.29,5.44,26.9-.08,37.86-16.22C163.91,253.33,154.05,265.11,142.29,253Zm88.92,64.82c-6.52-1.88-9,2.24-10.73,8.59a38.19,38.19,0,0,0-.15,18.45c2,9.5,9.36,15.81,13.06,24.2,1.22,2.76,2.85,4.57,6,4.37a7.12,7.12,0,0,0,6.1-4.66c1.84-4.2,2.3-8.38,0-12.86-4.27-8.44-5.17-17.49-3.74-26.81C243.13,320.08,241.17,317.81,231.21,317.79ZM89.07,195.21c5.7,24.34,22.88,28,43.7,27.75,14.46-.15,27-6.76,40.85-8.75,6.69-1,13.65,2.69,20.16-1.45-2.92-2.22-6.13-2.53-9.39-2.78-10.15-.78-20.21.45-30.32,1.09C131.06,212.53,108.22,212.57,89.07,195.21ZM379.7,207.13c8.17,2.94,16.49,5.53,24.49,8.89,13.26,5.58,26.89,5.07,40.36,2.31,10.18-2.09,15.74-10.86,22.16-18.73C438.08,209.65,409,206.06,379.7,207.13Zm-32,122.41c-.89-6.78-5.42-9.32-9.63-12.1-3-2-6.11-4.55-9.8-2.67s-3.15,5.89-3.62,9.44c-1.85,13.93,1.24,28.55-5.91,41.76-1.62,3,.27,5.24,2.94,6.43,2.84,1.26,3.56-1.38,4.35-3.15,3.3-7.38,8.23-13.72,12.51-20.49C342.49,342.56,345,335.45,347.73,329.54ZM270.14,208.6l0-.46c3,0,6,0,8.95,0,4.11,0,5.08-2.24,4.1-5.91-3.25-12.09-27.87-20.87-37.89-13.52-1.49,1.09-3.63,2.41-2.24,4.09,4.36,5.27,4.3,15,14.66,14.45C261.86,207,266,208.11,270.14,208.6Zm39.9-2.4c4.08,0,7.06.12,10,0,2.21-.12,5.19,1,6.18-2,.73-2.22-1.25-3.85-2.75-5.25-3.9-3.63-8-7-11.85-10.72-5.92-5.72-18.16-8.09-25-4.59-1.69.86-3.53,2.42-2,4.07,4.86,5.27,7.71,11.89,12,17.34C299.57,208.82,306.2,205.64,310,206.2Zm-59,45.38c8,10.47,9.92,10.71,17.45,2.8,3.28-3.45,6.38-7.07,9.37-10.78,3.2-4,6-5.68,11-1.83,4,3,9.19,8.85,14.13.1,1.34-2.37,4.27-1.13,6.55-.19,2.74,1.13,5.16.84,7.18-1.67,5-6.26,10.21-12.43,15.3-18.65,1.13-1.38,2.53-3,.94-4.69-1.94-2-4.13-.8-5.38.87a129.61,129.61,0,0,0-7.87,11.9c-3.2,5.47-7.31,8.22-13.12,4.17-4.17-2.91-6.4-1.93-8.05,2.4-1.77,4.66-5,5.55-7.94,1.68-6.52-8.54-10.68-5.88-17.23.84C267.55,244.48,264.84,257.06,251,251.57Zm83.6-63.94c-2.35.33-7.57.17-4.53,4.21,5.32,7.05,8.39,17.5,20.44,17,2.84-.12,5.75,1.39,8.63,2.16s6.15,1.75,7.93-1.66-.4-6.52-2.83-8.66C355.88,193.21,346.76,187.14,334.63,187.63Zm-112.06.79c-4.83.36-10,4-15.2,7.24a4.86,4.86,0,0,0-2.14,6.2c1.26,3,3.72,5.08,6.94,4.42a38.92,38.92,0,0,1,18.31.1,4.58,4.58,0,0,0,5.77-3C237.51,199.68,228.43,188.51,222.57,188.42ZM334,289c4.37-1.21,8.61-3,13-3.42,4.62-.44,7.75-1.18,6.35-6.74-1.26-5-3.94-10-9.48-8.54-6.2,1.66-11.91,5.69-14.53,12.22C327.67,286.63,330,288.64,334,289Zm-106.78-1.11c3.55-2.43,10.92,3.65,11.06-4.53.09-5.53-3.33-11-10-11.8-4.1-.5-13.7,8.41-12.93,11.93C217,290.84,223.43,285.46,227.22,287.87Zm-21,10.77c5.89,13,15.8,10.72,25.14,9.79,2.45-.24,5.81.19,5.91-3.76.11-4.14-2.58-5.89-6.23-6C223.13,298.52,215.23,298.64,206.21,298.64Zm132,8.52c5.29-.08,10.89.79,14.7-4.3,1.21-1.62,3.19-3.1,2.54-5.37-.77-2.66-3.4-1.81-5.31-2-6.31-.67-12.39,1-18.53,2.06-2.66.45-5.58.41-5.4,4.33.16,3.68,2.25,5.28,5.76,5.3C334,307.17,336.09,307.16,338.17,307.16Z" transform="translate(-1.62 -1.62)"/><path class="cls-3" d="M326,417.4c-1.74-7.5-2.31-13.7-6.34-18.82-3.18-4-5.63-5.31-8.48,0-3.11,5.8-7.46,7.48-14.15,5.91-5.11-1.2-10.71-.55-16.08-.33-5.95.24-11.12-.12-14.32-6.46-2-4-5.56-3.95-8.92-.84-4.59,4.25-9.27,8.41-14.27,12.93-2.47-2.24-.38-5.13.8-8a75.4,75.4,0,0,1,14.23-21.61c8.07-8.82,8.86-19.12,9.17-29.91.11-4-.17-6.58-5.43-3.61-5.7,3.22-8.69.05-8.11-5.8,1.4-14.13,3-28.08-8.71-39.36-2.41-2.32-1.72-5.87.21-8.32C252.3,284.71,260,277,271.92,278.7A162.32,162.32,0,0,0,295.09,280c8.33,0,15.21,3.24,21.7,7.74,4.3,3,3.81,8,1.69,11.31-8.11,12.65-10.56,25.59-5.56,40.08,1.63,4.72-.76,8.49-6.67,9.26-3.94.51-10.26-3.14-11.32,3a17.84,17.84,0,0,0,6.26,16.83q12.38,10.74,24,22.31C333.9,399.23,334.11,404.91,326,417.4Zm-28.44-31.55a8.06,8.06,0,0,0-7.34-5.27c-4.17-.16-8.35-.1-12.53,0-3.13.11-7.29-1-8.18,3.4-.76,3.73,2.86,5.68,5.3,7.63a15.56,15.56,0,0,0,6.52,2.73C286.48,395.42,297.91,389.41,297.56,385.85Z" transform="translate(-1.62 -1.62)"/><path class="cls-3" d="M242.18,239.25c-.68,3.59,2.11,9-1.4,10.65-3.17,1.53-6.64-2.87-9.81-4.93-8.38-5.46-8.76-5.28-10.2,5.07-.53,3.83-1.34,7.62-1.79,11.46-.35,3-1.33,5.33-4.49,5.87-3.54.6-5.64-1.45-6.79-4.54s-2.08-6.22-3.19-9.31c-.91-2.53-1.85-5-4.16-6.75-7.08-5.25-8-11.87-2-18.67a168.6,168.6,0,0,1,13.9-14c7.62-6.88,17.47-5.8,23.22,2.62C240,223.41,244.29,230.4,242.18,239.25Z" transform="translate(-1.62 -1.62)"/><path class="cls-4" d="M351.94,217.09a41,41,0,0,1,10.57,1.37c9.76,2.32,13.73,8.77,10.53,17.92-.37,1.07-1,2.53-1.91,2.85-14.34,5.17-22.53,18.94-35.83,25.53-2.34,1.16-4.41,3.42-7.28,1.36s-3.34-4.59-2.24-7.86c1.44-4.26,2.55-8.89,5.76-12,3.48-3.32,4.26-6,2.85-10.83C332.15,227.8,343,217,351.94,217.09Z" transform="translate(-1.62 -1.62)"/><path class="cls-5" d="M309.1,432.32c-1.44,20.93-21.44,32.4-40.12,24.48-15.77-6.68-21.5-16-17.4-28.56a15.06,15.06,0,0,1,3.51-6.08c2.28-2.2,5-4.74,8.66-2.42s4,6.1,2.41,9.49c-2.13,4.5-4.73,8.64.3,12.75,6.77,5.53,14.2,7.26,22.57,3.84,6-2.47,9.22-7.11,8.26-13.3s-.25-12.33,6.25-11.85S309.19,428.51,309.1,432.32Z" transform="translate(-1.62 -1.62)"/><path class="cls-4" d="M394.84,229.79c3.5-.35,6.37,1.2,9.3,2.76,5.26,2.79,10.4,5.84,16.5,6.63,7.82,1,11.33,7.55,14.84,13.14,2.3,3.66,2.26,9.76-2.64,11.79-7.66,3.16-14.15,8.8-22.75,10-9.76,1.41-20.57-3.42-23.93-11.82-.92-2.29-2.65-5-.72-7.65s5-2.18,7.44-1.54c4.3,1.11,8.42,2.91,12.65,4.33,4.47,1.5,8.82,3.87,13.79,1.55,2.09-1,5.15-.88,5.35-3.89.23-3.49-3.1-4.94-5.39-4.88-11.16.29-18.72-7-27.25-12.22-2.11-1.29-6.17-1.51-5.41-4.93C387.54,228.89,391.75,230.12,394.84,229.79Z" transform="translate(-1.62 -1.62)"/><path class="cls-4" d="M142.29,253c11.76,12.14,21.62.36,33-1.68-11,16.15-24.57,21.66-37.86,16.22-6.67-2.73-10.77-7.45-10-15.09.7-7.19,4.27-12,11.62-14,10-2.72,19.94-6,29.9-9,1.7-.51,3.44-1.44,5.13-1.37,3,.12,7.45-2.11,8.59,2s-3.43,4.9-6.25,6.28C165.23,241.9,154.06,247.27,142.29,253Z" transform="translate(-1.62 -1.62)"/><path class="cls-3" d="M231.21,317.79c10,0,11.92,2.29,10.54,11.27-1.43,9.32-.54,18.38,3.74,26.81,2.27,4.48,1.82,8.66,0,12.86a7.12,7.12,0,0,1-6.1,4.66c-3.13.2-4.76-1.61-6-4.37-3.7-8.39-11.08-14.69-13.06-24.2a38.19,38.19,0,0,1,.15-18.45C222.19,320,224.69,315.91,231.21,317.79Z" transform="translate(-1.62 -1.62)"/><path class="cls-5" d="M89.07,195.21c19.14,17.36,42,17.31,65,15.85,10.11-.64,20.16-1.87,30.32-1.09,3.26.25,6.47.56,9.39,2.78-6.51,4.15-13.47.49-20.16,1.45-13.83,2-26.4,8.6-40.85,8.75C112,223.18,94.77,219.56,89.07,195.21Z" transform="translate(-1.62 -1.62)"/><path class="cls-5" d="M379.7,207.13c29.3-1.07,58.37,2.52,87-7.52-6.42,7.86-12,16.64-22.16,18.73-13.47,2.76-27.1,3.27-40.36-2.31C396.2,212.65,387.88,210.06,379.7,207.13Z" transform="translate(-1.62 -1.62)"/><path class="cls-4" d="M347.73,329.54c-2.75,5.91-5.24,13-9.16,19.22-4.28,6.77-9.21,13.11-12.51,20.49-.79,1.77-1.51,4.42-4.35,3.15-2.66-1.18-4.56-3.44-2.94-6.43,7.16-13.21,4.07-27.83,5.91-41.76.47-3.55,0-7.57,3.62-9.44s6.83.7,9.8,2.67C342.31,320.22,346.84,322.76,347.73,329.54Z" transform="translate(-1.62 -1.62)"/><path class="cls-4" d="M270.14,208.6c-4.13-.49-8.28-1.56-12.38-1.35-10.36.52-10.3-9.19-14.66-14.45-1.39-1.68.75-3,2.24-4.09,10-7.35,34.64,1.43,37.89,13.52,1,3.67,0,5.86-4.1,5.91-3,0-6,0-8.95,0Z" transform="translate(-1.62 -1.62)"/><path class="cls-4" d="M310,206.2c-3.85-.56-10.47,2.63-13.44-1.18-4.25-5.45-7.1-12.07-12-17.34-1.52-1.65.32-3.2,2-4.07,6.83-3.49,19.08-1.13,25,4.59,3.83,3.7,8,7.09,11.85,10.72,1.5,1.4,3.48,3,2.75,5.25-1,3-4,1.87-6.18,2C317.1,206.32,314.12,206.2,310,206.2Z" transform="translate(-1.62 -1.62)"/><path class="cls-4" d="M251,251.57c13.81,5.49,16.52-7.09,22.33-13,6.56-6.72,10.71-9.38,17.23-.84,3,3.87,6.16,3,7.94-1.68,1.65-4.33,3.88-5.31,8.05-2.4,5.81,4.05,9.92,1.3,13.12-4.17a129.61,129.61,0,0,1,7.87-11.9c1.25-1.67,3.45-2.9,5.38-.87,1.59,1.67.19,3.31-.94,4.69-5.09,6.23-10.25,12.4-15.3,18.65-2,2.51-4.44,2.8-7.18,1.67-2.28-.94-5.22-2.18-6.55.19-4.94,8.75-10.15,2.93-14.13-.1-5-3.85-7.8-2.14-11,1.83-3,3.7-6.09,7.33-9.37,10.78C261,262.29,259.07,262,251,251.57Z" transform="translate(-1.62 -1.62)"/><path class="cls-4" d="M334.63,187.63c12.13-.49,21.24,5.58,29.64,13,2.43,2.15,4.68,5.11,2.83,8.66s-5,2.45-7.93,1.66-5.79-2.28-8.63-2.16c-12,.52-15.11-9.92-20.44-17C327.06,187.8,332.28,188,334.63,187.63Z" transform="translate(-1.62 -1.62)"/><path class="cls-4" d="M222.57,188.42c5.87.09,14.94,11.26,13.68,15a4.58,4.58,0,0,1-5.77,3,38.92,38.92,0,0,0-18.31-.1c-3.22.67-5.68-1.43-6.94-4.42a4.86,4.86,0,0,1,2.14-6.2C212.6,192.41,217.74,188.78,222.57,188.42Z" transform="translate(-1.62 -1.62)"/><path class="cls-4" d="M334,289c-4-.35-6.33-2.36-4.68-6.47,2.62-6.53,8.33-10.56,14.53-12.22,5.53-1.48,8.22,3.54,9.48,8.54,1.4,5.55-1.73,6.29-6.35,6.74C342.61,286,338.37,287.78,334,289Z" transform="translate(-1.62 -1.62)"/><path class="cls-4" d="M227.22,287.87c-3.79-2.41-10.22,3-11.84-4.4-.77-3.52,8.83-12.43,12.93-11.93,6.64.82,10.06,6.26,10,11.8C238.15,291.52,230.78,285.44,227.22,287.87Z" transform="translate(-1.62 -1.62)"/><path class="cls-6" d="M206.21,298.64c9,0,16.92-.12,24.82.05,3.65.08,6.34,1.84,6.23,6-.11,4-3.46,3.52-5.91,3.76C222,309.36,212.11,311.65,206.21,298.64Z" transform="translate(-1.62 -1.62)"/><path class="cls-6" d="M338.17,307.16c-2.08,0-4.16,0-6.24,0-3.52,0-5.6-1.62-5.76-5.3-.17-3.91,2.75-3.88,5.4-4.33,6.14-1,12.22-2.73,18.53-2.06,1.91.2,4.54-.65,5.31,2,.65,2.27-1.33,3.75-2.54,5.37C349.06,307.95,343.46,307.08,338.17,307.16Z" transform="translate(-1.62 -1.62)"/><path class="cls-2" d="M297.56,385.85c.34,3.56-11.09,9.58-16.23,8.55a15.56,15.56,0,0,1-6.52-2.73c-2.45-2-6.06-3.91-5.3-7.63.89-4.36,5-3.29,8.18-3.4,4.17-.15,8.36-.21,12.53,0A8.06,8.06,0,0,1,297.56,385.85Z" transform="translate(-1.62 -1.62)"/></svg>