<?xml version="1.0" encoding="utf-8"?>
<!-- Generator: Adobe Illustrator 21.1.0, SVG Export Plug-In . SVG Version: 6.00 Build 0)  -->
<svg version="1.1" id="Layer_1" xmlns="http://www.w3.org/2000/svg" xmlns:xlink="http://www.w3.org/1999/xlink" x="0px" y="0px"
	 viewBox="0 0 560 560" style="enable-background:new 0 0 560 560;" xml:space="preserve">
<style type="text/css">
	.st0{fill:#FDFDFD;}
	.st1{fill:#9ED8AF;}
	.st2{fill:#060606;}
	.st3{fill:#CFEAD7;}
	.st4{fill:#8FA395;}
	.st5{fill:#FE0000;}
</style>
<g>
	<g>
		<path class="st0" d="M285.4,0.8c92.4,0,184.9,0,277.3-0.1c2.9,0,3.6,0.7,3.6,3.6c-0.1,184.3-0.1,368.7,0,553
			c0,2.9-0.7,3.6-3.6,3.6c-184.9-0.1-369.7-0.1-554.6,0c-2.9,0-3.6-0.7-3.6-3.6c0.1-184.3,0.1-368.7,0-553c0-2.9,0.7-3.6,3.6-3.6
			C100.6,0.8,193,0.8,285.4,0.8z M465.1,114.3c0.3-0.3,0.5-0.5,0.8-0.8c0.6-0.4,1-0.8,0.8-1.6c1.4-0.1,1.9-0.9,2-2.4
			c-1.2,0.5-1.7,1.4-1.9,2.4c-0.7,0.3-0.8,0.9-0.7,1.6C465.7,113.8,465.4,114.1,465.1,114.3L465.1,114.3
			C465,114.4,465.1,114.3,465.1,114.3z M472.9,105c-1.7,0.8-3.2,1.8-3.8,4.1C471.2,108.1,472,106.5,472.9,105L472.9,105L472.9,105z
			 M361.7,61.5c-0.8,0-1.6-0.1-2.1,0.6c-2.5,3.6-5.6,6.7-7.7,10.5c-0.9,1.7-1.2,3.4-1,5.2c-0.2,0.3-0.3,0.6-0.5,0.9
			c-2.3-2.5-1.7-5.8-2.6-8.8c-0.4-1.4-0.3-2.8-2-3.1c-0.6-4.8,0.2-9.8-2.1-14.7c-1,0.9-1.8,1.5-2.4,2.3
			c-5.8,7.6-11.9,15.1-13.8,24.8c-0.2,0.9-0.1,2.4-1.5,2.3c-1.3-0.2-2.3-1.1-2.4-2.6c0-0.6-0.1-1.3,0-1.9c0.6-5.6-1.3-11-1.1-16.6
			c0.1-2-0.6-4-2-5.9c-8.2,7.7-11.5,17.8-14.9,27.7c-1-9.2,1.2-18.6-4.2-27.8c-4.8,9.6-10.9,17.9-12.3,28.3
			c-0.2,1.5,0.1,3.4-2.1,3.6c-1.6,0.1-2.6-1.2-2.9-2.7c-1.7-9.1-10.2-12.8-15.1-19.7c-7.1,12.4-11,24.9-10.7,38.6
			c0.2,10.1,0.2,20.2,0.3,30.3c0,2-0.1,3.9-1,5.7c-2.8,5.7-6.1,11.1-10.3,15.9c-3.9,4.5-8.1,8.8-11.4,13.8
			c-14.5,22-35.5,34.2-60.3,40.7c-6.2,1.6-12.9,1.6-18.8,4.6c-4.5,2.3-9.3,3.8-14.5,4.2c-2.9,0.2-5.4,1.7-7.6,3.5
			c-3.8,3.1-7.1,1.8-7.8-3.1c-0.3-1.8-0.3-3.6,0-5.4c1.5-10.6,0-21.3,0.9-32.6c-4.7,3.2-8.2,6.7-11,10.7
			c-7.9,11-16.8,21.7-14.9,36.7c0.4,3.5-1.8,5.1-5.4,5c-10.4-0.2-20.7,1.4-31,1.7c-1.4,0-3.2-0.3-3.8,1.8c-2.3,9-4.4,18.1-1.2,27.1
			c2.8,7.8,6.9,15.1,11.3,22.1c2.5,4.1,6.2,7.4,10.3,9.9c2.5,1.5,5.1,3.1,8.3,2.9c7.5-0.4,15-1.3,22.4-2.3
			c9.2-1.2,17.4-6.9,27.1-5.1c0.1,0,0.3,0,0.4-0.1c5.3-2.9,9.3-0.2,13.4,3c5,3.9,10.7,6.7,16.3,9.8c2.5,1.4,5.2,1.3,7.9,1.2
			c8.9-0.3,16.4-4.1,23.5-9.1c4.2-3,5.6-2.9,9.6,0.3c3.5,2.8,6,6.5,8.4,10.1c3.5,5.4,6.8,11.1,7,17.9c0.1,2.8-0.6,5.2-3.9,5
			c-3.7-0.2-7.5-0.5-11.1-1.4c-5.8-1.4-11.6-2.4-17.6-2.3c-11.4,0-22.8-0.2-34.1,2.1c-4.8,1-6.4-0.4-8.1-5c-1-2.8-2.2-6.6-5.3-6.5
			c-3.2,0-4.5,3.7-5.4,6.8c-0.7,2.2-1,4.9-4,5c-2.9,0.2-4.6-1.6-6.1-4c-1.5-2.6-3.4-4.9-5.3-7.2c-1.4-1.6-3.2-1.9-5.3-1.1
			c-2.1,0.8-3,2.2-3.2,4.3c-0.2,3.1,0.6,5.9,1.5,8.7c0.6,1.9,0.4,3.5-2.1,3.3c-8.3-0.4-16.6,0.2-24.6-4.1c-5.8-3.1-11.6-7-18.8-6.4
			c-2.1,0.2-3.4,0.9-4.1,2.8c-1.3,3.3-1.5,6.5,0.9,9.5c5.3,6.6,11.8,12,18.7,16.8c7.7,5.3,16.1,8.1,25.6,7.2
			c4.5-0.5,9.1-0.2,13.6-0.3c2.3-0.1,4,0.9,5,3c4,8.6,3.1,10.4-6.3,11.8c-0.4,0.1-0.8,0-1.2,0.1c-5.2,1.5-10.8,1.7-14.8,6.1
			c-1.5,1.6-1.9,3.1-1.3,5.2c1.4,5.1,4.3,9.4,6.8,13.9c2.1,3.7,5.1,5.9,9.7,6c2.7,0,5.3,1,7.9,1.7c7.2,1.9,14.4,3.1,21.9,3
			c8.7-0.2,17.4-0.1,26.1,0c7.4,0.1,14.3,2,20.4,6.4c4.5,3.2,9,6.6,13.5,9.8c1,0.7,2.1,2.2,3.2-0.3c1.8-4,3.9-5,8.4-3.9
			c4,0.9,7.9,2.6,11.6,4.5c3.4,1.7,6.8,3.3,10.7,2.9c0.8-0.1,1.6,0.1,2.2-1c2.7-4.9,4.6-5.4,9.4-2.7c6.6,3.8,13.1,7.7,17.9,14
			c1.8,2.3,3.7,4.8,6.3,6.2c2.3,1.2,2.9,3,2.9,5.5c-0.1,5.1-0.1,10.1,0,15.2c0.1,3.6,1.1,4,3.9,2.1c1.4-0.9,2.7-1.6,4.3-0.7
			c1.6,0.8,2.1,2.2,2,3.9c-0.1,2.1-0.2,4.1-0.6,6.2c-0.9,5.7-2,11.4-3,17c1.2,0.5,2-0.2,2.9-0.4c4.4-1,6.9,0.6,7.4,5
			c0.7,6.3,1.3,12.6,1.8,18.9c0.3,4.3,0.9,4.8,4.4,2.3c5.3-3.7,11-6.4,16.8-8.9c3.8-1.6,8.1-4,11.9-2.8c4.2,1.3,6.7-0.2,9.5-2.3
			c0.4-0.3,0.9-0.5,1.4-0.7c9.3-2,17.8-5.1,25.2-11.6c13.3-11.7,25.5-24.1,35.2-39.2c4.3-6.7,8.1-14,13.7-19.7
			c8.5-8.7,13.3-19.7,19.2-30c4.2-7.3,7.9-14.9,13.3-21.4c1.9-2.3,3.8-4.6,5-7.4c11.4-26.3,16.8-54.4,24.3-81.8
			c4.7-17.2,8-34.7,13.3-51.8c2.4-7.7,2.4-7.7-5.2-7c-5,0.4-7.3-2.2-6.1-7.1c0.3-1.1,0.8-2.2,1.2-3.3c2.6-6.9,8.3-11.1,13.4-15.9
			c1.3-1.2,3.7-2.2,2.9-4.5c-0.8-2.4-3-3.2-5.4-3.9c-6.5-1.9-11.8,2.1-17.6,3.4c-1.6,0.4-3.3,1.9-4.5,0c-1.2-1.8,0.7-3,1.5-4.4
			c0.3-0.5,0.9-1,1.3-1.4c7-6.6,14-13,21.5-19c0.8-0.6,2.4-1.1,1.9-2.5c-0.4-1.1-1.8-1.5-3-1.4c-7.8,0.8-15.8,0.3-23.4,3.2
			c-3.4,1.3-6.8,2.5-10.1,3.9c-1.5,0.6-2.9,0.8-3.8-0.6c-1.1-1.7,0.3-2.7,1.6-3.3c2-1,3.7-2.5,5.2-4c4.7-4.7,9.8-8.9,15.1-12.9
			c3.9-3,7.6-6.3,10.5-10.4c0.6-0.9,2.3-1.4,1.4-2.8c-0.7-1.3-2.1-0.7-3.2-0.6c-11.2,1.2-22.5,1.9-32.5,7.7
			c-0.8,0.5-1.9,0.4-2.5-0.3c-0.7-0.8,0.4-1.3,0.8-1.9c6.3-8.9,14.1-16.1,23.2-22c1.1-0.7,2-1.6,3-2.4c0.5-0.4,1.1-0.9,0.8-1.6
			c-0.2-0.7-1-0.8-1.6-0.8c-2.2,0.1-4.4,0.2-6.6,0.3c-2-1-3.6-0.5-5,1.1c-8.3-0.1-16.6,0-23.4,6c-0.3,0.3-1,0.4-1.4,0.3
			c-0.7-0.2-0.8-1-0.6-1.6c0.4-1.2,0.7-2.6,1.5-3.6c5.6-7.4,11.4-14.7,17.1-22.1c0.7-0.9,2.6-1.6,1.8-3c-0.9-1.6-2.6-0.6-3.9-0.1
			c-8.9,3.1-17.4,7.3-26.2,10.9c-1.2,0.5-2.4,1.6-3.5,0.6c-1.4-1.3-0.3-2.7,0.5-3.8c2.9-4,5.7-8,8.7-11.9c3.8-5,7.7-9.9,12-15.4
			c-5.8-0.1-11-1.1-15.6,2.3c-1.8,1.3-3.8,2.1-5.8,3.1c-1.7,0.9-2.7,0.4-2.7-1.6c-0.1-3,0.9-5.6,2.8-7.9c3.4-4.2,5.8-8.9,7.2-14.1
			c1.9-7.5,0.7-8.9-6.7-7.4c-3.3,0.7-6.5,1.6-9.8,2.3c-2.4,0.6-5,1.2-6.7,2.8c-3.1,3-7,4.4-10.4,6.6c-3.7-2.1-5.2,1.4-7.6,2.9
			c-1.7,1-0.9,2.1-0.3,3.3c-0.4,0.9-0.9,1.7-2,1.3c-1.2-0.4-1.3-1.5-1.4-2.5c-0.4-5.1-0.8-10.3-1.4-15.4c-0.2-1.7,0.8-4.3-0.9-4.8
			c-1.6-0.5-3.4,1.4-4.6,3c-0.1,0.2-0.4,0.4-0.6,0.5c-1.8-0.3-2.9,0.6-3.8,2c-2.4,3.8-3.6,8.2-5.2,12.3c-0.3,0.7,0.3,1.1,1,1.3
			c-2.5,6-4.9,11.9-7.4,17.9c-0.4,0.9-0.3,2.4-1.5,2.3c-0.8-0.1-1.7-1.1-2.3-1.9c-1-1.2-0.9-2.6-0.9-4.1c0-5.2,0-10.3,0-15.5
			c0-7.3,0-14.7,0-23C367.1,53.7,364.4,57.6,361.7,61.5z"/>
		<path class="st1" d="M474.4,126.8c1.4-1.7,3-2.1,5-1.1c-6.6,7-13.2,14-19,21.7c-3.9,5.3-7.7,10.7-11.5,16.1
			c-0.3,0.4-1.2,0.7-0.4,1.5c0.5,0.5,0.9,0.8,1.7,0.4c0.6-0.4,1.3-0.8,2-1.2c7.4-4.7,15.1-8.9,23.6-11.2c4.3-1.1,8.6-2.2,14-2.1
			c-5.2,4-9.4,7.4-13.6,11c-11,9.3-20,20.2-28,32c-0.5,0.8-1.3,1.3-0.3,2.3c1,1,1.8-0.1,2.3-0.4c7.2-4.6,14.8-8.4,22.6-11.6
			c6.7-2.8,13.7-4.8,21.7-6.1c-5.5,5.5-10.2,10.3-14.7,15.5c-6.7,7.6-13,15.4-18.8,23.7c-0.4,0.5-1.4,1.3-0.3,2.1
			c1,0.8,1.3-0.1,1.9-0.7c1.3-1.2,2.7-2.4,4.1-3.4c9.6-7.3,20.1-11.7,33.1-10.5c-6.9,6.5-12.6,13.3-18.4,20
			c-6,6.8-11.8,13.8-16.7,21.5c-0.2,0.4-0.5,0.7-0.7,1.1c0.6,0.3,1.1,0.2,1.4-0.5c3.7-1.5,7.4-3.1,11.2-4.6
			c6.5-2.5,12.8-5.7,20.4-4.6c-8.5,13.8-12.7,29.2-16.7,44.5c-7.2,28-15.1,55.7-26.9,82.2c-11.9,26.7-24.8,52.8-41,77.2
			c-9.3,14-19.5,27.4-31.9,38.9c-3.7,3.5-7.4,7.3-12.1,9.5c-1.2-10.4-0.2-20.9-4.6-31.1c-3.8,16.9-8.4,32.7-24.6,42.7
			c0.4-1.8,0.8-2.9,0.9-4c0.5-9.2,2-18.4,1.6-27.7c0-1,1.1-2.6-0.8-2.8c-1.1-0.1-1.3,1.5-1.5,2.3c-2,8.5-5.9,16.2-10.4,23.5
			c-3.4,5.4-7.2,10.6-12.3,15.9c0.9-6.6,1.8-12.2,2.4-17.9c0.9-8.8,2.6-17.5,2.4-26.4c0-1,1.2-2.5-0.4-2.9c-1.7-0.4-1.6,1.4-2,2.5
			c-2.8,6.9-5.5,13.8-10.5,19.8c-1.2-5.1,0.5-9.6,0.5-14.1c-0.1-12.5,0.3-25.1-0.8-37.6c-0.1-1.3,0.1-3.1-1.3-3.3
			c-1.5-0.2-1.6,1.7-1.8,2.8c-0.8,4.9-3.1,9.1-6.2,12.8c-0.6,0.7-1.2,1.4-2.3,1.3c-0.9-0.1-0.8-0.8-0.9-1.5
			c-0.7-10.1-4.8-19.2-9.6-27.8c-5.6-10.1-13.4-18.1-25.1-22.8c5.5,7.5,8.9,15.1,9,24c-1.6-0.1-2.6-0.8-3.5-1.7
			c-8-6.8-17.2-11.7-26.3-16.8c-0.5-0.3-1.4-1.4-2.3-0.2c-0.9,1.1,0.1,1.5,0.6,2.3c3.2,4.6,5.4,9.6,6.1,16
			c-9.5-6.7-19.1-12.3-29.8-16.9c0,4,0,7.5,0,11.6c-3.1-2.3-5.5-4.3-8.2-6c-2.9-1.8-5.2-4.8-8.7-5.3c-6.2-1-12.4-1.6-18.8-1.6
			c-15,0.1-30.1,0.3-45.1-0.1c-7.9-0.2-14.6-3.3-18.6-10.7c-1.4-2.6-0.7-3.3,2.1-3.2c8.2,0.3,16.4-0.2,24.5-2
			c14.6-3.2,29-6.9,43.4-10.5c13.8-3.4,27.4-7.1,40.9-11.7c8.8-3,15.4-8.6,17.1-18.2c1.2-6.7,0.6-13.5-1.7-20.1
			c-5.6-16-15.2-29-28.9-39c-14.2-10.4-29.8-14.8-47.2-10.7c-4.3,1-7.4,0.6-10.3-3.2c-4-5.1-6.4-10.9-7.9-17.1
			c-2-8.6-1.4-17.4-1.8-26.1c-0.1-1.5,1-1.4,1.4-1.7c12.2-5.8,24.4-11.6,37.9-14.3c9.2-1.8,18.2-4.3,25.4-11.1
			c10.2-9.7,20.3-19.5,29.9-29.8c14.3-15.3,28.1-31,40.6-47.8c3.3-4.4,7-8.7,8.2-14.4c2-9.5,4.1-19,6.2-28.5c1-4.8,2.1-9.5,3.4-15.2
			c0.6,2.5,1.1,4,1.2,5.5c0.8,12.9,1.6,25.9,2.4,38.8c0.1,1-1,3,1.2,3c1.9,0,1.5-2.1,1.6-3c1.3-8.5,3.3-16.9,5.8-25.1
			c1.9-6.2,3.1-12.8,7.3-18.2c0.8,1,1.2,2,1.2,3.1c-0.3,8.8,1.2,17.5,0.8,26.3c-0.2,4.9,0,9.8,0,14.8c0,1-0.2,2.3,1.1,2.5
			c0.9,0.2,1.5-0.9,1.9-1.7c0.4-0.6,0.6-1.4,0.9-2.1c4.9-11.2,7.6-23.1,11.6-34.7c1.2-3.4,1.6-7.1,4.7-10.4c0,13.8,0,26.9,0,39.9
			c0,2,0.3,3.9,0.9,5.7c0.6,1.9,2.3,2.3,4.1,2.2c1.5-0.1,1.8-1.1,2-2.4c2.3-11.7,6.6-22.6,12.6-32.8c2.3-3.9,4.6-8,8.4-11.7
			c0,5.9-0.1,11,0,16.2c0.1,7-0.2,13.9,0.6,20.9c0.4,3.9,1.4,8.2-1.6,11.9c-10.2,12.3-18,26.1-26.2,39.7
			c-6.3,10.4-12,21.2-19.8,30.7c-1.4,1.8-4,3.1-4.3,6.4c4.3-2.6,6.7-6.3,9.2-9.7c8.7-11.9,15.5-25,23.2-37.5
			c8.1-13.3,16.7-26.3,27.1-37.9c9.6-10.6,20.5-19.7,32.6-27.4c2.9-1.9,5.7-4,9.1-5.4c0.1,1.3-0.1,2-0.8,2.7
			c-4.7,4.7-8.7,10-12.8,15.2c-5.9,7.6-11.7,15.2-16.2,23.8c-5.2,9.9-8.4,20.6-12.2,31c-6.3,17.1-15.7,32-28.1,45.3
			c-0.9,0.9-2.6,1.5-2.1,3.3c0.1,0.3,0.6,0.8,0.8,0.8c1.5-0.4,1.7-2.1,2.8-3c0.6,1.2,1.5,1.6,2.8,1.7c16.3,1.1,31.5-2.4,45.4-11.1
			c1.5-0.9,2.8-2.5,4.8-2c-1.1,2-3.2,2.9-4.9,4.3c-10.7,8.4-21.8,16.3-34.4,21.7c15.9,11.4,30.3,24.2,43.5,39.5
			c-3-0.5-5.1,0.1-7.4,0.9c3.9,5.3,7,10.9,9.6,16.8c2.6,5.9,5.3,11.9,6.7,18.5c-4.1-1.3-7.7-2.5-11.8-3.9c3.1,6.3,6.4,12,8.3,18.3
			c1.9,6.1,4.3,12.2,4.2,18.8c-0.4,0.2-0.8,0.5-1.1,0.7c-2.8-3.1-5.6-6.3-9.2-10.3c2.1,15.1,3.7,29,1.5,43
			c-3.1-3.2-4.4-7.5-7.5-11.8c0.3,13-1.4,24.6-4.8,36.6c-2.5-3.2-3.6-6.8-6.5-9.5c-1.2,11.3-5.5,20.9-10.6,30.2
			c-0.5-1.4-0.4-2.8-0.7-4.1c-0.2-1.4-0.7-2.7-1.1-4.4c-5.3,10.6-12.4,19-22,25.5c-0.6-4.6,0.1-8.9,0.4-13.3
			c-5.5,7.2-12.2,12.7-20,17c-1.5,0.8-5.1,1.4-4.1,3c1.2,1.9,3.7-0.6,5.4-1.6c6.1-3.3,11.4-7.5,16.4-13.1c0.6,4.6-1.6,8.4-0.3,12.3
			c9-6.8,17.3-14,23.4-24.4c0.6,4,1.1,7,1.7,10.7c5.3-11.1,10.1-21.3,12.8-32.9c2.1,3.4,3.9,6.3,5.8,9.4c3.1-11.2,5.6-22.2,5.9-34.3
			c2.6,3.5,4.8,6.4,7.4,10c1.8-14.1,1-27.5,0.1-40.8c0.2-0.2,0.4-0.5,0.6-0.7c2.9,2.4,5.7,4.9,8.8,7.5c0.3-9.8-2.3-18.8-10.8-38.8
			c3.6,1.2,7,2.2,10.8,3.5c-3.9-13.3-8.8-25.5-16.3-37.1c2.9,0,5.3,0,8.5,0c-13.6-15.5-27.6-29.2-43.8-41c1.9-0.9,3.6-1.5,5.1-2.4
			c16.7-10.1,32.6-21.1,45.9-35.4c9.2-9.9,13.2-21.5,10.9-35.1c-0.6-3.5-0.8-7.2,3.8-8.8c2-0.7,3.6-2.3,5.5-3.5
			c8.3-5.2,16.4-10.7,25.7-15.2c-0.3,0.9-0.3,1.3-0.5,1.5c-8.4,10.9-15.9,22.4-22.6,34.4c-0.5,0.9-2.2,2.1-0.4,3.2
			c1,0.6,2-0.4,2.8-1.1c4.9-3.9,10.1-7.3,15.7-10C463.8,130.7,469.2,128.9,474.4,126.8z M269.5,223.1c2.4,3,6.2,3.3,10.1,1.3
			c2.6-1.3,3.9-3.7,3.5-6.7c-0.5-3.8-3.5-5.2-6.7-5.9c-3.3-0.8-6.2,0.8-7.9,3.4c-1.5,2.4-2.1,5.3,0.7,7.6
			C269.3,222.9,269.4,223,269.5,223.1z M277.2,206.8c-5.3,0-9.9,1.9-14.4,4.5c-0.5,0.3-1.6,0.7-1.2,1.7c0.6,1.4,1.6,0.3,2.2,0
			c1.8-0.7,3.4-1.8,5.1-2.5c6.2-2.7,12.4-2.7,18.1,1.2c3.6,2.5,6.6,5.7,8.6,9.6c0.3,0.6,0.8,1.5,1.8,0.8c0.6-0.5,0.4-1.1,0.1-1.8
			C294.5,213.1,285.1,206.9,277.2,206.8z"/>
		<path class="st2" d="M474.4,126.8c-5.2,2.1-10.6,3.9-15.6,6.3c-5.6,2.6-10.8,6.1-15.7,10c-0.9,0.7-1.9,1.7-2.8,1.1
			c-1.8-1.1-0.1-2.3,0.4-3.2c6.6-12,14.1-23.5,22.6-34.4c0.2-0.3,0.2-0.7,0.5-1.5c-9.3,4.5-17.5,9.9-25.7,15.2
			c-1.8,1.2-3.5,2.8-5.5,3.5c-4.7,1.6-4.4,5.3-3.8,8.8c2.3,13.6-1.7,25.2-10.9,35.1c-13.3,14.4-29.3,25.4-45.9,35.4
			c-1.5,0.9-3.1,1.5-5.1,2.4c16.2,11.8,30.3,25.6,43.8,41c-3.2,0-5.6,0-8.5,0c7.6,11.6,12.5,23.8,16.3,37.1
			c-3.8-1.2-7.2-2.3-10.8-3.5c8.5,20,11,29,10.8,38.8c-3-2.6-5.9-5.1-8.8-7.5c-0.4-0.2-0.7-0.5-1.1-0.7c-0.4,0.6-0.2,1.1,0.4,1.4
			c0.9,13.3,1.7,26.6-0.1,40.8c-2.6-3.5-4.8-6.5-7.4-10c-0.3,12-2.7,23.1-5.9,34.3c-2-3.2-3.7-6.1-5.8-9.4
			c-2.7,11.6-7.5,21.8-12.8,32.9c-0.6-3.8-1.1-6.8-1.7-10.7c-6.1,10.5-14.5,17.6-23.4,24.4c-1.3-4,0.9-7.8,0.3-12.3
			c-5,5.5-10.3,9.8-16.4,13.1c-1.7,0.9-4.2,3.5-5.4,1.6c-1-1.6,2.6-2.2,4.1-3c7.8-4.3,14.5-9.8,20-17c-0.3,4.4-1,8.6-0.4,13.3
			c9.6-6.5,16.7-14.9,22-25.5c0.4,1.7,0.9,3,1.1,4.4c0.2,1.3,0.2,2.7,0.7,4.1c5.1-9.3,9.4-18.9,10.6-30.2c2.9,2.6,4,6.2,6.5,9.5
			c3.4-12,5.2-23.7,4.8-36.6c3.1,4.3,4.4,8.6,7.5,11.8c2.2-14,0.6-27.9-1.5-43c3.6,4,6.4,7.2,9.2,10.3c0.4-0.2,0.8-0.5,1.1-0.7
			c0.1-6.5-2.3-12.6-4.2-18.8c-1.9-6.3-5.2-12-8.3-18.3c4,1.3,7.7,2.5,11.8,3.9c-1.4-6.6-4.1-12.5-6.7-18.5
			c-2.6-5.9-5.7-11.6-9.6-16.8c2.3-0.7,4.4-1.3,7.4-0.9c-13.2-15.4-27.5-28.2-43.5-39.5c12.6-5.4,23.7-13.3,34.4-21.7
			c1.7-1.3,3.8-2.3,4.9-4.3c0.2,0,0.4-0.1,0.6-0.2c0.5,0.2,0.8-0.2,0.8-0.6l0,0c0.5-0.1,0.8-0.3,0.6-0.8c9.6-6.9,17.7-15,21.4-26.6
			c3-9.5,1.4-19.2,0.4-28.7c-1.2-12.1-0.6-24,2.2-35.8c1.5-6.4,3.9-12.5,6.2-18.6c0.4-1.1,0.7-2.3-0.2-3.3c-1-1.1-2-0.3-3.1,0
			c-2.9,0.7-5.1,2.2-7.1,4.2c-7.6,7.8-14.3,16.5-21.1,25c-8.9,11.1-15.9,23.2-20.4,36.7c-5,14.7-10.3,29.4-19.3,42.3
			c-4.4,6.2-9,12.2-14.1,17.9c-1,0.9-1.3,2.6-2.8,3c-0.2,0.1-0.7-0.4-0.8-0.8c-0.5-1.8,1.2-2.4,2.1-3.3
			c12.4-13.2,21.8-28.2,28.1-45.3c3.8-10.4,7-21.1,12.2-31c4.5-8.6,10.3-16.2,16.2-23.8c4.1-5.2,8.1-10.5,12.8-15.2
			c0.7-0.7,0.9-1.4,0.8-2.7c-3.4,1.4-6.2,3.6-9.1,5.4c-12.1,7.7-23.1,16.8-32.6,27.4c-10.4,11.6-19,24.6-27.1,37.9
			c-7.6,12.6-14.5,25.6-23.2,37.5c-2.5,3.4-4.9,7.1-9.2,9.7c0.3-3.3,2.9-4.7,4.3-6.4c7.8-9.5,13.5-20.3,19.8-30.7
			c8.2-13.6,16.1-27.4,26.2-39.7c3-3.6,2-8,1.6-11.9c-0.8-7-0.5-13.9-0.6-20.9c-0.1-5.2,0-10.3,0-16.2c-3.8,3.7-6.1,7.8-8.4,11.7
			c-6,10.2-10.3,21.1-12.6,32.8c-0.2,1.2-0.5,2.3-2,2.4c-1.8,0.1-3.5-0.3-4.1-2.2c-0.6-1.8-0.9-3.7-0.9-5.7c0.1-13,0-26.1,0-39.9
			c-3.1,3.4-3.6,7.1-4.7,10.4c-4,11.5-6.7,23.5-11.6,34.7c-0.3,0.7-0.5,1.4-0.9,2.1c-0.5,0.8-1,1.9-1.9,1.7
			c-1.2-0.2-1.1-1.5-1.1-2.5c0-4.9-0.2-9.9,0-14.8c0.4-8.8-1.1-17.5-0.8-26.3c0-1.2-0.4-2.1-1.2-3.1c-4.2,5.5-5.4,12-7.3,18.2
			c-2.5,8.2-4.5,16.6-5.8,25.1c-0.1,0.9,0.3,3-1.6,3c-2.2,0-1.1-1.9-1.2-3c-0.9-12.9-1.6-25.9-2.4-38.8c-0.1-1.5-0.7-3-1.2-5.5
			c-1.3,5.7-2.3,10.4-3.4,15.2c-2.1,9.5-4.2,19-6.2,28.5c-1.2,5.7-4.9,10-8.2,14.4c-12.5,16.8-26.3,32.5-40.6,47.8
			c-9.6,10.3-19.7,20.2-29.9,29.8c-7.2,6.8-16.2,9.3-25.4,11.1c-13.5,2.6-25.7,8.5-37.9,14.3c-0.5,0.2-1.5,0.1-1.4,1.7
			c0.5,8.7-0.2,17.5,1.8,26.1c1.5,6.2,3.8,11.9,7.9,17.1c2.9,3.7,6.1,4.2,10.3,3.2c17.4-4.2,33,0.2,47.2,10.7
			c13.7,10,23.3,22.9,28.9,39c2.3,6.6,2.9,13.4,1.7,20.1c-1.7,9.6-8.3,15.1-17.1,18.2c-13.4,4.6-27.1,8.3-40.9,11.7
			c-14.5,3.6-28.9,7.3-43.4,10.5c-8.1,1.8-16.3,2.3-24.5,2c-2.8-0.1-3.5,0.6-2.1,3.2c4.1,7.4,10.8,10.5,18.6,10.7
			c15,0.4,30.1,0.1,45.1,0.1c6.3,0,12.5,0.7,18.8,1.6c3.6,0.5,5.8,3.5,8.7,5.3c2.7,1.7,5.1,3.7,8.2,6c0-4.1,0-7.6,0-11.6
			c10.7,4.6,20.2,10.2,29.8,16.9c-0.6-6.4-2.8-11.4-6.1-16c-0.5-0.7-1.5-1.2-0.6-2.3c0.9-1.1,1.7-0.1,2.3,0.2
			c9.1,5.1,18.3,10,26.3,16.8c1,0.8,2,1.5,3.5,1.7c-0.1-8.9-3.5-16.5-9-24c11.8,4.6,19.6,12.6,25.1,22.8c4.8,8.7,8.9,17.7,9.6,27.8
			c0,0.6,0,1.3,0.9,1.5c1.1,0.2,1.7-0.6,2.3-1.3c3.1-3.8,5.5-7.9,6.2-12.8c0.2-1.2,0.3-3,1.8-2.8c1.5,0.2,1.2,2,1.3,3.3
			c1.1,12.5,0.7,25.1,0.8,37.6c0,4.6-1.6,9.1-0.5,14.1c5-6,7.8-12.9,10.5-19.8c0.4-1,0.4-2.9,2-2.5c1.6,0.4,0.4,1.9,0.4,2.9
			c0.1,8.9-1.6,17.6-2.4,26.4c-0.6,5.7-1.5,11.3-2.4,17.9c5.1-5.3,8.9-10.5,12.3-15.9c4.6-7.3,8.4-15,10.4-23.5
			c0.2-0.8,0.3-2.4,1.5-2.3c1.9,0.2,0.7,1.8,0.8,2.8c0.4,9.3-1.1,18.5-1.6,27.7c-0.1,1.1-0.5,2.2-0.9,4c16.2-10,20.8-25.8,24.6-42.7
			c4.4,10.2,3.4,20.6,4.6,31.1c4.7-2.3,8.3-6.1,12.1-9.5c12.4-11.5,22.5-24.9,31.9-38.9c16.2-24.4,29.2-50.5,41-77.2
			c11.8-26.5,19.6-54.2,26.9-82.2c4-15.3,8.2-30.7,16.7-44.5c-7.6-1.1-13.9,2.1-20.4,4.6c-3.8,1.5-7.5,3.1-11.2,4.6
			c-0.2-0.2-0.4-0.4-0.7-0.6c5-7.6,10.7-14.7,16.7-21.5c5.9-6.6,11.5-13.4,18.4-20c-13-1.2-23.5,3.2-33.1,10.5
			c-1.4,1.1-2.9,2.2-4.1,3.4c-0.6,0.6-0.9,1.5-1.9,0.7c-1-0.9,0-1.6,0.3-2.1c5.8-8.3,12.1-16.1,18.8-23.7c4.5-5.1,9.3-10,14.7-15.5
			c-8.1,1.3-15,3.3-21.7,6.1c-7.9,3.3-15.4,7.1-22.6,11.6c-0.5,0.3-1.3,1.4-2.3,0.4c-1-1-0.2-1.5,0.3-2.3c8-11.8,17-22.7,28-32
			c4.2-3.5,8.4-7,13.6-11c-5.4-0.1-9.7,1-14,2.1c-8.6,2.3-16.2,6.5-23.6,11.2c-0.6,0.4-1.3,0.7-2,1.2c-0.7,0.5-1.2,0.1-1.7-0.4
			c-0.8-0.8,0.1-1.1,0.4-1.5c3.8-5.4,7.6-10.8,11.5-16.1c5.7-7.8,12.4-14.7,19-21.7c2.2-0.1,4.4-0.2,6.6-0.3c0.7,0,1.4,0.1,1.6,0.8
			c0.2,0.7-0.3,1.2-0.8,1.6c-1,0.8-1.9,1.7-3,2.4c-9,6-16.9,13.1-23.2,22c-0.4,0.6-1.4,1.1-0.8,1.9c0.6,0.8,1.7,0.8,2.5,0.3
			c10.1-5.8,21.4-6.5,32.5-7.7c1.1-0.1,2.5-0.7,3.2,0.6c0.8,1.4-0.8,1.9-1.4,2.8c-2.9,4.1-6.5,7.4-10.5,10.4
			c-5.3,4-10.3,8.2-15.1,12.9c-1.6,1.5-3.2,3-5.2,4c-1.3,0.6-2.7,1.5-1.6,3.3c0.9,1.4,2.3,1.3,3.8,0.6c3.3-1.4,6.8-2.6,10.1-3.9
			c7.5-3,15.5-2.4,23.4-3.2c1.2-0.1,2.6,0.3,3,1.4c0.6,1.4-1.1,1.9-1.9,2.5c-7.5,6-14.6,12.4-21.5,19c-0.5,0.4-1,0.9-1.3,1.4
			c-0.8,1.4-2.7,2.7-1.5,4.4c1.3,1.9,2.9,0.3,4.5,0c5.8-1.3,11.1-5.3,17.6-3.4c2.4,0.7,4.6,1.6,5.4,3.9c0.8,2.3-1.6,3.2-2.9,4.5
			c-5.1,4.8-10.8,9-13.4,15.9c-0.4,1.1-1,2.1-1.2,3.3c-1.2,4.9,1.1,7.5,6.1,7.1c7.6-0.7,7.6-0.7,5.2,7c-5.3,17.1-8.6,34.6-13.3,51.8
			c-7.5,27.5-12.9,55.5-24.3,81.8c-1.2,2.8-3.1,5.1-5,7.4c-5.5,6.5-9.2,14-13.3,21.4c-5.8,10.3-10.7,21.3-19.2,30
			c-5.6,5.7-9.4,13-13.7,19.7c-9.6,15-21.9,27.4-35.2,39.2c-7.4,6.6-15.9,9.7-25.2,11.6c-0.5,0.1-1,0.4-1.4,0.7
			c-2.9,2.1-5.3,3.6-9.5,2.3c-3.8-1.2-8.1,1.2-11.9,2.8c-5.8,2.5-11.5,5.2-16.8,8.9c-3.5,2.5-4.1,2-4.4-2.3
			c-0.5-6.3-1.1-12.6-1.8-18.9c-0.5-4.4-3-6-7.4-5c-0.8,0.2-1.6,0.8-2.9,0.4c1-5.7,2.1-11.3,3-17c0.3-2,0.4-4.1,0.6-6.2
			c0.1-1.7-0.5-3.1-2-3.9c-1.6-0.9-3-0.2-4.3,0.7c-2.8,1.9-3.8,1.5-3.9-2.1c-0.2-5.1-0.1-10.1,0-15.2c0-2.4-0.6-4.2-2.9-5.5
			c-2.7-1.5-4.6-3.9-6.3-6.2c-4.8-6.3-11.3-10.2-17.9-14c-4.8-2.8-6.7-2.2-9.4,2.7c-0.6,1.1-1.4,0.9-2.2,1
			c-3.9,0.4-7.3-1.2-10.7-2.9c-3.7-1.9-7.5-3.5-11.6-4.5c-4.5-1-6.6-0.1-8.4,3.9c-1.1,2.5-2.2,1-3.2,0.3c-4.5-3.2-9-6.5-13.5-9.8
			c-6.1-4.4-13-6.3-20.4-6.4c-8.7-0.1-17.4-0.2-26.1,0c-7.5,0.2-14.7-1.1-21.9-3c-2.6-0.7-5.3-1.7-7.9-1.7c-4.6-0.1-7.6-2.2-9.7-6
			c-2.6-4.5-5.4-8.8-6.8-13.9c-0.6-2.2-0.2-3.6,1.3-5.2c4-4.4,9.7-4.6,14.8-6.1c0.4-0.1,0.8-0.1,1.2-0.1c9.4-1.4,10.3-3.2,6.3-11.8
			c-1-2.1-2.7-3-5-3c-4.5,0.1-9.1-0.2-13.6,0.3c-9.5,1-17.9-1.9-25.6-7.2c-6.9-4.8-13.4-10.2-18.7-16.8c-2.4-3-2.2-6.2-0.9-9.5
			c0.7-1.9,1.9-2.6,4.1-2.8c7.2-0.6,13.1,3.3,18.8,6.4c7.9,4.3,16.2,3.7,24.6,4.1c2.5,0.1,2.7-1.4,2.1-3.3c-0.9-2.9-1.7-5.7-1.5-8.7
			c0.2-2.2,1-3.6,3.2-4.3c2.1-0.8,3.9-0.5,5.3,1.1c1.9,2.3,3.8,4.6,5.3,7.2c1.4,2.5,3.2,4.2,6.1,4c3-0.2,3.4-2.8,4-5
			c0.9-3.1,2.2-6.7,5.4-6.8c3.1,0,4.2,3.7,5.3,6.5c1.7,4.6,3.4,5.9,8.1,5c11.3-2.3,22.7-2.1,34.1-2.1c6,0,11.8,0.9,17.6,2.3
			c3.6,0.9,7.4,1.2,11.1,1.4c3.3,0.2,4-2.2,3.9-5c-0.2-6.8-3.4-12.5-7-17.9c-2.4-3.6-4.9-7.3-8.4-10.1c-4-3.2-5.4-3.2-9.6-0.3
			c-7.1,5-14.5,8.9-23.5,9.1c-2.8,0.1-5.5,0.1-7.9-1.2c-5.5-3.1-11.3-5.9-16.3-9.8c-4.1-3.2-8-5.9-13.4-3c-0.1,0.1-0.3,0.1-0.4,0.1
			c-9.7-1.8-18,4-27.1,5.1c-7.5,1-14.9,1.9-22.4,2.3c-3.1,0.2-5.8-1.4-8.3-2.9c-4.1-2.5-7.7-5.8-10.3-9.9c-4.4-7-8.5-14.3-11.3-22.1
			c-3.2-9-1.2-18.1,1.2-27.1c0.6-2.1,2.4-1.8,3.8-1.8c10.4-0.3,20.6-2,31-1.7c3.5,0.1,5.8-1.5,5.4-5c-1.9-15.1,7-25.7,14.9-36.7
			c2.8-4,6.3-7.5,11-10.7c-0.9,11.2,0.6,21.9-0.9,32.6c-0.3,1.8-0.2,3.6,0,5.4c0.7,4.9,4,6.2,7.8,3.1c2.3-1.8,4.8-3.3,7.6-3.5
			c5.1-0.4,9.9-1.9,14.5-4.2c5.9-3,12.6-3,18.8-4.6c24.8-6.5,45.8-18.7,60.3-40.7c3.3-4.9,7.4-9.3,11.4-13.8
			c4.2-4.8,7.5-10.2,10.3-15.9c0.9-1.8,1-3.7,1-5.7c-0.1-10.1,0-20.2-0.3-30.3c-0.3-13.8,3.7-26.3,10.7-38.6
			c4.9,6.9,13.3,10.6,15.1,19.7c0.3,1.5,1.2,2.8,2.9,2.7c2.2-0.1,1.9-2.1,2.1-3.6c1.4-10.4,7.6-18.7,12.3-28.3
			c5.4,9.2,3.2,18.6,4.2,27.8c3.5-9.9,6.8-20,14.9-27.7c1.4,1.9,2,3.9,2,5.9c-0.2,5.6,1.7,11,1.1,16.6c-0.1,0.6,0,1.3,0,1.9
			c0.1,1.5,1.1,2.5,2.4,2.6c1.4,0.2,1.3-1.3,1.5-2.3c1.9-9.8,8-17.2,13.8-24.8c0.6-0.8,1.5-1.4,2.4-2.3c2.3,4.9,1.5,9.9,2.1,14.7
			c0,6.8,0,13.7,0,21.3c1.8-3.6,3.2-6.5,4.6-9.4c0.2-0.3,0.3-0.6,0.5-0.9c3.7-5.4,7.8-10.5,10.9-16.4c2.7-3.9,5.4-7.7,8.7-12.4
			c0,8.3,0,15.7,0,23c0,5.2,0,10.3,0,15.5c0,1.4-0.1,2.9,0.9,4.1c0.6,0.8,1.5,1.8,2.3,1.9c1.2,0.1,1.2-1.4,1.5-2.3
			c2.5-6,4.9-11.9,7.4-17.9c2.7-5.2,5.4-10.5,8-15.7c0.2-0.2,0.4-0.3,0.6-0.5c1.1-1.7,2.9-3.5,4.6-3c1.8,0.5,0.7,3.1,0.9,4.8
			c0.6,5.1,0.9,10.2,1.4,15.4c0.1,1,0.2,2.1,1.4,2.5c1.1,0.4,1.6-0.4,2-1.3c2.6-2,5.2-4.1,7.9-6.1c3.4-2.2,7.3-3.6,10.4-6.6
			c1.7-1.7,4.3-2.3,6.7-2.8c3.3-0.8,6.5-1.7,9.8-2.3c7.4-1.5,8.7-0.2,6.7,7.4c-1.3,5.2-3.7,9.9-7.2,14.1c-1.9,2.3-2.9,4.9-2.8,7.9
			c0,2.1,1,2.5,2.7,1.6c2-1,4.1-1.8,5.8-3.1c4.7-3.4,9.8-2.4,15.6-2.3c-4.3,5.5-8.2,10.4-12,15.4c-3,3.9-5.8,7.9-8.7,11.9
			c-0.8,1.1-1.8,2.6-0.5,3.8c1.1,1,2.4-0.1,3.5-0.6c8.7-3.6,17.2-7.8,26.2-10.9c1.3-0.5,3-1.4,3.9,0.1c0.8,1.3-1.1,2-1.8,3
			c-5.7,7.4-11.4,14.7-17.1,22.1c-0.8,1-1.1,2.3-1.5,3.6c-0.2,0.6-0.1,1.4,0.6,1.6c0.4,0.1,1.1,0,1.4-0.3
			C457.8,126.9,466.1,126.7,474.4,126.8z M86.8,274.4c0.9-0.9,1.5-1.8,2-3.1c1.9-4.6,2-9.5,1.2-14c-1.8-10.5-4.7-17.6-15.4-20.4
			c-1.9-0.5-4.2-1.5-5.4,1.1c-1.8,4.2-0.9,8.7-0.6,13c0.1,2.3,3.5,2.4,5.4,3.4c2.6,1.3,5.3,3.1,8.1-0.4c0.4,2.1,0.3,3.4-0.4,4.9
			c-0.5,1.3-1.5,3.2,1.5,3.3c2.6,0.1,2.8,2.3,3,4.2c0.2,2.4,0,4.9,0,7.4c-0.7,0.3-0.8,0.7-0.5,1.4C86.1,274.9,86.5,274.6,86.8,274.4
			z M79.3,276c1.3-2,3.9,1.3,4.6-1.5c0.5-2.3,1.3-4.7,0.9-7.2c-0.3-1.4-0.6-3-2-3.5c-1.4-0.5-2.9-0.4-4.2,0.9
			c-1.5,1.4-3.3,2.4-4.9,3.6c-3.5,2.5-3.7,4.8-1.1,8.4c3.6,4.8,8.2,8.6,12.2,13c4.8,5.3,10.8,6,17.3,4.6c10-2,19.1-6.5,28.4-10.4
			c3.2-1.3,6.6-2.1,9.4-4.1c-12.4-15.3-12-32.1-6.1-49.8c-17.1,5-33.8,9.8-51.7,7.4c0.8,1,1.8,1.4,2.4,2.1
			c7.5,7.9,10.8,25.3,4.9,35.3C87.3,278.2,83.1,278.6,79.3,276z M205.2,281.1c-3.8-1.8-7.5-3.9-11.6-5.2c-2.2-0.7-3.1-0.5-4.1,1.6
			c-2.1,4.4-5.8,6.4-10.7,6.4c-13.9,0.2-28.4-11.8-32.6-27.1c-2.4-8.8-2.2-17.7-2.2-26.6c0-1.8,0.3-3.9-1.7-4.5
			c-1.9-0.6-3.1,0.8-4.3,2.3c-4,5-4.8,10.8-5.8,16.9c-1.3,8.4-0.5,16.3,3.2,24c7.1,15.1,19.6,24.4,34.4,30.5
			c10.4,4.2,20.5,2.8,28.3-6.6C200.8,289.1,203.1,285.2,205.2,281.1z M150.7,331.9c2.5,4.7,4.9,9.4,7.5,14c0.8,1.4,2,2.4,4.3,2
			c4.3-0.7,8.7-0.7,13-0.8c15.4-0.4,30.7-1.4,46.1-1c5.5,0.1,11,1.2,16.6,0.9c1.6-0.1,1.8-0.8,2.5-2c1.1-1.9-0.4-1.9-1.2-2.4
			c-3.4-2.1-6.9-4.1-10.6-5.8c-7.4-3.4-15.2-5.5-23.1-6.7c-7.2-1-14.6-2-21.8-1.6C173,329,162,329.3,150.7,331.9z M141.3,333.3
			c-7,0.9-13.7,2.2-20.6,2.6c-13.1,0.7-25.9-0.1-37.6-7.3c-2.7-1.7-5.9-2.9-9.3-2.7c-2.1,0.1-2.8,1.1-1.5,2.9c1,1.3,2,2.6,3,3.9
			c9.4,12.5,21.6,19.7,37.7,19.6c9.9-0.1,19.6-1.7,29.4-2.4c1.6-0.1,1.5-1,1.1-2.1C141.9,343.2,142.4,338.1,141.3,333.3z
			 M265.2,137.9c0.9-0.9,1.3-1.1,1.6-1.5c5.7-6.9,11.1-14,16.2-21.3c4.6-6.5,6.2-12.8,0.9-20.1c-4-5.5-6.6-12-11.3-17.1
			c-3.4-3.8-4.4-3.5-6,1.2c-2,6-1.8,12.3-2.2,18.5C263.6,110.8,265.5,124,265.2,137.9z M181.8,371.6c-19.2-12.2-29.9-29.7-37.3-49.6
			c-0.5,6.7-1.2,13.3-0.3,19.6c1.8,12.5,7.1,23.6,14.5,33.9c0.5,0.7,0.5,1.7,1.8,1.3C167.2,375.1,174.1,373.4,181.8,371.6z
			 M239.3,348.4c-6.1,0-11.5,0-16.9,0c-1.1,0-2,0.1-3,0.6c-7.7,4.1-15.9,6.8-24.1,9.5c-6.3,2.1-12.6,4.3-19.5,6.6
			c2.1,1.5,3.8,2.2,5,3.5c1.9,2,4,2.2,6.5,1.5c13.2-3.6,26.5-7.1,39.4-11.7C231.8,356.7,235.7,353.4,239.3,348.4z M241.8,341.6
			c0-3.4,0.5-6.5-0.1-9.5c-3.8-20.8-15.7-36.2-32.4-48.4c-0.8-0.6-1.9-2.6-3.3-0.3c-1.1,1.7-1.6,3,0.5,4.3c6.4,4,12.4,8.6,16.9,14.8
			c6.9,9.3,12.2,19.2,8.5,31.4c-0.4,1.3,0,2.2,1.2,2.9C235.9,338.2,238.6,339.8,241.8,341.6z M121,383.4c11.9,0.1,23.3-2.7,34.7-5.4
			c0.6-0.1,1.3,0,1.3-1c0-2-4-5.7-5.7-5c-8,3.2-16.5,1.6-24.7,2.9c-4.2,0.7-8.3,1.2-11.5,4.4c-0.9,0.9-1.8,2.1-1.4,3.4
			c0.5,1.5,2,0.6,3,0.7C118.2,383.5,119.6,383.4,121,383.4z M391.7,63.4c-7.3,12.3-12.9,25.2-16.6,39.1c4.1-5.8,9.9-9.8,15.1-14.4
			c2-1.8,2.6-3.3,2.7-5.7C393.2,76,391.7,69.8,391.7,63.4z M122,196.4c-2.5,1.9-4.8,2.9-6.2,5.4c-5.4,9.3-4.1,19.1-2.8,28.9
			c0.6,4.4,3.6,2,5.7,1.8c2.5-0.2,3-1.9,2.6-4C119.3,217.9,118.5,207.4,122,196.4z M131,353.3c2,4.5,5.4,8.1,7.9,12.3
			c2.9,4.6,6.4,7.7,12.3,4.6c0.4-0.2,1.1,0.1,1.2-0.7c-2.2-5.4-5.7-10.3-7.1-16.1c-0.3-1.5-1.4-2.5-3.1-1.9
			C138.5,352.8,134.6,351.7,131,353.3z M427.3,117.3c6.4-10.2,12.3-19.6,18.2-29c-0.3-0.3-0.5-0.6-0.8-0.9
			c-5.3,2.8-10.6,5.6-15.9,8.5c-0.6,0.3-1,1.1-1,1.9C427.4,103.9,426.5,110,427.3,117.3z M182.6,350.7c0-0.1,0-0.1,0-0.2
			c-1.8,0-3.6-0.1-5.4,0c-2.4,0.1-5.6-0.5-6.7,1.9c-1,2.1,2.2,3.4,3,5.4c0.5,1.4,1.6,1.4,2.8,0.7c4.5-2.4,9.4-3.5,14.3-4.6
			c0.9-0.2,2.4,0.1,2.3-1.4c-0.1-1.3-1.3-1.9-2.6-1.9C187.8,350.7,185.2,350.7,182.6,350.7z M162,275.8c0.5,1.2,1.7,1.3,2.6,1
			c6.9-2.3,13.8-1.7,20.6,0.6c1.5,0.5,2.6,0.1,2.9-1.5c0.3-1.7-1.2-1.9-2.2-2c-6-1-12-0.8-17.9,0.3
			C166.1,274.5,163.6,273.8,162,275.8z M122.4,320.3c-0.9,3.9,0.5,7.1,0.4,10.3c-0.1,3.2,1.7,3.4,3.9,3c1.4-0.2,2.7-0.8,4.3-1.3
			C127.5,328.6,125.5,324.4,122.4,320.3z M130.2,286c3.9,1.3,7.6,0.9,11-0.9c0.6-0.3,2.2-0.8,1.2-2.2c-0.6-0.9-1.3-1.3-2.5-0.7
			C136.8,283.6,133.5,284.8,130.2,286z M418.9,70c-0.1,0.3-0.2,0.5-0.3,0.8c0.2,0.1,0.4,0.2,0.5,0.2c0.2-0.2,0.3-0.4,0.5-0.6
			C419.4,70.3,419.2,70.2,418.9,70z M446.4,87.4c-0.1-0.3-0.2-0.5-0.3-0.7c-0.2,0.2-0.5,0.4-0.6,0.7c0,0.1,0.3,0.5,0.4,0.5
			C446.1,87.8,446.2,87.5,446.4,87.4z"/>
		<path class="st3" d="M350.3,78.7c-1.4,2.9-2.8,5.8-4.6,9.4c0-7.6,0-14.5,0-21.3c1.8,0.4,1.6,1.8,2,3.1
			C348.6,72.9,348,76.3,350.3,78.7z"/>
		<path class="st3" d="M361.7,61.5c-3,5.8-7.1,11-10.9,16.4c-0.2-1.8,0.1-3.6,1-5.2c2.1-3.8,5.3-6.9,7.7-10.5
			C360,61.3,360.9,61.4,361.7,61.5z"/>
		<path class="st3" d="M390.5,57.6c-2.7,5.2-5.4,10.5-8,15.7c-0.7-0.2-1.3-0.6-1-1.3c1.6-4.2,2.9-8.5,5.2-12.3
			C387.6,58.2,388.7,57.3,390.5,57.6z"/>
		<path class="st3" d="M409.2,69.3c-2.6,2-5.2,4.1-7.9,6.1c-0.6-1.2-1.4-2.2,0.3-3.3C404,70.7,405.5,67.2,409.2,69.3z"/>
		<path class="st4" d="M472.9,105c-0.9,1.5-1.7,3.1-3.8,4.1C469.7,106.8,471.2,105.8,472.9,105L472.9,105z"/>
		<path class="st4" d="M466.7,112c0.2-1,0.7-1.8,1.9-2.4C468.6,111.1,468.1,111.9,466.7,112C466.7,112,466.7,112,466.7,112z"/>
		<path class="st4" d="M465.9,113.6c-0.1-0.7,0-1.3,0.7-1.6c0,0,0,0,0,0C466.9,112.7,466.5,113.2,465.9,113.6L465.9,113.6z"/>
		<path class="st4" d="M465.9,113.5c-0.3,0.3-0.5,0.5-0.8,0.8c0,0,0,0,0,0C465.4,114.1,465.7,113.8,465.9,113.5
			C465.9,113.6,465.9,113.5,465.9,113.5z"/>
		<polygon class="st4" points="472.9,105 473,104.9 472.9,105 		"/>
		<polygon class="st4" points="465.1,114.3 465,114.4 465.1,114.3 		"/>
		<path class="st3" d="M402.9,178.7c-0.2,0.1-0.4,0.2-0.6,0.2c-2.1-0.4-3.4,1.1-4.8,2c-13.9,8.7-29.1,12.3-45.4,11.1
			c-1.3-0.1-2.2-0.5-2.8-1.7c5-5.7,9.7-11.6,14.1-17.9c9-12.9,14.3-27.6,19.3-42.3c4.6-13.5,11.6-25.6,20.4-36.7
			c6.8-8.5,13.4-17.1,21.1-25c2-2.1,4.2-3.5,7.1-4.2c1.1-0.3,2.1-1,3.1,0c0.9,1,0.7,2.1,0.2,3.3c-2.3,6.1-4.7,12.2-6.2,18.6
			c-2.8,11.8-3.5,23.7-2.2,35.8c1,9.5,2.6,19.2-0.4,28.7c-3.7,11.6-11.8,19.7-21.4,26.6c-0.2,0.3-0.4,0.6-0.6,0.8c0,0,0,0,0,0
			C403.4,178.3,403.1,178.5,402.9,178.7z"/>
		<path class="st5" d="M269.5,223.1c-0.1-0.1-0.2-0.2-0.3-0.3c0.8-0.9,0-1.8-0.3-2.5c-1.4-3,0.6-4.7,2.5-6.1c2.5-1.9,5.3-1.7,7.8,0
			c2.2,1.5,3.1,3.7,2.1,6c-1.1,2.4-3.1,3.8-6.1,3.9C273.2,224.3,271.6,222.5,269.5,223.1z"/>
		<path class="st2" d="M277.2,206.8c7.9,0,17.3,6.2,20.4,13.5c0.3,0.6,0.5,1.3-0.1,1.8c-0.9,0.7-1.5-0.2-1.8-0.8
			c-2.1-3.9-5.1-7.2-8.6-9.6c-5.7-3.9-11.8-3.9-18.1-1.2c-1.7,0.8-3.4,1.8-5.1,2.5c-0.6,0.3-1.6,1.4-2.2,0c-0.4-0.9,0.6-1.3,1.2-1.7
			C267.3,208.7,272,206.9,277.2,206.8z"/>
		<path class="st2" d="M269.5,223.1c2.1-0.6,3.7,1.2,5.8,1.1c3-0.1,5-1.5,6.1-3.9c1-2.3,0.1-4.6-2.1-6c-2.6-1.7-5.3-2-7.8,0
			c-1.9,1.5-3.9,3.1-2.5,6.1c0.3,0.6,1.1,1.6,0.3,2.5c-2.7-2.3-2.2-5.3-0.7-7.6c1.7-2.7,4.6-4.2,7.9-3.4c3.1,0.8,6.1,2.1,6.7,5.9
			c0.4,3-0.9,5.5-3.5,6.7C275.7,226.4,271.9,226.2,269.5,223.1z"/>
		<path class="st2" d="M465.2,246.6c-0.3,0.7-0.7,0.8-1.4,0.5c0.2-0.4,0.5-0.7,0.7-1.1C464.7,246.3,465,246.4,465.2,246.6z"/>
		<path class="st1" d="M79.3,276c3.8,2.6,8,2.2,10-1.1c5.9-10,2.6-27.3-4.9-35.3c-0.7-0.7-1.6-1.1-2.4-2.1
			c17.8,2.4,34.6-2.4,51.7-7.4c-5.9,17.7-6.3,34.4,6.1,49.8c-2.8,2-6.2,2.7-9.4,4.1c-9.3,3.9-18.4,8.4-28.4,10.4
			c-6.4,1.3-12.5,0.6-17.3-4.6c-4-4.4-8.6-8.1-12.2-13c-2.6-3.6-2.4-5.8,1.1-8.4c1.6-1.2,3.5-2.2,4.9-3.6c1.3-1.3,2.8-1.4,4.2-0.9
			c1.4,0.5,1.7,2.1,2,3.5c0.4,2.5-0.3,4.8-0.9,7.2C83.3,277.4,80.6,274.1,79.3,276z"/>
		<path class="st0" d="M205.2,281.1c-2,4.1-4.3,8-7.3,11.5c-7.8,9.4-17.9,10.9-28.3,6.6c-14.8-6.1-27.3-15.3-34.4-30.5
			c-3.6-7.7-4.5-15.6-3.2-24c1-6,1.8-11.9,5.8-16.9c1.2-1.5,2.4-2.9,4.3-2.3c2,0.7,1.7,2.8,1.7,4.5c0,8.9-0.2,17.8,2.2,26.6
			c4.2,15.3,18.7,27.3,32.6,27.1c4.9-0.1,8.6-2,10.7-6.4c1-2.1,1.9-2.3,4.1-1.6C197.7,277.2,201.4,279.3,205.2,281.1z"/>
		<path class="st3" d="M150.7,331.9c11.4-2.5,22.4-2.8,33.3-3.4c7.2-0.4,14.6,0.6,21.8,1.6c8,1.1,15.7,3.3,23.1,6.7
			c3.7,1.7,7.2,3.7,10.6,5.8c0.8,0.5,2.3,0.5,1.2,2.4c-0.7,1.2-0.9,1.9-2.5,2c-5.6,0.3-11-0.8-16.6-0.9c-15.4-0.3-30.7,0.6-46.1,1
			c-4.3,0.1-8.8,0.1-13,0.8c-2.3,0.4-3.5-0.6-4.3-2C155.6,341.3,153.2,336.6,150.7,331.9z"/>
		<path class="st3" d="M141.3,333.3c1.1,4.8,0.6,9.9,2.4,14.6c0.4,1.1,0.5,2-1.1,2.1c-9.8,0.6-19.6,2.3-29.4,2.4
			c-16.1,0.1-28.3-7-37.7-19.6c-1-1.3-2.1-2.6-3-3.9c-1.3-1.9-0.6-2.8,1.5-2.9c3.4-0.2,6.6,1.1,9.3,2.7c11.7,7.2,24.5,8,37.6,7.3
			C127.6,335.5,134.3,334.2,141.3,333.3z"/>
		<path class="st1" d="M265.2,137.9c0.2-14-1.6-27.1-0.7-40.2c0.4-6.2,0.2-12.5,2.2-18.5c1.6-4.7,2.6-5,6-1.2
			c4.6,5.1,7.3,11.6,11.3,17.1c5.3,7.2,3.6,13.6-0.9,20.1c-5.1,7.3-10.6,14.4-16.2,21.3C266.5,136.8,266.2,137.1,265.2,137.9z"/>
		<path class="st0" d="M181.8,371.6c-7.6,1.9-14.5,3.5-21.4,5.2c-1.3,0.3-1.3-0.7-1.8-1.3c-7.3-10.2-12.7-21.4-14.5-33.9
			c-0.9-6.4-0.2-13,0.3-19.6C151.9,341.9,162.6,359.3,181.8,371.6z"/>
		<path class="st4" d="M239.3,348.4c-3.6,5-7.5,8.3-12.5,10.1c-12.9,4.6-26.2,8-39.4,11.7c-2.6,0.7-4.6,0.5-6.5-1.5
			c-1.2-1.2-2.8-2-5-3.5c6.9-2.4,13.2-4.5,19.5-6.6c8.2-2.7,16.4-5.4,24.1-9.5c1-0.5,1.9-0.7,3-0.6
			C227.8,348.5,233.2,348.4,239.3,348.4z"/>
		<path class="st3" d="M86.3,273.7c0-2.5,0.2-4.9,0-7.4c-0.1-1.9-0.4-4.1-3-4.2c-3-0.1-2.1-2-1.5-3.3c0.6-1.5,0.8-2.9,0.4-4.9
			c-2.8,3.4-5.5,1.7-8.1,0.4c-1.9-1-5.3-1.1-5.4-3.4c-0.3-4.3-1.2-8.8,0.6-13c1.1-2.6,3.5-1.6,5.4-1.1c10.7,2.9,13.6,10,15.4,20.4
			c0.8,4.6,0.6,9.4-1.2,14c-0.5,1.3-1.1,2.2-2,3.1C86.6,274.2,86.4,273.9,86.3,273.7z"/>
		<path class="st4" d="M241.8,341.6c-3.2-1.8-5.9-3.3-8.7-4.8c-1.2-0.7-1.6-1.5-1.2-2.9c3.7-12.2-1.5-22.1-8.5-31.4
			c-4.6-6.1-10.5-10.8-16.9-14.8c-2.2-1.4-1.6-2.6-0.5-4.3c1.4-2.3,2.5-0.2,3.3,0.3c16.7,12.1,28.6,27.6,32.4,48.4
			C242.3,335.1,241.8,338.2,241.8,341.6z"/>
		<path class="st4" d="M121,383.4c-1.4,0-2.9,0.1-4.3,0c-1-0.1-2.5,0.7-3-0.7c-0.4-1.3,0.5-2.5,1.4-3.4c3.2-3.2,7.3-3.7,11.5-4.4
			c8.2-1.3,16.7,0.3,24.7-2.9c1.7-0.7,5.7,3,5.7,5c0,1-0.6,0.9-1.3,1C144.3,380.7,132.9,383.5,121,383.4z"/>
		<path class="st1" d="M391.7,63.4c0,6.4,1.5,12.6,1.1,19c-0.1,2.4-0.7,4-2.7,5.7c-5.1,4.6-10.9,8.6-15.1,14.4
			C378.8,88.6,384.4,75.7,391.7,63.4z"/>
		<path class="st0" d="M122,196.4c-3.4,11-2.6,21.6-0.7,32.1c0.4,2.2-0.2,3.8-2.6,4c-2.1,0.2-5.1,2.6-5.7-1.8
			c-1.3-9.8-2.6-19.7,2.8-28.9C117.2,199.2,119.5,198.2,122,196.4z"/>
		<path class="st0" d="M131,353.3c3.6-1.6,7.5-0.5,11.2-1.7c1.7-0.5,2.8,0.4,3.1,1.9c1.3,5.8,4.9,10.6,7.1,16.1
			c-0.1,0.7-0.8,0.4-1.2,0.7c-5.8,3.1-9.4,0-12.3-4.6C136.4,361.4,133,357.8,131,353.3z"/>
		<path class="st1" d="M427.3,117.3c-0.8-7.2,0.2-13.3,0.5-19.5c0-0.9,0.4-1.6,1-1.9c5.3-2.9,10.6-5.6,15.9-8.5
			c0.3,0.3,0.5,0.6,0.8,0.9C439.6,97.7,433.7,107.1,427.3,117.3z"/>
		<path class="st0" d="M182.6,350.7c2.6,0,5.2,0,7.7,0c1.3,0,2.5,0.6,2.6,1.9c0.1,1.5-1.4,1.2-2.3,1.4c-4.9,1-9.8,2.1-14.3,4.6
			c-1.3,0.7-2.3,0.7-2.8-0.7c-0.7-2-3.9-3.3-3-5.4c1.1-2.4,4.3-1.8,6.7-1.9c1.8-0.1,3.6,0,5.4,0
			C182.6,350.6,182.6,350.7,182.6,350.7z"/>
		<path class="st4" d="M162,275.8c1.6-2,4-1.3,6-1.6c5.9-1.1,11.9-1.2,17.9-0.3c1,0.2,2.5,0.4,2.2,2c-0.3,1.6-1.4,2-2.9,1.5
			c-6.8-2.3-13.6-2.9-20.6-0.6C163.7,277.1,162.6,277,162,275.8z"/>
		<path class="st0" d="M122.4,320.3c3.1,4.1,5.1,8.3,8.6,12c-1.7,0.5-3,1.1-4.3,1.3c-2.2,0.3-4,0.1-3.9-3
			C122.9,327.3,121.5,324.1,122.4,320.3z"/>
		<path class="st4" d="M130.2,286c3.2-1.3,6.5-2.4,9.7-3.8c1.2-0.5,1.9-0.2,2.5,0.7c1,1.4-0.6,1.9-1.2,2.2
			C137.8,286.9,134.2,287.3,130.2,286z"/>
		<path class="st1" d="M418.9,70c0.3,0.1,0.5,0.2,0.7,0.3c-0.2,0.2-0.3,0.5-0.5,0.6c-0.1,0.1-0.3-0.1-0.5-0.2
			C418.7,70.6,418.8,70.3,418.9,70z"/>
		<path class="st1" d="M446.4,87.4c-0.2,0.1-0.3,0.4-0.5,0.4c-0.1,0-0.4-0.4-0.4-0.5c0.2-0.3,0.4-0.5,0.6-0.7
			C446.2,86.9,446.3,87.1,446.4,87.4z"/>
		<path class="st1" d="M409,312c-0.7-0.3-0.8-0.8-0.4-1.4c0.4,0.2,0.7,0.5,1.1,0.7C409.4,311.5,409.2,311.7,409,312z"/>
		<path class="st3" d="M86.8,274.4c-0.3,0.2-0.7,0.5-1,0.7c-0.3-0.6-0.2-1.1,0.5-1.4C86.4,273.9,86.6,274.2,86.8,274.4z"/>
		<path class="st1" d="M403.7,178.1c0.2-0.3,0.4-0.6,0.6-0.8C404.5,177.9,404.1,178.1,403.7,178.1z"/>
		<path class="st1" d="M402.9,178.7c0.3-0.2,0.6-0.4,0.8-0.6C403.6,178.6,403.4,178.9,402.9,178.7z"/>
	</g>
</g>
</svg>
