<?xml version="1.0" encoding="utf-8"?>
<!-- Generator: Adobe Illustrator 21.1.0, SVG Export Plug-In . SVG Version: 6.00 Build 0)  -->
<svg version="1.1" id="Layer_1" xmlns="http://www.w3.org/2000/svg" xmlns:xlink="http://www.w3.org/1999/xlink" x="0px" y="0px"
	 viewBox="0 0 560 560" style="enable-background:new 0 0 560 560;" xml:space="preserve">
<style type="text/css">
	.st0{fill:#FDFDFD;}
	.st1{fill:#E39393;}
	.st2{fill:#060606;}
	.st3{fill:#F0CACA;}
	.st4{fill:#A78B8B;}
	.st5{fill:#FE0000;}
</style>
<g>
	<g>
		<path class="st0" d="M0.8,279.4c0-91.7,0-183.4-0.1-275.1c0-2.9,0.7-3.6,3.6-3.6c183.7,0.1,367.3,0.1,551,0c2.9,0,3.6,0.7,3.6,3.6
			c-0.1,183.7-0.1,367.3,0,551c0,2.9-0.7,3.6-3.6,3.6c-183.7-0.1-367.3-0.1-551,0c-2.9,0-3.6-0.7-3.6-3.6
			C0.8,463.3,0.8,371.4,0.8,279.4z M459.6,113.9c0.3-0.3,0.5-0.5,0.8-0.8c0.6-0.4,1-0.8,0.7-1.6c1.4-0.1,1.9-0.9,2-2.6
			c-1.1,0.9-1.8,1.6-1.9,2.6c-0.7,0.3-0.8,0.9-0.7,1.6C460.1,113.4,459.9,113.7,459.6,113.9L459.6,113.9
			C459.5,114,459.6,113.9,459.6,113.9z M467.3,104.6c-1.6,0.9-3.2,1.7-3.8,4C465.7,107.7,466.4,106.1,467.3,104.6L467.3,104.6
			L467.3,104.6z M356.5,61.3c-0.8,0-1.6-0.1-2.1,0.6c-2.6,3.5-5.1,7-7.6,10.5c-1.1,1.5-1.2,3.3-1,5.2c-0.2,0.3-0.4,0.6-0.5,1
			c-2.3-2.5-1.7-5.8-2.6-8.7c-0.4-1.3-0.3-2.8-2-3.1c-0.6-4.8,0.2-9.8-1.9-14.3c-1.3,0.3-2,1.2-2.6,2c-5.8,7.6-11.9,15-13.8,24.8
			c-0.2,0.9-0.1,2.4-1.5,2.3c-1.3-0.1-2.3-1.1-2.4-2.6c0-0.6-0.1-1.3,0-1.9c0.6-5.6-1.3-11-1.1-16.5c0.1-2-0.6-4-2-5.9
			c-8.1,7.7-11.4,17.7-14.9,27.6c-1-9.2,1.2-18.5-4.2-27.7c-4.7,9.6-10.9,17.8-12.3,28.3c-0.2,1.5,0.1,3.4-2.1,3.6
			c-1.6,0.1-2.6-1.2-2.9-2.7c-1.7-9.1-10.1-12.8-15-19.6c-7.6,13.1-10.7,24.3-10.7,38.5c0,10.1,0.1,20.1,0.2,30.2
			c0,1.9-0.1,3.8-1,5.7c-2.8,5.8-6.2,11.3-10.5,16.2c-3.9,4.3-7.9,8.6-11.1,13.4c-14.5,21.9-35.4,34.1-60.1,40.6
			c-6.1,1.6-12.6,1.5-18.4,4.4c-4.7,2.3-9.5,3.9-14.8,4.4c-2.9,0.2-5.4,1.7-7.6,3.5c-3.7,3-6.9,1.8-7.8-2.8
			c-0.4-1.9-0.4-3.8-0.1-5.8c1.6-10.6,0-21.2,0.3-32c-12.3,13-25.8,25.2-25.1,45.3c0.2,5.5-1.1,6.3-6.6,6.5
			c-10.2,0.4-20.3,1.2-30.5,1.8c-1.3,0.1-2.6,0.1-3,1.8c-2.3,9.2-4.4,18.5-0.9,27.7c2.8,7.3,6.7,14.3,10.8,21
			c2.6,4.2,6.3,7.6,10.5,10.2c2.5,1.5,5.1,3.1,8.3,2.9c7.5-0.4,14.9-1.3,22.3-2.3c9.1-1.2,17.4-6.9,27-5.1c0.1,0,0.3,0,0.4-0.1
			c5.1-2.8,9.1-0.4,13,2.8c4.9,4,10.7,6.7,16.2,9.8c2.5,1.5,5.3,1.5,8.3,1.4c8.9-0.3,16.4-4.1,23.4-9.1c4.1-2.9,5.4-2.9,9.2,0.1
			c3.6,2.8,6.2,6.6,8.7,10.3c3.5,5.4,6.7,11,6.9,17.8c0.1,2.8-0.6,5.1-3.9,5c-3.7-0.2-7.5-0.5-11.1-1.4c-5.7-1.4-11.3-2.4-17.2-2.3
			c-11.5,0-23-0.2-34.3,2.1c-4.6,0.9-6.4-0.4-7.9-4.6c-1.1-2.9-2.2-6.9-5.4-6.8c-3.4,0-4.6,4-5.5,7.1c-0.6,2-1,4.3-3.5,4.6
			c-2.7,0.3-4.6-1-6-3.3c-1.7-2.7-3.6-5.3-5.7-7.8c-1.4-1.6-3.2-1.8-5.3-1.1c-2.1,0.8-3,2.2-3.1,4.4c-0.2,3,0.6,5.9,1.5,8.7
			c0.6,2,0.3,3.4-2.2,3.3c-8.3-0.4-16.6,0.2-24.5-4.1c-5.7-3.1-11.5-6.9-18.8-6.3c-2.2,0.2-3.3,1-4.1,2.8c-1.9,4.4-0.6,8,2.3,11.4
			c4,4.6,8.6,8.7,13.5,12.2c7.2,5.2,14.6,10.3,24.3,9.8c6.1-0.3,12.1-0.2,18.2-0.3c2.4,0,4.3,0.7,5.3,3c4,8.6,3.1,10.3-6.4,11.7
			c-0.4,0.1-0.8,0-1.2,0.1c-4.7,1.5-9.9,1.6-13.9,5.3c-2.2,2-2.9,3.9-1.9,6.8c1.4,4.2,3.7,7.9,5.8,11.8c2.4,4.3,5.4,7.3,10.9,7.2
			c2.4,0,4.8,0.9,7.2,1.6c7.4,2.1,14.8,3.3,22.5,3.1c8.5-0.2,17-0.1,25.6,0c7.4,0.1,14.3,2,20.3,6.4c4.5,3.2,9,6.5,13.5,9.7
			c0.8,0.6,1.8,2.2,3,0c2.5-4.6,4.6-5.5,9.7-3.9c3.7,1.1,7.3,2.6,10.7,4.4c3.2,1.7,6.6,3.1,10.3,2.7c0.8-0.1,1.6,0.1,2.2-1
			c2.6-4.8,4.6-5.4,9.4-2.6c6.6,3.8,13.1,7.7,17.8,14c1.7,2.2,3.7,4.4,6.1,5.9c2.4,1.6,3.2,3.4,3.1,6.1c-0.1,4.9-0.1,9.8,0,14.7
			c0.1,3.5,1,3.9,3.9,2c1.3-0.9,2.7-1.5,4.3-0.6c1.5,0.9,2.1,2.2,2,3.9c-0.1,2.1-0.2,4.1-0.6,6.2c-0.9,5.7-2,11.3-3.1,17.3
			c1.3-0.3,2.1-0.6,3-0.8c4.3-1,6.8,0.7,7.3,5c0.7,6.3,1.3,12.6,1.8,18.9c0.3,4.3,0.7,4.6,4.5,2.3c0.9-0.5,1.7-1.2,2.6-1.7
			c7-4.3,14.2-8.1,22.3-9.6c4.9-0.9,9.6-0.7,14.8-2.8c8.6-3.6,17.6-5.4,24.9-12.1c10.6-9.7,21.3-19.1,29.6-31.1
			c8.3-12,15.8-24.5,25.6-35.3c0.8-0.9,1.5-1.8,2-2.8c4.6-9.7,10.9-18.4,15.4-28.2c1-2.1,2.1-4.3,3.7-5.9c8.6-9,12.7-20.3,16.6-31.6
			c6.7-19.3,10.9-39.3,16.3-58.9c5.3-19.5,9.1-39.4,15-58.8c1.7-5.7,1.5-5.7-4.3-4.9c-2.2,0.3-4.8,1.2-6.5-1c-1.8-2.4-1.4-5-0.4-7.7
			c1.7-4.4,4.3-8.2,7.7-11.4c2.7-2.5,5.2-5,8-7.3c1.9-1.6,1.6-3.1,0.1-4.5c-3.4-3.1-7.5-3.3-11.6-2.2c-3.7,1-7.3,2.4-11,3.7
			c-1.3,0.5-2.5,1-3.6,0c-1.2-1.3-0.2-2.4,0.5-3.4c0.6-0.9,1.2-1.7,1.9-2.4c7-6.4,13.9-13,21.4-18.9c0.9-0.7,2.8-1.2,2.1-2.8
			c-0.6-1.3-2.3-1.5-3.8-1.4c-5,0.4-10,0.7-15,1.4c-6.2,0.8-11.9,3.4-17.6,5.8c-1.5,0.6-2.9,0.7-3.7-0.7c-1-1.7,0.4-2.6,1.7-3.2
			c2-1,3.7-2.5,5.2-4c4.7-4.6,9.7-8.9,15-12.8c4-3,7.7-6.5,10.7-10.6c0.5-0.7,2-1.2,1.1-2.5c-0.6-0.9-1.6-0.7-2.5-0.6
			c-11.2,1.2-22.6,1.8-32.8,7.6c-0.9,0.5-2.1,0.6-2.8-0.3c-0.6-0.8,0.4-1.3,0.9-1.9c1.3-1.9,2.4-4.1,4-5.6
			c6.2-5.6,11.6-12.2,19.1-16.3c1.1-0.6,2-1.6,3-2.4c0.5-0.4,1-0.9,0.7-1.6c-0.3-0.7-1-0.7-1.7-0.7c-2.2,0.1-4.4,0.2-6.6,0.3
			c-2-1.4-3.4,0.4-4.9,1.1c-8.3-0.1-16.6,0-23.3,6c-0.3,0.3-1,0.4-1.4,0.3c-0.7-0.2-0.8-1-0.6-1.6c0.4-1.2,0.7-2.6,1.5-3.5
			c5.6-7.4,11.4-14.7,17-22c0.7-0.9,2.6-1.6,1.8-3c-0.9-1.6-2.6-0.6-3.9-0.1c-8.9,3.1-17.4,7.2-26.1,10.9c-1.2,0.5-2.4,1.6-3.5,0.5
			c-1.4-1.3-0.3-2.7,0.5-3.8c2.8-4,5.7-8,8.7-11.9c3.8-5,7.7-9.9,12-15.3c-5.8-0.1-10.9-1.1-15.6,2.3c-1.7,1.3-3.8,2.1-5.8,3.1
			c-1.8,0.9-2.6,0.4-2.7-1.6c-0.1-3,0.9-5.6,2.8-7.8c3.4-4.1,5.8-8.9,7.1-14c1.9-7.5,0.7-8.8-6.7-7.3c-1.4,0.3-2.8,0.6-4.2,0.9
			c-4.1,1.1-8.7,1.4-12,4.1c-3.3,2.7-7.1,4.5-10.7,6.7c-3.7-2.1-5.2,1.4-7.5,2.8c-1.7,1-0.9,2.1-0.3,3.3c-0.4,0.9-0.9,1.7-2,1.3
			c-1.2-0.4-1.3-1.5-1.4-2.5c-0.4-5.1-0.8-10.2-1.4-15.3c-0.2-1.7,0.9-4.3-0.9-4.8c-1.6-0.5-3.4,1.4-4.6,3c-0.1,0.2-0.4,0.4-0.5,0.5
			c-1.8-0.3-2.9,0.6-3.8,2c-2.4,3.8-3.6,8.1-5.2,12.3c-0.3,0.7,0.3,1.1,1,1.3c-2.4,5.9-4.9,11.9-7.4,17.8c-0.4,0.9-0.3,2.4-1.5,2.3
			c-0.8-0.1-1.7-1.1-2.3-1.9c-1-1.2-0.9-2.6-0.9-4.1c0-5.7,0-11.3,0-17c0-6.8,0-13.6,0-21.4C361.9,53.5,359.2,57.4,356.5,61.3z"/>
		<path class="st1" d="M468.8,126.4c1.5-0.8,2.9-2.5,4.9-1.1c-1.1,1.2-2.1,2.6-3.3,3.7c-10.1,10-18.4,21.4-26.3,33.1
			c-0.4,0.6-2,1.1-1,2.4c1.2,1.4,2.3,0,3-0.5c5-3.5,10.5-6.2,16-8.7c6.7-3,13.7-4.6,21.4-4.9c-0.5,0.7-0.7,1.1-1,1.3
			c-15.9,11.3-29.2,25.2-39.9,41.5c-0.5,0.7-1.5,1.2-0.6,2.2c1,1.1,1.9,0.1,2.6-0.4c5.7-3.8,11.8-6.8,18-9.7c8-3.7,16.4-6.4,26-7.9
			c-8.8,8.5-16.4,17-23.5,25.9c-3.5,4.3-6.8,8.9-10.1,13.4c-0.3,0.4-1.2,1.2-0.2,1.9c0.9,0.6,1.2,0,1.9-0.6c3.1-2.5,5.9-5.2,9.4-7.2
			c8.4-4.8,17.1-7.9,27.6-6.7c-6.8,6.4-12.4,13.2-18.3,19.8c-6,6.8-11.7,13.8-16.7,21.4c-0.2,0.4-0.5,0.7-0.7,1.1
			c0.6,0.4,1.1,0.2,1.4-0.5c3.7-1.5,7.4-3.1,11.2-4.6c6.4-2.5,12.7-5.7,20.2-4.6c-0.7,1.3-1.3,2.5-2,3.7
			c-6.7,12.2-10.4,25.4-13.9,38.6c-7.6,28.7-15.4,57.3-27.7,84.5c-11.8,26.2-24.4,52-40.4,76c-9.4,14.1-19.5,27.5-31.9,39.1
			c-3.7,3.5-7.4,7.3-12.1,9.6c-1.3-10.4-0.2-20.9-4.6-31c-3.8,16.8-8.3,32.6-24.5,42.5c0.4-1.8,0.8-2.9,0.8-4
			c0.5-9.2,1.9-18.4,1.6-27.6c0-0.9,1.1-2.3-0.5-2.6c-1.7-0.4-1.5,1.5-1.7,2.3c-3.1,12-9.1,22.5-16.7,32.1c-1.7,2.2-3.2,4.7-5.8,6.2
			c0.7-2.6,0.4-5.2,0.8-7.6c2.1-12.2,3.1-24.5,4.3-36.7c0.1-1-0.3-1.6-1-1.9c-1.2-0.5-1.2,0.8-1.4,1.3c-0.8,1.7-1.3,3.6-2.1,5.3
			c-2.5,5.4-4.6,11.1-8.9,15.5c-1.1-4.4,0.5-8.5,0.5-12.6c0-9.4,0.1-18.9-0.1-28.3c-0.1-4-0.9-7.9-0.8-11.9c0-0.9-0.3-1.9-1.4-2
			c-1.1-0.1-0.9,1.1-1.2,1.7c-0.3,0.5-0.3,1.2-0.4,1.8c-0.9,4.6-3.2,8.5-6,12.1c-0.5,0.7-1.1,1.4-2.2,1.4c-0.9,0-1-0.6-1-1.3
			c-0.7-10-4.7-18.9-9.4-27.5c-5.6-10.3-13.4-18.3-24.6-22.9c8.4,17.3,9,19,7.7,23.8c-0.9-0.5-1.9-0.9-2.6-1.5
			c-8-6.8-17.1-11.8-26.3-16.8c-0.7-0.4-1.5-1.6-2.6-0.4c-1.1,1.3,0.3,1.8,0.8,2.5c3,4.6,5.2,9.4,5.7,15.6
			c-9.5-6.5-18.9-12.2-29.7-16.7c0,4,0,7.5,0,11.6c-2.1-1.6-3.6-3-5.3-4c-4.5-2.6-7.9-7.2-13.8-7.6c-5.4-0.4-10.7-1.3-16.1-1.2
			c-15.1,0.1-30.2,0.3-45.3-0.1c-7.8-0.2-14.6-3.3-18.5-10.8c-1.2-2.3-0.8-3.1,1.9-3.1c6.7,0.1,13.4,0.5,20-0.9
			c9.9-2.1,19.7-4.4,29.5-6.8c19.8-4.9,39.7-9.6,59-16.3c6.9-2.4,12.9-6.1,15.7-13.3c3.2-8.2,2.5-16.5-0.2-24.7
			c-5.5-16.8-15.9-30-30.3-40.1c-13.9-9.7-29.1-13.4-46-9.7c-2.2,0.5-4.7,2.2-7.5-0.5c-5.6-5.5-8.5-12.2-10.3-19.5
			c-2.1-8.6-1.3-17.3-1.8-26c-0.1-1.5,0.9-1.4,1.4-1.7c12.1-5.8,24.1-11.5,37.4-14.2c9.3-1.9,18.4-4.3,25.7-11.1
			c10.2-9.6,20.2-19.4,29.8-29.7c13.3-14.3,26.2-28.8,37.9-44.3c4-5.2,8.7-10.2,10.4-16.6c2.8-11,4.6-22.2,7.2-33.3
			c0.8-3.4,0.8-7.1,2.7-10.8c1.6,6.9,2,13.2,1.9,19.6c-0.2,8.5,2.4,16.8,1.6,25.3c0,0.3,0,0.5,0,0.8c0.1,0.6,0.3,0.9,1,0.9
			c0.5,0,1-0.1,1.2-0.6c0.3-0.8,0.6-1.7,0.7-2.6c1.1-8.4,3.1-16.6,5.6-24.7c1.9-6.3,3.2-12.9,7.9-19c1.1,6.6,0.6,12.7,1.2,18.7
			c0.7,7.2,0.1,14.5,0.2,21.7c0,2.3-1.2,6.3,1,6.7c2.4,0.4,3.2-3.6,4-5.8c3.7-10.8,7-21.7,10.5-32.5c1.1-3.3,1.6-6.8,4.7-10.2
			c0,2.1,0,3.3,0,4.5c0,11.8,0,23.5,0,35.3c0,2,0.2,3.8,0.9,5.6c0.6,1.8,2.3,2.3,4.1,2.2c1.5-0.1,1.8-1.1,2.1-2.3
			c2.3-11.6,6.5-22.5,12.5-32.7c2.3-3.9,4.6-8,8.4-11.7c0,4-0.1,7.4,0,10.7c0.2,8.7-0.3,17.5,0.6,26.3c0.4,3.9,1.4,8.2-1.6,11.8
			c-10.1,12.3-18,26-26.1,39.6c-6.2,10.4-12,21.1-19.7,30.6c-1.4,1.7-4,3-4.1,6.6c5.9-4.9,9.8-10.5,13.4-16.3
			c7-11.3,13.6-22.8,20.5-34.1c8.2-13.2,17-26,27.7-37.4c8.7-9.3,18.7-17.1,29.2-24.2c3.1-2.1,6-4.8,10.3-5.7
			c-0.5,1.1-0.6,1.9-1.1,2.4c-4.7,4.7-8.7,10-12.7,15.2c-5.9,7.5-11.7,15.2-16.2,23.7c-5.2,10-8.4,20.8-12.3,31.2
			c-6.3,16.9-15.6,31.7-27.9,44.8c-0.9,0.9-2.6,1.4-2.1,3.3c0.1,0.3,0.6,0.8,0.8,0.8c1.5-0.4,1.7-2.1,2.7-3c0.6,1.2,1.5,1.6,2.8,1.7
			c16.3,1.1,31.4-2.4,45.3-11.1c1.5-0.9,2.7-2.5,4.8-2c-3.3,3.8-7.5,6.4-11.5,9.3c-8.7,6.4-17.6,12.5-27.6,16.5
			c15.8,11.2,30.2,24.1,43.2,39.3c-2.9-0.2-5,0.1-7.1,1.1c7.5,10.6,12.5,22.4,16.4,35.1c-4.2-1.4-7.9-2.5-11.9-3.8
			c9.8,20.7,12.9,30.2,11,38c-2.6-3.3-5.3-6.7-7.9-10c1.1,14.4,2.7,28.2,0.5,42.2c-3.1-3.2-4.4-7.4-7.5-11.9
			c0.4,13-1.4,24.7-4.8,36.6c-2.5-3.3-3.6-6.8-6.6-9.6c-1,11.4-5.5,20.8-10.3,30.7c-1.3-2-0.6-3.4-0.9-4.7c-0.3-1.3-0.7-2.6-1.2-4.3
			c-5.2,10.6-12.4,18.8-21.9,25.4c-0.5-4.7,0.1-8.9,0.7-13.4c-2.6,1.9-3.8,4.4-5.7,6.2c-5.1,5-10.9,9.2-17.4,12.2
			c-0.5,0.3-2.2,0-1.6,1.5c0.6,1.5,1.8,0.6,2.5,0.2c2.7-1.4,5.3-3,7.9-4.6c4.4-2.6,7.8-6.3,11.7-10.1c0.5,4.5-1.7,8.3-0.2,12.2
			c9-6.7,17.2-14,23.3-24.3c0.6,4,1.1,6.9,1.6,10.7c5.3-11.1,10.1-21.3,12.7-32.8c2.1,3.3,3.9,6.2,5.8,9.3c3.2-11.2,5.4-22.2,5.9-34
			c2.5,3.5,4.7,6.4,7.3,9.9c1.8-14.1,1-27.4,0.1-40.7c0.2-0.2,0.4-0.5,0.6-0.7c2.8,2.4,5.7,4.9,9,7.7c-0.7-14.1-4.9-26.6-11.2-39
			c3.9,1.2,7.3,2.3,11.1,3.5c-3.9-13.2-8.7-25.3-16.1-36.7c1.6,0,2.8,0.1,4.1,0c1.2-0.1,2.5,0.6,3.7-0.9c-13-14.8-27-28.5-43.1-40.3
			c2-0.9,3.7-1.5,5.2-2.4c16.7-10.1,32.7-21.2,46-35.7c8.9-9.7,12.7-21.2,10.5-34.4c-0.6-3.6-0.7-7.1,3.7-8.9c2-0.8,3.7-2.3,5.5-3.4
			c8.3-5.3,16.4-10.7,25.2-15c0.5,0.8,0.1,1.1-0.2,1.5c-8.3,10.8-15.7,22.1-22.3,34c-0.5,0.9-2.3,2.1-0.5,3.2
			c1.2,0.8,2.2-0.5,3.1-1.3c4.8-3.7,9.9-7.1,15.4-9.7C458.3,130.3,463.6,128.4,468.8,126.4z M264.6,222.4c1.8,2.3,4.3,2.7,6.9,2.3
			c3.6-0.4,6.4-3.1,6.7-6.3c0.3-3.4-1.5-5.6-4.5-6.8c-3.4-1.4-8.4-0.3-9.9,2.4c-1.5,2.6-2.2,5.5,0.5,8
			C264.4,222.2,264.5,222.3,264.6,222.4z M272.6,206.1c-4.6-0.1-8.8,1.4-12.7,3.5c-1.1,0.6-3.6,1-2.7,2.8c0.8,1.5,2.4-0.3,3.4-0.9
			c7.1-3.7,14.2-5.4,21.4-0.6c3.6,2.4,6.5,5.6,8.7,9.5c0.4,0.6,0.9,1.6,1.7,1.1c0.8-0.4,0.6-1.3,0.1-2
			C287.8,212,282,206.3,272.6,206.1z"/>
		<path class="st2" d="M468.8,126.4c-5.2,2.1-10.5,3.9-15.6,6.3c-5.5,2.6-10.6,6-15.4,9.7c-1,0.7-1.9,2-3.1,1.3
			c-1.8-1.1,0-2.3,0.5-3.2c6.5-11.9,14-23.2,22.3-34c0.3-0.4,0.7-0.7,0.2-1.5c-8.8,4.3-17,9.7-25.2,15c-1.8,1.2-3.5,2.6-5.5,3.4
			c-4.4,1.8-4.3,5.3-3.7,8.9c2.2,13.2-1.5,24.7-10.5,34.4c-13.3,14.5-29.3,25.5-46,35.7c-1.5,0.9-3.2,1.5-5.2,2.4
			c16.1,11.8,30.1,25.5,43.1,40.3c-1.2,1.5-2.6,0.8-3.7,0.9c-1.2,0.1-2.5,0-4.1,0c7.5,11.4,12.3,23.5,16.1,36.7
			c-3.8-1.2-7.1-2.3-11.1-3.5c6.3,12.4,10.6,24.8,11.2,39c-3.3-2.8-6.1-5.2-9-7.7c-0.3-0.2-0.7-0.5-1-0.7c-0.4,0.6-0.2,1.1,0.4,1.4
			c0.9,13.3,1.7,26.5-0.1,40.7c-2.6-3.5-4.7-6.4-7.3-9.9c-0.5,11.8-2.7,22.8-5.9,34c-1.9-3.1-3.8-6-5.8-9.3
			c-2.7,11.5-7.5,21.7-12.7,32.8c-0.6-3.8-1-6.7-1.6-10.7c-6.1,10.3-14.3,17.6-23.3,24.3c-1.5-3.8,0.8-7.6,0.2-12.2
			c-3.9,3.8-7.3,7.5-11.7,10.1c-2.6,1.5-5.2,3.1-7.9,4.6c-0.7,0.4-1.9,1.3-2.5-0.2c-0.6-1.5,1.1-1.3,1.6-1.5
			c6.5-3,12.3-7.2,17.4-12.2c1.9-1.9,3-4.4,5.7-6.2c-0.7,4.5-1.2,8.7-0.7,13.4c9.5-6.6,16.7-14.8,21.9-25.4c0.4,1.6,0.9,3,1.2,4.3
			c0.3,1.3-0.4,2.8,0.9,4.7c4.8-9.9,9.2-19.3,10.3-30.7c2.9,2.7,4,6.3,6.6,9.6c3.4-12,5.1-23.6,4.8-36.6c3.1,4.4,4.4,8.7,7.5,11.9
			c2.2-14,0.6-27.8-0.5-42.2c2.6,3.3,5.3,6.7,7.9,10c1.9-7.7-1.2-17.3-11-38c4,1.3,7.7,2.5,11.9,3.8c-3.8-12.7-8.9-24.4-16.4-35.1
			c2.1-1,4.2-1.3,7.1-1.1c-13.1-15.2-27.5-28.1-43.2-39.3c10.1-4,19-10.1,27.6-16.5c4-2.9,8.3-5.5,11.5-9.3c0,0,0,0,0,0
			c0.6-0.1,1.4,0,1.5-0.9l0,0c0.5-0.1,0.8-0.3,0.6-0.8c9.2-6.5,16.9-14.3,20.9-25.1c3.6-9.7,1.9-19.8,0.8-29.7
			c-1.3-12.4-0.6-24.4,2.4-36.5c1.5-6.1,3.8-11.9,5.9-17.9c0.5-1.3,0.8-2.5-0.2-3.5c-1.1-1.1-2.1-0.1-3.1,0.1
			c-2.7,0.7-4.8,2.1-6.8,4c-6.7,6.7-12.5,14.2-18.4,21.6c-9.3,11.6-17.5,23.8-22.4,38.1c-5.2,15.3-10.5,30.6-19.9,44
			c-4.4,6.2-9,12.2-14.1,17.8c-1,0.9-1.3,2.6-2.7,3c-0.2,0.1-0.7-0.4-0.8-0.8c-0.5-1.8,1.3-2.3,2.1-3.3
			c12.3-13.1,21.6-27.9,27.9-44.8c3.9-10.5,7-21.3,12.3-31.2c4.5-8.5,10.3-16.2,16.2-23.7c4.1-5.2,8.1-10.5,12.7-15.2
			c0.5-0.5,0.6-1.4,1.1-2.4c-4.3,0.9-7.2,3.6-10.3,5.7c-10.5,7.1-20.4,14.9-29.2,24.2c-10.7,11.4-19.5,24.1-27.7,37.4
			c-7,11.3-13.5,22.8-20.5,34.1c-3.6,5.8-7.5,11.4-13.4,16.3c0.1-3.6,2.7-4.9,4.1-6.6c7.8-9.5,13.5-20.2,19.7-30.6
			c8.1-13.6,16-27.3,26.1-39.6c3-3.6,2-8,1.6-11.8c-1-8.8-0.4-17.5-0.6-26.3c-0.1-3.3,0-6.7,0-10.7c-3.8,3.7-6.1,7.8-8.4,11.7
			c-6,10.2-10.2,21.1-12.5,32.7c-0.2,1.2-0.6,2.3-2.1,2.3c-1.8,0.1-3.4-0.4-4.1-2.2c-0.6-1.8-0.9-3.7-0.9-5.6
			c0.1-11.8,0-23.5,0-35.3c0-1.2,0-2.5,0-4.5c-3,3.4-3.6,6.9-4.7,10.2c-3.5,10.8-6.8,21.7-10.5,32.5c-0.8,2.2-1.6,6.2-4,5.8
			c-2.1-0.4-0.9-4.3-1-6.7c-0.1-7.2,0.5-14.5-0.2-21.7c-0.6-6-0.1-12-1.2-18.7c-4.7,6.1-5.9,12.7-7.9,19c-2.5,8.1-4.5,16.3-5.6,24.7
			c-0.1,0.9-0.5,1.7-0.7,2.6c-0.2,0.6-0.7,0.7-1.2,0.6c-0.6,0-0.9-0.4-1-0.9c0-0.3-0.1-0.5,0-0.8c0.8-8.5-1.7-16.8-1.6-25.3
			c0.1-6.4-0.3-12.8-1.9-19.6c-1.8,3.7-1.9,7.4-2.7,10.8c-2.6,11-4.4,22.3-7.2,33.3c-1.6,6.4-6.4,11.4-10.4,16.6
			c-11.8,15.5-24.7,30-37.9,44.3c-9.6,10.3-19.6,20.1-29.8,29.7c-7.3,6.9-16.4,9.3-25.7,11.1c-13.3,2.6-25.4,8.4-37.4,14.2
			c-0.5,0.2-1.5,0.1-1.4,1.7c0.5,8.7-0.3,17.4,1.8,26c1.8,7.4,4.7,14,10.3,19.5c2.7,2.7,5.3,1,7.5,0.5c16.9-3.8,32.1-0.1,46,9.7
			c14.3,10.1,24.7,23.3,30.3,40.1c2.7,8.1,3.4,16.5,0.2,24.7c-2.8,7.2-8.8,10.9-15.7,13.3c-19.3,6.7-39.2,11.3-59,16.3
			c-9.8,2.4-19.6,4.7-29.5,6.8c-6.6,1.4-13.3,1-20,0.9c-2.7,0-3.1,0.8-1.9,3.1c3.9,7.5,10.7,10.6,18.5,10.8
			c15.1,0.4,30.2,0.2,45.3,0.1c5.4,0,10.7,0.9,16.1,1.2c5.8,0.4,9.3,5,13.8,7.6c1.7,1,3.2,2.4,5.3,4c0-4,0-7.5,0-11.6
			c10.7,4.6,20.2,10.3,29.7,16.7c-0.5-6.1-2.7-11-5.7-15.6c-0.5-0.8-1.9-1.2-0.8-2.5c1.1-1.2,1.8,0.1,2.6,0.4
			c9.2,4.9,18.3,10,26.3,16.8c0.7,0.6,1.7,1,2.6,1.5c1.3-4.8,0.7-6.6-7.7-23.8c11.2,4.6,19.1,12.6,24.6,22.9
			c4.6,8.6,8.6,17.5,9.4,27.5c0,0.7,0.1,1.3,1,1.3c1.1,0.1,1.6-0.7,2.2-1.4c2.9-3.6,5.1-7.5,6-12.1c0.1-0.6,0.1-1.3,0.4-1.8
			c0.4-0.6,0.2-1.8,1.2-1.7c1.1,0.1,1.4,1.1,1.4,2c-0.1,4,0.7,7.9,0.8,11.9c0.2,9.4,0.1,18.9,0.1,28.3c0,4.1-1.6,8.1-0.5,12.6
			c4.3-4.5,6.4-10.1,8.9-15.5c0.8-1.7,1.3-3.5,2.1-5.3c0.2-0.6,0.2-1.8,1.4-1.3c0.7,0.3,1.1,0.9,1,1.9c-1.2,12.3-2.2,24.6-4.3,36.7
			c-0.4,2.5-0.1,5-0.8,7.6c2.7-1.5,4.1-4,5.8-6.2c7.5-9.7,13.5-20.2,16.7-32.1c0.2-0.8,0-2.7,1.7-2.3c1.5,0.4,0.4,1.7,0.5,2.6
			c0.4,9.3-1.1,18.4-1.6,27.6c-0.1,1.1-0.4,2.2-0.8,4c16.2-9.9,20.7-25.7,24.5-42.5c4.4,10.1,3.3,20.6,4.6,31
			c4.7-2.3,8.3-6.1,12.1-9.6c12.4-11.6,22.5-25,31.9-39.1c16-24,28.6-49.7,40.4-76c12.3-27.2,20.1-55.8,27.7-84.5
			c3.5-13.3,7.3-26.5,13.9-38.6c0.7-1.2,1.3-2.4,2-3.7c-7.5-1.1-13.8,2.1-20.2,4.6c-3.7,1.5-7.4,3-11.2,4.6
			c-0.2-0.2-0.4-0.4-0.7-0.6c4.9-7.6,10.7-14.6,16.7-21.4c5.8-6.6,11.5-13.4,18.3-19.8c-10.5-1.2-19.3,1.9-27.6,6.7
			c-3.5,2-6.3,4.7-9.4,7.2c-0.7,0.6-1.1,1.2-1.9,0.6c-0.9-0.7,0-1.5,0.2-1.9c3.3-4.5,6.6-9,10.1-13.4c7.2-8.9,14.7-17.4,23.5-25.9
			c-9.7,1.5-18,4.2-26,7.9c-6.2,2.9-12.3,5.9-18,9.7c-0.7,0.4-1.5,1.5-2.6,0.4c-0.9-1,0.1-1.5,0.6-2.2c10.7-16.3,24-30.2,39.9-41.5
			c0.3-0.2,0.4-0.6,1-1.3c-7.8,0.3-14.8,2-21.4,4.9c-5.6,2.5-11,5.2-16,8.7c-0.7,0.5-1.8,1.9-3,0.5c-1.1-1.3,0.5-1.7,1-2.4
			c7.9-11.7,16.2-23.2,26.3-33.1c1.2-1.2,2.2-2.5,3.3-3.7c2.2-0.1,4.4-0.2,6.6-0.3c0.7,0,1.4,0.1,1.7,0.7c0.3,0.7-0.2,1.2-0.7,1.6
			c-1,0.8-1.9,1.8-3,2.4c-7.5,4.2-12.9,10.7-19.1,16.3c-1.7,1.5-2.7,3.7-4,5.6c-0.4,0.6-1.5,1.1-0.9,1.9c0.7,0.9,1.9,0.8,2.8,0.3
			c10.2-5.8,21.6-6.4,32.8-7.6c0.9-0.1,1.9-0.3,2.5,0.6c0.9,1.3-0.6,1.8-1.1,2.5c-3,4.1-6.6,7.6-10.7,10.6c-5.3,4-10.3,8.2-15,12.8
			c-1.5,1.5-3.2,3-5.2,4c-1.3,0.6-2.7,1.5-1.7,3.2c0.9,1.4,2.2,1.3,3.7,0.7c5.7-2.4,11.4-5,17.6-5.8c5-0.7,10-0.9,15-1.4
			c1.5-0.1,3.2,0,3.8,1.4c0.7,1.6-1.2,2.1-2.1,2.8c-7.5,5.9-14.4,12.5-21.4,18.9c-0.7,0.7-1.4,1.5-1.9,2.4c-0.7,1-1.7,2.2-0.5,3.4
			c1.1,1.1,2.3,0.5,3.6,0c3.6-1.3,7.2-2.7,11-3.7c4.1-1.1,8.2-0.9,11.6,2.2c1.6,1.4,1.8,2.9-0.1,4.5c-2.8,2.3-5.3,4.9-8,7.3
			c-3.5,3.2-6,7-7.7,11.4c-1.1,2.7-1.5,5.3,0.4,7.7c1.7,2.3,4.3,1.3,6.5,1c5.8-0.8,6-0.8,4.3,4.9c-5.9,19.4-9.7,39.3-15,58.8
			c-5.3,19.7-9.6,39.7-16.3,58.9c-3.9,11.3-8.1,22.6-16.6,31.6c-1.6,1.6-2.7,3.8-3.7,5.9c-4.4,9.8-10.8,18.5-15.4,28.2
			c-0.5,1-1.2,2-2,2.8c-9.9,10.8-17.4,23.4-25.6,35.3c-8.2,11.9-19,21.3-29.6,31.1c-7.3,6.7-16.3,8.5-24.9,12.1
			c-5.1,2.1-9.9,1.9-14.8,2.8c-8,1.5-15.3,5.3-22.3,9.6c-0.9,0.5-1.7,1.2-2.6,1.7c-3.7,2.3-4.1,2-4.5-2.3
			c-0.5-6.3-1.1-12.6-1.8-18.9c-0.5-4.4-3-6-7.3-5c-0.8,0.2-1.7,0.4-3,0.8c1.1-6,2.1-11.6,3.1-17.3c0.3-2,0.4-4.1,0.6-6.2
			c0.1-1.7-0.4-3-2-3.9c-1.6-0.9-3-0.3-4.3,0.6c-2.8,1.9-3.8,1.6-3.9-2c-0.2-4.9-0.1-9.8,0-14.7c0.1-2.7-0.7-4.5-3.1-6.1
			c-2.3-1.5-4.4-3.7-6.1-5.9c-4.7-6.3-11.2-10.2-17.8-14c-4.8-2.8-6.9-2.2-9.4,2.6c-0.6,1.1-1.3,0.9-2.2,1c-3.8,0.4-7.1-1-10.3-2.7
			c-3.5-1.8-7-3.2-10.7-4.4c-5-1.5-7.2-0.7-9.7,3.9c-1.2,2.2-2.2,0.6-3,0c-4.5-3.2-9-6.5-13.5-9.7c-6.1-4.4-12.9-6.3-20.3-6.4
			c-8.5-0.1-17.1-0.2-25.6,0c-7.7,0.2-15.2-1-22.5-3.1c-2.4-0.7-4.8-1.6-7.2-1.6c-5.5,0.1-8.6-2.9-10.9-7.2
			c-2.1-3.8-4.4-7.5-5.8-11.8c-1-2.9-0.3-4.8,1.9-6.8c4-3.7,9.2-3.8,13.9-5.3c0.4-0.1,0.8-0.1,1.2-0.1c9.4-1.4,10.3-3.1,6.4-11.7
			c-1.1-2.3-2.9-3.1-5.3-3c-6.1,0.1-12.1,0-18.2,0.3c-9.7,0.5-17.1-4.6-24.3-9.8c-4.9-3.5-9.5-7.6-13.5-12.2
			c-2.9-3.3-4.3-7-2.3-11.4c0.8-1.8,1.9-2.6,4.1-2.8c7.2-0.6,13,3.2,18.8,6.3c7.9,4.3,16.2,3.7,24.5,4.1c2.5,0.1,2.8-1.3,2.2-3.3
			c-0.9-2.8-1.7-5.7-1.5-8.7c0.2-2.2,1-3.6,3.1-4.4c2.1-0.8,3.9-0.6,5.3,1.1c2,2.5,4,5.1,5.7,7.8c1.5,2.4,3.4,3.6,6,3.3
			c2.5-0.3,3-2.6,3.5-4.6c0.9-3.2,2.1-7.1,5.5-7.1c3.2,0,4.3,3.9,5.4,6.8c1.6,4.3,3.3,5.6,7.9,4.6c11.4-2.3,22.8-2.1,34.3-2.1
			c5.9,0,11.5,1,17.2,2.3c3.6,0.9,7.4,1.2,11.1,1.4c3.3,0.2,4-2.2,3.9-5c-0.2-6.8-3.4-12.4-6.9-17.8c-2.5-3.7-5.1-7.5-8.7-10.3
			c-3.8-3-5.1-3-9.2-0.1c-7,5-14.5,8.8-23.4,9.1c-2.9,0.1-5.7,0.1-8.3-1.4c-5.5-3.2-11.2-5.9-16.2-9.8c-3.9-3.2-7.9-5.6-13-2.8
			c-0.1,0.1-0.3,0.1-0.4,0.1c-9.7-1.8-17.9,3.9-27,5.1c-7.4,0.9-14.8,1.9-22.3,2.3c-3.1,0.2-5.8-1.4-8.3-2.9
			c-4.2-2.6-7.9-6-10.5-10.2c-4.1-6.7-8-13.6-10.8-21c-3.6-9.2-1.5-18.5,0.9-27.7c0.4-1.7,1.7-1.7,3-1.8c10.2-0.6,20.3-1.3,30.5-1.8
			c5.5-0.2,6.8-1.1,6.6-6.5c-0.7-20.2,12.8-32.4,25.1-45.3c-0.3,10.8,1.3,21.5-0.3,32c-0.3,1.9-0.3,3.9,0.1,5.8
			c0.9,4.6,4.1,5.7,7.8,2.8c2.3-1.8,4.8-3.3,7.6-3.5c5.3-0.4,10.1-2,14.8-4.4c5.8-2.9,12.3-2.8,18.4-4.4
			c24.8-6.5,45.7-18.7,60.1-40.6c3.2-4.8,7.2-9.1,11.1-13.4c4.3-4.9,7.7-10.3,10.5-16.2c0.9-1.8,1-3.7,1-5.7
			c-0.1-10.1-0.2-20.1-0.2-30.2c0-14.2,3-25.3,10.7-38.5c4.9,6.8,13.3,10.5,15,19.6c0.3,1.5,1.2,2.8,2.9,2.7
			c2.2-0.1,1.9-2.1,2.1-3.6c1.4-10.4,7.5-18.7,12.3-28.3c5.4,9.2,3.2,18.5,4.2,27.7c3.5-9.9,6.8-19.9,14.9-27.6c1.3,1.9,2,3.9,2,5.9
			c-0.2,5.6,1.7,11,1.1,16.5c-0.1,0.6,0,1.3,0,1.9c0.1,1.5,1.1,2.5,2.4,2.6c1.4,0.2,1.3-1.3,1.5-2.3c1.9-9.7,8-17.2,13.8-24.8
			c0.6-0.8,1.2-1.7,2.6-2c2.1,4.6,1.3,9.6,1.9,14.3c0,6.8,0,13.6,0,21.3c1.8-3.6,3.2-6.5,4.6-9.4c0.2-0.3,0.4-0.6,0.5-1
			c3.7-5.3,7.8-10.4,10.8-16.3c2.7-3.9,5.4-7.7,8.7-12.4c0,7.8,0,14.6,0,21.4c0,5.7,0,11.3,0,17c0,1.4-0.1,2.9,0.9,4.1
			c0.6,0.8,1.5,1.8,2.3,1.9c1.2,0.1,1.2-1.4,1.5-2.3c2.5-5.9,4.9-11.9,7.4-17.8c2.7-5.2,5.3-10.4,8-15.6c0.2-0.2,0.4-0.3,0.5-0.5
			c1.1-1.7,2.9-3.5,4.6-3c1.8,0.5,0.8,3.1,0.9,4.8c0.6,5.1,0.9,10.2,1.4,15.3c0.1,1,0.2,2.1,1.4,2.5c1.1,0.4,1.6-0.5,2-1.3
			c2.6-2,5.2-4.1,7.8-6.1c3.6-2.2,7.4-4,10.7-6.7c3.3-2.7,7.9-3,12-4.1c1.4-0.4,2.8-0.6,4.2-0.9c7.4-1.5,8.6-0.2,6.7,7.3
			c-1.3,5.2-3.7,9.9-7.1,14c-1.9,2.3-2.9,4.8-2.8,7.8c0,2.1,0.9,2.5,2.7,1.6c1.9-1,4-1.8,5.8-3.1c4.6-3.4,9.8-2.4,15.6-2.3
			c-4.3,5.4-8.2,10.3-12,15.3c-3,3.9-5.8,7.9-8.7,11.9c-0.8,1.1-1.8,2.5-0.5,3.8c1.1,1.1,2.3-0.1,3.5-0.5
			c8.7-3.6,17.2-7.8,26.1-10.9c1.3-0.5,3-1.4,3.9,0.1c0.7,1.3-1.1,2-1.8,3c-5.6,7.4-11.4,14.6-17,22c-0.8,1-1.1,2.3-1.5,3.5
			c-0.2,0.6-0.1,1.4,0.6,1.6c0.4,0.1,1.1,0,1.4-0.3C452.3,126.4,460.5,126.2,468.8,126.4z M82.6,273.4c0.9-0.9,1.5-1.8,2-3.1
			c1.9-4.6,2-9.4,1.2-14c-1.8-10.4-4.7-17.5-15.3-20.4c-1.9-0.5-4.2-1.4-5.4,1.1c-1.8,4.2-0.9,8.6-0.6,12.9c0.1,2.3,3.5,2.4,5.4,3.4
			c2.6,1.3,5.3,3.1,7.9-0.2c0.7,1.9,0.4,3.2-0.2,4.7c-0.5,1.3-1.4,3.2,1.5,3.3c2.6,0.1,2.8,2.3,2.9,4.2c0.2,2.4,0,4.9,0,7.4
			c-0.7,0.3-0.8,0.7-0.5,1.4C81.9,273.9,82.3,273.7,82.6,273.4z M75.2,275.2c1.1-2.4,3.8,1.2,4.5-1.5c0.6-2.4,1.3-5,0.9-7.5
			c-0.6-3.5-3.2-4.5-6.1-2.4c-1.6,1.2-3.3,2.4-4.9,3.6c-3.6,2.6-3.8,4.8-1.2,8.3c3.6,4.9,8.3,8.8,12.4,13.2
			c4.7,5.1,10.7,5.7,16.9,4.4c9.9-2,19.1-6.4,28.3-10.4c3.2-1.3,6.6-2,9.4-4.1c-12.3-15.3-12-31.8-6.1-49.5
			c-16.9,4.8-33.6,9.8-52.5,6.8c2.6,2.3,4.5,3.5,5.7,5.5c5,8.3,6.8,17.2,4.9,26.6C85.9,276.1,81,278.7,75.2,275.2z M139.5,236.8
			c0-2.9,0-5.5,0-8.1c0-1.6,0-3.3-1.6-3.9c-1.6-0.5-2.9,0.4-4.1,1.9c-4.1,5-5.1,10.9-6.1,17.1c-1.4,8.8-0.6,17.1,3.5,25
			c7.5,14.5,19.7,23.6,34.5,29.6c5.2,2.1,10.6,2.3,16,0.9c8.2-2.1,12.5-8.5,16.8-15c2.3-3.5,1.6-5-2.1-6.4c-2.6-0.9-5.1-2.1-7.6-3.1
			c-2.1-0.8-2.9-0.4-3.8,1.5c-2.2,4.6-6,6.7-11,6.5c-12.7-0.5-21.9-7.1-28.2-17.7C140.6,256.4,139.1,246.6,139.5,236.8z
			 M146.3,330.4c2.3,5.1,4.8,10,7.8,14.6c0.5,0.8,1.1,1.8,2.9,1.7c11.6-0.8,23.3-1.4,34.9-1.7c9.8-0.3,19.6-0.3,29.4,0.1
			c4.1,0.1,8.2,0.5,12.2,0.7c1.9,0.1,1.7-1.3,2.3-2.2c1.1-1.7-0.4-1.7-1.1-2.1c-3.4-2-6.6-4.2-10.2-5.7c-15.7-6.7-32.2-8.8-49.2-8
			C165.8,328.1,156.2,329.2,146.3,330.4z M111.5,351.2c8.2-0.8,17.3-1.7,26.4-2.5c1.4-0.1,1.9-0.7,1.4-1.9c-1.2-3-1.2-6.2-1.5-9.4
			c-0.3-2.7,0.1-6.6-5.1-5.1c-4.4,1.2-9,1.3-13.6,1.8c-13.2,1.5-26,0.9-38-5.6c-3.5-1.9-7.1-3.7-11.3-3.8c-2.5-0.1-3.1,1.3-1.6,3.1
			c5.5,7.1,11.3,14,19.2,18.5C94.5,350.3,102.6,350.7,111.5,351.2z M260.9,137c0.4-0.4,0.8-0.6,1.1-1c6-7.3,11.7-14.7,17-22.5
			c4.2-6.2,4.7-12,0.3-18.4c-4.1-5.9-6.9-12.7-12-18c-2.6-2.8-4.1-2.4-5.3,1.2c-2,6.1-1.8,12.6-2.3,18.9c-0.9,13,0.8,26,0.7,39
			C260.4,136.3,260.6,136.5,260.9,137z M177.3,370.3c-19.1-12.2-29.8-29.5-37.3-49.5c-0.5,6.6-1.3,13.1-0.3,19.4
			c1.8,12.4,7,23.6,14.4,33.8c0.5,0.8,0.5,1.8,2,1.4C162.9,373.6,169.7,372.1,177.3,370.3z M234.7,347.2c-6.1,0-11.2,0-16.3,0
			c-1.1,0-2.2-0.1-3.4,0.5c-10.8,5.7-22.5,9-34,12.9c-3,1-6.3,1.5-9.2,3.7c1.7,1.2,3.4,2,4.6,3.2c2,2,4.1,2.1,6.5,1.4
			c12.9-3.6,25.9-6.9,38.6-11.4C226.7,355.5,230.6,352.2,234.7,347.2z M237.1,340.3c0-2.6,0-4.9,0-7.2c0-0.8,0.1-1.6-0.1-2.3
			c-3.9-20.7-15.7-36.1-32.4-48.2c-0.7-0.5-1.9-2.6-3.3-0.3c-1,1.7-1.6,2.9,0.6,4.3c6.4,4,12.4,8.5,16.9,14.7
			c6.8,9.3,12.1,19.1,8.4,31.3c-0.4,1.1-0.1,2.1,0.9,2.7C231,337,233.8,338.5,237.1,340.3z M117,382.1c11.7-0.1,22.9-2.7,34.2-5.4
			c0.6-0.1,1.3,0,1.3-0.9c0.1-2-4-5.6-6-4.9c-5.4,1.7-11,2.2-16.6,2.1c-3.3,0-6.7,0.2-9.9,0.9c-3.4,0.7-7.1,1.4-9.5,4.4
			c-0.7,0.9-1.6,1.9-1.2,3.1c0.5,1.6,2,0.7,3,0.8C113.9,382.2,115.5,382.1,117,382.1z M369.8,102c5.1-5.8,10.8-10.8,16.8-15.5
			c1-0.8,0.8-1.8,0.9-2.8c0.5-6.9-0.9-13.7-1.1-20.6C379.1,75.3,373.7,88.3,369.8,102z M117.7,195.4c-2.5,2.1-4.8,3.1-6.3,5.6
			c-5.4,9.2-4,19-2.7,28.8c0.6,4.4,3.5,2,5.7,1.8c2.5-0.2,3-1.9,2.6-4C115,217.2,114.2,206.7,117.7,195.4z M126.6,352.1
			c2.1,3.9,4.9,7.3,7.3,11c3.2,4.9,6.3,9.2,13,5.8c0.3-0.2,0.7-0.2,1.2-0.4c-2.5-5.7-5.9-10.8-7.5-16.7c-0.4-1.5-1.4-1.8-2.6-1.5
			C134.3,351.4,130.3,350.5,126.6,352.1z M440,88.1c-0.2-0.3-0.4-0.6-0.6-0.9c-2.9,1.4-5.8,2.9-8.7,4.3c-4.7,2.2-9.8,4.1-8.4,11
			c0,0.2-0.3,0.5-0.3,0.7c0,4.2,0,8.5,0,13.7C428.2,106.7,434.1,97.4,440,88.1z M178.1,349.5c0-0.1,0-0.1,0-0.2
			c-1.9,0-3.9-0.1-5.8,0c-2.3,0.1-5.2-0.4-6.3,1.9c-0.9,2,2,3.2,2.8,5c0.6,1.4,1.4,1.9,3,1c4.4-2.4,9.3-3.5,14.3-4.5
			c0.9-0.2,2.4,0.1,2.3-1.3c-0.1-1.3-1.3-1.9-2.6-1.9C183.3,349.4,180.7,349.5,178.1,349.5z M157.6,274.9c1.9,1,2.3,1.2,3.1,0.9
			c6.6-2.2,13.2-1.6,19.7,0.5c1.5,0.5,2.6,0.5,3.1-1c0.6-1.8-1.1-2.2-2.2-2.4c-6.1-0.9-12.2-0.8-18.2,0.4
			C161.3,273.7,159.1,273,157.6,274.9z M118.2,319.2c-0.9,3.8,0.4,6.9,0.3,10c-0.1,3.3,1.8,3.8,4.1,3.1c1.2-0.4,2.7-0.2,3.8-1.1
			C123.6,327.2,121,323.4,118.2,319.2z M125.9,285c3.9,1.3,7.6,0.8,11-0.9c0.6-0.3,1.9-0.8,1.4-1.9c-0.5-1-1.3-1.7-2.7-1
			C132.4,282.6,129.1,283.8,125.9,285z M414.3,70.1c-0.2-0.1-0.5-0.3-0.6-0.3c-0.2,0-0.5,0.3-0.5,0.4c0.1,0.4,0.4,0.6,0.8,0.3
			C414.1,70.6,414.2,70.3,414.3,70.1z M440.9,87c-0.1-0.2-0.2-0.4-0.3-0.6c-0.2,0.1-0.4,0.2-0.5,0.3c-0.2,0.4-0.1,0.7,0.3,0.8
			C440.6,87.5,440.7,87.1,440.9,87z"/>
		<path class="st3" d="M345.2,78.5c-1.4,2.9-2.8,5.8-4.6,9.4c0-7.6,0-14.4,0-21.3c1.8,0.4,1.6,1.8,2,3.1
			C343.5,72.7,342.9,76,345.2,78.5z"/>
		<path class="st3" d="M356.5,61.3c-3,5.8-7.1,10.9-10.8,16.3c-0.2-1.8-0.1-3.6,1-5.2c2.5-3.5,5.1-7,7.6-10.5
			C354.9,61.2,355.7,61.2,356.5,61.3z"/>
		<path class="st3" d="M385.2,57.4c-2.7,5.2-5.3,10.4-8,15.6c-0.7-0.2-1.3-0.6-1-1.3c1.6-4.1,2.8-8.4,5.2-12.3
			C382.3,58,383.5,57.1,385.2,57.4z"/>
		<path class="st3" d="M403.9,69.1c-2.6,2-5.2,4.1-7.8,6.1c-0.6-1.1-1.4-2.2,0.3-3.3C398.7,70.5,400.2,66.9,403.9,69.1z"/>
		<path class="st4" d="M467.3,104.6c-1,1.4-1.7,3.1-3.8,4C464.2,106.4,465.7,105.5,467.3,104.6L467.3,104.6z"/>
		<path class="st4" d="M461.1,111.6c0.2-1.1,0.8-1.7,1.9-2.6C463,110.7,462.5,111.5,461.1,111.6L461.1,111.6z"/>
		<path class="st4" d="M461.1,111.6c0.2,0.7-0.2,1.2-0.7,1.6c0,0,0,0,0,0C460.3,112.5,460.4,111.9,461.1,111.6
			C461.1,111.6,461.1,111.6,461.1,111.6z"/>
		<path class="st4" d="M459.6,113.9c0.3-0.3,0.5-0.5,0.8-0.8c0,0,0,0,0,0C460.1,113.4,459.8,113.7,459.6,113.9
			C459.6,113.9,459.6,113.9,459.6,113.9z"/>
		<polygon class="st4" points="467.3,104.6 467.4,104.5 467.3,104.6 		"/>
		<polygon class="st4" points="459.6,113.9 459.5,114 459.6,113.9 		"/>
		<path class="st3" d="M344,189.8c5-5.7,9.7-11.6,14.1-17.8c9.4-13.4,14.7-28.7,19.9-44c4.9-14.3,13-26.5,22.4-38.1
			c5.9-7.4,11.7-14.9,18.4-21.6c1.9-2,4.1-3.3,6.8-4c1.1-0.3,2.1-1.2,3.1-0.1c1.1,1.1,0.7,2.2,0.2,3.5c-2.1,5.9-4.4,11.7-5.9,17.9
			c-3,12-3.6,24.1-2.4,36.5c1,9.9,2.8,20-0.8,29.7c-4,10.7-11.7,18.6-20.9,25.1c-0.2,0.3-0.4,0.6-0.6,0.8c0,0,0,0,0,0
			c-0.7,0-1.3,0.1-1.5,0.9c0,0,0,0,0,0c-2.1-0.5-3.3,1.1-4.8,2c-13.9,8.7-29,12.2-45.3,11.1C345.5,191.4,344.6,190.9,344,189.8z"/>
		<path class="st5" d="M264.6,222.4c-0.1-0.1-0.2-0.2-0.3-0.3c1.2-0.8,0.1-1.8-0.1-2.3c-1.4-3.2,0.7-4.9,2.7-6.3
			c2.4-1.7,5-1.5,7.5,0.2c2.2,1.5,3.1,3.7,2,6c-1.1,2.3-3.1,3.7-6.1,3.8C268.2,223.4,266.7,221.5,264.6,222.4z"/>
		<path class="st2" d="M272.6,206.1c9.4,0.2,15.2,5.9,19.9,13.3c0.5,0.7,0.7,1.6-0.1,2c-0.9,0.5-1.4-0.4-1.7-1.1
			c-2.1-3.9-5.1-7.1-8.7-9.5c-7.2-4.9-14.4-3.2-21.4,0.6c-1.1,0.6-2.7,2.4-3.4,0.9c-0.9-1.8,1.6-2.2,2.7-2.8
			C263.8,207.5,268,206,272.6,206.1z"/>
		<path class="st2" d="M264.6,222.4c2.1-0.9,3.6,1,5.7,1c3-0.1,5-1.5,6.1-3.8c1.1-2.3,0.1-4.5-2-6c-2.5-1.7-5.1-1.9-7.5-0.2
			c-2,1.5-4.1,3.2-2.7,6.3c0.3,0.6,1.3,1.5,0.1,2.3c-2.7-2.5-2-5.4-0.5-8c1.6-2.7,6.5-3.8,9.9-2.4c3,1.2,4.8,3.4,4.5,6.8
			c-0.3,3.1-3,5.8-6.7,6.3C268.9,225.1,266.4,224.6,264.6,222.4z"/>
		<path class="st2" d="M459.6,245.8c-0.3,0.7-0.7,0.8-1.4,0.5c0.2-0.4,0.5-0.7,0.7-1.1C459.2,245.4,459.4,245.6,459.6,245.8z"/>
		<path class="st1" d="M75.2,275.2c5.8,3.5,10.7,0.8,12.2-7.1c1.8-9.4,0.1-18.3-4.9-26.6c-1.2-2-3.1-3.2-5.7-5.5
			c18.9,3,35.6-2,52.5-6.8c-5.9,17.7-6.2,34.3,6.1,49.5c-2.8,2-6.2,2.7-9.4,4.1c-9.3,3.9-18.4,8.4-28.3,10.4
			c-6.3,1.3-12.2,0.6-16.9-4.4c-4.1-4.4-8.8-8.3-12.4-13.2c-2.6-3.5-2.4-5.7,1.2-8.3c1.6-1.2,3.3-2.4,4.9-3.6
			c2.8-2.2,5.5-1.1,6.1,2.4c0.4,2.6-0.3,5.1-0.9,7.5C79,276.4,76.3,272.8,75.2,275.2z"/>
		<path class="st0" d="M139.5,236.8c-0.4,9.8,1.1,19.6,6.3,28.4c6.3,10.5,15.5,17.1,28.2,17.7c5,0.2,8.8-1.9,11-6.5
			c0.9-1.9,1.7-2.3,3.8-1.5c2.6,1,5.1,2.1,7.6,3.1c3.7,1.4,4.4,2.9,2.1,6.4c-4.3,6.5-8.6,12.9-16.8,15c-5.4,1.4-10.8,1.2-16-0.9
			c-14.8-6-27-15.1-34.5-29.6c-4.1-7.8-4.9-16.2-3.5-25c1-6.2,1.9-12.1,6.1-17.1c1.2-1.4,2.5-2.4,4.1-1.9c1.6,0.5,1.6,2.3,1.6,3.9
			C139.5,231.3,139.5,233.9,139.5,236.8z"/>
		<path class="st3" d="M146.3,330.4c9.9-1.3,19.5-2.4,29.1-2.8c17-0.7,33.5,1.3,49.2,8c3.6,1.5,6.8,3.8,10.2,5.7
			c0.7,0.4,2.2,0.4,1.1,2.1c-0.6,1-0.4,2.3-2.3,2.2c-4.1-0.2-8.2-0.5-12.2-0.7c-9.8-0.3-19.6-0.3-29.4-0.1
			c-11.6,0.3-23.3,0.9-34.9,1.7c-1.9,0.1-2.4-0.9-2.9-1.7C151.1,340.5,148.7,335.6,146.3,330.4z"/>
		<path class="st3" d="M111.5,351.2c-8.9-0.5-17-0.9-24.1-4.9c-7.9-4.5-13.7-11.4-19.2-18.5c-1.4-1.8-0.9-3.2,1.6-3.1
			c4.1,0.1,7.7,1.9,11.3,3.8c12,6.5,24.8,7.1,38,5.6c4.5-0.5,9.2-0.5,13.6-1.8c5.2-1.4,4.8,2.4,5.1,5.1c0.3,3.2,0.3,6.3,1.5,9.4
			c0.5,1.2,0,1.8-1.4,1.9C128.8,349.6,119.7,350.5,111.5,351.2z"/>
		<path class="st1" d="M260.9,137c-0.2-0.4-0.4-0.6-0.4-0.8c0.1-13-1.6-26-0.7-39c0.4-6.3,0.3-12.7,2.3-18.9c1.2-3.7,2.7-4,5.3-1.2
			c5,5.3,7.9,12.1,12,18c4.4,6.4,3.9,12.3-0.3,18.4c-5.3,7.8-11.1,15.2-17,22.5C261.7,136.3,261.3,136.6,260.9,137z"/>
		<path class="st0" d="M177.3,370.3c-7.6,1.8-14.4,3.3-21.2,5.1c-1.6,0.4-1.5-0.6-2-1.4c-7.4-10.2-12.6-21.4-14.4-33.8
			c-0.9-6.3-0.2-12.9,0.3-19.4C147.5,340.8,158.2,358.1,177.3,370.3z"/>
		<path class="st4" d="M234.7,347.2c-4.1,5-8,8.3-13.3,10.2c-12.7,4.5-25.7,7.8-38.6,11.4c-2.5,0.7-4.6,0.6-6.5-1.4
			c-1.2-1.2-2.8-2-4.6-3.2c2.9-2.2,6.2-2.6,9.2-3.7c11.5-3.9,23.2-7.2,34-12.9c1.1-0.6,2.2-0.5,3.4-0.5
			C223.5,347.2,228.7,347.2,234.7,347.2z"/>
		<path class="st3" d="M82.1,272.7c0-2.5,0.2-4.9,0-7.4c-0.1-1.9-0.4-4.1-2.9-4.2c-3-0.1-2.1-2-1.5-3.3c0.6-1.5,0.9-2.9,0.2-4.7
			c-2.6,3.3-5.3,1.5-7.9,0.2c-1.9-1-5.3-1.1-5.4-3.4c-0.3-4.3-1.2-8.8,0.6-12.9c1.1-2.6,3.5-1.6,5.4-1.1
			c10.6,2.8,13.6,9.9,15.3,20.4c0.8,4.5,0.6,9.4-1.2,14c-0.5,1.3-1.1,2.2-2,3.1C82.4,273.2,82.3,273,82.1,272.7z"/>
		<path class="st4" d="M237.1,340.3c-3.3-1.8-6.2-3.4-9-5c-1-0.6-1.3-1.5-0.9-2.7c3.7-12.2-1.5-22-8.4-31.3
			c-4.5-6.2-10.5-10.7-16.9-14.7c-2.2-1.4-1.6-2.6-0.6-4.3c1.4-2.3,2.5-0.3,3.3,0.3c16.7,12.1,28.5,27.5,32.4,48.2
			c0.1,0.7,0.1,1.5,0.1,2.3C237.1,335.5,237.1,337.7,237.1,340.3z"/>
		<path class="st4" d="M117,382.1c-1.5,0-3.1,0.1-4.6,0c-1-0.1-2.5,0.8-3-0.8c-0.4-1.2,0.5-2.2,1.2-3.1c2.4-3,6-3.7,9.5-4.4
			c3.2-0.7,6.6-0.9,9.9-0.9c5.7,0.1,11.2-0.4,16.6-2.1c2-0.6,6.1,2.9,6,4.9c-0.1,0.9-0.7,0.8-1.3,0.9C140,379.3,128.7,382,117,382.1
			z"/>
		<path class="st1" d="M369.8,102c3.9-13.7,9.3-26.7,16.7-38.9c0.1,6.9,1.5,13.7,1.1,20.6c-0.1,1,0.1,2-0.9,2.8
			C380.6,91.2,374.8,96.2,369.8,102z"/>
		<path class="st0" d="M117.7,195.4c-3.5,11.2-2.7,21.7-0.7,32.2c0.4,2.1-0.2,3.8-2.6,4c-2.1,0.2-5.1,2.6-5.7-1.8
			c-1.3-9.8-2.6-19.6,2.7-28.8C112.9,198.5,115.2,197.6,117.7,195.4z"/>
		<path class="st0" d="M126.6,352.1c3.7-1.7,7.7-0.7,11.5-1.8c1.1-0.3,2.2,0,2.6,1.5c1.6,5.9,5,11.1,7.5,16.7
			c-0.5,0.2-0.9,0.2-1.2,0.4c-6.7,3.4-9.8-0.8-13-5.8C131.5,359.4,128.7,356,126.6,352.1z"/>
		<path class="st1" d="M440,88.1c-5.9,9.3-11.7,18.6-18.1,28.8c0-5.2,0-9.4,0-13.7c0-0.2,0.4-0.5,0.3-0.7c-1.4-6.9,3.7-8.8,8.4-11
			c2.9-1.4,5.8-2.9,8.7-4.3C439.5,87.5,439.7,87.8,440,88.1z"/>
		<path class="st0" d="M178.1,349.5c2.6,0,5.1,0,7.7,0c1.3,0,2.5,0.6,2.6,1.9c0.1,1.4-1.4,1.1-2.3,1.3c-4.9,1-9.8,2.1-14.3,4.5
			c-1.6,0.9-2.4,0.4-3-1c-0.7-1.9-3.7-3.1-2.8-5c1.1-2.3,4-1.8,6.3-1.9c1.9-0.1,3.9,0,5.8,0C178.1,349.3,178.1,349.4,178.1,349.5z"
			/>
		<path class="st4" d="M157.6,274.9c1.5-1.9,3.7-1.1,5.6-1.5c6-1.3,12.1-1.3,18.2-0.4c1.1,0.2,2.8,0.5,2.2,2.4
			c-0.5,1.5-1.6,1.5-3.1,1c-6.5-2.1-13.1-2.7-19.7-0.5C159.9,276.1,159.5,275.9,157.6,274.9z"/>
		<path class="st0" d="M118.2,319.2c2.9,4.2,5.5,8,8.2,12c-1.1,0.9-2.6,0.8-3.8,1.1c-2.3,0.7-4.2,0.2-4.1-3.1
			C118.6,326.1,117.2,323,118.2,319.2z"/>
		<path class="st4" d="M125.9,285c3.2-1.3,6.5-2.4,9.7-3.8c1.5-0.6,2.2,0,2.7,1c0.5,1.1-0.8,1.6-1.4,1.9
			C133.5,285.8,129.8,286.4,125.9,285z"/>
		<path class="st1" d="M414.3,70.1c-0.1,0.2-0.2,0.4-0.3,0.5c-0.4,0.2-0.7,0.1-0.8-0.3c0-0.1,0.3-0.4,0.5-0.4
			C413.8,69.8,414.1,70,414.3,70.1z"/>
		<path class="st1" d="M440.9,87c-0.1,0.2-0.3,0.5-0.4,0.5c-0.4-0.1-0.6-0.4-0.3-0.8c0.1-0.2,0.3-0.2,0.5-0.3
			C440.7,86.6,440.8,86.8,440.9,87z"/>
		<path class="st1" d="M403.7,310.9c-0.7-0.3-0.8-0.8-0.4-1.4c0.3,0.2,0.7,0.5,1,0.7C404.1,310.4,403.9,310.6,403.7,310.9z"/>
		<path class="st3" d="M82.6,273.4c-0.3,0.2-0.7,0.5-1,0.7c-0.3-0.6-0.2-1.1,0.5-1.4C82.3,273,82.4,273.2,82.6,273.4z"/>
		<path class="st1" d="M396.8,178.4c0.2-0.8,0.8-0.9,1.5-0.9C398.2,178.4,397.5,178.3,396.8,178.4z"/>
		<path class="st1" d="M398.4,177.5c0.2-0.3,0.4-0.6,0.6-0.8C399.1,177.2,398.8,177.4,398.4,177.5z"/>
	</g>
</g>
</svg>
