<?xml version="1.0" encoding="utf-8"?>
<!-- Generator: Adobe Illustrator 21.1.0, SVG Export Plug-In . SVG Version: 6.00 Build 0)  -->
<svg version="1.1" id="Layer_1" xmlns="http://www.w3.org/2000/svg" xmlns:xlink="http://www.w3.org/1999/xlink" x="0px" y="0px"
	 viewBox="0 0 560 560" style="enable-background:new 0 0 560 560;" xml:space="preserve">
<style type="text/css">
	.st0{fill:#FDFDFD;}
	.st1{fill:#141413;}
	.st2{fill:#C391E1;}
	.st3{fill:#FBFBFB;}
	.st4{fill:#FCFCFC;}
	.st5{fill:#F8F8F8;}
	.st6{fill:#9034CB;}
	.st7{fill:#F7F7F7;}
	.st8{fill:#96BADA;}
	.st9{fill:#F5F5F5;}
	.st10{fill:#97B9D8;}
	.st11{fill:#E5E5E5;}
	.st12{fill:#BFB4C5;}
	.st13{fill:#1B1B1A;}
	.st14{fill:#F50530;}
</style>
<g>
	<g>
		<path class="st0" d="M560.8,280.8c0,92.2,0,184.3,0.1,276.5c0,2.9-0.7,3.6-3.6,3.6c-184.3-0.1-368.7-0.1-553,0
			c-2.9,0-3.6-0.7-3.6-3.6c0.1-184.3,0.1-368.7,0-553c0-2.9,0.7-3.6,3.6-3.6c184.3,0.1,368.7,0.1,553,0c2.9,0,3.6,0.7,3.6,3.6
			C560.8,96.4,560.8,188.6,560.8,280.8z M260.1,516.1c0.4,0.1,0.8,0,1.1,0.2c3.9,3,7.2,6.7,12.9,6.6c1.7,0,3.8,0.9,5,3.4
			c1,2,3,3.9,5.6,5c6.2,2.5,11.3-0.6,16.1-3.4c1.9-1.1,2.3-0.7,3.6,0.3c2,1.7,4.2,3.4,6.6,4.5c2,1,4,0.4,3.3-2.5
			c-0.7-2.9-1.3-5.7-3-8.4c-2.5-3.8-5.7-7.3-6-12.4c-0.2-3,0.7-4.5,3.7-4.7c3.2-0.3,5.9,1.2,8.7,1.8c1-1.1-0.3-2.7,1.5-3.8
			c0.9,4.8,3,2.1,5,1c0.5-0.3,1-0.9,1.5-1.2c4.5-2.1,8.6-5.9,14.3-2.6c1.3,0.7,3.6,1.2,5.1,0.9c6.4-1,12.6-3,17.7-7.2
			c5.2-4.4,5.1-4.4,9.5,0.6c0.5,0.6,1.1,1.1,1.5,1.7c4.8,7.2,10.5,9.3,18.7,7.1c1.9-0.5,4-0.6,6,0.4c4.3,2,5.9,6.2,4.1,11.8
			c-0.4,1.3-0.9,2.8,0.1,3.6c1.1,0.9,2.5-0.2,3.5-0.8c3.9-2.4,7.5-5.4,9.7-9.5c3.5-6.4,6.9-12.9,1.7-20.1c-0.8-1-0.2-2.3,0.4-3.6
			c1.7-4-0.3-7.5-4.6-8.3c-1.1-0.2-2-0.3-2.4-1.6c1.8-0.4,3.8,0,5.5-1c4.3-2.7,9.1-2,13.8-2c2.1,0,3.9-0.3,5.6-1.8
			c2.5-2.3,7-1.5,7.4,1.4c0.4,2.1,2.5,4.1,0.6,6.8c-1.1,1.6,0.6,2.3,2.3,1.9c6.1-1.6,7.4-6.7,7.3-12.1c-0.1-3.9-2.4-7.6-0.5-12
			c0.9-2,1.9-4.9,0.9-7.8c-2-6-5.5-9-13.3-8.7c-5.8,0.3-5.8,0.1-6.4-5.7c-0.7-7-5-10.7-11.8-10.5c-1.8,0.1-3.1,1-4.6,1.8
			c-1.9,1.1-3.8,1.6-5.7,0.1c-0.9-0.7-1.8-0.8-2.9-0.9c-4.5-0.2-7,2.6-9.1,5.9c-3.3,5-4.4,10.9-7.2,16.2c-3.7,7-9.6,10.9-17.4,8.3
			c-5.5-1.8-9.9-4.7-14.4-8.2c-5.5-4.3-9.7-9.5-12.3-15.7c-4.7-11-5.1-22.6-3.4-34.3c0.2-1.3,0.9-1.1,1.8-1.5
			c12.5-5,23.9-11.6,33.5-21.4c5.9-6,11.9-11.7,17.2-18.3c3.4-4.3,7.1-8.3,10.3-12.8c1.8-2.5,3.3-5.6,7.9-5.4c3.5,0.1,7.4-1,11-2.3
			c9.7-3.3,18.7-7.9,26.9-14c6.3-4.7,11.7-10.3,16.8-16.4c3.9-4.7,5.9-10.3,9.2-15.2c9.1-13.8,13.8-29,14.8-45.5
			c0.6-10.2-0.4-20.3-2.8-30.3c-2.2-9-5.1-17.8-8.9-26.3c-5.7-12.6-13.6-23.9-21.8-35c-0.5-0.7-1.7-1.2-1.3-2.2
			c0.5-1.3,1.8-0.7,2.8-0.6c10.4,0.3,13.6-9.3,11.7-17.2c-1.8-7.4-7.7-11-13.3-14.8c-4.7-3.2-10-5.6-14.1-9.6
			c-1.5-1.4-1.6-2.2,0.5-3.2c8.2-3.8,15.2-9.2,21.5-15.7c2.5-2.6,4.7-2.6,7.3,0c1.5,1.5,3,2.8,4.4,4.4c1.4,1.6,2.2,1.3,2.8-0.5
			c1.6-4.2,1.1-8.4,0-12.6c-1.8-7.3-6.1-12.7-12.9-15.5c-7.1-2.9-14.6-3-22.2-1.3c-1.4,0.3-4.3,1.7-4.5-1.6
			c-0.2-2.5-0.9-4.5-2.7-6.1c-1.1-1-0.6-1.6,0.1-2.5c5.5-7,5.9-15.3,5.2-23.6c-0.5-6.5-3.2-12.1-10-14.5c-3.4-1.2-6.8-2.3-10.7-1.3
			c-3.7,0.9-4.1,3.6-4.8,6.4c-0.1,0.3-0.4,0.7-0.6,0.8c-0.9,0.2-0.9-0.5-1.1-1.1c-0.9-2.9-1.9-5.7-2.8-8.5c-1.1-3.2-6.2-6.8-9.6-6.2
			c-3.4,0.6-6.3,2.1-7.5,6c-1,3.3,0.9,6.4,0.1,9.6c-0.5,2,1.2,5.5-1.6,5.5c-2.2,0-1.1-3.4-1-5.2c0.3-5.5-2.2-9.8-5.1-13.9
			c-2.7-3.9-6.9-2.4-10.7-2.8c-3.2-0.4-4.2,0.7-4.4,4c-0.3,4.8,2,9.4,0.7,14.8c-3.1-3.1-4.2-6.8-6.2-9.9c-2.8-4.2-5.9-8.7-11.3-8.8
			c-6.3-0.1-12.6-0.9-19,0c-5.5,0.8-12.6,5.7-13.1,10.2c-0.8,7.1,3.1,11.1,12,12.1c4.1,0.5,7.9,1.7,11.9,2.3c0.9,0.1,2.3,1,2,2.4
			c-0.3,1.2-1.5,1.2-2.6,1.2c-1.7-0.1-3.4,0-5-0.3c-5.2-0.8-10.1-2.3-15.7-1c-7.1,1.7-11.8,7.6-12.1,12.1c-0.8,9.5,4.3,15.2,11,17.5
			c6,2.1,12.3,3,18.5,3.9c2.1,0.3,4.6,0.1,6.3,2.1c1.7,2.1,2.3,5.1,5.2,6.3c1.2,0.5,0.1,1.5-0.2,2.3c-4.6,10.4-6.3,21.5-6.7,32.8
			c-0.2,7-0.3,14,0,21c0.5,8.7-0.3,17.3-1.3,25.8c-1.1,9.1-1.6,18.3-4.5,27.1c-0.5,1.7,0.3,2.6,2.3,2.5c3.6-0.2,6-2.6,8.5-4.7
			c4.6-3.9,7.7-9.2,11.8-14.3c0.3,10.2,0.8,20-1.9,29.4c-2.8,9.8-8,17.9-17.6,22.7c-5.8,2.9-12.2,3.1-18.3,4.7
			c-6.4,1.7-12.5,3.5-18.2,7.2c-4.1,2.7-7.5,5.9-10.6,9.7c-4.4,5.3-10.2,9.1-15.7,13.3c-7.9,6-16.8,9.1-26.5,10.2
			c-3.5,0.4-7.3-0.4-9.4-3.8c-1.3-2.1-3-3.8-4.7-5.5c-5.9-5.9-10.5-12.9-16.1-19c-1.6-1.7-1.6-3.4,0.4-5.2c2.2-1.8,4.3-3.8,6-6
			c9.9-12.9,17.6-27.1,23.1-42.3c6.4-17.4,9.8-35.5,9.7-54.1c0-2.8-1.6-5.4-1-8.3c0.7-3.6-0.5-7.2-1.2-10.6
			c-2.2-10.1-4.7-20.2-9-29.8c-6.2-14.1-14-26.5-26.2-36.3c-14.4-11.6-31.2-16.4-49.1-17.7c-9.4-0.7-18.9,0.1-28.3,1.6
			c-10,1.6-19.9,3.3-29.5,6.7c-3.4,1.2-6.5,1.2-9-2.3c-5.3-7.5-10.9-14.9-16.6-22.2c-0.9-1.2-1.2-3.1-3.3-3.4
			c-3.3-0.6-5.2,0.5-6.4,5.1c-3,12.2-3.1,24.3,1.4,36.3c0.6,1.6,0.7,2.8-0.6,4.2c-7.5,8.4-13.1,17.9-15.6,28.9
			c-1.1,4.5-1.6,9.2-2.3,13.8c-0.2,1.4,0,3,2,1.6c7.4-5.1,15-10,22.1-15.5c10.1-7.9,10.1-8.2,19.6-2.7c0.2,0.1,0.3,0.4,0.5,0.6
			c-12.3,8.3-24.8,16.5-34.2,28.4c-3.5,4.4-6.7,8.8-8.6,14.1c-0.8,2.4-0.4,3,2,3c4-0.1,8-0.2,12.1,0c11.8,0.7,21.1-4.7,29.8-11.7
			c6.1-5,12-10.2,19.2-13.6c7.9-3.7,15.7-3.7,23,0.9c8.5,5.4,15.6,12.6,21.5,20.6c7,9.4,12.2,19.9,15.2,31.4
			c-0.3,0.2-0.6,0.3-0.9,0.5c-0.5-0.9-1-1.7-1.4-2.6c-4.6-9.5-10.5-17.9-19.1-24.4c-14.8-11.3-31.3-12.9-48.6-9.3
			c-9.9,2.1-18.8,6.8-27.3,12.2c-10.6,6.8-19,15.7-24.6,27.2c-3.1,6.5-5,13.1-5.2,20.4c-0.1,2.7-2.5,5.9,2.5,6.5
			c0.2,0,0.4,1,0.3,1.4c-1.4,3.4-1.3,7.1-2.3,10.7c-1,3.9-1.6,7.8-2.5,12.1c2.2-1,3.8-1.8,6.1-2.9c-0.8,4.7-2,8.8-2.1,12.9
			c-0.2,8.5-3.2,16.5-4.2,25c-0.9,7.4-0.9,14.6,1.4,21.4c1.8,5.5,3.1,11,2.7,16.7c-0.1,2.1,0.7,4,0.8,6c0.1,2.8,0.7,4,3.6,3.3
			c0.1,0.5,0.2,1,0.4,1.5c2,5.7,3.8,11.4,6.8,16.7c1.2,2.1,1.1,4.1,0.2,6.2c-2.5,6.5-3.7,13.1-3.3,20.1c0.4,7.9,3.7,14.2,10.2,19
			c3.9,2.9,8.2,5.1,12.7,6.7c5.6,2,11.4,3.3,17.7,3.6c-0.8-1.3-2-2.1-3-3c-4.2-3.8-8.5-7.5-12.4-11.5c-4.8-5-6.5-11.1-4.7-17.9
			c1.4-5.4,5.3-8.8,10-11.4c4.8-2.7,10.3-3.7,15.3-3.3c8.4,0.5,16.7,2.5,25,4.5c1.9,0.5,4.6,0,6.1,3c3.3,7,9.2,11.7,15.7,15.8
			c2.2,1.3,4.8,2.1,6.6,4.2c-3.5,1.8-6.8,3.5-9.4,6.8c1.6,0.1,3.3,0.1,3.7,1.7c0.4,1.9-1.7,1.8-2.5,2.4c-5.2,3.4-8.5,8.3-11,13.9
			c-1.1,2.5-1.1,4.4,2.4,3.9c7.2-1,14.5-0.7,21.7-1.6c7.4-0.9,14.9-1.7,22-4c3.8-1.2,7-2.7,7.3,3.3c0,0.3,0.5,0.6,0.7,0.9
			c3,5.3,8.1,8.2,13.6,9.6c3.8,1,2.2,2.5,1.2,4.1c-0.6,1-1.6,1.7-2.5,2.4c-4.8,3.5-10,6.5-15.7,8.5c-1,0.3-3-0.3-3,1.6
			c0,1.3,1.4,2.1,2.4,2.9c0.9,0.7,1.9,1.2,2.9,1.8c4.3,2.5,9.2,3.3,13.8,4.7c3.4,1.1,4.5,3.4,2.9,6.5c-2.9,5.9-3.9,11.5,2,16.3
			c0.8,0.6,0.9,0.8,0,1.9c-3.8,4.4-5.5,9.3-3.8,15.3c1,3.3,1.5,7.5-1.5,10.1c-2.8,2.3-6.1,3.4-10.2,1.9c-8.4-3-16.7-6.5-25.5-8.2
			c-1.3-0.2-3.4-0.7-3.5-0.2c-0.3,1.5-1.6,2.6-1,4.5c2.8,8.7,9.1,13.6,17,16.9c4.1,1.7,8.8,1.1,13,2.7c0.7,0.3,1.7,0.2,1.7,1.2
			c-0.1,1.1-1.1,0.7-1.8,0.8c-2.9,0.5-5.6-0.9-8.3-1c-6.5-0.1-13.2-0.9-19.5,1.1c-4.8,1.5-9.8,3.2-11.3,9.1
			c-0.2,0.9-0.7,1.8-2.2,2.2c-5,1.2-7.1,5.3-7.7,9.9c-0.7,5.4,0.4,10.6,4.4,14.8c0.8,0.8,1.7,1.4,2-0.4c0.5-3.1,2.8-5.4,4.2-8
			c1-1.9,2.9-2.6,5.3-1.7c4.1,1.6,8.5,2.6,13,2.4c8.1-0.5,15.7-3.4,23.4-5.8c1-0.3,2-1.2,2.8-0.4c0.9,0.9,0.5,2.1,0.1,3.2
			c-1.8,4.3-1.6,8.8-1.4,13.2c0.3,6,3.7,10.1,9.6,11.4c1,0.2,1.9,0.4,1.6,1.6c-0.5,2.3,0.7,4.2,1.1,6.3c1.4,7.6,8.7,16.6,16.9,14.8
			c2.4-0.5,3.6,1.1,4.8,2.6c1.4,1.6,2.5,3.5,3.7,5.2c3.8,5.4,2.8,6.4,9,0.7c1.6-1.5,2.2-3.3,2.3-5.5c0.3-6.5-4.5-12.4-2-19.2
			c0.1-0.2-0.4-0.6-0.5-1c-1.2-5.1-5.1-8.4-8.2-12.2C259.5,516.6,259.8,516.3,260.1,516.1z"/>
		<path class="st1" d="M196.7,149.8c-3-11.5-8.3-21.9-15.2-31.4c-5.9-8-13-15.2-21.5-20.6c-7.3-4.7-15.1-4.7-23-0.9
			c-7.2,3.4-13.1,8.6-19.2,13.6c-8.7,7-18,12.4-29.8,11.7c-4-0.2-8-0.1-12.1,0c-2.4,0-2.8-0.6-2-3c1.9-5.4,5.1-9.8,8.6-14.1
			c9.4-11.9,21.8-20.1,34.2-28.4c-0.2-0.3-0.3-0.5-0.5-0.6c-9.5-5.5-9.5-5.2-19.6,2.7c-7.1,5.6-14.7,10.4-22.1,15.5
			c-2,1.4-2.2-0.2-2-1.6c0.7-4.6,1.2-9.2,2.3-13.8c2.6-11,8.1-20.5,15.6-28.9c1.2-1.4,1.2-2.6,0.6-4.2c-4.5-11.9-4.4-24.1-1.4-36.3
			c1.1-4.6,3-5.7,6.4-5.1c2.1,0.4,2.4,2.2,3.3,3.4c5.7,7.3,11.2,14.7,16.6,22.2c2.5,3.5,5.6,3.5,9,2.3c9.6-3.4,19.5-5.1,29.5-6.7
			c9.4-1.5,18.9-2.3,28.3-1.6c17.9,1.3,34.7,6.1,49.1,17.7c12.1,9.8,20,22.3,26.2,36.3c4.3,9.6,6.8,19.7,9,29.8
			c0.7,3.4,2,6.9,1.2,10.6c-0.6,2.9,1,5.5,1,8.3c0.1,18.7-3.3,36.7-9.7,54.1c-5.6,15.2-13.2,29.4-23.1,42.3c-1.7,2.2-3.9,4.2-6,6
			c-2,1.7-2,3.4-0.4,5.2c5.6,6.1,10.2,13.2,16.1,19c1.7,1.7,3.4,3.4,4.7,5.5c2.1,3.4,5.9,4.2,9.4,3.8c9.7-1.1,18.6-4.3,26.5-10.2
			c5.5-4.2,11.4-8,15.7-13.3c3.1-3.8,6.5-7,10.6-9.7c5.6-3.7,11.8-5.6,18.2-7.2c6.1-1.6,12.4-1.8,18.3-4.7
			c9.6-4.8,14.8-12.9,17.6-22.7c2.7-9.4,2.3-19.2,1.9-29.4c-4,5.1-7.1,10.4-11.8,14.3c-2.5,2.1-4.9,4.5-8.5,4.7
			c-2,0.1-2.8-0.8-2.3-2.5c2.9-8.8,3.4-18.1,4.5-27.1c1-8.5,1.8-17.1,1.3-25.8c-0.4-7-0.2-14,0-21c0.3-11.3,2-22.4,6.7-32.8
			c0.4-0.8,1.4-1.8,0.2-2.3c-2.9-1.2-3.5-4.2-5.2-6.3c-1.6-2-4.2-1.8-6.3-2.1c-6.3-0.9-12.5-1.8-18.5-3.9c-6.7-2.3-11.8-8-11-17.5
			c0.4-4.5,5-10.4,12.1-12.1c5.5-1.3,10.5,0.2,15.7,1c1.6,0.2,3.3,0.2,5,0.3c1.1,0,2.3,0,2.6-1.2c0.3-1.3-1.1-2.3-2-2.4
			c-4-0.5-7.9-1.8-11.9-2.3c-8.8-1-12.8-4.9-12-12.1c0.5-4.5,7.6-9.4,13.1-10.2c6.4-0.9,12.7-0.1,19,0c5.3,0.1,8.5,4.6,11.3,8.8
			c2.1,3.1,3.2,6.8,6.2,9.9c1.3-5.4-1-10-0.7-14.8c0.2-3.3,1.2-4.4,4.4-4c3.7,0.5,7.9-1.1,10.7,2.8c2.9,4.2,5.4,8.5,5.1,13.9
			c-0.1,1.8-1.2,5.3,1,5.2c2.8-0.1,1.2-3.6,1.6-5.5c0.7-3.2-1.1-6.3-0.1-9.6c1.2-4,4.2-5.4,7.5-6c3.5-0.6,8.5,3,9.6,6.2
			c1,2.8,1.9,5.7,2.8,8.5c0.2,0.6,0.3,1.3,1.1,1.1c0.3-0.1,0.6-0.5,0.6-0.8c0.7-2.8,1.2-5.4,4.8-6.4c3.9-1,7.3,0.1,10.7,1.3
			c6.8,2.4,9.4,8,10,14.5c0.7,8.3,0.3,16.6-5.2,23.6c-0.7,0.9-1.3,1.5-0.1,2.5c1.8,1.6,2.5,3.6,2.7,6.1c0.2,3.3,3.2,1.9,4.5,1.6
			c7.6-1.7,15.1-1.6,22.2,1.3c6.8,2.8,11.1,8.2,12.9,15.5c1.1,4.3,1.6,8.4,0,12.6c-0.7,1.8-1.4,2.2-2.8,0.5c-1.3-1.6-2.9-3-4.4-4.4
			c-2.6-2.6-4.8-2.6-7.3,0c-6.3,6.5-13.2,12-21.5,15.7c-2.2,1-2,1.8-0.5,3.2c4.1,4.1,9.4,6.4,14.1,9.6c5.6,3.8,11.5,7.4,13.3,14.8
			c1.9,7.9-1.3,17.4-11.7,17.2c-0.9,0-2.2-0.6-2.8,0.6c-0.4,1,0.7,1.5,1.3,2.2c8.2,11.1,16,22.4,21.8,35c3.8,8.5,6.8,17.2,8.9,26.3
			c2.4,10,3.4,20.1,2.8,30.3c-0.9,16.4-5.7,31.7-14.8,45.5c-3.3,4.9-5.3,10.5-9.2,15.2c-5.1,6-10.5,11.7-16.8,16.4
			c-8.1,6.1-17.2,10.7-26.9,14c-3.6,1.2-7.5,2.4-11,2.3c-4.6-0.2-6.1,2.9-7.9,5.4c-3.2,4.5-6.9,8.5-10.3,12.8
			c-5.2,6.5-11.3,12.3-17.2,18.3c-9.5,9.7-21,16.3-33.5,21.4c-0.8,0.3-1.6,0.2-1.8,1.5c-1.6,11.7-1.3,23.4,3.4,34.3
			c2.6,6.2,6.8,11.3,12.3,15.7c4.5,3.5,8.9,6.4,14.4,8.2c7.8,2.6,13.7-1.3,17.4-8.3c2.8-5.2,3.9-11.2,7.2-16.2
			c2.2-3.3,4.6-6.1,9.1-5.9c1.1,0.1,2,0.2,2.9,0.9c1.9,1.5,3.8,0.9,5.7-0.1c1.4-0.8,2.7-1.7,4.6-1.8c6.8-0.2,11.1,3.5,11.8,10.5
			c0.6,5.7,0.6,5.9,6.4,5.7c7.8-0.4,11.3,2.6,13.3,8.7c1,2.9,0,5.7-0.9,7.8c-1.9,4.3,0.4,8,0.5,12c0.1,5.4-1.2,10.4-7.3,12.1
			c-1.7,0.5-3.5-0.3-2.3-1.9c1.9-2.7-0.2-4.7-0.6-6.8c-0.5-2.9-4.9-3.7-7.4-1.4c-1.7,1.6-3.5,1.9-5.6,1.8c-4.7,0-9.5-0.7-13.8,2
			c-1.7,1.1-3.7,0.6-5.5,1c0.3,1.3,1.3,1.5,2.4,1.6c4.3,0.7,6.3,4.3,4.6,8.3c-0.6,1.3-1.1,2.6-0.4,3.6c5.3,7.2,1.9,13.7-1.7,20.1
			c-2.3,4.1-5.8,7.1-9.7,9.5c-1,0.6-2.4,1.7-3.5,0.8c-1-0.8-0.5-2.3-0.1-3.6c1.8-5.5,0.2-9.7-4.1-11.8c-2-1-4.1-0.9-6-0.4
			c-8.2,2.2-13.8,0.1-18.7-7.1c-0.4-0.6-1-1.1-1.5-1.7c-4.4-5.1-4.3-5-9.5-0.6c-5.1,4.3-11.3,6.2-17.7,7.2c-1.6,0.3-3.9-0.2-5.1-0.9
			c-5.7-3.3-9.8,0.5-14.3,2.6c-0.6,0.3-1,0.8-1.5,1.2c-1.9,1.1-4.1,3.8-5-1c-1.7,1.1-0.5,2.7-1.5,3.8c-2.8-0.6-5.6-2.1-8.7-1.8
			c-3,0.3-3.8,1.7-3.7,4.7c0.3,5.1,3.5,8.5,6,12.4c1.7,2.6,2.3,5.5,3,8.4c0.7,2.9-1.2,3.5-3.3,2.5c-2.4-1.1-4.5-2.8-6.6-4.5
			c-1.3-1.1-1.7-1.4-3.6-0.3c-4.9,2.8-9.9,5.9-16.1,3.4c-2.6-1-4.6-2.9-5.6-5c-1.2-2.4-3.3-3.4-5-3.4c-5.6,0.1-9-3.6-12.9-6.6
			c-0.2-0.2-0.7-0.1-1.1-0.2c-0.3-0.3-0.6-0.9-1.2-0.4c-0.5,0.5-0.1,0.9,0.3,1.2c3.2,3.8,7,7.1,8.2,12.2c0.1,0.4,0.6,0.8,0.5,1
			c-2.6,6.7,2.3,12.7,2,19.2c-0.1,2.2-0.7,4-2.3,5.5c-6.2,5.7-5.2,4.7-9-0.7c-1.2-1.8-2.3-3.6-3.7-5.2c-1.2-1.4-2.4-3.1-4.8-2.6
			c-8.2,1.9-15.5-7.1-16.9-14.8c-0.4-2.1-1.6-4-1.1-6.3c0.3-1.1-0.6-1.3-1.6-1.6c-5.9-1.4-9.3-5.4-9.6-11.4c-0.2-4.5-0.4-9,1.4-13.2
			c0.5-1.1,0.8-2.4-0.1-3.2c-0.8-0.8-1.9,0.1-2.8,0.4c-7.7,2.4-15.2,5.3-23.4,5.8c-4.5,0.3-8.8-0.8-13-2.4c-2.4-0.9-4.2-0.2-5.3,1.7
			c-1.4,2.6-3.7,4.9-4.2,8c-0.3,1.8-1.2,1.3-2,0.4c-4-4.2-5.1-9.4-4.4-14.8c0.6-4.6,2.7-8.7,7.7-9.9c1.5-0.4,2-1.3,2.2-2.2
			c1.5-5.9,6.5-7.6,11.3-9.1c6.3-1.9,13-1.1,19.5-1.1c2.8,0,5.5,1.5,8.3,1c0.7-0.1,1.7,0.3,1.8-0.8c0-1-0.9-0.9-1.7-1.2
			c-4.2-1.6-8.9-1-13-2.7c-7.9-3.3-14.3-8.2-17-16.9c-0.6-2,0.7-3.1,1-4.5c0.1-0.5,2.2-0.1,3.5,0.2c8.9,1.7,17.1,5.1,25.5,8.2
			c4.1,1.5,7.5,0.4,10.2-1.9c3.1-2.6,2.5-6.8,1.5-10.1c-1.7-6,0.1-11,3.8-15.3c0.9-1.1,0.8-1.3,0-1.9c-5.9-4.8-4.9-10.4-2-16.3
			c1.5-3.1,0.5-5.4-2.9-6.5c-4.7-1.5-9.5-2.2-13.8-4.7c-1-0.6-2.1-1.1-2.9-1.8c-1-0.8-2.4-1.6-2.4-2.9c0-1.9,2.1-1.3,3-1.6
			c5.7-2,10.8-4.9,15.7-8.5c0.9-0.7,1.9-1.5,2.5-2.4c1-1.6,2.6-3.1-1.2-4.1c-5.6-1.4-10.6-4.3-13.6-9.6c-0.2-0.3-0.7-0.6-0.7-0.9
			c-0.2-6-3.5-4.5-7.3-3.3c-7.1,2.3-14.6,3.1-22,4c-7.2,0.9-14.5,0.6-21.7,1.6c-3.5,0.5-3.5-1.4-2.4-3.9c2.5-5.6,5.7-10.4,11-13.9
			c0.8-0.5,2.9-0.5,2.5-2.4c-0.4-1.6-2.1-1.6-3.7-1.7c2.6-3.4,5.9-5.1,9.4-6.8c-1.8-2.2-4.4-2.9-6.6-4.2c-6.5-4-12.4-8.8-15.7-15.8
			c-1.4-3-4.1-2.6-6.1-3c-8.2-1.9-16.6-3.9-25-4.5c-5-0.3-10.5,0.7-15.3,3.3c-4.7,2.6-8.6,5.9-10,11.4c-1.8,6.8-0.1,12.9,4.7,17.9
			c3.9,4.1,8.2,7.7,12.4,11.5c1,0.9,2.2,1.7,3,3c-6.3-0.3-12.1-1.6-17.7-3.6c-4.5-1.6-8.8-3.8-12.7-6.7c-6.4-4.8-9.7-11.1-10.2-19
			c-0.4-7,0.8-13.6,3.3-20.1c0.8-2.1,1-4.2-0.2-6.2c-3-5.3-4.8-11-6.8-16.7c-0.2-0.5-0.2-1-0.4-1.5c-2.9,0.7-3.5-0.5-3.6-3.3
			c-0.1-2-0.9-3.9-0.8-6c0.4-5.8-0.9-11.2-2.7-16.7c-2.2-6.9-2.2-14.1-1.4-21.4c1-8.4,4-16.4,4.2-25c0.1-4.1,1.3-8.2,2.1-12.9
			c-2.3,1.1-4,1.9-6.1,2.9c0.8-4.3,1.4-8.3,2.5-12.1c0.9-3.5,0.9-7.2,2.3-10.7c0.2-0.4-0.1-1.4-0.3-1.4c-5-0.6-2.6-3.8-2.5-6.5
			c0.2-7.2,2.1-13.9,5.2-20.4c5.5-11.5,14-20.4,24.6-27.2c8.4-5.4,17.4-10.1,27.3-12.2c17.4-3.6,33.9-2.1,48.6,9.3
			c8.6,6.6,14.5,14.9,19.1,24.4c0.4,0.9,0.9,1.7,1.4,2.6c0.2,0.4,0.3,1,0.9,0.6C197.4,150.6,197.1,150.1,196.7,149.8z M240.2,281.5
			L240.2,281.5c-0.7-0.3-1,0-0.8,0.8l0.1-0.1c-0.8-0.2-1,0.2-0.8,0.8l0.1,0c-0.8-0.3-0.8,0.4-1,0.9c-1.3,0.8-1.8,2.1-2.4,3.3
			c-1.3,2.5,0.5,3.7,2.2,3.7c3.9,0,7.9-0.5,11.7-1.3c4.5-1,8.8-2.6,13-4.6c2-0.4,4.2-0.6,5.5-2.5l-0.1,0.1c0.8,0.2,1.5,0,1.7-0.9
			c0.5-0.1,1-0.3,1.5-0.3c1.3-0.1,2.6-2.2,3.6-0.7c1,1.7-1,2.6-2.2,3.5c-2.6,1.9-5.7,2.6-8.6,3.8c-9.7,4.2-19.8,6.8-30.4,5.9
			c-3.5-0.3-5.9,1-8.2,2.9c-2.1,1.7-3.9,3.8-5.7,5.8c-1.7,1.8-2.5,3.8-2,6.3c0,0.6-0.1,1.5,0.7,1.4c4.7-0.2,9.4,0.8,14.1-0.5
			c0.5-0.2,1-0.4,1.5-0.6c1.1,0.2,2.2,0.6,3.1-0.3c5.2-2.1,10.6-3.7,15.1-7.5c2.6-2.2,5.5-4.8,9.2-5.2c5.5-0.6,10.6-2.2,15.2-5.5
			c1-0.7,2.8-2.6,3.9-0.8c1,1.6-0.9,2.7-2.2,3.5c-0.4,0.2-1,0.3-1.4,0.6c-7.6,4.2-16.5,4.3-23.9,9.8c-9.6,7.3-21.4,9.9-33.5,8.8
			c-8.7-0.8-13.7,4.1-18.2,10.2c-1.4,2-4.1,4.5-3,6.5c1.2,2.4,4.7,0.5,7.1,0.6c0.9,0.1,1.8-0.1,2.7-0.1c4.4,0.2,7.9-1.5,10.5-5.1
			c0.5-0.4,1-0.8,1.5-1.3l0,0c4.2-0.3,8.5,0.7,12.7-0.6c0.5-0.2,1-0.4,1.5-0.6c1.4,0.3,2.8,0.6,4.1-0.3c5.1-1.7,10.5-2.4,15.2-5.4
			c1.8-1.2,3.6-2.3,5.5-3.3c1.2-0.7,2.7-0.9,3.4,0.5c0.7,1.4-0.9,1.9-1.7,2.5c-1,0.7-2.3,1-3.4,1.6c-6.6,3.4-13.4,6-20.9,7.3
			c-7,1.2-14.5,0.3-20.9,5.2c-4.7,3.6-11,3.4-16.9,3.2c-1.1,0-2.3-0.4-3.5,0.7c-4.4,4.1-9.3,7.7-15.2,9.4c-1,0.3-1.7,1-1.6,1.9
			c0.1,0.9,1.1,1.3,2.1,1.2c1.4,0,2.8,0,4.3,0c0.4,0.3,0.8,0.8,1.2,0.8c8.3,0,16.6-0.1,24.9-0.2c7-1.6,14.2-2.4,21-5
			c0.8-0.3,1.8-0.1,2.3-1.1l0,0c2.1,0.2,3.6-1,5-2.3c0.7,0.1,1.4,0.3,2-0.3c0.8-0.5,2-0.2,2.4-1.3l0,0c2.1-0.6,4.2-1.2,5.6-3
			l-0.1,0.1c0.9,0,1.8-0.1,2.2-1.1c0,0,0,0,0,0c0.3-0.3,0.6-0.5,0.9-0.8l0,0.1c1.7-0.3,3.1-0.9,4.2-2.3c0.8-0.4,1.5-1,2.3-1.3
			c1.5-0.5,3.3-0.9,4.1,0.8c0.7,1.7-1.1,1.9-2.1,2.6c-7.9,5.1-16.4,8.8-25.3,11.7c-10.4,3.5-21.1,6-32.2,6c-0.5,0-1.1,0-1.5,0.1
			c-4.2,1.6-8.3,0.9-12.6,0.2c-4.3-0.7-9.2-1.7-12.9,1.6c-3.8,3.2-7.8,6.2-10.3,10.7c-1,1.3-1.7,2.7,0.9,2.7c3.1,0,6.2-0.2,9.3-0.2
			c1.3-0.8,2.7-0.6,4.1-0.6c3.9,0.1,7.8-0.9,11.6-1.4c6-0.8,11.6-3.2,17.6-4.3c3.3,0.2,6.2-1,9.2-2.2c0.9-0.5,1.7-1.3,2.7-1.4
			c8.5-1.6,16.4-4.8,24-8.7c0.9,0.1,1.8,0.4,2.4-0.7l0,0c3-0.7,6-2.8,9.2-0.8c1.5,0.9,3.2,0.7,4.8,0.9c2.7,0.5,5.3,1.4,8,1.5
			c11.3,0.5,22.6-0.2,33.9-0.8c1-0.1,1.6-0.6,2.4-1c2.7-0.5,5.6-0.4,8.2-0.9c1.6-0.3,3.8-0.1,4.9-2c3.1-0.5,6.1-1.7,9-2.1
			c6.3-0.8,11.5-4.2,17.4-5.9c7.1-2,13.6-5.9,19.7-10.2c6.4-4.5,13.1-8.7,17.8-15.3c0.7,0.1,0.7-0.3,0.7-0.8
			c0.2-0.1,0.2-0.3,0.2-0.5c0.3-0.3,0.6-0.7,0.9-1c0,0-0.1,0.1-0.1,0.1c0.3-0.3,0.6-0.6,0.8-0.9c0,0-0.1,0.1-0.1,0.1
			c0.3-0.3,0.5-0.6,0.8-0.9l-0.1,0.1c0.3-0.3,0.6-0.6,0.8-0.8l-0.1,0.1c0.3-0.3,0.6-0.6,0.9-0.8l-0.1,0.1c0.3-0.3,0.6-0.6,0.9-0.8
			c0,0-0.1,0.1-0.1,0.1c0.3-0.3,0.6-0.6,0.8-0.9l0,0.1c0.4-0.4,0.7-0.7,1.1-1.1c0.2-0.1,0.3-0.2,0.3-0.4c0.1-0.1,0.3-0.2,0.3-0.4
			l0.2-0.3c0.6-0.1,0.8-0.4,0.9-1c0.1-0.2,0.2-0.5,0.3-0.7c0.3-0.3,0.6-0.6,0.8-0.9c0,0,0,0.1,0,0.1c0.3-0.3,0.5-0.6,0.8-0.8l0,0
			c0.8-0.3,0.9-1,0.9-1.7c4.7-4.3,6.7-10.3,8.2-16c1.4-5.3-0.3-10.6-4.8-14.5c-0.6-0.5-1.8-0.8-1-2c0.9-1.4,2-0.2,2.6,0.2
			c1.2,0.9,2.3,2.1,3.3,3.3c5.7,7.4,4.7,15.3,0.4,22.6c-6.3,10.7-13.9,20.4-23.6,28.5c-14.4,12-30.3,20.9-48.2,26.6
			c-12.5,4-25.1,6.6-38.1,7.4c-6.1,0.4-12.1,0.6-18.3,0.2c-6.9-0.4-13.5-1.6-20.2-2.9c-1-0.2-1.9-0.4-3,0c-9.8,3.4-19.9,6-29.5,10
			c-2,0.8-4.4,1-4.6,3.8c-0.2,2.9,0.7,5.4,3.4,6.8c4,2,8.2,3.8,12.2,5.8c4.8,2.4,5,4.3,1.3,8.1c-3.8,3.9-8.4,6.5-13.3,8.8
			c-1,0.5-2.6,0.8-2.5,2c0.1,0.9,1.3,1.6,2.5,2c4.2,1.6,8.5,1.4,12.9,1c1.2-0.1,3-0.5,3.5,0.9c0.5,1.5-1.2,2-2.2,2.5
			c-2.4,1.1-1.8,2.5-0.1,3.2c3.5,1.6,2.7,3.5,0.9,5.8c-1.1,1.3-1.8,2.8-2.4,4.3c-1.9,4.8-1.4,6.6,2.8,9.4c4.1,2.7,4.1,3.3,0.8,7.1
			c-3.6,4.2-6.3,8.5-4.4,14.8c1.3,4.2,0.6,9.3-3.2,12.3c-3.8,3-8.1,4.6-13.6,2.8c-5.7-1.8-11-4.4-16.7-5.9c-2.1-0.6-5.1-3.2-6.6-0.4
			c-0.7,1.3,2.2,4.1,4.3,5.7c5,4,10.7,6.4,16.8,7.8c3,0.8,6,1.6,9,2.4l0-0.1c0.3,0.3,0.6,0.5,0.8,0.8l0,0c0.5,0.6,1,1.3,1.5,1.9
			c0.2,0.4,0.5,0.9,0.6,1.3c0.4,1.4,1.8,2.6,0.5,4.2c-1.1,1.4-2.8,1.3-3.9,0.8c-2.7-1.1-5.4-0.8-8.1-1.4
			c-10.1-1.9-19.9-0.8-29.2,3.3c-3.1,1.4-5,4.7-5.5,8.3c-0.3,2.4,3.8,6.3,6.8,7c6.9,1.6,13.7,0.5,20.4-0.7
			c7.1-1.3,13.4-5.7,20.7-6.9c0.3,0.3,0.7,0.6,1,1c0,0.2,0,0.4,0.2,0.5c-0.1,1.5-0.2,3.1-0.4,4.6l0-0.1c-0.5,0.2-0.6,0.5-0.5,1
			c0,0.5-0.1,0.9-0.1,1.4c-0.8,0.3-0.8,0.9-0.7,1.7c-1.4,1.9-0.6,4.2-1.5,6.3c-1.6,3.5-0.2,10.4,2.5,12.8c1.3,1.2,3.1,2.7,4.8,2
			c5.5-2.2,4.3,1.7,4.4,4.5c0,1.7,0,3.4-0.1,5c-0.2,3.2,1,5.7,3.8,7.4c4.7,0,9.4,0,14.1-0.1c0.9-0.5,1.9-0.5,3-0.7
			c5.3-0.6,6.6-3.1,4.6-8.2c-1.6-4-4.8-6.6-8-9.1c-4.9-3.8-10.8-6.2-14.8-11.3c-3.9-4.8-4-12.4,0.4-16.2c-0.1,1.9,0.4,3.6-0.4,5.4
			c-0.8,1.6,0.5,2.5,1.6,2.3c5.1-1,8.3,2.1,11.5,5.1c3.7,3.4,6.9,7.4,11.1,10.1c3.6,2.3,7.1,5.1,11.8,3.3c3-1.2,5.7-3.3,8.2-5.4
			c1.5-1.3,2.9-2.8,5.1-0.9c-0.9,0.4-1.8,0.6-2.5,1.1c-2.6,1.9-5.3,4.3-4.8,7.7c0.4,2.9,1.7,5.7,4.9,7.3c2.1,1.1,3.6-0.5,5.5-0.5
			c4.7,0.1,7.8-3.1,9.5-8.8c1.2-4.3-0.4-7.8-4.3-10.5c-9.2-6.4-19.8-6.7-30.3-7.6c-3.1-0.3-6.1-0.3-8.9-1.6
			c-1.9-0.8-5.2-1.8-4.7-3.1c1-2.9,4-1.6,6.4-0.9c5.1,2.4,10.5,1.3,15.8,1.5c1.7,0.1,3.2-0.8,4.2-2.2c1.7-0.7,2.8-0.9,4.6,0.8
			c3.2,3,6.8,5.7,11.3,6.7c7.1,1.7,9,0,7.5-7c-0.1-0.5-0.2-1-0.3-1.5c-1.1-5.4-7.9-10.1-13.3-10.6c-5.8-0.6-11,1.9-16.5,2.5
			c-3.7,0.4-7.4,0.1-11.1,0.6c-3.2,0.4-6.4,1.3-9.7,0c-1.6-0.7-3.3-0.9-3.4-3.4c-0.2-6.3,0.9-12.6,1.7-18.8c0.4-3,0.2-6.1,0.9-9.1
			c1.1-4.9,1.4-10,2.1-15c1.6-1.9,1.7-4.3,2.1-6.6c0-0.5,0.1-1,0.1-1.5c0.9-0.3,0.9-0.9,0.7-1.6c1.6-4.1,3.2-8.1,4.9-12.2
			c0.3-0.7,0.9-1.7,1.4-1.7c2.9-0.1,5.2-1.8,7.9-2.4c5.2-1.1,9.7-3.9,13.7-7c5.7-4.5,10.9-9.8,15.7-15.6c-1.8-0.6-3.4-1.2-5.1-1.6
			c-1.8-0.4-1.8-1.6-1.6-2.9c0.3-1.4,1.2-2.7,2.6-2.2c4.7,1.7,9.3,1,13.9-0.2c4.3-1.1,9-0.7,12.9-2.8c5.2-2.7,10.7-5.2,14.7-9.7
			c0.5-0.6,1.1-2.2,2.3-0.6c0.7,0.9,0.7,1.7-0.2,2.7c-7.2,8.2-16.3,13.1-27,15c-3.8,0.7-7.6,1.1-9.9,4.7c-1,1.5-2.1,2.7-3.6,3.8
			c-2.9,2.1-2.5,4.2-0.1,6.6c1,1,2.1,1.3,3.2,2.1c0.2,0.5,0.4,0.9,1.1,0.8c0.3,0.1,0.6,0.1,0.9,0.2c3.8,2.6,6.6,2.5,10.3-0.1
			c1.6,0.4,2.6-0.6,3.8-1.4c0.7-0.6,2.1-0.8,2.8,0.2c0.5,0.8-0.1,1.5-0.8,2.2c-1.6,1.7-2.2,3.6-1.7,6.3c0.9,5.9,4.4,10.2,7.8,14.4
			c5.5,6.7,11.2,13.1,15.2,20.8c1.4,4,2.1,8.1,1,12.4c-0.9,0.7-1.8,1.4-2.7,2.2c-1.6,1.1-2.2,2.1,0.3,2.5c1.8,0.3,3.7,0.5,5.3,0
			c4.4-1.4,8.7-1,13,0.2c0.7,0.7,1.6,1.3,2.2,2c4.3,4.6,3.4,8.6-2.5,10.5c-1.4,0.5-2.7,1.2-4.3,1.4c-5.6,0.8-10.9,2.9-16,5.5
			c-3.9,2-4.3,4.1-1.7,7.6c3.9,5.3,8.7,4.6,15.1,2.1c4.8-1.9,9.3-4.5,13.4-7.6c2.6-1.9,4.6-1.7,6.9,0.1c0.2,0.9,1,0.7,1.6,0.8l0,0
			c0.3,0.3,0.6,0.5,0.8,0.8l0,0c0.4,0.4,0.8,0.8,1.2,1.1c0,0,0,0,0,0c0.4,0.4,0.8,0.8,1.1,1.2l0,0c0.3,0.3,0.5,0.6,0.8,0.8
			c0,0-0.1-0.1-0.1-0.1c0.3,0.3,0.6,0.5,0.8,0.8l0,0c0.4,0.4,0.8,0.8,1.2,1.1c0.1-0.1,0.2-0.1,0.2-0.2c-0.1,0.1-0.2,0.1-0.3,0.2
			c0.4,0.4,0.8,0.8,1.2,1.2l0,0c0.3,0.3,0.5,0.6,0.8,0.9l-0.1-0.1c0.3,0.3,0.6,0.5,0.8,0.8l-0.1,0c0.2,0.4,0.3,0.7,0.9,0.6
			c1,0.2,1.6,1.3,2.8,1c2.5,1.9,8.7,1.9,11.5,0c5.6,0,7.8,1.1,8.3,5.6c0.2,2.1,1.1,3.9,1.3,5.9c0.2,2.3,1.3,2.2,2.8,1.1
			c5.7-4.4,7.7-10.3,6.8-17.3c-0.4-2.7-1.7-4.3-4.6-2.2c-2.2,1.6-4.7,2.4-7.5,2.2c-1.3-0.1-1.7-0.6-2.2-1.6
			c-0.6-1.2,0.4-1.6,0.9-2.2c1.4-1.9,3.7-1.5,5.6-1.8c1.1,0,2.4,0.8,3.2-0.6l0,0c0.3-0.3,0.5-0.6,0.8-0.8l0,0
			c0.4-0.4,0.8-0.8,1.2-1.2l0.1-0.1c2.2-1.5,0.8-2.7-0.4-3.9c-1.4-1.4-3.5-2.1-5.2-1.8c-5.1,0.9-10.4,1.4-15.4,2.6
			c-6.7,1.7-13.1,0.8-19.5-0.6c-5-1.1-6.1-4-4.3-9c0.5-1.3,1.1-2.6,1.3-4c0.7-3.4,1.8-3.8,5-2.2c3.5,1.7,7,3.6,10.7,4.6
			c9.1,2.4,18.2,1.7,27.3-0.3c2.7-0.5,5.2-1.3,7.2-3.4c2.3,0.3,4.5,0.2,6.8,0.7c5.5,1.2,7.9-1.2,8-7c0-1.3-0.4-2.7,1.1-3.9
			c0.7,2.6,1.3,4.9,2,7.1c0.3,0.9,1.2,2.4,2.1,1.2c2-2.8,5.6-2.8,7.8-5.1c0.1-3.2,0.2-6.4,0.2-9.5c0-1.1,0.9-2.6-1-3.2
			c-0.1-0.7-0.4-1.1-1.1-1.5c-4-2.3-8.8-1.6-12.1,1.6c-1.9,1.9-3.1,4.7-5.2,6c-6.2,4.1-12.4,8.4-19.1,11.8c-4,2-8.1,3.5-12.7,3.3
			c-0.9,0-2.3,0.6-2.6-0.9c-0.3-1.4,1.2-1.5,2-1.9c6.7-4,12.3-8.8,14.4-16.9c0.7-2.6,2.2-4.9,5-6.5c2.2-1.2,5-1.4,6.5-3.7
			c1-0.8,1.9-1.6,2.4-2.9c0.9-1.9,2.3-2.1,4-0.8c0.9,0.7,1.6,2.7,3,1.5c1.3-1.2-0.2-2.6-0.7-3.8c-0.4-0.9-1-1.8-1.6-2.6
			c-1.5-2-3.2-3.1-5.9-2.3c-2.7,0.8-3.1,2.4-2.1,4.9c0.5,1.1-0.2,2.2-0.8,3.2c-2.4,0.1-3-2.1-4.4-3.3c-5.7-4.9-9.1-4.6-12.6,2
			c-2.6,4.9-4.5,10.2-6.9,15.2c-1.9,3.9-3.9,7.8-8,9.9c-3.1,1.5-5.9,1.5-9.5,0.8c-8.9-1.8-16.4-5.8-22.6-12
			c-13-13-16.2-29.4-15.1-46.9c0.2-2.8,0.1-3.7-2.8-3.5c-0.8,0.1-1.8-0.6-2-1.5c-0.2-0.8,0.7-1.4,1.4-1.6c6.4-1.5,11.6-5.6,17.1-8.6
			c9.4-5,19-10.5,25.7-19.4c1.1-0.1,1.9-0.6,2.3-1.6c0,0-0.1,0-0.1,0c0.3-0.3,0.6-0.5,0.8-0.8l-0.1,0.1c0.3-0.3,0.5-0.6,0.8-0.8
			c0,0-0.1,0.1-0.1,0.1c0.3-0.3,0.5-0.6,0.8-0.8c0,0,0,0,0,0c0.5-0.5,1.1-1,1.6-1.6l0,0c0.3-0.3,0.6-0.5,0.8-0.8l-0.1,0.1
			c0.3-0.3,0.6-0.5,0.8-0.8l-0.1,0.1c0.3-0.3,0.5-0.6,0.8-0.9l0,0c0.8-0.8,1.6-1.6,2.4-2.4l0,0c0.5-0.1,0.8-0.3,0.6-0.8
			c4.4-4.7,8.5-9.5,12.4-14.6c1.4-1.8,2.4-3.8,0.4-5.2c-1.6-1.2-3.4-0.2-4.8,1.7c-2.7,3.7-5.2,7.5-8.7,10.5
			c-0.5,0.4-0.5,2.3-1.8,0.9c-0.7-0.7-0.2-1.4,0.3-2c2.2-2.7,4.7-5.4,6.6-8.3c1.3-2.1,4.4-4.1,1.4-7.2c-0.4-0.4-0.2-1.7,0.1-1.7
			c2.9,0.3,5.3-2.1,8.1-1.8c2.2,0.3,0.3,2,0.3,3c0,0.5-0.2,1.2,0.4,1.2c3.2,0,6.3,0.9,9.5,0.1c0.5,0,1-0.1,1.5-0.1
			c3.1,0.9,5.8-0.5,8.7-1.3c5.1-2.6,10.7-4.2,15.6-7.3c3.5-2.1,6.5-4.7,9.7-7.1c6.8-5.3,12.6-11.5,17.5-18.5
			c0.3-0.4,0.5-0.8,0.8-1.2l0,0.1c0.8-0.3,1.4-0.8,1.2-1.8c0-0.5,0.1-1,0.1-1.5c-0.2-1.6,0.8-3.4-0.6-4.8c-0.1-0.5-0.2-0.9-0.3-1.4
			c0-0.3-0.1-0.6-0.1-0.9c0-4.1,0-8.3-0.1-12.4c0.5-0.7,0.3-1.5,0.1-2.3c0.1-0.4,0.2-0.7,0.3-1.1c1.6-2.6,0.5-5.6,1.5-8.4
			c0.5-1.2-1.1-1.3-1.7-0.6c-0.7,0.7-1,1.7-1.5,2.6l0.2,0.2c-0.9-0.3-1,0.2-0.8,0.9l0.1,0c-0.9-0.3-0.8,0.4-0.9,0.9
			c-0.7,0.6-1.4,1.2-2,1.8c-4.8,5-10.2,9-16.9,11.2c-0.7,0.2-1.4,0.7-2.2,0.4c-0.8-0.3-0.5-1.2-0.3-1.7c2.7-5.1,3.2-10.8,4.3-16.3
			c0-3.5,0-6.9,0-10.4c-1.4-0.2-2.1,0.7-2.6,1.8c-3.3,5.1-8.5,7.9-13.7,10.5c-1.6,0.8-4.4,2.1-5.6,0.8c-1-1.2,0.8-3.5,1.5-5.4
			c2.9-7.3,5.6-14.8,5.6-22.9c0-1.6-0.2-3.7-1.8-4.1c-1.6-0.4-1.9,1.8-2.5,2.9c-3.8,6.8-8.1,13.1-14.8,17.3c-0.6-3.9,1.1-8-0.8-11.9
			c-0.2-2.9-2-5.1-3.4-7.5c-0.5-0.8-1-2.1-2.1-1.9c-0.9,0.2-1.3,1.4-1.6,2.4c-1.8,5.9-6.4,9.5-10.7,13.4c-1,0.9-2.4,1.3-3.7-0.1
			c-4.5-4.8-8.9-9.6-11.3-15.9c-0.8-2.2-2-2.8-4.7-2.2c-7.5,1.6-15.2,2-22.6-0.5c-3.1-1.1-5.6-3.7-9.1-3.7c-10.4,0-20.4,1.8-29.6,7
			c-7.7,4.4-13.3,11.4-19.7,17.3c-9.9,9.3-21.6,14.5-34.9,17c-2.8,0.5-6.2-0.3-8.6,2.2c-0.7,0.1-1.1,0.5-1.1,1.2l0.2,0.1
			c-0.8-0.2-1,0.2-0.8,0.8l0.1-0.1c-0.7-0.1-1,0.1-0.8,0.8l0.1-0.1c-0.7-0.1-1,0.1-0.8,0.9l0.1-0.1c-0.7-0.2-1.1,0.1-0.8,0.9
			l0.1-0.1c-0.7-0.2-1.1,0.1-0.8,0.8l0.1-0.1c-0.8-0.2-1,0.1-0.8,0.8l0.1-0.1c-0.8-0.2-1,0.2-0.8,0.8l0.1-0.1
			c-0.7-0.1-1,0.1-0.8,0.9l0.1-0.1c-0.7-0.1-1,0.1-0.8,0.9l0.1-0.1c-0.7-0.1-1.1,0.1-0.8,0.8l0.1-0.1c-0.7-0.2-1.1,0.1-0.8,0.8
			l0.1-0.1c-0.8-0.2-1,0.1-0.8,0.8l0.1-0.1c-0.7-0.2-1,0.2-0.8,0.8l0.1-0.1c-0.7-0.1-1,0.1-0.8,0.9l0.1-0.1
			c-0.7-0.1-1.1,0.1-0.8,0.9l0.1-0.1C240.3,280.5,240,280.7,240.2,281.5z M222.4,284.8L222.4,284.8c0.2,0.2,0.5,0.5,0.8,0.7l0,0
			c0.5,0.5,1.1,1,1.6,1.5c1.6,0.3,2.7,4,4.4,1.6c1.4-2,3-4.1,4.1-6.4c0.7-1.5,0.6-2.6-0.6-3.6c-3.9-3.3-7.3-7.1-10.4-11.2
			c-3.7-4.9-7.5-9.7-10.1-15.3c-2.1-4.5-2.1-11.3-10.1-9.7c-0.6,0.1-1.2-0.2-1.9-0.3c-2.9-0.4-4.5,0.6-4.2,3.8c0.4,4,1,8,2.6,11.8
			c1.6,3.7,4,6.7,6,10.1c-0.1,0.5,0.1,0.8,0.6,0.9l-0.1-0.1c0.3,0.3,0.6,0.6,0.9,0.9c0.2,0.2,0.4,0.4,0.7,0.6c0.3,0.3,0.6,0.6,0.9,1
			c0.4,0.5,0.9,0.9,1.3,1.4c0.3,0.3,0.7,0.6,1,0.9l-0.1-0.1c0.3,0.3,0.6,0.6,0.9,0.8l-0.1-0.1c0.3,0.3,0.6,0.6,0.9,0.8l-0.1-0.1
			c0.3,0.3,0.6,0.6,0.9,1c0.4,0.5,0.9,0.9,1.3,1.4c0.3,0.3,0.7,0.6,1,0.9l-0.1-0.1c0.3,0.3,0.6,0.6,0.9,0.8l-0.1-0.1
			c0.3,0.3,0.6,0.6,0.9,1c1,1,2,2,3,2.9c0.5,1.1,1.4,1.5,2.5,1.6l0-0.1C221.9,284.2,222.1,284.5,222.4,284.8z M358.5,34.9
			c-0.5,0-0.8,0.3-0.8,0.8l0,0c-2.6,1.7-5.7,0.4-8.3,1.8c-0.3-0.1-0.6-0.2-0.9-0.4c-3.3-2.7-7-2.3-10.8-1.9c-0.3,0-0.6,0-0.9,0
			c-2.7-0.2-5.6-1-7.6,2c-3.2,1-4.6,3.7-6,6.4c-0.8,1.6-0.9,3.1,0.4,4.5c-0.2,1.9,0,3.5,2.2,4.1l0,0c-0.2,0.8,0,1.1,0.8,0.8l0-0.1
			c-0.4,0.9,0.2,1.2,0.9,1.6c0,0,0,0,0,0c0.3,0.3,0.5,0.5,0.8,0.8l0,0c0.2,0.8,0.9,1.2,1.6,1.4c1.6,1,3.3,1.4,5.2,1.2
			c2.7,2.7,5.8,0.9,8.8,1c0.8,0.9,1.9,1,3.1,1.2c4,0.4,7.8,1.6,11.1,4.1c0.4,0.4,0.6,1.2,1.4,0.6l-0.1-0.1c-0.1,1.3-0.2,2.7,1.4,2.9
			c0.9,0.1,2.8,1,2.6-1.3l-0.1,0c1,0.6,1.2-0.3,1.6-0.8l0,0c0.5,0,0.7-0.3,0.8-0.8l0,0c0.5,0,0.8-0.3,0.8-0.8l0,0
			c0.5-0.1,0.8-0.3,0.8-0.8l0,0c1-0.2,2.1-0.3,2.4-1.6l0,0c0.6,0.1,0.8-0.4,1-0.9c0.2-0.2,0.3-0.5,0.5-0.7c1.7-0.4,3.3-0.8,3.9-2.7
			c7.3-4.4,15.1-7.8,23.7-8.6c6.2-0.6,12.1,0.2,17.9,2.5c3.9,1.5,7.9,2.7,11.8,4.1c0.6,0.1,1,0,1-0.7l0,0c2.2-2,6.2,0.5,7.8-3
			c1.6-3.8,4.2-7.2,4.7-11.4c1.3-4,1.4-8,0-12c-0.8-3.5-2.6-6.2-5.7-8.1c-3.1-1.9-6.6-1.9-9.9-1.7c-2.6,0.2-0.8,3.4-1.6,5
			c-0.2,0.5-0.6,0.8-0.8,1.3c-2.6,2.7-5.2,2.4-7.7-0.1c-0.2-1.1-0.5-2.2-0.7-3.3c-1.1-4.9-1.6-10-7.4-11.9c-1.5-0.5-2.7-0.3-2.8,1.6
			l0,0c-2.5,1.9-2.9,5.2-1,7.6c-0.1,3.2-0.6,6.2-1.2,9.3c-0.7,3.4-2.8,5.7-5.8,5.4c-2.9-0.2-4.5-3.1-4.3-6.2
			c0.3-4.7-1.1-9.1-2.5-13.4c-1-3-2.1-6.7-6.7-5.9c-3,0.8-3.7,6.1-1.2,8.8c0,0.4,0,0.9,0,1.3c-1.3,3.6,0.8,7.8-2,11
			c-1.1,0.8-1.7,1.9-3.7,0.5c-2.2-1.5-4.1-3-5.6-5.1c0.3-1.5-0.1-2.7-1.6-3.4l0,0c-0.4-1.5-0.6-3.2-2.5-3.8
			c-1.3-4.2-3.8-7.3-8.1-8.3c-8-1.9-15.7-1.3-23.4,2.1c-4.1,1.8-2.5,4.9-2.8,7.4c-0.3,2,2,3.1,3.8,3.6c1.3,0.4,2.8,0.5,4.1,0.8
			c2,2.7,4.6,0.9,7,1c2.9,2,7.1,1.2,9.5,4.3c1.5,1.7,2.7,3.6,2.1,6l0,0C358.8,34.2,358.5,34.5,358.5,34.9L358.5,34.9z M466.7,144
			c0.3-0.3,0.6-0.5,0.8-0.8l-0.1,0.1c0.3-0.3,0.5-0.6,0.8-0.9l0-0.2c0.7-0.2,0.9-0.8,1-1.4c2-4.7,1.9-9.2-1.6-13.3
			c-3.5-4-8.2-6.3-12.6-9.2c-5.1-3.3-10.7-6.1-14-11.7c-1.4-2.4-8.4-2.4-10,0.1c-2.4,3.8-5.9,6.4-8.8,9.6c-3.3,3.6-4.9,8-5.3,12.8
			c-0.3,3.1,1.6,5.2,3.9,6.6c2.1,1.3,4.7,1.1,7,0c1-0.5,1.9-1.8,2.9-0.6c0.8,0.9,0.4,2.6-0.3,3.2c-1.7,1.6-2.1,3.7-3.3,5.5
			c-2.7,4.1,0.8,10.8,5.6,11.3c3.5,3.1,6.4,0.7,9.5-0.9c3.5-0.7,5.2-3,5.4-6.5c0.4-7.7-1.6-14.8-5.1-21.6c-1.1-2.2-2-4.5-2.9-6.8
			c-0.4-0.9,0-1.9,0.9-2.3c0.7-0.3,1.1,0.6,1.2,1.1c0.7,5.1,3.2,9.5,4.9,14.2c1.8,4.9,3,10.2,8,13.2c4,2.4,7.7,2.1,11.5-0.8l0,0
			C466.2,144.4,466.5,144.2,466.7,144L466.7,144z M185.1,336.8L185.1,336.8c1.1,0,1.9-0.4,2.2-1.6c3.6-4,3.5-4.1-0.3-8
			c-6-6.1-12.1-12.2-18.7-17.6c-2.5-2-4.7-4.5-7.7-5.8c-1.2-0.5-2.4-1.3-3.2,0.5c-1.8,4,0.7,8.5,4.7,9.9c1.4,0.5,3.5,0,4.2,2
			c-2.2,0.3-2.2,0.4-4-0.2c-0.9-0.3-1.8-0.6-2.5,0c-0.9,0.8,0.1,1.6,0.4,2.4c3.4,7.7,9.1,13,16.9,16.2c0.9,2.3,3.1,2,4.9,2.3l0,0
			C183,338,184.1,338,185.1,336.8z M238.7,145.5c0-2.9,0-5.7,0-8.6c-0.1-0.8,0.7-1.9-0.7-2.3c0.4-3.8-0.2-7.7-1.1-11.3
			c-4.3-16.9-11.6-32.2-25.1-43.9c-3.8-3.3-8-6.6-12.7-8.3c-4.5-1.6-8.8-3.6-13.8-4.2c-6.8-0.8-13.3-1.2-19.9,0.5
			c-0.5,0.1-1.1,0.1-1.2,0.7c-0.1,0.8,0.5,0.9,1.1,1.2c4.5,2.4,8.9,4.7,13.3,7.2c13.5,7.8,26.7,15.6,36.6,28.3
			c5.1,6.5,9.2,13.4,11.9,20.9c3.9,10.9,5,22.4,6.9,33.8c0.1,0.8-0.6,2,0.9,2.1c1.2,0.1,0.8-1.1,1.1-1.7c1.6-4.2,2.3-8.5,1.8-13
			C238.4,146.7,238.8,146.2,238.7,145.5z M228.7,165.6L228.7,165.6c-0.1-1-0.1-2-0.2-3c-0.3-2.2,1.4-4.8-1.1-6.6
			c0.3-2.7-0.4-5.3-0.8-7.9c-1.8-10.4-4.7-20.4-9.2-29.9c-6.3-13.3-16.7-22.6-28.9-30.3c-8.6-5.5-17.9-10-26.6-15.3
			c-11.5-7-22.7-14.5-32.8-23.6c-10.2-9.2-19.6-19-27.5-30.2c-2.1-3-3.9-6.5-7.5-9.6c0.2,9.1-2.9,16.8-1.2,25.3
			c1.1,5.1,1.7,10.1,4.1,14.7c4.4,8.6,11,15.3,18.8,20.9c4.8,3.4,9.7,6.6,15.4,8.6c5.1,1.8,10.2,3.6,14.8,6.2
			c8.4,4.7,16.5,9.7,24,15.9c7.8,6.6,14.8,13.8,20.1,22.5c6.5,10.6,10.7,22,12.7,34.5c1.6,9.8,3.2,19.6,3.4,29.6
			c0.1,2.7,0.3,5.4,0.4,8.5c0.7-0.8,1.4-1.2,1.5-1.7c0.8-4.3,2.1-8.7,2-13c-0.2-11,0.9-21.9-1.7-32.9c-2.5-10.8-6.4-20.9-12.4-30.1
			c-4-6.2-8.9-11.6-13.8-16.9c-0.7-0.8-2-1.3-0.8-2.8c1.3-1.7,1.9,0.5,2.9,0.3c0.3-0.1,0.8,0.6,1.2,1c11.9,10.7,19.8,24.2,25.5,39
			c3.1,7.9,3.6,16.2,3.7,24.6c0.1,7.5-0.6,15-1.1,22.5c-0.4,6.3-1.7,12.4-2.7,18.7c-0.8,5.4-1.7,10.8-2.5,16.2
			c-0.7,4.9-1.1,9.8-2.3,14.6c-0.4,1.8,0.3,3.6,2.2,3.9c2,0.3,2.6-1.2,3-3.1c0.6-2.7,1.9-5.2,2.7-7.9c2.8-9.2,5.3-18.5,8.8-27.5
			c2.9-7.3,5.8-14.6,5.3-22.7c1.2-0.3,1.1-1.3,1.1-2.1c0-3.2-0.1-6.3-0.1-9.5C229.4,165.9,229.2,165.7,228.7,165.6z M133.8,310.9
			c2.4,1.8,5.1,0.7,7.7,1.1c1.3,1.5,3,0.4,4.5,0.8c2.1,2.1,5,1.3,7.5,2.1c0.4,0.1,1.1,0,1.1-0.7c-0.2-3.6,1.3-7.3-0.5-10.9
			c-0.2-2.7-0.3-5.7-3.4-6.7c-8-2.6-16.1-4.7-24.6-4.8c-2.9,0-5.7,0.5-8.5,1c-5.1,1-10.3,1.7-14.7,4.4
			c-12.3,7.6-18.1,18.6-17.2,33.3c0.7,11.3,6.6,18.2,16.8,22c1.6,2.7,4.6,1.7,7.1,3c0-2.4-1.3-2.9-2.9-3.2c-1.4-1.8-3-3.5-4.3-5.4
			c-2.9-4.4-5.7-9.1-6-14.6c-0.5-8.7,6.2-16.7,16.4-19.8c1.6-1.3,4,0.5,5.4-1.5c0.5,0,1-0.1,1.5-0.1
			C124.4,311.4,129.1,311.3,133.8,310.9z M147.2,284.4c-0.3-0.6-0.8-1.1-1.4-0.6c-0.8,0.7,0.3,0.9,0.5,1.3
			c5.1,4.5,10.4,8.8,14.7,15.1c1.1-3.4,1.2-6.4-0.6-8.4C157,287.9,152.6,285.1,147.2,284.4z M200.6,194.8c-2.5,5-5,10-7.6,14.9
			c-1.1,2.1-1.1,4.4-0.6,6.3c1.8,6.4,2.7,12.9,3.7,19.5c0.4,2.8,3.1,1.9,4.8,2.6c0.8,0.4,2.3,0.2,2-1.4c-0.5-3.1,1.1-5.8,1-8.8
			c-0.6-10.1,0.9-20.3-1-30.3c0-0.9,0.1-1.8,0.1-2.7c0-0.8,0.4-2-1.1-2C200.7,192.9,200.7,194,200.6,194.8z M208.4,295.6
			c0,0.5,0,1,0,1.5c-7.4-3-12.7-8.6-18.2-14.1c-2-2-4.3-4.5-4.9-7.1c-1.5-6.1-6-8.8-10.8-11.6c-1.6-0.9-2.7-1.2-3.3,1.2
			c-1.2,4.4-1.2,8.7,0,13.2c1.9,7.1,7.2,11.9,12,16.7c5.9,5.9,13,10.4,20,15c3,1.9,5,0.4,7.3-0.3c2.5-0.8,2.4-3.5,2.5-5.5
			c0.1-1.3,0.3-2.8,0-4.2c0.1-0.6,0.3-1.1,0.4-1.7c1.2,0.5,2.5,2.2,3.6,1.4c2.4-1.9,5.1-3.9,6.4-6.6c0.8-1.6-2.5-2.7-3.7-4.4
			c-0.6-0.9-1.6-1.6-2.5-2.4c-5.5-5.5-11-11-15.3-17.5c-4-5.9-8.7-11.2-14.5-15.4c-1.2-0.9-2.3-1.2-3.6-0.8c-1.6,0.4-0.9,1.9-1,3
			c-0.3,3,0.3,5.8,1.4,8.6c3.3,8.9,8.4,16.6,15.4,23C202.5,290.4,205.5,293,208.4,295.6z M187.3,146.4c0.3,0.5,0.5,1.3,1.3,0.7
			c0.7-0.6,0-1.1-0.5-1.4c-1.5-5-4.7-9.1-8-12.9c-9.9-11.2-22.9-15.9-37.5-16.6c-2.9-0.1-5.8,0.8-8.6,1c-9,0.5-17.1,3.6-24.9,7.5
			c-11,5.6-20.1,13.6-26.9,24c-4.2,6.4-6.3,13.5-7.8,20.9c-0.2,1,0.1,2.8,0.8,3.2c1.2,0.8,1.9-0.8,2.7-1.6
			c5.2-5.3,10.9-10,16.9-14.3c11.3-8,23.9-13.2,37.5-14.8c11.4-1.3,23,0,33.2,5.7c17.4,9.7,27.4,24.2,26.9,44.8
			c0,1.3,0.2,2.6,0.3,3.9c0,0.6,0.2,1,0.9,1c0.6,0,0.9-0.3,1.1-0.9c0.2-0.9,0.7-1.7,0.9-2.5c1.7-10.5,1.6-20.8-2.5-31
			c-7-17.3-18.1-29.5-37.3-32.6c-1-0.2-2.3-0.1-2.1-1.5c0.2-1.2,1.4-1.3,2.5-1.3c4.1,0,7.5,1.9,11.1,3.4
			C175,134.4,181.1,140.5,187.3,146.4z M463.6,77.6c0.8,0.3,1.2,1.4,2.3,0.9c0.8,0.1,1.5,0.1,2.3,0.2c3.1,1.7,6.2,3.4,9.4,5.3
			c0.4-4-0.9-7.1-3.5-9.6c-8-7.6-17.4-8.2-27.6-5.8c-2.4,0.6-5.1,2.6-7.6,0.8c-2.3-1.7,0-4,0.1-6c0.1-2.6-0.4-4.7-3.1-6
			c-2.6-1.2-4.3,0.2-5.5,1.8c-1.4,1.8-2.4,1.1-3.8,0.3c-8-4.6-16.6-7.2-25.9-6.7c-5.7,0.3-11,1.8-16.3,3.8
			c-9.8,3.7-16.7,10.2-21.9,19.1c-4.7,8.1-5.1,17.1-5.8,26.1c-0.7,8.8,0.7,17.6-0.8,26.5c-1.2,7-0.6,14.4-1,21.7
			c-0.2,4.7-0.6,9.5-1.2,14.1c-0.5,3.4,0.3,7.2-1.4,10.5c-0.3,0.6-0.4,1.6,0.4,2c0.9,0.5,1.4-0.4,1.9-0.9c4.7-3.8,7.6-8.9,9.8-14.4
			c2.4-6.1,3.4-12.6,5.1-18.9c0.4-1.3,0.1-3.9,1.8-3.7c1.8,0.2,1.3,2.9,2.3,4.4c0.1,0.2-0.1,0.5-0.1,0.7c0,14.8,0.3,29.6-0.2,44.3
			c-0.2,5.1-1.3,10.5-3.8,15.2c-3.6,6.6-9.2,11.3-14.8,16.1c-2.2,1.9-1.9,2.7,0.4,3.5c6.2,2.2,12.7,2.7,19.2,1.9
			c5-0.6,8.6-3.3,10.9-7.9c1-1.9,2.3-3.7,3.6-5.4c0.6-0.8,1.4-2.1,2.8-1.1c1.2,0.9,1,1.8,0.2,3c-1.4,2.1-2.3,4.5-3.7,6.7
			c-2,2.9-1.8,6.4-0.8,9.5c1.5,4.2,4.4,7.7,7.7,10.9c1.7,1.6,3,1.3,4.4,0.1c1-0.9,1.9-2,2.7-3.2c4-6.2,3.9-13.2,4.6-20.1
			c0.2-1.9-0.5-4.3,2.5-4.2c2.8,0.1,1.8,2.5,2.2,4.1c0.8,3.9,0.2,8.1,3.1,11.4c3.1,3.6,6.3,7,5.4,12.9c7.4-6.2,8.8-14.3,10.6-22.3
			c0.2-0.8-0.7-2,0.5-2.4c1.2-0.4,1.8,0.8,2.4,1.6c0.6,0.7,1,1.4,1.5,2.2c3.7,5.7,4,12.5,5.8,18.8c0.2,0.9-0.1,1.9-0.5,2.9
			c-1.4,4.2-1.3,8.7-3.9,13.4c6.5-2.4,8.7-7.1,11-11.8c2.7-5.6,1.1-11.7,2.8-17.4c0.3-0.9-0.5-2.3,1.2-2.3c1.6-0.1,2,1,2.5,2.4
			c1.5,4.7,1,9.4,0.9,14.1c-0.2,6.5,0.6,13-0.7,19.6c-0.6,3.2-1.3,6.7-1.2,10.1c0,1.8,0.7,2.8,2.5,1.1c6-5.5,11.4-11.4,14.3-19.2
			c2.4-6.3,2.8-12.8,2.5-19.4c-0.1-1.3-0.6-2.4,0.5-3.4c0.4-0.3,1-0.8,1.3-0.2c0.5,1.1,1.8,1.7,1.5,3.4c-0.3,1.7-0.4,3.7,0,5.4
			c2.4,9.2,0.8,18.3-0.2,27.4c-0.7,6.6-2.3,13.1-0.3,20.6c12-16.6,15.5-33.9,9.1-53.1c3.9,2.8,3.7,7.5,6.5,11.1
			c0.5-9.4-0.9-18.2-2.9-26.8c-2.6-11.2-6.5-22-11.8-32.4c-6.2-12.3-13.9-23.5-22.4-34.1c-0.8-1-1.9-2-2.5,0.5
			c-0.7,2.8-3,4.7-5.3,6.2c-8.4,5.6-19.3,1.7-22.9-7.6c-1-2.7,0.5-5.4-0.4-7.2c-1-2-4.7-2.2-6.4-4.3c-0.4-0.5-0.6-1.1-0.9-1.6
			c-2.5-4.7-2.5-9.6-1-14.6c0.6-2.1,0.8-4.4,2.9-5.6c3-1.7,1.2-3.2-0.1-4.6c-1.6-1.8-4.1-1.6-5.8-1c-6.4,2.1-11.1-0.4-15.2-5
			c-0.8-0.9-1.9-1.3-0.6-2.7c1.3-1.4,1.8-0.1,2.8,0.4c2.9,1.4,5.5,3.5,9,3.8c6,0.4,9.2-4.1,13.5-6.9c0.4-0.3,0.2-1.9,1.4-0.7
			c0.7,0.7,1.3,1.4,0.1,2.2c-1.3,0.9-1.8,2.5-2.8,3.5c-1.3,1.4-1.1,2.3,0.2,3.5c1.4,1.4,2.7,1.4,4,0c1-1,1.8-2.2,2.6-3.3
			c2.8-3.8,5.9-7.6,11.3-6c7.2,2.2,12.7-0.3,17.5-5.2c2.7-2.7,5.9-4.8,8.8-7.3c0.9-0.7,2.9-0.3,2.6-2.2c-0.2-1.5-1.9-1.5-2.9-2.2
			c-0.6-0.4-1.5-0.3-2.3-0.3c-6.1,0-12.3-0.4-18.3,1.6c-1,0.4-2.6,0.5-3.1-0.8c-0.6-1.4,1.1-1.7,1.8-2.5c1.4-1.5,3.7-0.5,5.1-2
			C452.2,77.6,457.9,77.8,463.6,77.6z M344.2,467.8c-2.2,0-4.4-0.2-6.6,0c-3.9,0.5-6.6-1.5-9-4.1c-1.8-1.9-1-2.9,1.1-3.4
			c0.9-0.2,1.8-0.2,2.7,0c4.4,0.8,6.5-2.4,5.4-6.5c-1.5-5.5-4.1-10.7-8.3-14.6c-7.6-7.2-12.2-16.1-15.7-25.7c-1-2.7-2-3.7-4.5-3.3
			c-5.9,0.8-10.7-1.5-14.9-5.4c-1.4-1.3-2.1-1-3.5,0.1c-6.3,5.4-13.4,9.7-21.4,12c-4.8,1.4-6.8,4.7-7.9,8.9
			c-2.2,8.2-4.7,16.3-5.8,24.9c-1.1,8.9-2.6,17.8-2.8,26.9c-0.1,3.1,1,3.6,3.7,3.5c4-0.1,7.9-0.6,11.8-0.9c5.1-0.3,10.1-1.1,15-2.2
			c7.2-1.6,13-0.1,18.1,4.9c2.1,2,3.9,3.9,7.4,4.1c2.9,0.2,6.2,1.5,8.4,4c1.3,1.6,2,0.8,2.8-0.3c2.4-2.8,5.5-4.4,9-5.4
			c1.9-0.6,3.9-1.2,5.1-3.1c1.5-2.1,3.8-3.1,6-3.9c5.1-1.9,10.3-3.3,15.5-4.9c1-0.3,2.8,0.8,2.7-1.1c-0.1-1.2-0.6-2.8-2.1-3.4
			c-1.4-0.6-2.7-1.4-4.4-1.2C349.4,467.9,346.8,467.8,344.2,467.8z M264.4,127c0.5-5,0.3-11.8-1.2-18.2
			c-2.7-11.9-6.4-23.6-11.9-34.7c-3.9-7.8-8.4-15.1-14.3-21.5c-14.3-15.6-32.9-22.2-53.4-23.9c-6.5-0.5-13.2-0.1-19.9,0.6
			c-8.4,0.9-16.9,1.1-25.2,2.9c-4.5,1-8.9,2.3-13.4,3.6c-2.6,0.7-2.6,1.9-0.7,3.6c2.8,2.5,5.2,5.5,8,7.9c1.6,1.3,3.4,4.1,5.7,2.9
			c4.7-2.4,9.8-3.7,14.8-5c6.5-1.7,13.4-2.7,20-2.1c5,0.4,10.2,1.2,15.3,2.5c12.7,3.2,23.3,9.6,32.4,18.6c5.2,5.1,9.3,11.3,12.8,18
			c7,13.5,10.3,27.9,10.9,43c0.2,5.9-0.4,11.8-0.8,17.6c-0.2,3.3-0.5,6.8-1.3,9.8c-2.4,8.7-3.3,17.6-6.2,26.3
			c-3.6,10.8-6.9,21.7-11,32.4c-1.6,4.2-5.2,8.3-0.5,13.1c1.8,1.8,2.5,1.9,4.1,0.3c7.3-6.9,13.1-15,17.8-23.8
			c4.9-9.2,8.8-18.9,11.7-29C262.1,157.5,264.6,143.3,264.4,127z M192.7,245.7c0.8-2.4-0.9-5.6-1.3-8.8c-0.5-4.4-1.2-8.8-2.4-13
			c-3.5-12.4-8.6-24.2-16.7-34.4c-7-8.7-16-15.1-27.1-16.4c-9.9-1.1-20-0.3-29.6,3.3c-10.4,3.8-20.5,7.9-28.9,15.3
			c-6.4,5.7-10.5,12.8-10.5,21.7c0,1.8,0.5,3.1,2.3,1.4c2.7-2.6,6-4.2,9.2-6.1c10.2-6.1,21.2-9.6,33.1-10.1c3.1-0.1,6.2,0.4,9.4,0.9
			c5.5,0.8,10.7,2.3,15.6,4.8c14.9,7.6,23.7,20.8,32.3,34.4c2.7,4.2,3,10.7,9.5,11.8c1.8,0.3,2.7,3.7,4.6,1.8
			C193.2,251.2,192.6,248.6,192.7,245.7z M73.1,255.8c1-1.2,1.6-1.9,2.1-2.7c5.6-8.3,12.3-15.6,21.4-20.3c6.9-3.5,14.3-5.4,22-5.7
			c10.7-0.4,20.6,3.1,29.4,8.6c7,4.4,13.6,9.4,18.5,16.5c2.9,4.2,7,7.1,11.7,9.1c1.2,0.5,2.5,0.7,2-0.7c-1.7-5.2-1-10.9-4-15.7
			c-5.1-8.2-10.2-16.5-16.5-23.9c-9.8-11.5-22.1-17.9-37.3-17.9c-4.2,0-8.4,1.2-12.5,1.9c-8.3,1.5-15.7,4.3-22.7,9.2
			C75.8,222.2,68.2,240.1,73.1,255.8z M178.1,190.5c-2-13.4-12-21-20.9-29.5c8.8,2.1,13.6,8.9,18.6,15.6c5.2,6.9,7.9,15,11.7,22.6
			c0.1-4.6,0.2-9.1-0.5-13.6c-1.6-9.9-5.9-18.4-12.8-25.4c-10.1-10.3-23.1-13.6-36.9-14.5c-6.2-0.4-12.4,1.3-18.4,2.9
			c-10.5,2.9-19.9,7.9-27.9,15.2c-8.4,7.6-14.1,16.8-16.5,28c-0.1,0.7-0.3,1.3,0.2,1.8c0.8,0.6,1.7,0.5,2.5-0.1
			c3.5-3,7.5-5.1,11.3-7.6c9.9-6.3,20-12.3,31.4-15c7.9-1.9,15.7-3.9,24.3-2.5c9.5,1.6,17.2,5.5,23.8,12.1
			C171.5,183.7,174.7,187.1,178.1,190.5z M75.5,279.2c2.3-2.2,3-4.4,4-6.4c2.5-5.2,6.3-9.5,11-12.7c11.6-7.8,24.2-8.2,37.3-4.1
			c12.6,3.9,22.8,11.5,31.7,20.8c2.6,2.8,5.2,4.6,9.6,4.6c-3.1-6.8-3.2-13.9-2.8-21c0.1-1.6-0.8-2.3-1.7-3.2
			c-6-6.3-12.5-12.1-19.8-16.9c-6.1-4.1-12.6-7.9-20-8.5c-9.8-0.7-19.1,0.3-28.1,6C81.4,247.4,74.2,260.5,75.5,279.2z M236.4,106.5
			c0.9-2.2-0.5-2.7-0.5-3.8c-0.5-6.1-2.9-11.6-5.5-17c-5-10.6-12.5-19.2-22.1-26c-10.7-7.5-22.6-11.7-35.6-12.3
			c-4.8-0.2-9.6-0.1-14.5,0.7c-5.1,0.8-10,2.3-14.8,4.1c-2,0.8-0.7,1.8,0.1,2.5c2.8,2.6,6.4,4.1,9.2,6.6c3,2.6,6.5,3,9.7,2.2
			c5.2-1.3,10.4-0.6,15.6-0.8c9.1-0.3,17.7,2,25.7,6c10.9,5.5,18.9,14.1,25.2,24.4C231.5,97.3,233.7,101.7,236.4,106.5z M87,118.3
			c1.9,0.2,3.9-0.6,6-0.8c9.4-0.6,17-4.6,23.3-11.4c6.7-7.2,15.1-11.8,24.3-15.1c0.9-0.3,2.3-0.2,2.3-1.4c0-0.6-1.4-1.3-2.2-1.7
			c-5.9-2.7-11.9-5.3-17.8-8.1c-0.8-0.3-1.3-0.6-2.1-0.1c-3,1.6-6.3,2.8-9.1,4.6c-11.5,7.6-21.5,16.7-28.9,28.4
			c-0.9,1.4-2.8,3.1-2.1,4.2c0.9,1.4,3.3,1.5,5.3,1.3C86.1,118.3,86.4,118.3,87,118.3z M113.2,259c-11.9-0.8-18.3,1.9-26.4,10.7
			c-5.1,5.5-9,12.1-6.6,20.2c0.5,1.7,0.2,4.6,2.5,4.7c2,0.1,1.7-2.6,2.2-4.1c5.7-17.8,22.1-26.5,40.4-20.2c5.3,1.9,10,5.2,15.6,6.5
			c6.3,1.5,11.9,4.8,17.2,8.4c0.7,0.5,1.8,1.7,2.9,0.2c1-1.3-0.1-1.9-0.7-2.6C147.5,269.1,133.4,257.9,113.2,259z M219.4,229.6
			c-1-0.1-1.7,0.5-2.2,2.3c-3,9.9-1.6,19,4.3,27.6c4,5.9,10.1,9.9,14,15.9c1,1.5,2.1,1.3,3.5,0.1c3.4-2.7,5.8-6.3,9.1-9.2
			c1.4-1.2,1.1-2.2,0-3.5c-3.7-4.3-8-8.1-11.5-12.5c-4.1-5.1-8.5-9.8-12.4-15.1C222.7,233.3,221,231.4,219.4,229.6z M168.4,285.4
			c-2.6-0.1-2.9,0.1-3.7,2.5c-2,6-0.2,11.6,3.4,16.1c6.8,8.6,15.3,15.7,23.5,22.9c1.4,1.3,2.3,0.3,2.7-0.8c1.6-4.1,4.3-7.4,7.4-10.3
			c1.5-1.4,1.3-2.3-0.3-3.3c-4.9-3.2-10-6.1-14.5-9.7c-4.3-3.3-8.9-6.3-12.1-11C173.1,289.4,171.8,285.5,168.4,285.4z M90.7,299.6
			c14.2-14.3,31.7-14.3,50.2-12c-2.8-3.5-5.1-6-8.1-7.8c-7.6-4.4-15.2-7.6-24.3-5C94.8,278.7,89.7,285.4,90.7,299.6z M76.6,87.3
			c1.2-0.5,2.1-0.6,2.8-1.1C85.6,81.7,92,77.3,98,72.5c2-1.6,5.9-2,5.5-5.4c-0.4-2.8-2.9-5.1-4.8-7.3c-5-6.1-6.1-6-10.9,0.5
			C82,68.3,78.4,77.1,76.6,87.3z M410.3,459.3c3.3,0.4,4.8-1.7,6.6-2.8c5.7-3.1,10.1-7.7,13.8-13c0.8-1.2,1.4-2.2-0.3-3.2
			c-1.4-0.8-2.2-0.5-3.1,0.7c-1.1,1.5-2.1,3.8-3.6,4.3c-6.5,2-9.9,6.8-12.5,12.6C411.3,458.2,411,458.4,410.3,459.3z M390.9,476.8
			c-5.3-2.4-11-2.1-15.7-5.1c-0.7-0.5-2.1-0.5-2.3,0.6c-0.2,1.3-0.8,2.8,0.5,3.9C376.1,478.3,387.1,479.4,390.9,476.8z M321.7,497.2
			c0.3,0.7-0.5,2.2,1,2.7c1.3,0.5,2.1-0.6,3-1.4c1.1-1,1.8-2.4,3.7-2.5c0.9,0,2.9-0.6,2.5-1.6c-0.8-1.9-0.8-4.3-2.4-5.8
			c-0.2-0.2-0.7,0-1,0.1C325.8,489.4,321.7,494.4,321.7,497.2z M263.9,553.6c0.7-3.4,1-6.8,0.1-10.1c-0.3-0.9-0.9-1.9-1.7-2.5
			c-1.9-1.3-3.8-0.7-5.7,0.4c-0.9,0.5-0.9,1.2-0.3,1.9C258.7,546.7,261.5,549.8,263.9,553.6z M307.4,495.8c0,3.1,2.4,5.7,5.5,5.7
			c1.2,0,1.5-1.1,1.4-2.2c-0.1-3-2.8-7-4.9-7C306.6,492.2,307.7,494.5,307.4,495.8z M173,502.5c4-4.1,4.8-7.1,2.9-10.6
			c-0.4-0.7-0.5-1.5-1.5-1.4c-0.9,0.1-0.8,0.9-1.1,1.4C171.1,495.3,170.6,498.7,173,502.5z M259,515.6c-3.5-5.1-8.4-8.2-13.1-11.6
			c-0.7-0.5-1.9-0.7-2.4,0.4c-0.4,1,0,2,1,2.7c3,2,5.9,4.3,9.2,5.9C255.4,513.8,256.1,516.5,259,515.6z M442.9,466.1
			c2.5,0.8,3.9,2.2,4.6,4.2c0.2,0.5,1,0.7,1.5,1c0.3-0.5,0.7-1,0.9-1.5c0.8-2.1,0.6-4.3-1.2-5.6
			C446.6,462.6,445.2,464.7,442.9,466.1z M310.6,527.2c-1-1.8-1.9-3.6-2.9-5.4c-0.3-0.5-1.1-0.5-1.3-0.1c-0.7,1.1-2.3,2.2-1.1,3.6
			c1.2,1.4,2.9,2.3,4.7,2.8C310.1,528.1,310.4,527.5,310.6,527.2z"/>
		<path class="st2" d="M416.2,252c6.8-4.2,11.1-10.5,14.8-17.3c0.6-1.1,0.9-3.3,2.5-2.9c1.7,0.4,1.8,2.5,1.8,4.1
			c0,8.1-2.7,15.5-5.6,22.9c-0.7,1.8-2.6,4.2-1.5,5.4c1.1,1.3,4,0,5.6-0.8c5.2-2.6,10.4-5.3,13.7-10.5c1.9-0.1,1.9,1.2,2,2.6
			c0.2,2-0.7,4.1,0.6,6c-1.1,5.5-1.6,11.2-4.3,16.3c-0.2,0.4-0.5,1.3,0.3,1.7c0.7,0.3,1.4-0.1,2.2-0.4c6.6-2.2,12.1-6.2,16.9-11.2
			c0.6-0.6,1.3-1.2,2-1.8c0.3-0.3,0.6-0.6,0.9-0.9c0,0-0.1,0-0.1,0c0.5,0,0.8-0.3,0.8-0.9c0,0-0.2-0.2-0.2-0.2
			c0.8,0.4,1.8,0.6,1.8,1.8c-0.9,0.6-0.8,1.6-0.7,2.5c0.2,0.7,0.4,1.3,0.6,2c-0.1,0.4-0.2,0.7-0.3,1.1c-0.2,0.6-0.3,1.1-0.5,1.7
			c-1.1,4.3-1.1,8.6,0,13c0.2,0.3,0.4,0.6,0.6,0.9c0.1,0.5,0.2,0.9,0.3,1.4c-1.1,1.8-1.8,3.5,0.6,4.8c0,0.5-0.1,1-0.1,1.5
			c-1,0.2-1.4,0.8-1.2,1.8c0,0,0-0.1,0-0.1c-0.6,0.2-0.8,0.6-0.8,1.2c-4.9,7.1-10.7,13.2-17.5,18.5c-3.2,2.5-6.3,5-9.7,7.1
			c-5,3.1-10.5,4.7-15.6,7.3c-2.8,0.7-6.1-1.4-8.7,1.3c-0.5,0-1,0.1-1.5,0.1c-3.2-1.5-6.8,0.5-9.9-1.3c-0.1-1,1.8-2.7-0.3-3
			c-2.7-0.3-5.1,2.1-8.1,1.8c-0.3,0-0.5,1.3-0.1,1.7c3,3.1-0.1,5.1-1.4,7.2c-1.9,3-4.3,5.6-6.6,8.3c-0.5,0.6-1.1,1.3-0.3,2
			c1.3,1.4,1.4-0.5,1.8-0.9c3.5-3,6-6.8,8.7-10.5c1.4-1.9,3.2-2.8,4.8-1.7c2,1.4,0.9,3.4-0.4,5.2c-3.9,5.1-8,9.9-12.4,14.6
			c-0.2,0.3-0.4,0.6-0.6,0.8c0,0,0,0,0,0c-1.6,0-2.3,0.8-2.4,2.4c0,0,0,0,0,0c-0.3,0.3-0.5,0.6-0.8,0.9c0,0,0.1-0.1,0.1-0.1
			c-0.3,0.3-0.6,0.5-0.8,0.8c0,0,0.1-0.1,0.1-0.1c-0.3,0.3-0.6,0.5-0.8,0.8c0,0,0,0,0,0c-1.1,0-1.6,0.5-1.6,1.6c0,0,0,0,0,0
			c-0.3,0.3-0.5,0.6-0.8,0.8c0,0,0.1-0.1,0.1-0.1c-0.3,0.3-0.5,0.6-0.8,0.8c0,0,0.1-0.1,0.1-0.1c-0.3,0.3-0.6,0.5-0.8,0.8
			c0,0,0.1,0,0.1,0c-1.2-0.1-2,0.4-2.3,1.6c-6.7,8.9-16.2,14.4-25.7,19.4c-5.6,3-10.8,7.1-17.1,8.6c-0.7,0.2-1.6,0.8-1.4,1.6
			c0.2,0.9,1.2,1.6,2,1.5c2.9-0.2,2.9,0.7,2.8,3.5c-1,17.5,2.1,33.9,15.1,46.9c6.2,6.2,13.7,10.2,22.6,12c3.6,0.7,6.4,0.7,9.5-0.8
			c4.2-2.1,6.2-6,8-9.9c2.4-5,4.3-10.3,6.9-15.2c3.5-6.5,6.9-6.9,12.6-2c1.4,1.2,2,3.4,4.4,3.3c1.1,0.6,1.9,1.4,1.6,2.8
			c-1.5,2.3-4.4,2.5-6.5,3.7c-2.8,1.6-4.3,3.9-5,6.5c-2.1,8.1-7.7,12.9-14.4,16.9c-0.8,0.5-2.3,0.5-2,1.9c0.3,1.5,1.7,0.9,2.6,0.9
			c4.5,0.2,8.6-1.3,12.7-3.3c6.7-3.3,12.8-7.7,19.1-11.8c2-1.3,3.2-4.1,5.2-6c3.4-3.2,8.1-4,12.1-1.6c0.6,0.4,0.9,0.8,1.1,1.5
			c0.7,4.2-0.8,8.6,0.9,12.7c-2.2,2.3-5.8,2.3-7.8,5.1c-0.8,1.2-1.8-0.3-2.1-1.2c-0.7-2.2-1.3-4.5-2-7.1c-1.5,1.2-1,2.7-1.1,3.9
			c-0.1,5.8-2.5,8.1-8,7c-2.3-0.5-4.6-0.3-6.8-0.7c-2.8,0.3-5.6,0.6-7.2,3.4c-9.1,2.1-18.2,2.7-27.3,0.3c-3.7-1-7.3-2.8-10.7-4.6
			c-3.2-1.6-4.3-1.2-5,2.2c-0.3,1.4-0.9,2.7-1.3,4c-1.8,5-0.8,7.9,4.3,9c6.4,1.5,12.8,2.3,19.5,0.6c5-1.3,10.3-1.7,15.4-2.6
			c1.7-0.3,3.7,0.4,5.2,1.8c-0.1,1.3-0.2,2.7,0.4,3.9c0,0-0.1,0.1-0.1,0c-1.1-0.2-1.1,0.5-1.1,1.2c0,0,0,0,0,0
			c-0.3,0.3-0.5,0.6-0.8,0.8c0,0,0,0,0,0c-1.1,0-2.3-0.4-3.2,0.6c-2,0.3-4.2-0.1-5.6,1.8c-0.5,0.6-1.6,0.9-0.9,2.2
			c0.5,1,0.9,1.5,2.2,1.6c2.9,0.2,5.3-0.6,7.5-2.2c2.9-2.1,4.3-0.6,4.6,2.2c0.9,7-1.1,12.9-6.8,17.3c-1.5,1.2-2.6,1.2-2.8-1.1
			c-0.2-2-1.1-3.8-1.3-5.9c-0.5-4.5-2.6-5.6-8.3-5.6c-3.8,0-7.7,0-11.5,0c-1.2,0.3-1.8-0.8-2.8-1c-0.3-0.2-0.6-0.4-0.9-0.6
			c0,0,0.1,0,0.1,0c-0.3-0.3-0.6-0.5-0.8-0.8c0,0,0.1,0.1,0,0.1c-0.3-0.3-0.5-0.6-0.8-0.9c0,0,0,0,0,0c-0.1-0.7-0.1-1.4-1.2-1.2
			c0.1-0.1,0.2-0.1,0.3-0.2c-0.1,0.1-0.2,0.1-0.2,0.2c0.2-1-0.5-1.1-1.2-1.1c0,0,0,0,0,0c-0.3-0.3-0.6-0.5-0.8-0.8
			c0,0,0.1,0.1,0.1,0.1c-0.3-0.3-0.5-0.6-0.8-0.8c0,0,0,0,0,0c0-0.7-0.1-1.4-1.1-1.2c0,0,0,0,0,0c0.2-1-0.5-1.1-1.2-1.1c0,0,0,0,0,0
			c-0.3-0.3-0.6-0.5-0.8-0.8c0,0,0,0,0,0c0.1-1.5-0.8-1.1-1.6-0.8c-2.3-1.8-4.3-2-6.9-0.1c-4.1,3.1-8.6,5.8-13.4,7.6
			c-6.4,2.5-11.2,3.2-15.1-2.1c-2.6-3.5-2.2-5.6,1.7-7.6c5.1-2.6,10.3-4.7,16-5.5c1.6-0.2,2.9-1,4.3-1.4c5.9-1.9,6.8-5.9,2.5-10.5
			c-0.7-0.7-1.5-1.3-2.2-2c-0.2-2.2-2.1-2.2-3.4-2.3c-2.8-0.2-5.6-0.4-8.4,0.3c-2.3,0.5-4.8,1.2-6.9-0.6c0.9-0.7,1.8-1.4,2.7-2.2
			c2.2-3.3,1.7-9.8-1-12.4c-4-7.7-9.7-14.2-15.2-20.8c-3.5-4.2-6.9-8.6-7.8-14.4c-0.4-2.7,0.1-4.6,1.7-6.3c0.7-0.8,1.3-1.5,0.8-2.2
			c-0.6-1-2-0.8-2.8-0.2c-1.2,0.9-2.2,1.8-3.8,1.4c-3.4,0-6.9,1.1-10.3,0.1c-0.3-0.1-0.6-0.1-0.9-0.2c-0.4-0.3-0.7-0.5-1.1-0.8
			c-1-0.8-2.2-1.1-3.2-2.1c-2.3-2.3-2.7-4.5,0.1-6.6c1.4-1,2.6-2.3,3.6-3.8c2.3-3.6,6.1-4.1,9.9-4.7c10.7-1.9,19.7-6.8,27-15
			c0.9-1,0.9-1.8,0.2-2.7c-1.2-1.6-1.8,0.1-2.3,0.6c-4,4.6-9.5,7-14.7,9.7c-3.9,2.1-8.6,1.7-12.9,2.8c-4.6,1.1-9.2,1.9-13.9,0.2
			c-1.5-0.5-2.3,0.8-2.6,2.2c-0.3,1.3-0.2,2.5,1.6,2.9c1.7,0.4,3.3,1,5.1,1.6c-4.9,5.8-10,11-15.7,15.6c-4,3.2-8.4,6-13.7,7
			c-2.7,0.6-5,2.2-7.9,2.4c-0.5,0-1.1,1-1.4,1.7c-1.7,4-3.2,8.1-4.9,12.2c-0.6,0.4-0.7,1-0.7,1.6c0,0.5-0.1,1-0.1,1.5
			c-2.5,1.6-1.2,4.5-2.1,6.6c-0.7,5-1,10.1-2.1,15c-0.7,3-0.5,6.1-0.9,9.1c-0.9,6.2-1.9,12.4-1.7,18.8c0.1,2.5,1.8,2.7,3.4,3.4
			c3.2,1.3,6.4,0.5,9.7,0c3.7-0.5,7.4-0.1,11.1-0.6c5.5-0.6,10.7-3.1,16.5-2.5c5.4,0.5,12.2,5.2,13.3,10.6c0.1,0.5,0.2,1,0.3,1.5
			c1.4,7-0.4,8.7-7.5,7c-4.5-1.1-8.1-3.8-11.3-6.7c-1.8-1.7-2.9-1.4-4.6-0.8c-6.6,1.6-13.3,0.5-20,0.7c-2.3-0.6-5.3-1.9-6.4,0.9
			c-0.5,1.3,2.9,2.3,4.7,3.1c2.9,1.2,5.9,1.3,8.9,1.6c10.5,0.9,21.1,1.2,30.3,7.6c3.9,2.7,5.5,6.2,4.3,10.5
			c-1.6,5.8-4.8,8.9-9.5,8.8c-1.9,0-3.4,1.5-5.5,0.5c-3.2-1.6-4.5-4.4-4.9-7.3c-0.5-3.4,2.2-5.8,4.8-7.7c0.7-0.5,1.6-0.7,2.5-1.1
			c-2.2-1.8-3.6-0.3-5.1,0.9c-2.5,2.2-5.2,4.2-8.2,5.4c-4.6,1.9-8.2-1-11.8-3.3c-4.3-2.8-7.5-6.7-11.1-10.1c-3.2-3-6.4-6.1-11.5-5.1
			c-1,0.2-2.4-0.7-1.6-2.3c0.9-1.7,0.4-3.4,0.4-5.4c-4.4,3.9-4.2,11.4-0.4,16.2c4,5.1,9.9,7.5,14.8,11.3c3.3,2.5,6.4,5.1,8,9.1
			c2,5.2,0.7,7.6-4.6,8.2c-1,0.1-2,0.1-3,0.7c-4.7-1-9.4-1.1-14.1,0.1c-2.8-1.7-4-4.2-3.8-7.4c0.1-1.7,0.1-3.4,0.1-5
			c0-2.8,1.1-6.7-4.4-4.5c-1.7,0.7-3.4-0.8-4.8-2c-2.8-2.5-4.1-9.3-2.5-12.8c0.9-2,0-4.4,1.5-6.3c0.6-0.4,0.7-1,0.7-1.7
			c0-0.5,0.1-0.9,0.1-1.4c0.2-0.3,0.3-0.7,0.5-1c0,0,0,0.1,0,0.1c1.7-1.4,1.1-3,0.4-4.6c-0.2-0.1-0.2-0.3-0.2-0.5
			c-0.3-0.3-0.7-0.6-1-1c-7.3,1.2-13.5,5.6-20.7,6.9c-6.7,1.2-13.6,2.4-20.4,0.7c-3-0.7-7.1-4.6-6.8-7c0.4-3.5,2.3-6.9,5.5-8.3
			c9.3-4.1,19.1-5.3,29.2-3.3c2.7,0.5,5.5,0.3,8.1,1.4c1.1,0.4,2.8,0.6,3.9-0.8c1.4-1.7-0.1-2.9-0.5-4.2c-0.1-0.5-0.4-0.9-0.6-1.3
			c0.1-1.1-0.2-1.9-1.5-1.9c0,0,0,0,0,0c-0.3-0.3-0.6-0.5-0.8-0.8c0,0,0,0.1,0,0.1c-0.2-2-1.8-2.3-3.3-2.4c-1.9-0.1-3.8,0-5.7-0.1
			c-6.1-1.4-11.8-3.8-16.8-7.8c-2.1-1.6-4.9-4.4-4.3-5.7c1.5-2.8,4.4-0.2,6.6,0.4c5.7,1.5,11,4.1,16.7,5.9c5.5,1.8,9.8,0.2,13.6-2.8
			c3.8-3,4.5-8.1,3.2-12.3c-1.9-6.3,0.8-10.6,4.4-14.8c3.2-3.8,3.3-4.4-0.8-7.1c-4.2-2.7-4.7-4.6-2.8-9.4c0.6-1.6,1.3-3,2.4-4.3
			c1.8-2.2,2.6-4.2-0.9-5.8c-1.7-0.8-2.2-2.2,0.1-3.2c1.1-0.5,2.8-1,2.2-2.5c-0.5-1.4-2.3-1.1-3.5-0.9c-4.4,0.4-8.6,0.6-12.9-1
			c-1.2-0.5-2.5-1.2-2.5-2c-0.1-1.2,1.4-1.5,2.5-2c4.8-2.3,9.4-4.9,13.3-8.8c3.7-3.8,3.6-5.7-1.3-8.1c-4-2-8.2-3.8-12.2-5.8
			c-2.7-1.4-3.6-3.9-3.4-6.8c0.2-2.8,2.6-3,4.6-3.8c9.6-4,19.7-6.6,29.5-10c1.1-0.4,1.9-0.2,3,0c6.7,1.3,13.4,2.5,20.2,2.9
			c6.2,0.4,12.2,0.2,18.3-0.2c13-0.8,25.7-3.4,38.1-7.4c17.9-5.7,33.8-14.7,48.2-26.6c9.7-8,17.3-17.8,23.6-28.5
			c4.3-7.2,5.3-15.2-0.4-22.6c-0.9-1.2-2-2.4-3.3-3.3c-0.6-0.4-1.6-1.6-2.6-0.2c-0.9,1.2,0.4,1.5,1,2c4.5,3.9,6.2,9.2,4.8,14.5
			c-1.6,5.7-3.5,11.7-8.2,16c-0.7,0.3-0.9,0.9-0.9,1.7c0,0,0,0,0,0c-0.3,0.3-0.5,0.6-0.8,0.8c0,0,0-0.1,0-0.1
			c-0.3,0.3-0.6,0.6-0.8,0.9c-0.1,0.2-0.2,0.5-0.3,0.7c-0.6,0.1-1,0.3-0.9,1c0,0-0.2,0.3-0.2,0.3c-0.2,0-0.3-0.1-0.5-0.1
			c0,0.1,0.1,0.3,0.1,0.4c0,0.2-0.1,0.4-0.3,0.4c-1.1-0.4-1,0.4-1.1,1.1c0,0,0-0.1,0-0.1c-0.3,0.3-0.6,0.6-0.8,0.9
			c0,0,0.1-0.1,0.1-0.1c-0.3,0.3-0.6,0.6-0.9,0.8c0,0,0.1-0.1,0.1-0.1c-0.3,0.3-0.6,0.6-0.9,0.8c0,0,0.1-0.1,0.1-0.1
			c-0.3,0.3-0.6,0.6-0.8,0.8c0,0,0.1-0.1,0.1-0.1c-0.3,0.3-0.5,0.6-0.8,0.9c0,0,0.1-0.1,0.1-0.1c-0.3,0.3-0.6,0.6-0.8,0.9
			c0,0,0.1-0.1,0.1-0.1c-0.3,0.3-0.6,0.7-0.9,1c0.1,0.2,0,0.4-0.2,0.5c-0.2,0.3-0.5,0.5-0.7,0.8c-4.6,6.6-11.4,10.8-17.8,15.3
			c-6.1,4.3-12.6,8.2-19.7,10.2c-5.9,1.7-11.1,5.1-17.4,5.9c-2.9,0.4-5.9,1.6-9,2.1c-1.8,0.5-3.7,0.6-5.6,0.9
			c-2.6,0.3-5.5-0.3-7.6,2.1c-0.8,0.4-1.4,0.9-2.4,1c-11.3,0.6-22.6,1.4-33.9,0.8c-2.7-0.1-5.3-1-8-1.5c-3.3-3.5-7.6-2.4-11.6-2.3
			c-1.1,0-2.3,0.7-2.3,2.2c0,0,0,0,0,0c-0.9,0-1.8-0.2-2.4,0.7c-7.6,4-15.5,7.1-24,8.7c-0.9,0.2-1.8,0.9-2.7,1.4
			c-3.2,0.2-6.6-0.7-9.2,2.2c-6,1-11.6,3.5-17.6,4.3c-3.9,0.5-7.7,1.5-11.6,1.4c-1.4,0-2.8-0.2-4.1,0.6c-2.3-1.4-4.7-0.4-7.1-0.6
			c-1.3-0.1-3,0.3-3.1-1.8c2.5-4.4,6.5-7.5,10.3-10.7c3.8-3.2,8.7-2.3,12.9-1.6c4.3,0.8,8.4,1.4,12.6-0.2c0.5-0.2,1-0.1,1.5-0.1
			c11.1,0,21.8-2.5,32.2-6c8.8-2.9,17.4-6.7,25.3-11.7c1-0.7,2.8-0.9,2.1-2.6c-0.8-1.8-2.6-1.4-4.1-0.8c-0.8,0.3-1.5,0.9-2.3,1.3
			c-1.9,0-3.7-0.1-4.2,2.3c0,0,0-0.1,0-0.1c-0.3,0.3-0.6,0.5-0.9,0.8c0,0,0,0,0,0c-0.9,0-2-0.3-2.2,1.1c0,0,0.1-0.1,0.1-0.1
			c-2.2,0.4-4.8,0.1-5.6,3c0,0,0,0,0,0c-1.1-0.1-2.2-0.2-2.4,1.3c-0.6,0.6-1.3,0.4-2,0.3c-1.9,0.2-4.1-0.2-5,2.3c0,0,0,0,0,0
			c-0.9,0-2-0.2-2.3,1.1c-6.8,2.6-14,3.4-21,5c-0.8-0.9-1.9-0.6-2.9-0.6c-7.7,0-15.5,0-23.2,0.1c-1.4,0-2.8-0.1-4.3,0
			c-1,0-2-0.4-2.1-1.2c-0.1-0.8,0.6-1.6,1.6-1.9c5.9-1.7,10.8-5.3,15.2-9.4c1.3-1.2,2.4-0.8,3.5-0.7c5.9,0.2,12.2,0.4,16.9-3.2
			c6.4-4.9,13.9-3.9,20.9-5.2c7.4-1.3,14.2-3.9,20.9-7.3c1.1-0.6,2.4-0.9,3.4-1.6c0.8-0.6,2.5-1,1.7-2.5c-0.7-1.4-2.2-1.2-3.4-0.5
			c-1.9,1-3.7,2.2-5.5,3.3c-4.6,3-10.1,3.7-15.2,5.4c-1.4,0-2.8-0.3-4.1,0.3c-0.5,0.2-1,0.4-1.5,0.6c-4-1.8-8.1-1-12.2-0.4
			c-0.2,0-0.3,0.7-0.4,1c0,0,0,0,0,0c-0.8,0.1-1.4,0.4-1.5,1.3c-2.6,3.6-6.1,5.3-10.5,5.1c-0.9,0-1.8,0.1-2.7,0.1
			c-2.5-0.2-5.9,1.7-7.1-0.6c-1.1-2,1.6-4.6,3-6.5c4.5-6.1,9.5-11,18.2-10.2c12.1,1.1,23.9-1.5,33.5-8.8c7.4-5.5,16.4-5.6,23.9-9.8
			c0.4-0.2,1-0.3,1.4-0.6c1.4-0.8,3.2-1.9,2.2-3.5c-1.1-1.8-2.9,0.1-3.9,0.8c-4.6,3.2-9.6,4.8-15.2,5.5c-3.7,0.4-6.5,3-9.2,5.2
			c-4.5,3.8-9.9,5.3-15.1,7.5c-1,0.1-2.1,0.2-3.1,0.3c-0.5,0.2-1,0.4-1.5,0.6c-0.9-1.3-2.3-0.9-3.6-0.9c-3.7,0-7.5,0-11.2,0
			c-0.5-2.5,0.3-4.6,2-6.3c1.9-2,3.6-4.1,5.7-5.8c2.3-1.9,4.7-3.2,8.2-2.9c10.6,0.8,20.7-1.8,30.4-5.9c2.9-1.2,6-1.9,8.6-3.8
			c1.2-0.9,3.3-1.8,2.2-3.5c-0.9-1.5-2.3,0.6-3.6,0.7c-0.5,0.1-1,0.2-1.5,0.3c-0.8-0.1-1.5,0-1.7,0.9c0,0,0.1-0.1,0.1-0.1
			c-2.2,0.1-4.5-0.1-5.5,2.5c-4.1,2.1-8.5,3.7-13,4.6c-3.8,0.8-7.8,1.2-11.7,1.3c-1.6,0-3.5-1.2-2.2-3.7c0.7-1.3,1.2-2.5,2.4-3.3
			c0.3-0.3,0.7-0.6,1-0.9c0,0-0.1,0-0.1,0c0.5,0,0.8-0.3,0.8-0.8c0,0-0.1,0.1-0.1,0.1c0.5,0,0.8-0.3,0.8-0.8c0,0-0.1,0.1-0.1,0.1
			c0.5,0,0.8-0.3,0.8-0.8c0,0-0.1,0.1-0.1,0.1c0.5,0,0.8-0.3,0.8-0.9c0,0-0.1,0.1-0.1,0.1c0.5,0,0.8-0.3,0.8-0.9
			c0,0-0.1,0.1-0.1,0.1c0.5,0,0.8-0.3,0.8-0.8c0,0-0.1,0.1-0.1,0.1c0.5,0,0.8-0.3,0.8-0.8c0,0-0.1,0.1-0.1,0.1
			c0.5,0,0.8-0.3,0.8-0.8c0,0-0.1,0.1-0.1,0.1c0.5,0,0.8-0.3,0.8-0.8c0,0-0.1,0.1-0.1,0.1c0.5,0,0.8-0.3,0.8-0.9
			c0,0-0.1,0.1-0.1,0.1c0.5,0,0.8-0.3,0.8-0.9c0,0-0.1,0.1-0.1,0.1c0.5,0,0.8-0.3,0.8-0.8c0,0-0.1,0.1-0.1,0.1
			c0.5,0,0.8-0.3,0.8-0.8c0,0-0.1,0.1-0.1,0.1c0.5,0,0.8-0.3,0.8-0.8c0,0-0.1,0.1-0.1,0.1c0.5,0,0.8-0.3,0.8-0.9
			c0,0-0.1,0.1-0.1,0.1c0.5,0,0.8-0.3,0.8-0.9c0,0-0.1,0.1-0.1,0.1c0.5,0,0.8-0.3,0.8-0.8c0,0-0.1,0.1-0.1,0.1
			c0.5,0,0.8-0.3,0.8-0.8c0,0-0.2-0.1-0.2-0.1c1,0.2,1-0.6,1.1-1.2c2.4-2.5,5.8-1.7,8.6-2.2c13.2-2.5,25-7.7,34.9-17
			c6.4-6,11.9-12.9,19.7-17.3c9.2-5.3,19.2-7,29.6-7c3.4,0,6,2.6,9.1,3.7c7.4,2.6,15.1,2.1,22.6,0.5c2.7-0.6,3.9,0,4.7,2.2
			c2.4,6.3,6.8,11.1,11.3,15.9c1.3,1.4,2.7,1,3.7,0.1c4.3-3.8,8.9-7.5,10.7-13.4c0.3-1.1,0.7-2.2,1.6-2.4c1-0.2,1.6,1.1,2.1,1.9
			c1.3,2.4,3.1,4.6,3.4,7.5c0,3.4-0.1,6.8,0,10.2C415.4,250.8,414.5,252.2,416.2,252z M391.6,282.7c1.2,0.2,1.2-0.4,0.7-1.2
			c-1.2-1.3-0.2-3.8-2.6-4.5c0.5,2.6-0.3,4.9-0.9,7.3c-1.2,4.2-3.5,7.8-5.8,11.4c-0.6,1-1.6,2-0.3,2.8c1.4,0.9,1.7-0.9,2.3-1.6
			c1.4-1.6,2.6-3.5,3.8-5.2c0.7-0.4,0.9-1,0.8-1.7c0-0.2,0.1-0.4,0.1-0.6c0.2-0.4,0.4-0.7,0.6-1.1c0-0.2,0-0.4,0.1-0.5
			c2-1.2,1.5-3,1.2-4.8L391.6,282.7z M279.4,279.3c3.3-0.5,5.4-1.5,7.6-2.5c0.9-0.4,0.9-1.3,0.6-1.9c-0.3-0.7-1-0.3-1.6,0
			C283.8,275.8,281.6,276.8,279.4,279.3z"/>
		<path class="st3" d="M446.5,78.7c-1.4,1.5-3.7,0.5-5.1,2c-0.7,0.8-2.3,1.1-1.8,2.5c0.5,1.3,2.1,1.2,3.1,0.8c6-2,12.1-1.6,18.3-1.6
			c0.8,0,1.7-0.1,2.3,0.3c1,0.7,2.7,0.7,2.9,2.2c0.3,1.9-1.7,1.4-2.6,2.2c-2.9,2.5-6.1,4.6-8.8,7.3c-4.8,4.8-10.4,7.4-17.5,5.2
			c-5.4-1.7-8.4,2.2-11.3,6c-0.8,1.1-1.7,2.3-2.6,3.3c-1.3,1.4-2.6,1.3-4,0c-1.3-1.2-1.5-2.2-0.2-3.5c1-1.1,1.5-2.6,2.8-3.5
			c1.1-0.8,0.6-1.5-0.1-2.2c-1.2-1.2-1,0.4-1.4,0.7c-4.2,2.8-7.4,7.4-13.5,6.9c-3.5-0.3-6.1-2.4-9-3.8c-1-0.5-1.5-1.8-2.8-0.4
			c-1.3,1.4-0.2,1.8,0.6,2.7c4.1,4.6,8.8,7,15.2,5c1.8-0.6,4.2-0.7,5.8,1c1.3,1.4,3.1,2.9,0.1,4.6c-2,1.2-2.2,3.6-2.9,5.6
			c-1.5,5-1.5,9.9,1,14.6c0.3,0.6,0.5,1.2,0.9,1.6c1.8,2.1,5.4,2.3,6.4,4.3c0.9,1.8-0.7,4.5,0.4,7.2c3.5,9.3,14.5,13.2,22.9,7.6
			c2.4-1.6,4.6-3.4,5.3-6.2c0.6-2.5,1.7-1.5,2.5-0.5c8.6,10.7,16.3,21.8,22.4,34.1c5.2,10.4,9.1,21.2,11.8,32.4
			c2,8.6,3.5,17.4,2.9,26.8c-2.8-3.5-2.5-8.2-6.5-11.1c6.4,19.2,2.9,36.4-9.1,53.1c-2-7.6-0.4-14,0.3-20.6c1-9.1,2.6-18.2,0.2-27.4
			c-0.4-1.7-0.4-3.7,0-5.4c0.3-1.6-1-2.3-1.5-3.4c-0.3-0.6-0.9-0.2-1.3,0.2c-1.1,1-0.6,2.1-0.5,3.4c0.3,6.6-0.1,13.2-2.5,19.4
			c-3,7.8-8.4,13.7-14.3,19.2c-1.8,1.7-2.5,0.7-2.5-1.1c-0.1-3.4,0.5-6.8,1.2-10.1c1.3-6.6,0.5-13.1,0.7-19.6
			c0.1-4.7,0.6-9.5-0.9-14.1c-0.4-1.4-0.9-2.4-2.5-2.4c-1.7,0.1-0.9,1.5-1.2,2.3c-1.8,5.7-0.2,11.8-2.8,17.4
			c-2.3,4.8-4.5,9.4-11,11.8c2.6-4.7,2.5-9.2,3.9-13.4c0.3-1,0.7-2,0.5-2.9c-1.8-6.3-2.1-13.1-5.8-18.8c-0.5-0.7-0.9-1.5-1.5-2.2
			c-0.7-0.8-1.2-2-2.4-1.6c-1.2,0.4-0.3,1.6-0.5,2.4c-1.8,8-3.2,16.1-10.6,22.3c0.9-5.9-2.3-9.3-5.4-12.9c-2.8-3.3-2.3-7.5-3.1-11.4
			c-0.3-1.6,0.6-4-2.2-4.1c-3-0.1-2.3,2.4-2.5,4.2c-0.7,6.9-0.6,13.9-4.6,20.1c-0.8,1.2-1.7,2.2-2.7,3.2c-1.4,1.3-2.8,1.6-4.4-0.1
			c-3.3-3.2-6.2-6.6-7.7-10.9c-1.1-3-1.3-6.6,0.8-9.5c1.5-2.1,2.3-4.5,3.7-6.7c0.8-1.2,1-2.1-0.2-3c-1.4-1-2.2,0.2-2.8,1.1
			c-1.3,1.7-2.6,3.5-3.6,5.4c-2.3,4.5-5.9,7.3-10.9,7.9c-6.5,0.8-13,0.4-19.2-1.9c-2.4-0.8-2.6-1.6-0.4-3.5
			c5.6-4.7,11.2-9.5,14.8-16.1c2.6-4.7,3.7-10.1,3.8-15.2c0.5-14.8,0.2-29.5,0.2-44.3c0-0.3,0.2-0.6,0.1-0.7
			c-0.9-1.4-0.5-4.2-2.3-4.4c-1.7-0.2-1.5,2.4-1.8,3.7c-1.8,6.3-2.7,12.8-5.1,18.9c-2.2,5.5-5.1,10.6-9.8,14.4
			c-0.6,0.5-1,1.4-1.9,0.9c-0.9-0.4-0.7-1.4-0.4-2c1.7-3.3,0.9-7,1.4-10.5c0.6-4.6,1-9.4,1.2-14.1c0.4-7.2-0.2-14.7,1-21.7
			c1.5-8.9,0-17.7,0.8-26.5c0.7-9,1.1-18,5.8-26.1c5.2-8.9,12.1-15.4,21.9-19.1c5.4-2,10.7-3.5,16.3-3.8c9.4-0.5,17.9,2,25.9,6.7
			c1.4,0.8,2.4,1.5,3.8-0.3c1.2-1.6,2.9-3.1,5.5-1.8c2.7,1.3,3.2,3.3,3.1,6c-0.1,2-2.4,4.3-0.1,6c2.5,1.8,5.1-0.2,7.6-0.8
			c10.2-2.4,19.6-1.9,27.6,5.8c2.6,2.5,3.9,5.6,3.5,9.6c-3.2-1.8-6.3-3.5-9.4-5.3c0-0.8-0.1-1.6-1.2-1.6c-0.9,0-0.9,0.7-1.1,1.4
			c-1.1,0.4-1.5-0.7-2.3-0.9c-3.5-2.8-7.6-1.4-11.2-0.9C450.5,76.9,447.4,75.3,446.5,78.7z M417.2,85.5c1.3,0.4,2.3-0.4,3.3-0.8
			c3-2.2,5.4-0.7,7.7,1.2c1.8-3.8-2-4.1-3.4-5.9c-5.7-7.3-13.3-11.6-21.9-14.4c-1.7-0.5-3.2-0.5-4.8,1.1c2.2,1.3,2.3,2.5,0.7,4.7
			c-4.1,5.5-3.1,11.9,2,15.5c3.8,2.6,8.2,2.3,12.5,1.4C414.8,88,417.1,88.1,417.2,85.5z M461.7,237.6c0.4,8.2,0.4,16.3-4,23.7
			c-0.8,1.4-0.1,2.5,0.7,2.9c1.1,0.7,1.5-0.7,2.1-1.4c2.5-3.2,3.5-6.8,4.1-10.8c1.2-8.8,0.1-17.5,0.6-26.3c0-0.3-0.4-0.6-0.6-1
			c-0.4-0.8-0.4-2.3-1.7-2.1c-1.2,0.2-1.2,1.5-1.3,2.5C461.7,229.3,461.7,233.5,461.7,237.6z M421.7,215.7c-0.8,3-1.3,6,0.7,8.8
			C422.2,221.5,423.4,218.5,421.7,215.7z"/>
		<path class="st4" d="M344.2,467.8c2.6,0,5.2,0.1,7.8,0c1.7-0.1,3,0.6,4.4,1.2c1.5,0.6,2,2.2,2.1,3.4c0.1,1.9-1.7,0.8-2.7,1.1
			c-5.2,1.6-10.4,3-15.5,4.9c-2.2,0.8-4.6,1.8-6,3.9c-1.2,1.8-3.2,2.5-5.1,3.1c-3.5,1-6.6,2.6-9,5.4c-0.9,1-1.5,1.9-2.8,0.3
			c-2.1-2.6-5.5-3.9-8.4-4c-3.5-0.2-5.3-2.1-7.4-4.1c-5.1-5-11-6.5-18.1-4.9c-4.9,1.1-9.9,1.9-15,2.2c-3.9,0.3-7.9,0.8-11.8,0.9
			c-2.7,0.1-3.8-0.4-3.7-3.5c0.2-9,1.7-17.9,2.8-26.9c1.1-8.5,3.6-16.6,5.8-24.9c1.1-4.2,3.1-7.5,7.9-8.9c8-2.3,15.1-6.6,21.4-12
			c1.4-1.2,2.1-1.4,3.5-0.1c4.2,3.9,9,6.3,14.9,5.4c2.5-0.3,3.6,0.7,4.5,3.3c3.5,9.5,8.2,18.5,15.7,25.7c4.1,3.9,6.8,9.1,8.3,14.6
			c1.1,4.1-1,7.3-5.4,6.5c-0.9-0.2-1.8-0.2-2.7,0c-2.1,0.5-2.9,1.5-1.1,3.4c2.5,2.6,5.1,4.6,9,4.1
			C339.8,467.5,342,467.8,344.2,467.8z"/>
		<path class="st5" d="M228.5,162.6c0.1,1,0.1,2,0.2,3c-1.4,4.1-0.9,8.3-0.3,12.4c0.4,8.1-2.4,15.4-5.3,22.7c-3.5,9-6,18.3-8.8,27.5
			c-0.8,2.7-2.1,5.2-2.7,7.9c-0.4,1.9-1.1,3.4-3,3.1c-1.9-0.3-2.6-2.2-2.2-3.9c1.1-4.8,1.6-9.7,2.3-14.6c0.8-5.4,1.7-10.8,2.5-16.2
			c0.9-6.2,2.3-12.4,2.7-18.7c0.5-7.5,1.2-15,1.1-22.5c-0.1-8.4-0.7-16.7-3.7-24.6c-5.7-14.8-13.6-28.2-25.5-39
			c-0.4-0.3-0.8-1-1.2-1c-1,0.2-1.6-2-2.9-0.3c-1.2,1.5,0.1,2.1,0.8,2.8c4.9,5.4,9.8,10.8,13.8,16.9c6.1,9.3,9.9,19.3,12.4,30.1
			c2.6,11,1.4,21.9,1.7,32.9c0.1,4.3-1.3,8.7-2,13c-0.1,0.5-0.8,0.9-1.5,1.7c-0.2-3.2-0.4-5.8-0.4-8.5c-0.3-10-1.8-19.8-3.4-29.6
			c-2-12.4-6.2-23.9-12.7-34.5c-5.3-8.6-12.3-15.8-20.1-22.5c-7.4-6.3-15.6-11.2-24-15.9c-4.6-2.6-9.8-4.4-14.8-6.2
			c-5.7-2-10.6-5.2-15.4-8.6c-7.8-5.6-14.4-12.3-18.8-20.9c-2.4-4.6-3-9.7-4.1-14.7c-1.8-8.5,1.3-16.2,1.2-25.3
			c3.6,3.1,5.4,6.6,7.5,9.6c7.9,11.2,17.3,21,27.5,30.2c10.1,9.1,21.3,16.6,32.8,23.6c8.7,5.3,18,9.8,26.6,15.3
			c12.1,7.7,22.6,17.1,28.9,30.3c4.5,9.5,7.4,19.5,9.2,29.9c0.5,2.7,1.1,5.2,0.8,7.9C227.6,158.2,225.9,160.8,228.5,162.6z
			 M131.2,62.5c-0.1,0.2-0.4,0.8-0.7,1.4c-0.3,0.6-0.4,1.1,0.3,1.6c1,0.6,1.9,1.3,2.8,1.9c9.1,5.6,18.1,11.2,26.4,17.9
			c0.9,0.7,1.8,1.4,2.7,0.5c1.1-1.2-0.3-1.8-1-2.4c-8.2-7-17-13.2-26.2-18.6C134.3,64.1,133.4,63,131.2,62.5z"/>
		<path class="st5" d="M264.4,127c0.3,16.4-2.3,30.6-6.4,44.7c-2.9,10.2-6.8,19.8-11.7,29c-4.7,8.8-10.5,16.9-17.8,23.8
			c-1.7,1.6-2.3,1.5-4.1-0.3c-4.7-4.8-1.1-8.9,0.5-13.1c4.2-10.6,7.4-21.5,11-32.4c2.9-8.6,3.8-17.6,6.2-26.3c0.8-3,1.1-6.5,1.3-9.8
			c0.3-5.9,1-11.7,0.8-17.6c-0.6-15.1-3.9-29.5-10.9-43c-3.4-6.7-7.6-12.9-12.8-18c-9.1-9-19.7-15.4-32.4-18.6
			c-5.1-1.3-10.2-2.1-15.3-2.5c-6.6-0.6-13.5,0.4-20,2.1c-5,1.3-10.1,2.6-14.8,5c-2.3,1.2-4.1-1.6-5.7-2.9c-2.9-2.4-5.3-5.3-8-7.9
			c-1.9-1.8-1.9-2.9,0.7-3.6c4.4-1.2,8.9-2.5,13.4-3.6c8.3-1.9,16.8-2,25.2-2.9c6.7-0.7,13.4-1.1,19.9-0.6
			c20.5,1.7,39,8.3,53.4,23.9c5.9,6.4,10.4,13.8,14.3,21.5c5.6,11,9.2,22.7,11.9,34.7C264.7,115.2,264.9,121.9,264.4,127z
			 M252.9,132.5c0-5.5,0.9-9.7-0.2-13.4c-1.2-4-0.7-8-1.4-12c-1.5-8.1-2.8-16.1-6-23.7c-0.3-0.8-0.7-1.7-1.3-1.5
			c-0.7,0.2-1.3,1-1,2.2c2.6,8.9,5,17.9,6,27.2c0.7,6.6,1.8,13.3,1.1,19.8c-0.5,4.6-0.3,9.1-0.8,13.7c-0.1,1.1-0.1,2.3-0.2,3.5
			c-0.8,6.8-1.7,13.6-2.4,20.5c-0.1,0.8-0.7,2.4,0.9,2.4c1,0,1.3-1.5,1.5-2.4c1.1-5.6,2.7-11.2,3-16.8
			C252.2,144.9,253.7,138,252.9,132.5z M245.2,187.9c-0.1-0.4-0.2-1-0.5-1.2c-0.6-0.4-1.2,0-1.6,0.7c-2.8,5.8-5.9,11.5-9.4,16.9
			c-0.6,1-0.5,1.7,0.4,2.3c1,0.8,1.9-0.4,2.1-0.6C240.2,200.5,242.8,194.3,245.2,187.9z M241.9,77.5c0.3-4.8-2.1-8.9-3.2-13.2
			c-0.1-0.6-0.7-0.9-1.2-0.6c-0.5,0.3-1.2,1.1-1.1,1.4C238.2,69.2,238.9,73.8,241.9,77.5z"/>
		<path class="st6" d="M348.5,37.1c0.3,0.1,0.6,0.2,0.9,0.4c2,0.6,4.1-1.1,6.3,0.2c0.5,0.3,2.4-0.2,2.1-2c0,0,0,0,0,0
			c0.7,0.1,0.9-0.2,0.8-0.8c0,0,0,0,0,0c0.6,0.1,0.9-0.2,0.8-0.8c0,0,0,0,0,0c0.7,0.2,1.7-0.2,1.4-0.7c-1.3-1.7-0.7-4.7-3.5-5.4
			c-2.4-3.2-6.6-2.4-9.5-4.3c-2-2.5-4.7-0.8-7-1c-1.4-0.3-2.8-0.4-4.1-0.8c-1.9-0.6-4.1-1.6-3.8-3.6c0.3-2.5-1.3-5.6,2.8-7.4
			c7.7-3.5,15.4-4,23.4-2.1c4.3,1,6.8,4.2,8.1,8.3c0.3,1.6,0,3.6,2.5,3.8c0,0,0,0,0,0c-0.3,1.5,0.3,2.6,1.6,3.4
			c1.5,2.1,3.4,3.6,5.6,5.1c2,1.3,2.6,0.3,3.7-0.6c3.5-1.1,4.6-6.8,2-11c0-0.4,0-0.9,0-1.3c0.8-2.9-0.6-6.1,1.2-8.8
			c4.6-0.8,5.7,2.9,6.7,5.9c1.4,4.3,2.8,8.7,2.5,13.4c-0.2,3,1.3,5.9,4.3,6.2c3,0.3,5.2-2,5.8-5.4c0.6-3.1,1.2-6.2,1.2-9.3
			c0.3-2.5,0.6-5,1-7.6c0,0,0,0,0,0c1.4,0.4,2.1-0.7,2.8-1.6c5.8,1.9,6.4,7,7.4,11.9c0.2,1.1,0.5,2.2,0.7,3.3
			c-0.3,2.7,1.1,3.8,3.6,3.5c2.1-0.2,4.6-0.2,4.1-3.5c0.3-0.4,0.6-0.8,0.8-1.3c0.8-1.7-1.1-4.9,1.6-5c3.3-0.2,6.8-0.2,9.9,1.7
			c3.1,1.9,5,4.6,5.7,8.1c0,4,0,8,0,12c-0.5,4.2-3.1,7.6-4.7,11.4c-1.6,0.4-3.2,0.7-4.7,1.2c-1.1,0.4-3.1-0.4-3.1,1.8c0,0,0,0,0,0
			c-0.6-0.2-0.8,0.2-1,0.7c-3.9-1.3-7.9-2.6-11.8-4.1c-5.8-2.2-11.7-3.1-17.9-2.5c-8.7,0.8-16.4,4.2-23.7,8.6
			c-1.5,0.6-3.4,0.6-3.9,2.7c-0.2,0.2-0.3,0.5-0.5,0.7c-0.6,0-1,0.2-1,0.9c0,0,0,0,0,0c-1.2-0.1-2.5-0.3-2.4,1.6c0,0,0,0,0,0
			c-0.6,0-0.8,0.2-0.8,0.8c0,0,0,0,0,0c-0.6-0.1-0.9,0.2-0.8,0.8c0,0,0,0,0,0c-0.6,0-0.9,0.2-0.8,0.8c0,0,0,0,0,0
			c-0.8-0.2-1.4,0-1.6,0.8c0,0,0.1,0,0.1,0c-1.6,0-3.1-0.1-4-1.6c0,0,0.1,0.1,0.1,0.1c-0.5-0.2-0.9-0.4-1.4-0.6
			c-3.3-2.4-7.1-3.6-11.1-4.1c-1.2-0.1-2.3-0.2-3.1-1.1c-2.7-2.6-5.9-0.8-8.8-1c-1.9,0.2-3.6-0.2-5.2-1.2c-0.1-0.9-0.4-1.7-1.6-1.4
			l0,0c0-0.6-0.2-0.9-0.8-0.8c0,0,0,0,0,0c0.2-0.8,0-1.3-0.9-1.6c0,0,0,0.1,0,0.1c0-0.5-0.3-0.8-0.8-0.8c0,0,0,0,0,0
			c-0.1-1.7-0.4-3.3-2.2-4.1c-1.3-1.4-1.2-2.9-0.4-4.5c1.4-2.7,2.8-5.3,6-6.4c2.4-1.2,5.5,0.3,7.6-2c0.3,0,0.6,0,0.9,0
			C341,37.5,344.9,36.8,348.5,37.1z"/>
		<path class="st5" d="M192.7,245.7c-0.1,2.9,0.5,5.5-0.5,6.6c-1.8,2-2.8-1.5-4.6-1.8c-6.5-1.1-6.8-7.6-9.5-11.8
			c-8.6-13.6-17.4-26.8-32.3-34.4c-4.9-2.5-10.1-4-15.6-4.8c-3.1-0.5-6.2-1-9.4-0.9c-11.9,0.5-22.9,4-33.1,10.1
			c-3.1,1.9-6.5,3.5-9.2,6.1c-1.8,1.8-2.3,0.4-2.3-1.4c0-8.9,4.1-16.1,10.5-21.7c8.4-7.3,18.5-11.5,28.9-15.3
			c9.7-3.6,19.8-4.4,29.6-3.3c11.1,1.3,20.1,7.6,27.1,16.4c8.1,10.2,13.2,22,16.7,34.4c1.2,4.2,1.9,8.6,2.4,13
			C191.8,240.1,193.5,243.2,192.7,245.7z M181.7,231.2c0.5-9.2-10.4-25.8-22.1-33.8c-10.6-7.3-25.7-12.3-31.6-9.4
			C154.3,192.3,171.6,206.7,181.7,231.2z"/>
		<path class="st5" d="M187.3,146.4c-6.2-5.9-12.2-12-20.3-15.3c-3.6-1.5-7-3.4-11.1-3.4c-1.1,0-2.3,0.1-2.5,1.3
			c-0.2,1.4,1.1,1.4,2.1,1.5c19.2,3.2,30.3,15.3,37.3,32.6c4.1,10.2,4.2,20.5,2.5,31c-0.1,0.9-0.6,1.7-0.9,2.5
			c-0.2,0.6-0.5,0.9-1.1,0.9c-0.6,0-0.8-0.5-0.9-1c-0.1-1.3-0.3-2.6-0.3-3.9c0.5-20.6-9.5-35.1-26.9-44.8c-10.3-5.8-21.8-7-33.2-5.7
			c-13.6,1.6-26.2,6.8-37.5,14.8c-6.1,4.3-11.7,9-16.9,14.3c-0.7,0.7-1.4,2.4-2.7,1.6c-0.7-0.5-0.9-2.2-0.8-3.2
			c1.4-7.4,3.6-14.5,7.8-20.9c6.8-10.4,15.9-18.4,26.9-24c7.8-3.9,15.9-7,24.9-7.5c2.8-0.2,5.7-1.1,8.6-1
			c14.7,0.6,27.6,5.3,37.5,16.6c3.4,3.8,6.5,7.9,8,12.9C187.8,146,187.5,146.2,187.3,146.4z"/>
		<path class="st7" d="M73.1,255.8c-4.9-15.7,2.7-33.6,14-41.5c7-4.9,14.4-7.7,22.7-9.2c4.2-0.8,8.3-1.9,12.5-1.9
			c15.2,0.1,27.5,6.5,37.3,17.9c6.3,7.4,11.4,15.7,16.5,23.9c3,4.8,2.3,10.5,4,15.7c0.5,1.4-0.8,1.2-2,0.7
			c-4.7-2.1-8.8-4.9-11.7-9.1c-4.8-7-11.5-12.1-18.5-16.5c-8.8-5.5-18.7-9.1-29.4-8.6c-7.7,0.3-15.1,2.2-22,5.7
			c-9.1,4.7-15.7,11.9-21.4,20.3C74.7,253.9,74,254.6,73.1,255.8z M122.9,217.6c0.4,1.5,1.4,1.5,2.5,1.7c6.9,1.1,13.1,3.7,19.2,7
			c8.9,4.8,16.2,11.3,22.6,19c0.5,0.6,1,1.9,2,1c1-0.9-0.2-1.6-0.7-2.2c-7.4-9.7-16.3-17.4-27.6-22.1
			C135.2,219.7,129.5,217.3,122.9,217.6z"/>
		<path class="st5" d="M178.1,190.5c-3.4-3.4-6.6-6.9-9.9-10.2c-6.7-6.6-14.3-10.5-23.8-12.1c-8.6-1.4-16.4,0.7-24.3,2.5
			c-11.4,2.7-21.6,8.7-31.4,15c-3.8,2.5-7.8,4.6-11.3,7.6c-0.7,0.6-1.7,0.7-2.5,0.1c-0.6-0.5-0.4-1.1-0.2-1.8
			c2.4-11.2,8.1-20.4,16.5-28c8.1-7.3,17.5-12.3,27.9-15.2c6-1.7,12.2-3.3,18.4-2.9c13.8,0.9,26.8,4.2,36.9,14.5
			c6.9,7.1,11.2,15.5,12.8,25.4c0.7,4.6,0.6,9,0.5,13.6c-3.8-7.6-6.5-15.7-11.7-22.6c-5-6.7-9.9-13.5-18.6-15.6
			C166.1,169.5,176.1,177.1,178.1,190.5z"/>
		<path class="st7" d="M75.5,279.2c-1.2-18.7,5.9-31.8,21.2-41.5c9-5.7,18.3-6.7,28.1-6c7.4,0.5,13.9,4.4,20,8.5
			c7.2,4.9,13.7,10.6,19.8,16.9c0.9,0.9,1.8,1.7,1.7,3.2c-0.4,7.1-0.2,14.2,2.8,21c-4.3,0-6.9-1.8-9.6-4.6
			c-8.9-9.4-19.1-16.9-31.7-20.8c-13.1-4.1-25.7-3.7-37.3,4.1c-4.7,3.1-8.5,7.5-11,12.7C78.4,274.8,77.7,276.9,75.5,279.2z
			 M118.8,239.9c1.7,0.3,2.7,1.3,4.1,1.3c7.6,0.1,14.1,3.4,20.2,7.6c4.2,2.8,7.7,6.3,11,10.1c0.8,0.9,1.9,1.7,2.9,0.7
			c0.8-0.8,0.2-1.9-0.5-2.8c-0.4-0.5-0.9-1-1.3-1.4c-7-7.5-15-13.9-25.1-16.5C126.6,237.9,122.6,235.4,118.8,239.9z"/>
		<path class="st8" d="M468.3,142.1c0,0,0,0.2,0,0.2c-0.3,0.3-0.5,0.6-0.8,0.9c0,0,0.1-0.1,0.1-0.1c-0.3,0.3-0.6,0.5-0.8,0.8
			c0,0,0.1,0,0.1,0c-0.3,0.3-0.6,0.5-0.8,0.8c0,0,0,0,0,0c-3.8,0.9-7.6,0.8-11.5,0.8c-4.9-3-6.2-8.2-8-13.2
			c-1.7-4.7-4.2-9.2-4.9-14.2c-0.1-0.5-0.5-1.4-1.2-1.1c-0.9,0.4-1.3,1.4-0.9,2.3c0.9,2.3,1.8,4.6,2.9,6.8c3.5,6.8,5.5,14,5.1,21.6
			c-0.2,3.4-1.8,5.8-5.4,6.5c-3.2,0.3-6.3,0.6-9.5,0.9c-4.8-0.4-8.3-7.2-5.6-11.3c1.2-1.8,1.6-4,3.3-5.5c0.7-0.7,1.1-2.4,0.3-3.2
			c-1-1.2-1.9,0.1-2.9,0.6c-2.2,1.1-4.9,1.3-7,0c-2.3-1.4-4.2-3.6-3.9-6.6c0.4-4.8,2.1-9.2,5.3-12.8c2.9-3.2,6.4-5.9,8.8-9.6
			c1.6-2.5,8.6-2.4,10-0.1c3.3,5.6,8.9,8.4,14,11.7c4.4,2.8,9.1,5.2,12.6,9.2c3.6,4,3.7,8.5,1.6,13.3
			C468.7,140.9,468.4,141.4,468.3,142.1z"/>
		<path class="st5" d="M146,312.9c-1.5-0.3-3.2,0.7-4.5-0.8c0-1.6-1.1-1.7-2.3-1.7c-1.8,0-3.5,0-5.3,0c-4.4-1.4-8.8-0.5-13.3-0.5
			c-0.3,0-0.6,0.7-0.9,1.1c-0.5,0-1,0.1-1.5,0.1c-2.1-0.6-4.5-2.3-5.4,1.5c-10.2,3.1-16.9,11.1-16.4,19.8c0.3,5.5,3,10.1,6,14.6
			c1.3,1.9,2.9,3.6,4.3,5.4c-1.3,1.8-2.8-0.6-4.2,0.3c-10.2-3.8-16.1-10.7-16.8-22c-1-14.7,4.8-25.7,17.2-33.3
			c4.4-2.7,9.6-3.4,14.7-4.4c2.9-0.5,5.6-1,8.5-1c8.5,0.1,16.6,2.2,24.6,4.8c3.1,1,3.2,4,3.4,6.7c-0.7,0.5-0.8,1.3-0.8,2
			c0,2.4,0.7,5.3-0.4,7.1C151.4,314.9,148.3,311.9,146,312.9z M151.2,309.5c-4.7-3.3-8.7-7.6-15-7.3
			C141.9,303.4,145.5,308.6,151.2,309.5z"/>
		<path class="st7" d="M237.8,146.9c0.5,4.5-0.2,8.8-1.8,13c-0.2,0.6,0.1,1.8-1.1,1.7c-1.4-0.1-0.8-1.4-0.9-2.1
			c-1.9-11.3-3-22.9-6.9-33.8c-2.7-7.6-6.8-14.4-11.9-20.9c-9.9-12.7-23.1-20.5-36.6-28.3c-4.4-2.5-8.9-4.8-13.3-7.2
			c-0.6-0.3-1.2-0.4-1.1-1.2c0.1-0.6,0.7-0.6,1.2-0.7c6.6-1.6,13.2-1.3,19.9-0.5c5,0.6,9.3,2.6,13.8,4.2c4.7,1.7,8.8,5,12.7,8.3
			c13.5,11.7,20.8,26.9,25.1,43.9c0.9,3.6,1.5,7.5,1.1,11.3c0,0.3,0,0.6,0,0.8c-1.5,3.2-0.2,6.7-0.7,10
			C237.4,145.9,237.6,146.4,237.8,146.9z"/>
		<path class="st9" d="M236.4,106.5c-2.7-4.9-4.9-9.2-7.4-13.4c-6.3-10.3-14.3-18.9-25.2-24.4c-8.1-4.1-16.7-6.3-25.7-6
			c-5.2,0.2-10.4-0.5-15.6,0.8c-3.2,0.8-6.7,0.4-9.7-2.2c-2.9-2.4-6.4-4-9.2-6.6c-0.8-0.7-2.1-1.8-0.1-2.5c4.8-1.8,9.7-3.3,14.8-4.1
			c4.9-0.8,9.7-0.9,14.5-0.7c13,0.6,24.9,4.8,35.6,12.3c9.6,6.8,17.1,15.3,22.1,26c2.6,5.4,4.9,10.9,5.5,17
			C235.9,103.8,237.3,104.3,236.4,106.5z"/>
		<path class="st5" d="M87,118.3c-0.6,0-0.9,0-1.1,0c-2,0.2-4.4,0.1-5.3-1.3c-0.7-1.1,1.3-2.8,2.1-4.2c7.4-11.8,17.4-20.9,28.9-28.4
			c2.8-1.9,6.1-3,9.1-4.6c0.8-0.4,1.4-0.2,2.1,0.1c5.9,2.7,11.9,5.3,17.8,8.1c0.9,0.4,2.2,1.1,2.2,1.7c0.1,1.1-1.3,1-2.3,1.4
			c-9.2,3.3-17.5,7.9-24.3,15.1c-6.3,6.7-13.9,10.8-23.3,11.4C90.9,117.7,88.8,118.5,87,118.3z"/>
		<path class="st9" d="M113.2,259c20.3-1.2,34.3,10.1,47.1,23.8c0.6,0.7,1.7,1.3,0.7,2.6c-1.1,1.5-2.3,0.3-2.9-0.2
			c-5.3-3.7-10.9-7-17.2-8.4c-5.6-1.3-10.2-4.6-15.6-6.5c-18.3-6.4-34.7,2.4-40.4,20.2c-0.5,1.5-0.2,4.2-2.2,4.1
			c-2.3-0.1-2-3-2.5-4.7c-2.4-8.1,1.5-14.7,6.6-20.2C94.9,261,101.2,258.2,113.2,259z"/>
		<path class="st10" d="M213,300.5c0.3,1.4,0.1,2.8,0,4.2c-0.1,1.9,0,4.6-2.5,5.5c-2.3,0.8-4.3,2.3-7.3,0.3c-7-4.6-14.1-9.1-20-15
			c-4.8-4.8-10-9.6-12-16.7c-1.2-4.5-1.2-8.8,0-13.2c0.7-2.4,1.8-2.1,3.3-1.2c4.7,2.8,9.3,5.5,10.8,11.6c0.6,2.6,2.9,5.1,4.9,7.1
			c5.4,5.5,10.8,11.1,18.2,14.1C209.9,298.3,211.5,299.4,213,300.5z M202.5,302.1c0.3,0.4,0.5,0.8,0.9,1.2c1.2,1.4,2.9,1.9,4.5,2.5
			c0.1,0,0.9-0.8,0.8-1.1c-0.7-1.9-2.7-1.9-4.2-2.6C203.9,301.8,203.2,301.7,202.5,302.1z"/>
		<path class="st10" d="M219.4,229.6c1.6,1.9,3.3,3.7,4.7,5.7c3.8,5.3,8.3,10,12.4,15.1c3.6,4.4,7.9,8.2,11.5,12.5
			c1.2,1.4,1.4,2.3,0,3.5c-3.2,2.8-5.6,6.5-9.1,9.2c-1.5,1.1-2.6,1.4-3.5-0.1c-3.9-6-9.9-10-14-15.9c-5.9-8.6-7.3-17.7-4.3-27.6
			C217.8,230.1,218.4,229.4,219.4,229.6z M225.2,252.9c0.8,4.8,4.6,7.7,7.1,11.4C231.5,259.5,228.1,256.3,225.2,252.9z"/>
		<path class="st10" d="M219.2,282.4c-1-1-2-2-3-2.9c-0.3-0.3-0.6-0.6-0.9-1c0,0,0.1,0.1,0.1,0.1c-0.3-0.3-0.6-0.6-0.9-0.8
			c0,0,0.1,0.1,0.1,0.1c-0.3-0.3-0.7-0.6-1-0.9c-0.4-0.5-0.9-0.9-1.3-1.4c-0.3-0.3-0.6-0.6-0.9-1c0,0,0.1,0.1,0.1,0.1
			c-0.3-0.3-0.6-0.6-0.9-0.8c0,0,0.1,0.1,0.1,0.1c-0.3-0.3-0.6-0.6-0.9-0.8c0,0,0.1,0.1,0.1,0.1c-0.3-0.3-0.7-0.6-1-0.9
			c-0.4-0.5-0.9-0.9-1.3-1.4c-0.3-0.3-0.6-0.6-0.9-1c-0.2-0.2-0.4-0.4-0.7-0.6c-0.3-0.3-0.6-0.6-0.9-0.9c0,0,0.1,0.1,0.1,0.1
			c-0.2-0.3-0.4-0.6-0.6-0.9c-2.1-3.3-4.4-6.4-6-10.1c-1.7-3.8-2.2-7.8-2.6-11.8c-0.3-3.2,1.4-4.1,4.2-3.8c0.6,0.1,1.3,0.4,1.9,0.3
			c8-1.6,8,5.3,10.1,9.7c2.7,5.6,6.4,10.4,10.1,15.3c3.1,4.1,6.5,7.9,10.4,11.2c1.2,1,1.3,2.1,0.6,3.6c-1.1,2.3-2.7,4.4-4.1,6.4
			c-1.8,2.5-2.8-1.3-4.4-1.6c-0.1-1-0.6-1.5-1.6-1.5c0,0,0,0,0,0c-0.3-0.3-0.6-0.5-0.9-0.8c0,0,0.1,0.1,0.1,0.1
			c-0.3-0.3-0.6-0.6-0.8-0.8c0,0,0,0.1,0,0.1C221.6,282.2,220.4,282.3,219.2,282.4z M226.9,279.1c-5.5-5.4-11-10.7-16.9-16.5
			C214.6,269.6,220.1,274.9,226.9,279.1z"/>
		<path class="st10" d="M168.4,285.4c3.4,0,4.7,4,6.4,6.5c3.3,4.7,7.9,7.7,12.1,11c4.6,3.6,9.6,6.5,14.5,9.7c1.6,1,1.7,1.9,0.3,3.3
			c-3.1,3-5.8,6.2-7.4,10.3c-0.4,1-1.2,2-2.7,0.8c-8.2-7.2-16.7-14.3-23.5-22.9c-3.6-4.6-5.4-10.1-3.4-16.1
			C165.5,285.6,165.9,285.4,168.4,285.4z"/>
		<path class="st10" d="M208.4,295.6c-2.9-2.7-5.9-5.3-8.8-8c-7-6.4-12.1-14.1-15.4-23c-1-2.8-1.6-5.6-1.4-8.6c0.1-1-0.6-2.5,1-3
			c1.3-0.3,2.4,0,3.6,0.8c5.8,4.2,10.5,9.4,14.5,15.4c4.4,6.5,9.8,12,15.3,17.5c0.8,0.8,1.8,1.5,2.5,2.4c1.1,1.7,4.5,2.8,3.7,4.4
			c-1.3,2.6-4,4.7-6.4,6.6c-1.1,0.8-2.3-0.9-3.6-1.4C211.7,297.7,210.4,296.2,208.4,295.6z M212.7,290.4c-0.2-0.2-0.4-0.4-0.6-0.7
			c-5.7-5.8-11.8-11.3-16.9-17.7c-0.5-0.6-1.1-1.8-2.1-1.1c-0.9,0.6-0.4,1.6,0.3,2.3c5.6,6.1,11,12.4,18,17c0.3,0.3,0.5,0.5,0.8,0.8
			c0.2,0.6,0.6,0.9,1.1,0.5C213.8,291,213,290.7,212.7,290.4z"/>
		<path class="st9" d="M90.7,299.6c-1-14.2,4.1-20.9,17.8-24.8c9.1-2.6,16.7,0.6,24.3,5c3.1,1.8,5.3,4.3,8.1,7.8
			C122.3,285.4,104.9,285.3,90.7,299.6z"/>
		<path class="st8" d="M177.1,334.6c-7.7-3.2-13.4-8.5-16.9-16.2c-0.3-0.7-1.3-1.6-0.4-2.4c0.7-0.6,1.6-0.3,2.5,0
			c1.7,0.6,1.8,0.6,4,0.2c-0.8-2-2.9-1.6-4.2-2c-4.1-1.4-6.5-5.9-4.7-9.9c0.8-1.8,2-1,3.2-0.5c3.1,1.3,5.3,3.8,7.7,5.8
			c6.7,5.4,12.7,11.6,18.7,17.6c3.9,3.9,3.9,3.9,0.3,8c-1.1,0-2.2,0-2.2,1.6c0,0,0,0,0,0c-1.1,0-2.1,0-3.2,0c0,0,0,0,0,0
			C181.1,334.4,178.8,335.1,177.1,334.6z"/>
		<path class="st9" d="M76.6,87.3c1.8-10.2,5.4-19.1,11.2-27c4.8-6.6,5.9-6.6,10.9-0.5c1.9,2.3,4.4,4.5,4.8,7.3
			c0.4,3.3-3.5,3.8-5.5,5.4c-6,4.8-12.4,9.2-18.6,13.7C78.7,86.7,77.7,86.9,76.6,87.3z"/>
		<path class="st5" d="M202.9,197.6c1.9,10.1,0.4,20.2,1,30.3c0.2,3.1-1.5,5.8-1,8.8c0.3,1.6-1.2,1.8-2,1.4
			c-1.6-0.8-4.3,0.2-4.8-2.6c-1-6.5-1.9-13.1-3.7-19.5c-0.5-1.9-0.5-4.3,0.6-6.3c2.6-4.9,5.1-9.9,7.6-14.9
			C201.2,195.9,201.3,197.4,202.9,197.6z"/>
		<path class="st11" d="M410.3,459.3c0.7-0.8,0.9-1.1,1.1-1.4c2.6-5.8,5.9-10.6,12.5-12.6c1.5-0.5,2.5-2.8,3.6-4.3
			c0.9-1.2,1.8-1.6,3.1-0.7c1.6,1,1.1,2,0.3,3.2c-3.7,5.3-8.1,9.9-13.8,13C415.1,457.5,413.6,459.7,410.3,459.3z"/>
		<path class="st11" d="M147.2,284.4c5.4,0.7,9.8,3.4,13.3,7.3c1.8,2,1.7,5,0.6,8.4c-4.3-6.2-9.6-10.6-14.7-15.1
			C146.6,284.9,146.9,284.7,147.2,284.4z"/>
		<path class="st9" d="M421.6,438.3c0.3-1.4-0.5-2.2-1.6-2.8c0.7-1,1.3-2.1,0.8-3.2c-1-2.5-0.6-4,2.1-4.9c2.7-0.8,4.4,0.3,5.9,2.3
			c0.6,0.8,1.2,1.7,1.6,2.6c0.5,1.2,2.1,2.6,0.7,3.8c-1.4,1.3-2.1-0.8-3-1.5c-1.7-1.3-3.2-1.2-4,0.8
			C423.4,436.7,422.5,437.5,421.6,438.3z"/>
		<path class="st11" d="M390.9,476.8c-3.7,2.6-14.8,1.5-17.4-0.7c-1.4-1.1-0.8-2.7-0.5-3.9c0.2-1.1,1.5-1.1,2.3-0.6
			C379.8,474.7,385.5,474.5,390.9,476.8z"/>
		<path class="st11" d="M321.7,497.2c0-2.8,4.2-7.9,6.7-8.5c0.3-0.1,0.8-0.2,1-0.1c1.7,1.6,1.7,3.9,2.4,5.8c0.4,0.9-1.6,1.5-2.5,1.6
			c-1.9,0.1-2.6,1.5-3.7,2.5c-0.8,0.8-1.6,1.8-3,1.4C321.2,499.4,322,497.9,321.7,497.2z"/>
		<path class="st9" d="M263.9,553.6c-2.3-3.7-5.2-6.9-7.7-10.3c-0.5-0.7-0.6-1.3,0.3-1.9c1.9-1,3.8-1.6,5.7-0.4
			c0.8,0.5,1.5,1.5,1.7,2.5C264.9,546.8,264.6,550.1,263.9,553.6z"/>
		<path class="st11" d="M307.4,495.8c0.3-1.3-0.8-3.5,2-3.5c2.1,0,4.8,4,4.9,7c0,1.1-0.2,2.2-1.4,2.2
			C309.8,501.4,307.4,498.9,307.4,495.8z"/>
		<path class="st11" d="M173,502.5c-2.4-3.8-1.9-7.2,0.3-10.6c0.3-0.5,0.2-1.3,1.1-1.4c1-0.1,1.1,0.8,1.5,1.4
			C177.8,495.4,177,498.4,173,502.5z"/>
		<path class="st0" d="M259,515.6c-2.9,1-3.6-1.8-5.3-2.6c-3.3-1.6-6.2-3.9-9.2-5.9c-1-0.6-1.4-1.7-1-2.7c0.4-1,1.7-0.9,2.4-0.4
			C250.6,507.4,255.5,510.4,259,515.6z"/>
		<path class="st11" d="M442.9,466.1c2.2-1.4,3.7-3.5,5.8-1.9c1.8,1.3,2,3.5,1.2,5.6c-0.2,0.5-0.6,1-0.9,1.5c-0.5-0.3-1.3-0.5-1.5-1
			C446.8,468.3,445.4,466.9,442.9,466.1z"/>
		<path class="st12" d="M339,462.6c2.1,1.9,4.6,1.2,6.9,0.6c2.8-0.6,5.6-0.5,8.4-0.3c1.3,0.1,3.3,0.1,3.4,2.3
			c-4.3-1.2-8.6-1.6-13-0.2c-1.6,0.5-3.6,0.3-5.3,0C336.8,464.7,337.5,463.6,339,462.6z"/>
		<path class="st12" d="M146,312.9c2.4-0.9,5.4,2.1,7-0.4c1.1-1.8,0.3-4.7,0.4-7.1c0-0.8,0.1-1.5,0.8-2c1.8,3.6,0.2,7.3,0.5,10.9
			c0,0.7-0.7,0.8-1.1,0.7C151,314.2,148.1,315,146,312.9z"/>
		<path class="st12" d="M258.9,493.9c6.7-0.3,13.4,0.8,20-0.7c-1,1.5-2.5,2.3-4.2,2.2C269.4,495.2,264,496.3,258.9,493.9z"/>
		<path class="st11" d="M446.5,78.7c0.9-3.4,4-1.8,5.8-2.1c3.7-0.5,7.7-2,11.2,0.9C457.9,77.8,452.2,77.6,446.5,78.7z"/>
		<path class="st12" d="M217.1,308.8c3.7,0,7.5,0,11.2,0c1.3,0,2.6-0.3,3.6,0.9c-4.7,1.3-9.4,0.3-14.1,0.5
			C217,310.3,217.1,309.4,217.1,308.8z"/>
		<path class="st11" d="M310.6,527.2c-0.2,0.3-0.5,0.9-0.6,0.9c-1.8-0.5-3.5-1.5-4.7-2.8c-1.2-1.3,0.4-2.5,1.1-3.6
			c0.3-0.4,1-0.4,1.3,0.1C308.7,523.5,309.6,525.3,310.6,527.2z"/>
		<path class="st12" d="M119.7,310.9c0.3-0.4,0.6-1.1,0.9-1.1c4.4,0,8.9-0.9,13.3,0.5c-0.1,0.2-0.1,0.4-0.1,0.7
			C129.1,311.3,124.4,311.4,119.7,310.9z"/>
		<path class="st3" d="M183.9,346.9c7.7,0,15.5,0,23.2-0.1c1,0,2.1-0.3,2.9,0.6c-8.3,0.1-16.6,0.2-24.9,0.2
			C184.7,347.7,184.3,347.2,183.9,346.9z"/>
		<path class="st12" d="M246.6,346.2c0-1.5,1.2-2.1,2.3-2.2c4-0.1,8.3-1.2,11.6,2.3c-1.6-0.2-3.2,0-4.8-0.9
			C252.5,343.3,249.6,345.5,246.6,346.2z"/>
		<path class="st11" d="M469.7,286.1c-1.2-4.3-1.1-8.6,0-13c0.1,0.2,0.3,0.4,0.4,0.6c0,4.1,0,8.3,0.1,12.4
			C470.1,286.1,469.9,286,469.7,286.1z"/>
		<path class="st12" d="M219.3,323.5c0.1-0.3,0.3-1,0.4-1c4.1-0.6,8.2-1.3,12.2,0.4C227.8,324.2,223.5,323.2,219.3,323.5z"/>
		<path class="st12" d="M382.4,17.8c2.5,4.3,1.5,10-2,11C383.2,25.6,381.1,21.3,382.4,17.8z"/>
		<path class="st12" d="M228.4,178.1c-0.6-4.2-1.1-8.3,0.3-12.4c0,0,0,0,0,0c0.2,0.3,0.4,0.6,0.7,0.8c0,3.2,0.1,6.3,0.1,9.5
			C229.5,176.8,229.6,177.8,228.4,178.1z"/>
		<path class="st12" d="M304.9,346c2-2.4,5-1.8,7.6-2.1c1.9-0.2,3.8-0.4,5.6-0.9c-1.1,1.9-3.4,1.7-4.9,2
			C310.4,345.6,307.6,345.5,304.9,346z"/>
		<path class="st12" d="M348.5,37.1c-3.7-0.4-7.5,0.4-10.8-1.9C341.5,34.8,345.3,34.5,348.5,37.1z"/>
		<path class="st12" d="M454.5,145.5c3.8,0,7.7,0.1,11.5-0.8C462.2,147.6,458.4,147.8,454.5,145.5z"/>
		<path class="st12" d="M384.7,497.9c3.8,0,7.7,0,11.5,0C393.4,499.8,387.2,499.8,384.7,497.9z"/>
		<path class="st12" d="M423.8,24.5c0.5,3.3-2,3.3-4.1,3.5c-2.5,0.2-3.9-0.8-3.6-3.5C418.6,26.9,421.2,27.2,423.8,24.5z"/>
		<path class="st11" d="M470.5,270.4c-0.2-0.7-0.4-1.3-0.6-2c0.9-0.6,0.8-1.6,0.7-2.5c0-1.2-1-1.4-1.8-1.8c0.5-0.9,0.8-2,1.5-2.6
			c0.7-0.7,2.2-0.6,1.7,0.6C470.9,264.8,472,267.8,470.5,270.4z"/>
		<path class="st12" d="M237.2,145.4c0.5-3.3-0.8-6.8,0.7-10c0,0.6-0.1,1.3,0.7,1.5c0,2.9,0,5.7,0,8.6
			C238.2,145.4,237.7,145.4,237.2,145.4z"/>
		<path class="st12" d="M383.6,7.6c-1.8,2.8-0.4,5.9-1.2,8.8C379.9,13.7,380.6,8.4,383.6,7.6z"/>
		<path class="st12" d="M303.5,405.4c3.4,1,6.9-0.1,10.3-0.1C310.2,408,307.4,408,303.5,405.4z"/>
		<path class="st12" d="M335,57.8c3,0.2,6.1-1.6,8.8,1C340.8,58.7,337.6,60.5,335,57.8z"/>
		<path class="st12" d="M102.4,352.5c1.3-0.9,2.9,1.5,4.2-0.3c1.6,0.3,2.9,0.8,2.9,3.2C107.1,354.2,104.1,355.2,102.4,352.5z"/>
		<path class="st12" d="M429.4,54.5c0-2.3,2-1.5,3.1-1.8c1.5-0.5,3.1-0.8,4.7-1.2C435.5,55,431.6,52.5,429.4,54.5z"/>
		<path class="st12" d="M208.4,359.2c2.5-2.9,6-2,9.2-2.2C214.6,358.2,211.7,359.4,208.4,359.2z"/>
		<path class="st12" d="M432.6,155.1c3.2-0.3,6.3-0.6,9.5-0.9C439.1,155.7,436.1,158.1,432.6,155.1z"/>
		<path class="st12" d="M357.8,35.7c0.4,1.8-1.6,2.3-2.1,2c-2.2-1.3-4.2,0.4-6.3-0.2C352,36.1,355.2,37.4,357.8,35.7z"/>
		<path class="st11" d="M133.8,310.9c0-0.2,0-0.4,0.1-0.7c1.8,0,3.5,0,5.3,0c1.2,0,2.3,0.1,2.3,1.7
			C138.9,311.7,136.2,312.7,133.8,310.9z"/>
		<path class="st12" d="M405.2,10.8c-0.3,2.5-0.6,5-1,7.6C402.3,16,402.7,12.7,405.2,10.8z"/>
		<path class="st12" d="M340.8,448c2.7,2.6,3.2,9.1,1,12.4C342.9,456.2,342.2,452.1,340.8,448z"/>
		<path class="st11" d="M336.8,35.2c-2.1,2.3-5.2,0.8-7.6,2C331.2,34.2,334.1,35,336.8,35.2z"/>
		<path class="st12" d="M417.6,331.8c2.6-2.6,5.8-0.6,8.7-1.3C423.4,331.3,420.7,332.7,417.6,331.8z"/>
		<path class="st13" d="M208.4,295.6c2,0.6,3.3,2.1,4.9,3.2c-0.1,0.6-0.3,1.1-0.4,1.7c-1.5-1.1-3-2.3-4.5-3.4
			C208.4,296.7,208.4,296.1,208.4,295.6z"/>
		<path class="st12" d="M340.6,22.8c2.4,0.2,5-1.5,7,1C345.3,23.7,342.6,25.4,340.6,22.8z"/>
		<path class="st0" d="M240.3,536.6c4.7-1.2,9.4-1.1,14.1-0.1C249.7,536.5,245,536.5,240.3,536.6z"/>
		<path class="st12" d="M213.4,467.4c1.9,0,3.8-0.1,5.7,0.1c1.5,0.1,3.1,0.3,3.3,2.4C219.4,469.1,216.4,468.2,213.4,467.4z"/>
		<path class="st9" d="M450.2,261.4c-1.3-1.9-0.5-4-0.6-6c-0.1-1.4,0-2.7-2-2.6c0.5-1.1,1.2-2,2.6-1.8
			C450.2,254.5,450.2,257.9,450.2,261.4z"/>
		<path class="st9" d="M447.2,459.8c-1.6-4.1-0.2-8.5-0.9-12.7c1.9,0.5,1,2.1,1,3.2C447.4,453.4,447.3,456.6,447.2,459.8z"/>
		<path class="st12" d="M412.3,470.2c1.6-2.8,4.4-3.1,7.2-3.4C417.5,468.9,415,469.6,412.3,470.2z"/>
		<path class="st12" d="M202.9,197.6c-1.6-0.2-1.7-1.7-2.4-2.7c0.1-0.9,0.1-1.9,1.4-1.9c1.4,0,1,1.2,1.1,2
			C203.1,195.8,203,196.7,202.9,197.6z"/>
		<path class="st7" d="M164.8,363c0.2,2.1,1.8,1.7,3.1,1.8c2.4,0.3,4.8-0.7,7.1,0.6c-3.1,0.1-6.2,0.3-9.3,0.2
			C163.2,365.7,163.9,364.3,164.8,363z"/>
		<path class="st12" d="M228.5,162.6c-2.6-1.8-0.9-4.4-1.1-6.6C229.9,157.8,228.2,160.4,228.5,162.6z"/>
		<path class="st3" d="M416.2,252c-1.7,0.2-0.9-1.1-0.9-1.6c-0.1-3.4,0-6.8,0-10.2C417.3,243.9,415.7,248,416.2,252z"/>
		<path class="st12" d="M406.2,330.6c3.1,1.8,6.7-0.2,9.9,1.3c-3.2,0.8-6.3-0.1-9.5-0.1C406,331.8,406.2,331,406.2,330.6z"/>
		<path class="st3" d="M441.8,40c0-4,0-8,0-12C443.2,32,443.2,36,441.8,40z"/>
		<path class="st11" d="M112.8,312.5c0.9-3.8,3.3-2,5.4-1.5C116.8,313,114.4,311.2,112.8,312.5z"/>
		<path class="st12" d="M357.1,28.2c2.9,0.6,2.3,3.6,3.5,5.4c0.3,0.4-0.7,0.8-1.4,0.7C359.9,31.7,358.7,29.9,357.1,28.2z"/>
		<path class="st12" d="M242.7,337.7c0.9-2.9,3.5-2.5,5.6-3C246.9,336.4,244.8,337.1,242.7,337.7z"/>
		<path class="st12" d="M262.2,285c1-2.6,3.3-2.4,5.5-2.5C266.4,284.4,264.2,284.6,262.2,285z"/>
		<path class="st12" d="M252.9,438.2c0.9-2.1-0.4-5,2.1-6.6C254.6,433.9,254.5,436.3,252.9,438.2z"/>
		<path class="st12" d="M471.2,293.3c-2.4-1.3-1.7-3.1-0.6-4.8C472,289.9,471.1,291.7,471.2,293.3z"/>
		<path class="st12" d="M233.3,341.5c0.9-2.5,3-2.1,5-2.3C236.9,340.5,235.4,341.7,233.3,341.5z"/>
		<path class="st12" d="M177.1,334.6c1.7,0.5,4.1-0.2,4.9,2.3C180.1,336.5,178,336.9,177.1,334.6z"/>
		<path class="st12" d="M359.3,64.6c1,1.5,2.5,1.6,4,1.6c0.1,2.4-1.7,1.5-2.6,1.3C359,67.3,359.2,65.8,359.3,64.6z"/>
		<path class="st12" d="M371,59.9c0.5-2.1,2.4-2.1,3.9-2.7C374.3,59.2,372.7,59.6,371,59.9z"/>
		<path class="st12" d="M323.6,48.1c1.8,0.8,2.1,2.4,2.2,4.1C323.6,51.6,323.4,50,323.6,48.1z"/>
		<path class="st12" d="M251.3,333c0.5-2.4,2.3-2.4,4.2-2.3C254.4,332.1,252.9,332.7,251.3,333z"/>
		<path class="st12" d="M369.5,21c-2.5-0.2-2.2-2.2-2.5-3.8C368.9,17.7,369.1,19.4,369.5,21z"/>
		<path class="st12" d="M412.7,484.9c-0.6-1.3-0.4-2.6-0.4-3.9C413.5,482.2,414.9,483.4,412.7,484.9z"/>
		<path class="st12" d="M371,24.3c-1.3-0.8-1.9-1.8-1.6-3.4C370.9,21.7,371.4,22.8,371,24.3z"/>
		<path class="st11" d="M465.9,78.5c0.1-0.6,0.2-1.3,1.1-1.4c1.1,0,1.2,0.8,1.2,1.6C467.4,78.6,466.6,78.6,465.9,78.5z"/>
		<path class="st12" d="M228,490c0.8,1.6,1.3,3.2-0.4,4.6C227.8,493.1,227.9,491.5,228,490z"/>
		<path class="st12" d="M407.9,9.2c-0.7,0.9-1.4,2-2.8,1.6C405.3,8.9,406.4,8.7,407.9,9.2z"/>
		<path class="st12" d="M388.9,358.6c0-1.6,0.8-2.4,2.4-2.4C390.5,357,389.7,357.8,388.9,358.6z"/>
		<path class="st12" d="M367.1,63c-0.1-1.9,1.2-1.7,2.4-1.6C369.2,62.8,368.1,62.8,367.1,63z"/>
		<path class="st12" d="M219.2,282.4c1.2,0,2.4-0.1,2.5,1.6C220.5,283.8,219.6,283.4,219.2,282.4z"/>
		<path class="st12" d="M185.1,336.8c0-1.5,1.1-1.6,2.2-1.6C187.1,336.4,186.2,336.8,185.1,336.8z"/>
		<path class="st12" d="M233.4,322.3c1.3-0.6,2.8-0.2,4.1-0.3C236.2,322.9,234.8,322.6,233.4,322.3z"/>
		<path class="st12" d="M469.9,296.5c-0.2-1,0.2-1.6,1.2-1.8C471.3,295.7,470.7,296.2,469.9,296.5z"/>
		<path class="st12" d="M380.4,366.4c0.4-1.1,1.2-1.7,2.3-1.6C382.3,365.9,381.5,366.3,380.4,366.4z"/>
		<path class="st5" d="M237.2,145.4c0.5,0,1,0.1,1.5,0.1c0.1,0.7-0.3,1.2-0.9,1.5C237.6,146.4,237.4,145.9,237.2,145.4z"/>
		<path class="st12" d="M233.4,309.1c1-0.1,2.1-0.2,3.1-0.3C235.6,309.7,234.5,309.3,233.4,309.1z"/>
		<path class="st12" d="M181.9,336.8c1.1,0,2.1,0,3.2,0C184.1,338,183,338,181.9,336.8z"/>
		<path class="st12" d="M407.5,487.6c0.9-1,2.1-0.6,3.2-0.6C409.9,488.4,408.7,487.6,407.5,487.6z"/>
		<path class="st12" d="M240.3,338.9c0.2-1.6,1.3-1.4,2.4-1.3C242.3,338.7,241.1,338.4,240.3,338.9z"/>
		<path class="st12" d="M470.1,273.8c-0.1-0.2-0.3-0.4-0.4-0.6c0.2-0.6,0.3-1.1,0.5-1.7C470.5,272.3,470.6,273,470.1,273.8z"/>
		<path class="st12" d="M248.3,334.8c0.3-1.3,1.3-1,2.2-1.1C250,334.7,249.2,334.7,248.3,334.8z"/>
		<path class="st12" d="M385,362.5c0-1.1,0.5-1.6,1.6-1.6C386.1,361.4,385.5,362,385,362.5z"/>
		<path class="st12" d="M231.1,342.5c0.3-1.3,1.4-1.1,2.3-1.1C232.9,342.5,231.9,342.2,231.1,342.5z"/>
		<path class="st5" d="M238.7,136.9c-0.8-0.2-0.7-0.9-0.7-1.5c0-0.3,0-0.6,0-0.8C239.4,135,238.6,136.1,238.7,136.9z"/>
		<path class="st12" d="M328.2,55.2c1.2-0.3,1.5,0.4,1.6,1.4C329,56.4,328.4,56,328.2,55.2z"/>
		<path class="st12" d="M244.2,346.8c0.6-0.9,1.5-0.7,2.4-0.7C246,347.2,245.1,346.9,244.2,346.8z"/>
		<path class="st12" d="M370.9,486.9c0.8-0.4,1.7-0.7,1.6,0.8C371.9,487.6,371.2,487.8,370.9,486.9z"/>
		<path class="st12" d="M223.2,285.5c1,0,1.5,0.5,1.6,1.5C224.3,286.4,223.7,286,223.2,285.5z"/>
		<path class="st12" d="M223.2,470.6c1.3,0,1.6,0.8,1.5,1.9C224.2,471.9,223.7,471.2,223.2,470.6z"/>
		<path class="st12" d="M217.8,324.8c0.1-0.9,0.7-1.2,1.5-1.3C218.8,323.9,218.3,324.4,217.8,324.8z"/>
		<path class="st12" d="M227.1,496.9c0,0.7-0.1,1.3-0.7,1.7C226.3,497.8,226.3,497.2,227.1,496.9z"/>
		<path class="st12" d="M373.3,488.5c0.7,0,1.4,0.1,1.2,1.1C374.1,489.2,373.7,488.9,373.3,488.5z"/>
		<path class="st11" d="M253.6,267.7c-0.1,0.6-0.1,1.4-1.1,1.2C252.5,268.2,252.9,267.8,253.6,267.7z"/>
		<path class="st11" d="M146.4,285.1c-0.3-0.4-1.4-0.6-0.5-1.3c0.6-0.5,1.1,0,1.4,0.6C146.9,284.7,146.6,284.9,146.4,285.1z"/>
		<path class="st12" d="M363.2,66.2c0.2-0.9,0.8-1.1,1.6-0.8C364.5,65.9,364.2,66.8,363.2,66.2z"/>
		<path class="st12" d="M326.6,52.9c0.8,0.2,1.1,0.8,0.9,1.6C326.8,54.1,326.2,53.8,326.6,52.9z"/>
		<path class="st12" d="M374.5,489.6c1-0.2,1.1,0.5,1.1,1.2C375.3,490.4,374.9,490,374.5,489.6z"/>
		<path class="st5" d="M188,145.7c0.5,0.3,1.2,0.8,0.5,1.4c-0.7,0.6-1-0.2-1.3-0.7C187.5,146.2,187.8,146,188,145.7z"/>
		<path class="st12" d="M392.8,297.2c0-0.7,0.2-1.4,0.9-1.7C393.7,296.2,393.6,296.8,392.8,297.2z"/>
		<path class="st12" d="M411.5,486.2c0-0.7,0.1-1.4,1.1-1.2C412.2,485.4,411.9,485.8,411.5,486.2z"/>
		<path class="st12" d="M377.2,492.4c0.7,0,1.4,0.1,1.2,1.1C378,493.1,377.6,492.7,377.2,492.4z"/>
		<path class="st12" d="M255.1,430.1c0-0.7,0.1-1.2,0.7-1.6C256,429.2,256,429.9,255.1,430.1z"/>
		<path class="st12" d="M388.2,302.7c0-0.7-0.1-1.5,1.1-1.1C388.9,302,388.5,302.3,388.2,302.7z"/>
		<path class="st12" d="M358,64c0.5,0.2,0.9,0.4,1.4,0.6C358.5,65.2,358.3,64.4,358,64z"/>
		<path class="st12" d="M267.6,282.6c0.2-0.9,1-1,1.7-0.9C269.1,282.5,268.5,282.7,267.6,282.6z"/>
		<path class="st12" d="M378.4,493.5c1-0.2,1.1,0.5,1.2,1.2C379.2,494.3,378.8,493.9,378.4,493.5z"/>
		<path class="st12" d="M410.7,487c0.3-0.3,0.5-0.6,0.8-0.8C411.2,486.4,411,486.7,410.7,487z"/>
		<path class="st12" d="M222.4,469.8c0.3,0.3,0.6,0.5,0.8,0.8C222.9,470.3,222.6,470.1,222.4,469.8z"/>
		<path class="st12" d="M226.9,488.5c0.3,0.3,0.7,0.6,1,1C227.5,489.2,227.2,488.8,226.9,488.5z"/>
		<path class="st12" d="M372.5,487.7c0.3,0.3,0.6,0.5,0.8,0.8C373,488.2,372.8,488,372.5,487.7z"/>
		<path class="st0" d="M259.2,516.8c-0.4-0.3-0.9-0.7-0.3-1.2c0.6-0.5,0.8,0.1,1.2,0.4C259.8,516.3,259.5,516.6,259.2,516.8z"/>
		<path class="st12" d="M364.8,65.4c-0.1-0.6,0.2-0.8,0.8-0.8C365.5,65,365.3,65.4,364.8,65.4z"/>
		<path class="st12" d="M375.6,490.8c0.3,0.3,0.5,0.6,0.8,0.8C376.1,491.4,375.9,491.1,375.6,490.8z"/>
		<path class="st12" d="M376.4,491.6c0.3,0.3,0.6,0.5,0.8,0.8C376.9,492.1,376.6,491.9,376.4,491.6z"/>
		<path class="st12" d="M468.3,142.1c0.1-0.7,0.4-1.1,1-1.4C469.3,141.3,469,141.8,468.3,142.1z"/>
		<path class="st12" d="M365.6,64.6c-0.1-0.6,0.2-0.9,0.8-0.8C366.3,64.3,366.1,64.6,365.6,64.6z"/>
		<path class="st12" d="M467.5,143.2c0.3-0.3,0.5-0.6,0.8-0.9C468,142.6,467.7,142.9,467.5,143.2z"/>
		<path class="st12" d="M301.6,404.5c0.4,0.3,0.7,0.5,1.1,0.8C302,405.4,301.8,405,301.6,404.5z"/>
		<path class="st12" d="M382.7,364.9c0.3-0.3,0.6-0.5,0.8-0.8C383.3,364.3,383,364.6,382.7,364.9z"/>
		<path class="st12" d="M383.5,364.1c0.3-0.3,0.5-0.6,0.8-0.8C384,363.5,383.7,363.8,383.5,364.1z"/>
		<path class="st12" d="M227.7,494.5c-0.2,0.3-0.3,0.7-0.5,1C227.1,495,227.2,494.6,227.7,494.5z"/>
		<path class="st12" d="M379.5,494.7c0.3,0.3,0.5,0.6,0.8,0.9C380.1,495.2,379.8,494.9,379.5,494.7z"/>
		<path class="st12" d="M384.2,363.3c0.3-0.3,0.5-0.6,0.8-0.8C384.8,362.7,384.5,363,384.2,363.3z"/>
		<path class="st12" d="M386.6,361c0.3-0.3,0.6-0.5,0.8-0.8C387.1,360.4,386.8,360.7,386.6,361z"/>
		<path class="st12" d="M387.4,360.2c0.3-0.3,0.6-0.5,0.8-0.8C387.9,359.6,387.6,359.9,387.4,360.2z"/>
		<path class="st12" d="M465.9,144.7c0.3-0.3,0.6-0.5,0.8-0.8C466.5,144.2,466.2,144.4,465.9,144.7z"/>
		<path class="st12" d="M388.1,359.4c0.3-0.3,0.5-0.6,0.8-0.9C388.7,358.9,388.4,359.1,388.1,359.4z"/>
		<path class="st12" d="M380.3,495.5c0.3,0.3,0.6,0.5,0.8,0.8C380.8,496,380.5,495.7,380.3,495.5z"/>
		<path class="st12" d="M381,496.2c0.3,0.2,0.6,0.4,0.9,0.6C381.4,497,381.2,496.6,381,496.2z"/>
		<path class="st12" d="M466.7,144c0.3-0.3,0.6-0.5,0.8-0.8C467.2,143.4,467,143.7,466.7,144z"/>
		<path class="st11" d="M241.8,279.8c0,0.5-0.3,0.8-0.8,0.9C240.8,279.9,241.1,279.7,241.8,279.8z"/>
		<path class="st11" d="M242.6,279.1c0,0.5-0.3,0.8-0.8,0.9C241.6,279.2,241.9,278.9,242.6,279.1z"/>
		<path class="st11" d="M243.4,278.3c0,0.5-0.3,0.8-0.8,0.8C242.4,278.5,242.6,278.1,243.4,278.3z"/>
		<path class="st12" d="M215.3,278.5c0.3,0.3,0.6,0.6,0.9,1C215.9,279.1,215.6,278.8,215.3,278.5z"/>
		<path class="st11" d="M244.1,277.5c0,0.5-0.3,0.8-0.8,0.8C243.2,277.7,243.4,277.3,244.1,277.5z"/>
		<path class="st12" d="M214.5,277.7c0.3,0.3,0.6,0.6,0.9,0.8C215.1,278.3,214.8,278,214.5,277.7z"/>
		<path class="st11" d="M244.9,276.7c0,0.5-0.3,0.8-0.8,0.8C243.9,276.8,244.2,276.6,244.9,276.7z"/>
		<path class="st12" d="M213.6,276.9c0.3,0.3,0.7,0.6,1,0.9C214.3,277.5,213.9,277.2,213.6,276.9z"/>
		<path class="st11" d="M245.7,276c0,0.5-0.3,0.8-0.8,0.8C244.6,276,245,275.8,245.7,276z"/>
		<path class="st11" d="M246.5,275.2c0,0.5-0.3,0.8-0.8,0.9C245.4,275.3,245.8,275.1,246.5,275.2z"/>
		<path class="st11" d="M247.3,274.4c0,0.5-0.3,0.8-0.8,0.9C246.3,274.5,246.5,274.3,247.3,274.4z"/>
		<path class="st12" d="M211.4,274.6c0.3,0.3,0.6,0.6,0.9,1C212,275.2,211.7,274.9,211.4,274.6z"/>
		<path class="st11" d="M248,273.6c0,0.5-0.3,0.8-0.8,0.8C247.1,273.8,247.3,273.4,248,273.6z"/>
		<path class="st12" d="M210.6,273.8c0.3,0.3,0.6,0.6,0.9,0.8C211.2,274.4,210.9,274.1,210.6,273.8z"/>
		<path class="st11" d="M248.8,272.9c0,0.5-0.3,0.8-0.8,0.8C247.8,273,248,272.6,248.8,272.9z"/>
		<path class="st12" d="M209.8,273.1c0.3,0.3,0.6,0.6,0.9,0.8C210.4,273.6,210.1,273.3,209.8,273.1z"/>
		<path class="st11" d="M249.6,272.1c0,0.5-0.3,0.8-0.8,0.8C248.5,272.1,248.9,271.9,249.6,272.1z"/>
		<path class="st12" d="M208.9,272.3c0.3,0.3,0.7,0.6,1,0.9C209.6,272.9,209.3,272.6,208.9,272.3z"/>
		<path class="st11" d="M250.4,271.3c0,0.5-0.3,0.8-0.8,0.9C249.3,271.4,249.6,271.1,250.4,271.3z"/>
		<path class="st11" d="M251.1,270.5c0,0.5-0.3,0.8-0.8,0.9C250.1,270.6,250.4,270.4,251.1,270.5z"/>
		<path class="st12" d="M428.3,55.1c0.2-0.4,0.4-0.8,1-0.7C429.3,55.1,428.9,55.3,428.3,55.1z"/>
		<path class="st11" d="M251.9,269.7c0,0.5-0.3,0.8-0.8,0.8C250.9,269.9,251.2,269.6,251.9,269.7z"/>
		<path class="st12" d="M206.7,269.9c0.3,0.3,0.6,0.6,0.9,1C207.3,270.6,207,270.2,206.7,269.9z"/>
		<path class="st11" d="M252.7,269c0,0.5-0.3,0.8-0.8,0.8C251.7,269.1,251.9,268.7,252.7,269z"/>
		<path class="st12" d="M205.2,268.4c0.3,0.3,0.6,0.6,0.9,0.9C205.8,269,205.5,268.7,205.2,268.4z"/>
		<path class="st12" d="M204.7,267.5c0.2,0.3,0.4,0.6,0.6,0.9C204.8,268.3,204.6,268.1,204.7,267.5z"/>
		<path class="st11" d="M468.2,265.1c-0.3,0.3-0.6,0.6-0.9,0.9C467.4,265.5,467.3,264.8,468.2,265.1z"/>
		<path class="st11" d="M468.9,264.3c0,0.5-0.3,0.8-0.8,0.9C467.9,264.5,468.1,264,468.9,264.3z"/>
		<path class="st12" d="M327.4,54.4c0.6,0,0.9,0.2,0.8,0.8C327.9,55,327.7,54.7,327.4,54.4z"/>
		<path class="st12" d="M325.8,52.2c0.5,0,0.8,0.3,0.8,0.8C325.8,53.2,325.6,52.9,325.8,52.2z"/>
		<path class="st12" d="M391.2,356.3c0.2-0.3,0.4-0.6,0.6-0.8C392,356,391.7,356.2,391.2,356.3z"/>
		<path class="st0" d="M196.7,149.8c0.3,0.4,0.6,0.8,0.1,1.1c-0.6,0.4-0.7-0.2-0.9-0.6C196.2,150.1,196.4,149.9,196.7,149.8z"/>
		<path class="st12" d="M250.4,333.7c0.3-0.3,0.6-0.5,0.9-0.8C251,333.2,250.7,333.4,250.4,333.7z"/>
		<path class="st12" d="M381.9,309.5c0.2-0.3,0.5-0.5,0.7-0.8C382.6,309.2,382.5,309.6,381.9,309.5z"/>
		<path class="st11" d="M229.4,166.4c-0.2-0.3-0.4-0.6-0.7-0.8C229.2,165.7,229.4,165.9,229.4,166.4z"/>
		<path class="st12" d="M382.7,308.3c0.3-0.3,0.6-0.7,0.9-1C383.3,307.6,383,307.9,382.7,308.3z"/>
		<path class="st12" d="M383.5,307.4c0.3-0.3,0.6-0.6,0.8-0.9C384.1,306.8,383.8,307.1,383.5,307.4z"/>
		<path class="st12" d="M384.3,306.6c0.3-0.3,0.5-0.6,0.8-0.9C384.8,306,384.5,306.3,384.3,306.6z"/>
		<path class="st12" d="M385,305.8c0.3-0.3,0.6-0.6,0.8-0.8C385.6,305.2,385.3,305.5,385,305.8z"/>
		<path class="st12" d="M385.8,305c0.3-0.3,0.6-0.6,0.9-0.8C386.4,304.4,386.1,304.7,385.8,305z"/>
		<path class="st12" d="M386.6,304.2c0.3-0.3,0.6-0.6,0.9-0.8C387.2,303.7,386.9,303.9,386.6,304.2z"/>
		<path class="st12" d="M359.3,34.2c0.1,0.6-0.2,0.9-0.8,0.8C358.5,34.5,358.8,34.2,359.3,34.2z"/>
		<path class="st12" d="M366.3,63.8c0-0.6,0.2-0.9,0.8-0.8C367.1,63.5,366.8,63.8,366.3,63.8z"/>
		<path class="st12" d="M387.4,303.5c0.3-0.3,0.6-0.6,0.8-0.9C387.9,302.9,387.7,303.2,387.4,303.5z"/>
		<path class="st12" d="M389.6,301.2c0-0.1-0.1-0.3-0.1-0.4c0.2,0,0.3,0.1,0.5,0.1C389.8,301,389.7,301.1,389.6,301.2z"/>
		<path class="st12" d="M390.1,300.5c-0.1-0.7,0.3-0.9,0.9-1C390.9,300.1,390.7,300.5,390.1,300.5z"/>
		<path class="st12" d="M391.2,298.8c0.3-0.3,0.6-0.6,0.8-0.9C391.8,298.2,391.5,298.5,391.2,298.8z"/>
		<path class="st12" d="M392,298c0.3-0.3,0.5-0.6,0.8-0.8C392.6,297.4,392.3,297.7,392,298z"/>
		<path class="st12" d="M469.1,297.6c0-0.6,0.3-1,0.8-1.2C469.7,296.8,469.4,297.2,469.1,297.6z"/>
		<path class="st12" d="M469.7,286.1c0.2-0.1,0.3-0.1,0.5,0c0,0.3,0.1,0.6,0.1,0.9C470.1,286.7,469.9,286.4,469.7,286.1z"/>
		<path class="st12" d="M222.4,284.7c0.3,0.3,0.6,0.5,0.9,0.8C222.9,285.2,222.6,285,222.4,284.7z"/>
		<path class="st12" d="M369.5,61.5c0-0.7,0.5-0.8,1-0.9C370.3,61.1,370.1,61.5,369.5,61.5z"/>
		<path class="st12" d="M221.6,283.9c0.3,0.3,0.6,0.6,0.8,0.8C222.1,284.5,221.9,284.2,221.6,283.9z"/>
		<path class="st11" d="M238.7,283c-0.3,0.3-0.7,0.6-1,0.9C237.9,283.4,237.9,282.7,238.7,283z"/>
		<path class="st12" d="M358.5,34.9c0.1,0.6-0.2,0.9-0.8,0.8C357.8,35.3,358,35,358.5,34.9z"/>
		<path class="st11" d="M239.5,282.2c0,0.5-0.3,0.8-0.8,0.8C238.5,282.4,238.7,282,239.5,282.2z"/>
		<path class="st11" d="M240.3,281.4c0,0.5-0.3,0.8-0.8,0.8C239.2,281.5,239.5,281.2,240.3,281.4z"/>
		<path class="st11" d="M241,280.6c0,0.5-0.3,0.8-0.8,0.8C240,280.7,240.3,280.5,241,280.6z"/>
		<path class="st13" d="M389.7,289.4c-0.1,0.2-0.1,0.4-0.1,0.6c-0.9,0.3-0.8,1-0.8,1.7c-1.3,1.8-2.4,3.6-3.8,5.2
			c-0.6,0.7-0.9,2.5-2.3,1.6c-1.3-0.9-0.3-1.8,0.3-2.8c2.2-3.6,4.6-7.2,5.8-11.4c0.6-2.3,1.4-4.6,0.9-7.3c2.4,0.8,1.4,3.3,2.6,4.5
			c-0.2,0.4-0.5,0.8-0.7,1.2c0,0,0.2,0.2,0.2,0.2c-0.4,1.6-1.4,3-1.2,4.8c-0.1,0.1-0.2,0.3-0.1,0.5
			C389.9,288.5,389.6,288.8,389.7,289.4z"/>
		<path class="st13" d="M279.4,279.3c2.3-2.5,4.5-3.5,6.6-4.5c0.6-0.3,1.3-0.7,1.6,0c0.3,0.6,0.3,1.5-0.6,1.9
			C284.8,277.7,282.6,278.8,279.4,279.3z"/>
		<path class="st12" d="M390.5,287.8c-0.2-1.8,0.8-3.2,1.2-4.8C392,284.8,392.5,286.6,390.5,287.8z"/>
		<path class="st12" d="M470.6,265.9c0.1,0.9,0.2,1.8-0.7,2.5C469.8,267.5,469.7,266.6,470.6,265.9z"/>
		<path class="st12" d="M391.6,282.7c0.2-0.4,0.5-0.8,0.7-1.2C392.8,282.4,392.8,282.9,391.6,282.7z"/>
		<path class="st12" d="M388.8,291.7c0-0.7,0-1.4,0.8-1.7C389.7,290.7,389.5,291.4,388.8,291.7z"/>
		<path class="st12" d="M389.7,289.4c-0.1-0.6,0.1-0.9,0.6-1.1C390.2,288.6,390,289,389.7,289.4z"/>
		<path class="st13" d="M417.2,85.5c0,2.6-2.3,2.5-3.9,2.8c-4.3,0.9-8.7,1.2-12.5-1.4c-5.1-3.6-6.1-10-2-15.5
			c1.7-2.3,1.5-3.4-0.7-4.7c1.5-1.6,3.1-1.6,4.8-1.1c8.6,2.8,16.2,7.2,21.9,14.4c1.4,1.8,5.2,2,3.4,5.9c-2.3-2-4.7-3.4-7.7-1.2
			c1.8-5,0.9-7.1-3.6-8.6c0,2,0,4.1,0,6.2C416.9,83.4,415.2,84.6,417.2,85.5z M398.2,79.3c-0.2,3,0.8,5.1,3.7,6.5
			c0.9,0.4,1.8,0.8,2.5,0.3c1-0.7-0.2-1.6-0.4-2.2c-1.4-3.7-1.6-7.2,1.1-10.4c0.6-0.7,2.4-1.3,1-2.7c-1.2-1.2-2.8-1.1-4.1-0.1
			C399,72.7,398.1,75.8,398.2,79.3z M414,79c-0.2-2.2,0.2-5-3.7-5.1c-4.4-0.1-3.8,3.3-4.2,5.9c-0.4,2.6,0.9,4.7,3.2,5.4
			C411.4,85.9,413.9,82.4,414,79z"/>
		<path class="st1" d="M461.7,237.6c0-4.1,0-8.3,0-12.4c0-1.1,0.1-2.4,1.3-2.5c1.2-0.2,1.2,1.3,1.7,2.1c0.2,0.3,0.6,0.7,0.6,1
			c-0.5,8.7,0.6,17.5-0.6,26.3c-0.5,4-1.5,7.6-4.1,10.8c-0.6,0.8-1,2.1-2.1,1.4c-0.7-0.5-1.5-1.5-0.7-2.9
			C462.1,253.9,462.1,245.8,461.7,237.6z"/>
		<path class="st11" d="M417.2,85.5c-1.9-0.9-0.3-2.1-0.2-3.2c0-2.1,0-4.2,0-6.2c4.5,1.5,5.4,3.6,3.6,8.6
			C419.4,85.1,418.5,85.9,417.2,85.5z"/>
		<path class="st13" d="M421.7,215.7c1.7,2.8,0.5,5.9,0.7,8.8C420.4,221.7,420.9,218.7,421.7,215.7z"/>
		<path class="st13" d="M131.2,62.5c2.2,0.5,3.1,1.6,4.3,2.3c9.3,5.4,18.1,11.6,26.2,18.6c0.7,0.6,2.1,1.2,1,2.4
			c-0.8,0.9-1.7,0.2-2.7-0.5c-8.3-6.7-17.3-12.3-26.4-17.9c-1-0.6-1.8-1.3-2.8-1.9c-0.8-0.5-0.7-1-0.3-1.6
			C130.8,63.3,131.1,62.7,131.2,62.5z"/>
		<path class="st13" d="M252.9,132.5c0.9,5.5-0.7,12.4-1,19.3c-0.3,5.6-1.8,11.2-3,16.8c-0.2,0.9-0.4,2.4-1.5,2.4
			c-1.7,0-1-1.6-0.9-2.4c0.7-6.8,1.6-13.7,2.4-20.5c0.1-1.1,0.1-2.3,0.2-3.5c0.4-4.5,0.3-9.1,0.8-13.7c0.7-6.5-0.3-13.2-1.1-19.8
			c-1-9.3-3.3-18.3-6-27.2c-0.3-1.2,0.3-2,1-2.2c0.6-0.2,1,0.8,1.3,1.5c3.2,7.6,4.5,15.7,6,23.7c0.7,4,0.2,8,1.4,12
			C253.7,122.8,252.9,127,252.9,132.5z"/>
		<path class="st13" d="M245.2,187.9c-2.4,6.4-5,12.6-9,18c-0.2,0.3-1.1,1.4-2.1,0.6c-0.8-0.7-1-1.4-0.4-2.3
			c3.6-5.4,6.6-11.1,9.4-16.9c0.3-0.6,0.9-1,1.6-0.7C245,186.8,245.1,187.5,245.2,187.9z"/>
		<path class="st13" d="M241.9,77.5c-3-3.6-3.7-8.3-5.5-12.4c-0.1-0.3,0.6-1.1,1.1-1.4c0.4-0.3,1,0,1.2,0.6
			C239.8,68.6,242.2,72.7,241.9,77.5z"/>
		<path class="st13" d="M181.7,231.2c-10.1-24.5-27.4-38.9-53.7-43.2c5.9-2.9,21,2.2,31.6,9.4C171.4,205.5,182.2,222.1,181.7,231.2z
			"/>
		<path class="st13" d="M122.9,217.6c6.5-0.3,12.3,2.1,18,4.5c11.3,4.7,20.3,12.5,27.6,22.1c0.5,0.6,1.7,1.4,0.7,2.2
			c-1,0.9-1.6-0.5-2-1c-6.4-7.7-13.7-14.3-22.6-19c-6.1-3.3-12.4-5.9-19.2-7C124.3,219.2,123.3,219.2,122.9,217.6z"/>
		<path class="st13" d="M118.8,239.9c3.7-4.4,7.8-1.9,11.2-1.1c10.2,2.6,18.1,8.9,25.1,16.5c0.4,0.5,0.9,1,1.3,1.4
			c0.8,0.8,1.3,2,0.5,2.8c-1,1.1-2.1,0.2-2.9-0.7c-3.3-3.8-6.8-7.3-11-10.1c-6.1-4.1-12.6-7.5-20.2-7.6
			C121.5,241.1,120.6,240.2,118.8,239.9z"/>
		<path class="st13" d="M151.2,309.5c-5.7-0.9-9.3-6.1-15-7.3C142.5,302,146.6,306.3,151.2,309.5z"/>
		<path class="st13" d="M202.5,302.1c0.7-0.5,1.3-0.3,1.9,0c1.5,0.8,3.5,0.7,4.2,2.6c0.1,0.3-0.7,1.1-0.8,1.1
			c-1.6-0.6-3.3-1.1-4.5-2.5C203.1,303,202.8,302.5,202.5,302.1z"/>
		<path class="st13" d="M225.2,252.9c3,3.4,6.3,6.6,7.1,11.4C229.8,260.5,226,257.6,225.2,252.9z"/>
		<path class="st13" d="M226.9,279.1c-6.8-4.2-12.4-9.5-16.9-16.5C215.9,268.4,221.4,273.7,226.9,279.1z"/>
		<path class="st13" d="M211.5,290.2c-7-4.6-12.5-10.8-18-17c-0.7-0.7-1.2-1.7-0.3-2.3c1-0.7,1.6,0.5,2.1,1.1
			c5.1,6.4,11.2,11.9,16.9,17.7C211.9,289.9,211.7,290,211.5,290.2z"/>
		<path class="st13" d="M212.7,290.4c0.2,0.4,1,0.6,0.6,1.1c-0.4,0.4-0.9,0.1-1.1-0.5C212.4,290.8,212.6,290.6,212.7,290.4z"/>
		<path class="st13" d="M212.3,291c-0.3-0.3-0.5-0.5-0.8-0.8c0.2-0.2,0.4-0.3,0.7-0.5c0.2,0.2,0.4,0.4,0.6,0.7
			C212.6,290.6,212.4,290.8,212.3,291z"/>
		<path class="st11" d="M398.2,79.3c-0.1-3.5,0.8-6.6,3.8-8.7c1.3-1,2.9-1.1,4.1,0.1c1.4,1.4-0.4,2-1,2.7c-2.7,3.3-2.5,6.7-1.1,10.4
			c0.2,0.6,1.4,1.5,0.4,2.2c-0.7,0.5-1.6,0.1-2.5-0.3C399.1,84.4,398,82.2,398.2,79.3z"/>
		<path class="st14" d="M414,79c-0.1,3.4-2.7,6.9-4.7,6.3c-2.3-0.7-3.7-2.8-3.2-5.4c0.4-2.6-0.2-6.1,4.2-5.9
			C414.2,74,413.8,76.8,414,79z"/>
	</g>
</g>
</svg>
