<?xml version="1.0" encoding="utf-8"?>
<!-- Generator: Adobe Illustrator 21.1.0, SVG Export Plug-In . SVG Version: 6.00 Build 0)  -->
<svg version="1.1" id="Layer_1" xmlns="http://www.w3.org/2000/svg" xmlns:xlink="http://www.w3.org/1999/xlink" x="0px" y="0px"
	 viewBox="0 0 560 560" style="enable-background:new 0 0 560 560;" xml:space="preserve">
<style type="text/css">
	.st0{fill:#FDFDFD;}
	.st1{fill:#141515;}
	.st2{fill:#FCF778;}
	.st3{fill:#F8F8F8;}
	.st4{fill:#FCF304;}
	.st5{fill:#F17F93;}
</style>
<g>
	<g>
		<path class="st0" d="M560.8,280.8c0,92.2,0,184.3,0.1,276.5c0,2.9-0.7,3.6-3.6,3.6c-184.3-0.1-368.7-0.1-553,0
			c-2.9,0-3.6-0.7-3.6-3.6c0.1-184.3,0.1-368.7,0-553c0-2.9,0.7-3.6,3.6-3.6c184.3,0.1,368.7,0.1,553,0c2.9,0,3.6,0.7,3.6,3.6
			C560.8,96.4,560.8,188.6,560.8,280.8z M260.1,516.1c0.4,0.1,0.8,0,1.1,0.2c3.9,3,7.2,6.7,12.9,6.6c1.7,0,3.8,1,5,3.4
			c1,2,3,3.9,5.6,5c6.2,2.5,11.3-0.6,16.1-3.4c1.9-1.1,2.4-0.7,3.6,0.4c2.1,1.7,4.2,3.4,6.6,4.5c2.1,1,4,0.4,3.3-2.6
			c-0.7-2.9-1.3-5.7-3-8.4c-2.5-3.8-5.7-7.3-6-12.4c-0.2-3,0.7-4.5,3.7-4.7c3.2-0.3,5.9,1.2,8.7,1.8c1-1.1-0.3-2.8,1.5-3.8
			c0.8,3.9,2.6,3,4.6,1.1c0.5-0.4,1-0.8,1.6-1.1c4.6-2.3,8.7-6,14.6-2.8c1.4,0.7,3.7,1.3,5.5,1c7.8-1.3,14.8-4.5,20.7-9.8
			c2-1.8,3.4-1.5,4.2,0.3c0.9,2.1,2.6,3.4,3.8,5.2c4.3,6.5,11.3,8.2,17.3,6.8c3.7-0.9,6.9-1,9.6,1.6c2.8,2.7,2.4,6.4,1.6,9.8
			c-0.3,1.4-1.1,3,0,3.9c1.2,1,2.8-0.3,3.9-1c6.8-4.2,10.9-10.5,13.2-18c1-3.4,0.7-7-1.1-10c-1.2-2-1.6-3.2-0.5-5.5
			c1.6-3.2-0.9-7.3-4.5-7.9c-1.2-0.2-2.4-0.1-2.7-1.6c1.4-0.7,3,0.2,4.5-0.7c4.6-2.7,9.8-2.7,14.9-2.4c2.2,0.1,3.9-0.3,5.6-1.9
			c2.5-2.3,7-1.4,7.4,1.5c0.3,2.1,2.6,4.2,0.5,6.8c-1,1.3,0.5,2.3,2.1,2c5.2-0.9,8.4-6.6,7.5-11.9c-0.8-4.9-2-10,0-14.9
			c2.7-6.6-3.9-14.3-10.5-13.9c-7.3,0.4-7.3,0.1-8.6-7.2c-1-5.2-5.4-8.7-10.7-8.9c-2.4-0.1-4.2,0.9-6.1,2c-1.7,1-3.3,1.2-5,0
			c-0.9-0.7-2-1-3.2-1c-4.5-0.2-6.9,2.6-9.1,6c-3.3,5-4.4,11-7.2,16.2c-4.2,7.8-9.2,10.3-15.3,8.9c-12.9-3-22.2-11.4-28-22.9
			c-5.7-11.3-5.8-23.7-4.2-36c0.2-1.4,1.1-1,1.9-1.4c12.5-5.1,23.9-11.7,33.4-21.4c5.9-6,11.9-11.8,17.2-18.3
			c3.4-4.3,7.1-8.3,10.3-12.8c1.8-2.5,3.4-5.7,8-5.2c3.5,0.3,7.2-1.1,10.7-2.3c9.8-3.2,19-7.9,27.2-14.1
			c6.3-4.7,11.7-10.3,16.7-16.4c3.8-4.6,5.8-10.1,9-14.9c9.1-13.6,13.8-28.8,14.9-45c0.7-10.5-0.3-20.9-2.8-31.1
			c-2.2-9-5.1-17.8-9-26.3c-5.8-12.6-13.6-23.9-21.8-35c-0.5-0.7-1.6-1.2-1.1-2.2c0.5-1,1.6-0.5,2.5-0.5c3.9,0,7.6-0.8,9.8-4.4
			c5-7.8,3-16.2-4-22.4c-3.7-3.2-7.9-5.9-12.3-8.3c-3.4-1.9-6.8-4-9.5-7c-0.8-0.9-1.6-1.5,0.4-2.5c8.6-4,16.1-9.8,22.7-16.7
			c1.8-1.9,4.2-1.7,6.2,0.2c1.6,1.5,3.2,3,4.7,4.7c1.8,2.1,2.4,1.4,3-0.9c2.5-8.5,0.1-15.9-5.4-22.1c-7.8-8.7-18.3-8.7-28.7-6.9
			c-4,0.7-4.8,0.6-5.6-3.1c-0.2-1-0.5-2.2-1.2-2.7c-2.9-2.1-1.5-4-0.1-6.2c5.5-8.7,5.4-18.1,2.5-27.5c-1.7-5.5-6.1-8.2-11.9-9.5
			c-7.1-1.5-9.8-0.7-12,5.4c-0.2,0.6,0.1,1.3-0.9,1.4c-1,0-0.8-0.8-1-1.3c-1-2.8-1.8-5.7-2.8-8.5c-1-3-5.8-6.1-9.4-6.1
			c-3,0-6.6,3-7.6,6.4c-1.1,3.7,0.6,7.4,0,11.2c-0.2,1.6,0.5,4-1.8,3.9c-1.7-0.1-0.9-2.4-0.8-3.6c0.5-4.4-0.8-8.3-2.6-12.1
			c-2.7-5.7-7.5-6.9-13.4-6.5c-3,0.2-4,0.8-4.2,3.9c-0.4,4.9,1.9,9.6,0.9,14.4c-1.1,0.2-1.6-0.6-1.9-1.2c-1.9-3.6-3.9-7.1-6.3-10.4
			c-3.2-4.3-7-7.4-12.9-6.6c-1.9,0.3-3.9,0-5.8-0.2c-5.7-0.4-11.2-0.1-16.5,2.8c-4.4,2.4-6.8,5.8-6.6,10.2c0.2,4,3,7.4,7.9,8.6
			c3.6,1,7.5,1.2,11.1,2.1c2.4,0.6,5.2,0.3,6.9,2.6c0.4,0.5,0.3,1.1-0.2,1.3c-2.6,1.2-5.1,0.6-7.8,0.2c-5.6-0.9-11.2-2.7-16.9-0.5
			c-5.1,2-9.4,5.3-10.3,10.9c-0.9,6.1,0.5,11.8,6,15.8c4.8,3.5,10.5,4.8,16,5.3c7.8,0.6,14.2,2.8,18.8,9.4c0.9,1.3,0.1,1.8-0.3,2.7
			c-4.3,8.9-6.2,18.6-6.4,28.2c-0.5,21.4,0.4,42.9-3.1,64.2c-0.7,4.2-1.3,8.4-2.3,12.6c-0.3,1.3-1,2.6-0.1,3.6
			c0.9,1,2.5,0.6,3.7,0.3c1.1-0.3,2-1,3-1.6c6.6-4.1,10.6-10.7,15.6-17.4c-0.1,11,0.6,21.2-2.7,31.3c-3.4,10.4-9.4,18.1-19.7,22.2
			c-5,2-10.3,2.2-15.5,3.5c-11.4,2.8-21.9,7.1-29.1,17.2c-1.4,2-3.3,3.7-5.2,5.2c-3.5,2.8-7.1,5.3-10.6,8
			c-7.8,6.1-16.8,9.2-26.5,10.1c-3.2,0.3-6.5-0.4-8.9-3.3c-6.7-8.1-13.5-16-20.3-24c-2-2.3-2.7-4.2,0.1-6.6c8-7,13.3-16,18.2-25.1
			c7.5-14,13.3-28.7,16.6-44.3c1.8-8.2,2.9-16.4,3.3-24.7c0.6-11.3-1.1-22.5-3.6-33.6c-3.9-17.4-10.7-33.4-21.9-47.6
			c-6.9-8.7-15.4-15.1-25-20.2c-10.8-5.7-22.6-8-34.5-9.1c-9-0.9-18.1-0.4-27,1c-10.9,1.7-21.9,3.4-32.4,7.3c-3.3,1.2-6.2,1-8.6-2.3
			c-5.4-7.5-10.9-14.9-16.6-22.2c-0.9-1.2-1.2-3.1-3.3-3.5c-3.3-0.7-5.3,0.5-6.4,5c-3,12.2-3.1,24.3,1.4,36.3
			c0.6,1.6,0.7,2.8-0.5,4.2C84.7,56.3,80,63.5,77,71.7c-2.5,6.7-3.7,13.8-4.5,20.9c-0.1,1.3-0.1,3.1,2,1.7c7.4-5.1,15-10,22.1-15.5
			c9.9-7.8,10.2-8.1,19.6-2.7c0.2,0.1,0.3,0.4,0.5,0.6c-12.3,8.4-24.7,16.6-34.2,28.4c-3.6,4.5-6.8,9-8.7,14.5
			c-0.8,2.3,0.1,2.7,2.1,2.7c4-0.1,8-0.2,12.1,0c11.8,0.7,21.1-4.6,29.8-11.7c6.2-5.1,12.2-10.3,19.6-13.8
			c7.8-3.6,15.5-3.5,22.7,1.1c8.5,5.4,15.6,12.5,21.5,20.6c7,9.4,12.2,19.9,15.2,31.4c-0.3,0.2-0.6,0.3-0.9,0.5
			c-0.5-0.9-1-1.7-1.4-2.6c-4.6-9.5-10.5-17.9-19.1-24.4c-14.8-11.3-31.3-12.9-48.6-9.3c-9.9,2.1-18.8,6.8-27.3,12.2
			c-10.6,6.8-19,15.7-24.6,27.2c-3.1,6.5-5,13.1-5.2,20.4c-0.1,2.7-2.5,5.9,2.5,6.5c0.2,0,0.4,1,0.3,1.4c-1.4,3.4-1.3,7.1-2.3,10.7
			c-1,3.9-1.6,7.8-2.5,12.1c2.2-1,3.8-1.8,6.1-2.9c-0.8,4.7-2,8.8-2.1,12.9c-0.2,8.5-3.2,16.5-4.2,25c-0.9,7.4-0.8,14.6,1.4,21.4
			c1.8,5.5,2.9,11,2.8,16.8c-0.1,5,0.4,6,4.3,9.3c0.3,0.3,0.2,1,0.4,1.5c2,5.7,3.8,11.4,6.8,16.7c1.2,2.1,1,4.1,0.2,6.2
			c-2.5,6.5-3.7,13.1-3.3,20.1c0.5,7.9,3.7,14.2,10.2,19c3.9,2.9,8.2,5.1,12.7,6.7c5.6,2,11.4,3.3,17.7,3.6c-0.8-1.3-2-2.1-3-3
			c-4.2-3.8-8.5-7.5-12.4-11.5c-4.8-5-6.5-11-4.7-17.9c1.4-5.4,5.3-8.8,10-11.4c4.8-2.7,10.3-3.7,15.3-3.3c8.4,0.5,16.7,2.5,25,4.5
			c1.9,0.5,4.6,0,6.1,3c3.3,7,9.2,11.7,15.7,15.8c2.2,1.3,4.8,2,6.6,4.3c-3.5,1.7-6.7,3.5-9.2,6.5c1.3,0.6,3.1,0.2,3.5,2
			c0.4,1.9-1.7,1.8-2.5,2.4c-5.2,3.5-8.5,8.3-11,13.9c-1.1,2.5-1.1,4.4,2.4,3.9c7.2-1,14.5-0.7,21.7-1.6c7.4-0.9,14.9-1.7,22-4
			c3.7-1.2,7-2.7,7.3,3.3c0,0.3,0.5,0.6,0.7,0.9c3.1,5.3,8.1,8.2,13.6,9.6c3.8,0.9,2.1,2.5,1.2,4.1c-0.6,1-1.6,1.7-2.5,2.4
			c-4.8,3.5-10,6.5-15.7,8.5c-1,0.3-3-0.3-3,1.6c0,1.3,1.4,2.1,2.4,2.9c0.9,0.7,1.9,1.2,2.9,1.8c4.3,2.5,9.2,3.3,13.8,4.7
			c3.4,1.1,4.5,3.4,3,6.5c-2.9,5.9-3.9,11.5,2,16.3c0.8,0.6,0.9,0.8,0,1.9c-3.8,4.4-5.5,9.3-3.8,15.3c1,3.3,1.5,7.5-1.5,10.1
			c-2.8,2.3-6.1,3.4-10.2,1.9c-8.4-3-16.7-6.5-25.5-8.2c-1.3-0.2-3.4-0.7-3.5-0.2c-0.3,1.5-1.6,2.6-1,4.5c2.8,8.7,9.1,13.6,17,16.9
			c4.1,1.7,8.8,1.1,13,2.7c0.7,0.3,1.7,0.2,1.7,1.2c-0.1,1.1-1.1,0.7-1.8,0.8c-2.9,0.5-5.6-0.9-8.3-1c-6.5-0.1-13.2-0.9-19.5,1.1
			c-4.8,1.5-9.8,3.2-11.3,9.1c-0.2,0.9-0.7,1.8-2.2,2.2c-5,1.2-7.1,5.3-7.7,9.9c-0.7,5.4,0.4,10.6,4.4,14.8c0.8,0.8,1.7,1.4,2.1-0.4
			c0.5-3.1,2.8-5.4,4.2-8c1-1.9,2.9-2.6,5.3-1.7c4.1,1.6,8.5,2.6,13,2.4c8.1-0.5,15.7-3.4,23.4-5.8c1-0.3,2-1.2,2.8-0.4
			c0.9,0.9,0.5,2.1,0.1,3.2c-1.8,4.3-1.6,8.8-1.4,13.2c0.3,6,3.7,10.1,9.6,11.4c1,0.2,1.9,0.4,1.6,1.6c-0.5,2.3,0.7,4.2,1.1,6.3
			c1.4,7.6,8.7,16.6,16.9,14.8c2.4-0.5,3.6,1.1,4.8,2.6c1.4,1.6,2.5,3.5,3.7,5.2c3.8,5.3,2.8,6.4,9,0.7c1.6-1.5,2.2-3.3,2.3-5.5
			c0.3-6.5-4.5-12.4-2-19.2c0.1-0.2-0.4-0.6-0.5-1c-1.2-5.1-5.1-8.4-8.2-12.2C259.5,516.6,259.8,516.3,260.1,516.1z"/>
		<path class="st1" d="M196.7,149.8c-3-11.5-8.3-21.9-15.2-31.4c-5.9-8-13.1-15.1-21.5-20.6c-7.2-4.6-14.9-4.8-22.7-1.1
			c-7.4,3.4-13.4,8.7-19.6,13.8c-8.6,7-18,12.4-29.8,11.7c-4-0.2-8-0.1-12.1,0c-2,0-2.9-0.4-2.1-2.7c1.9-5.4,5.2-10,8.7-14.5
			c9.4-11.9,21.8-20.1,34.2-28.4c-0.2-0.3-0.3-0.5-0.5-0.6c-9.4-5.4-9.7-5.1-19.6,2.7c-7.1,5.6-14.6,10.4-22.1,15.5
			c-2.1,1.4-2.1-0.3-2-1.7c0.8-7.1,2-14.2,4.5-20.9c3-8.2,7.7-15.3,13.5-21.8c1.2-1.4,1.1-2.6,0.5-4.2c-4.5-11.9-4.4-24.1-1.4-36.3
			c1.1-4.5,3.1-5.7,6.4-5c2.1,0.4,2.4,2.3,3.3,3.5c5.7,7.3,11.2,14.7,16.6,22.2c2.4,3.3,5.3,3.5,8.6,2.3c10.5-3.9,21.5-5.7,32.4-7.3
			c8.9-1.3,18-1.9,27-1c12,1.2,23.8,3.4,34.5,9.1c9.6,5.1,18.2,11.5,25,20.2c11.2,14.2,17.9,30.2,21.9,47.6
			c2.5,11.1,4.2,22.3,3.6,33.6c-0.4,8.3-1.6,16.5-3.3,24.7c-3.3,15.6-9.1,30.3-16.6,44.3c-4.9,9.2-10.3,18.2-18.2,25.1
			c-2.8,2.4-2.1,4.3-0.1,6.6c6.8,8,13.6,15.9,20.3,24c2.4,2.9,5.7,3.6,8.9,3.3c9.7-0.9,18.7-4,26.5-10.1c3.5-2.7,7.2-5.2,10.6-8
			c1.9-1.5,3.8-3.2,5.2-5.2c7.1-10.2,17.6-14.4,29.1-17.2c5.1-1.3,10.5-1.5,15.5-3.5c10.3-4.2,16.3-11.8,19.7-22.2
			c3.3-10.1,2.6-20.3,2.7-31.3c-5.1,6.7-9,13.3-15.6,17.4c-1,0.6-1.9,1.3-3,1.6c-1.2,0.3-2.8,0.7-3.7-0.3c-0.9-0.9-0.2-2.3,0.1-3.6
			c1-4.1,1.6-8.4,2.3-12.6c3.4-21.3,2.6-42.8,3.1-64.2c0.2-9.6,2.1-19.3,6.4-28.2c0.4-0.9,1.2-1.4,0.3-2.7c-4.6-6.6-11-8.8-18.8-9.4
			c-5.5-0.4-11.2-1.7-16-5.3c-5.6-4.1-7-9.7-6-15.8c0.9-5.6,5.1-8.9,10.3-10.9c5.7-2.2,11.3-0.5,16.9,0.5c2.7,0.5,5.3,1,7.8-0.2
			c0.5-0.2,0.6-0.8,0.2-1.3c-1.8-2.3-4.6-2-6.9-2.6c-3.7-0.9-7.5-1.1-11.1-2.1c-4.8-1.3-7.6-4.6-7.9-8.6c-0.2-4.4,2.2-7.8,6.6-10.2
			c5.2-2.9,10.7-3.2,16.5-2.8c1.9,0.1,3.9,0.4,5.8,0.2c5.9-0.8,9.7,2.3,12.9,6.6c2.4,3.3,4.4,6.8,6.3,10.4c0.3,0.6,0.8,1.4,1.9,1.2
			c1-4.9-1.3-9.5-0.9-14.4c0.2-3.1,1.2-3.6,4.2-3.9c5.9-0.4,10.7,0.8,13.4,6.5c1.8,3.8,3.1,7.7,2.6,12.1c-0.1,1.2-0.9,3.5,0.8,3.6
			c2.3,0.1,1.6-2.3,1.8-3.9c0.6-3.7-1.1-7.4,0-11.2c1-3.3,4.7-6.4,7.6-6.4c3.6,0,8.4,3.1,9.4,6.1c0.9,2.8,1.8,5.7,2.8,8.5
			c0.2,0.5,0,1.4,1,1.3c0.9,0,0.7-0.8,0.9-1.4c2.2-6.1,4.9-6.9,12-5.4c5.8,1.2,10.2,3.9,11.9,9.5c2.9,9.4,3,18.8-2.5,27.5
			c-1.4,2.2-2.8,4.1,0.1,6.2c0.7,0.5,1,1.8,1.2,2.7c0.8,3.7,1.6,3.8,5.6,3.1c10.5-1.7,20.9-1.8,28.7,6.9c5.5,6.2,8,13.6,5.4,22.1
			c-0.7,2.3-1.2,2.9-3,0.9c-1.4-1.7-3.1-3.1-4.7-4.7c-2-1.9-4.3-2.1-6.2-0.2c-6.6,6.9-14,12.6-22.7,16.7c-2,0.9-1.1,1.6-0.4,2.5
			c2.6,3,6.1,5.1,9.5,7c4.3,2.4,8.6,5.1,12.3,8.3c7,6.2,8.9,14.6,4,22.4c-2.3,3.6-5.9,4.4-9.8,4.4c-0.8,0-1.9-0.5-2.5,0.5
			c-0.5,1.1,0.6,1.5,1.1,2.2c8.2,11.1,16,22.4,21.8,35c3.9,8.5,6.8,17.2,9,26.3c2.5,10.2,3.5,20.6,2.8,31.1
			c-1.1,16.2-5.8,31.4-14.9,45c-3.2,4.8-5.2,10.3-9,14.9c-5.1,6.1-10.5,11.7-16.7,16.4c-8.2,6.2-17.4,10.9-27.2,14.1
			c-3.5,1.1-7.2,2.6-10.7,2.3c-4.6-0.4-6.2,2.7-8,5.2c-3.1,4.5-6.9,8.5-10.3,12.8c-5.2,6.5-11.3,12.3-17.2,18.3
			c-9.5,9.7-21,16.4-33.4,21.4c-0.8,0.3-1.7,0-1.9,1.4c-1.6,12.4-1.5,24.8,4.2,36c5.9,11.5,15.1,19.9,28,22.9
			c6.1,1.4,11-1.1,15.3-8.9c2.8-5.2,3.9-11.2,7.2-16.2c2.2-3.3,4.6-6.1,9.1-6c1.2,0,2.3,0.3,3.2,1c1.7,1.2,3.3,0.9,5,0
			c1.9-1.1,3.7-2.1,6.1-2c5.3,0.2,9.7,3.6,10.7,8.9c1.3,7.3,1.4,7.7,8.6,7.2c6.7-0.4,13.3,7.2,10.5,13.9c-2,4.9-0.8,10,0,14.9
			c0.9,5.3-2.4,11-7.5,11.9c-1.6,0.3-3.1-0.7-2.1-2c2.1-2.6-0.2-4.7-0.5-6.8c-0.4-2.9-4.9-3.8-7.4-1.5c-1.7,1.6-3.4,2-5.6,1.9
			c-5.1-0.3-10.3-0.3-14.9,2.4c-1.5,0.9-3.1,0-4.5,0.7c0.3,1.5,1.5,1.4,2.7,1.6c3.7,0.6,6.1,4.7,4.5,7.9c-1.1,2.2-0.7,3.5,0.5,5.5
			c1.8,3,2.2,6.6,1.1,10c-2.3,7.5-6.4,13.8-13.2,18c-1.1,0.7-2.7,2-3.9,1c-1.1-0.9-0.3-2.5,0-3.9c0.7-3.4,1.2-7-1.6-9.8
			c-2.7-2.7-5.9-2.5-9.6-1.6c-6.1,1.5-13.1-0.3-17.3-6.8c-1.2-1.8-2.9-3.1-3.8-5.2c-0.8-1.8-2.2-2.1-4.2-0.3
			c-5.8,5.3-12.9,8.5-20.7,9.8c-1.8,0.3-4.1-0.2-5.5-1c-5.9-3.1-10,0.5-14.6,2.8c-0.6,0.3-1.1,0.7-1.6,1.1c-2,1.9-3.9,2.8-4.6-1.1
			c-1.7,1-0.5,2.7-1.5,3.8c-2.8-0.6-5.6-2.1-8.7-1.8c-3,0.3-3.9,1.7-3.7,4.7c0.3,5.1,3.5,8.5,6,12.4c1.7,2.6,2.3,5.5,3,8.4
			c0.7,2.9-1.2,3.5-3.3,2.6c-2.4-1.1-4.5-2.8-6.6-4.5c-1.3-1-1.7-1.5-3.6-0.4c-4.8,2.8-9.9,5.9-16.1,3.4c-2.6-1-4.6-2.9-5.6-5
			c-1.2-2.4-3.3-3.4-5-3.4c-5.6,0.1-9-3.6-12.9-6.6c-0.3-0.2-0.7-0.1-1.1-0.2c-0.3-0.3-0.6-0.9-1.2-0.4c-0.5,0.5-0.1,0.9,0.3,1.2
			c3.2,3.8,7,7.1,8.2,12.2c0.1,0.4,0.6,0.8,0.5,1c-2.6,6.7,2.3,12.7,2,19.2c-0.1,2.2-0.7,4-2.3,5.5c-6.2,5.8-5.2,4.7-9-0.7
			c-1.2-1.7-2.3-3.6-3.7-5.2c-1.2-1.4-2.4-3.1-4.8-2.6c-8.2,1.9-15.5-7.1-16.9-14.8c-0.4-2.1-1.6-4-1.1-6.3c0.3-1.1-0.6-1.3-1.6-1.6
			c-5.9-1.4-9.3-5.4-9.6-11.4c-0.2-4.5-0.4-9,1.4-13.2c0.5-1.1,0.8-2.4-0.1-3.2c-0.8-0.8-1.9,0.1-2.8,0.4
			c-7.7,2.4-15.2,5.3-23.4,5.8c-4.5,0.3-8.8-0.8-13-2.4c-2.4-0.9-4.2-0.2-5.3,1.7c-1.4,2.6-3.7,4.9-4.2,8c-0.3,1.8-1.2,1.3-2.1,0.4
			c-4-4.2-5.1-9.4-4.4-14.8c0.6-4.6,2.7-8.7,7.7-9.9c1.5-0.4,2-1.3,2.2-2.2c1.5-5.9,6.5-7.6,11.3-9.1c6.3-1.9,13-1.1,19.5-1.1
			c2.8,0,5.5,1.5,8.3,1c0.7-0.1,1.7,0.3,1.8-0.8c0.1-1-0.9-0.9-1.7-1.2c-4.2-1.6-8.9-1-13-2.7c-7.9-3.3-14.3-8.2-17-16.9
			c-0.6-2,0.7-3.1,1-4.5c0.1-0.5,2.2-0.1,3.5,0.2c8.9,1.7,17.1,5.1,25.5,8.2c4.1,1.5,7.5,0.4,10.2-1.9c3.1-2.6,2.5-6.8,1.5-10.1
			c-1.7-6,0.1-11,3.8-15.3c0.9-1.1,0.8-1.3,0-1.9c-5.9-4.8-4.9-10.4-2-16.3c1.5-3.1,0.5-5.4-3-6.5c-4.7-1.5-9.5-2.2-13.8-4.7
			c-1-0.6-2.1-1.1-2.9-1.8c-1-0.8-2.4-1.6-2.4-2.9c0-1.9,2.1-1.3,3-1.6c5.7-2,10.8-4.9,15.7-8.5c0.9-0.7,1.9-1.5,2.5-2.4
			c0.9-1.6,2.6-3.1-1.2-4.1c-5.6-1.4-10.6-4.3-13.6-9.6c-0.2-0.3-0.7-0.6-0.7-0.9c-0.2-6-3.5-4.5-7.3-3.3c-7.1,2.3-14.6,3.1-22,4
			c-7.2,0.9-14.5,0.6-21.7,1.6c-3.5,0.5-3.5-1.4-2.4-3.9c2.5-5.6,5.8-10.4,11-13.9c0.8-0.5,2.9-0.5,2.5-2.4c-0.4-1.7-2.2-1.4-3.5-2
			c2.4-3,5.6-4.8,9.2-6.5c-1.7-2.2-4.4-2.9-6.6-4.3c-6.5-4-12.4-8.8-15.7-15.8c-1.4-3-4.1-2.6-6.1-3c-8.2-1.9-16.6-3.9-25-4.5
			c-5-0.3-10.5,0.7-15.3,3.3c-4.7,2.6-8.6,5.9-10,11.4c-1.8,6.8,0,12.9,4.7,17.9c3.9,4.1,8.2,7.7,12.4,11.5c1,0.9,2.2,1.7,3,3
			c-6.3-0.3-12.1-1.6-17.7-3.6c-4.5-1.6-8.8-3.8-12.7-6.7c-6.5-4.8-9.7-11.1-10.2-19c-0.4-7,0.7-13.6,3.3-20.1
			c0.8-2.1,1-4.2-0.2-6.2c-3-5.3-4.8-11-6.8-16.7c-0.2-0.5-0.1-1.2-0.4-1.5c-3.9-3.3-4.5-4.3-4.3-9.3c0.2-5.8-1-11.2-2.8-16.8
			c-2.2-6.9-2.2-14.1-1.4-21.4c1-8.4,4-16.4,4.2-25c0.1-4.1,1.3-8.2,2.1-12.9c-2.3,1.1-4,1.9-6.1,2.9c0.8-4.3,1.4-8.3,2.5-12.1
			c0.9-3.5,0.9-7.3,2.3-10.7c0.2-0.4-0.1-1.4-0.3-1.4c-5-0.6-2.6-3.8-2.5-6.5c0.2-7.2,2.1-13.9,5.2-20.4c5.5-11.5,14-20.4,24.6-27.2
			c8.4-5.4,17.4-10.1,27.3-12.2c17.4-3.6,33.9-2.1,48.6,9.3c8.6,6.6,14.5,14.9,19.1,24.4c0.4,0.9,0.9,1.7,1.4,2.6
			c0.2,0.4,0.3,1,0.9,0.6C197.4,150.6,197.1,150.1,196.7,149.8z M385,305.7c0.3-0.3,0.5-0.6,0.8-0.8c0,0,0,0.1,0,0.1
			c0.3-0.3,0.6-0.6,0.8-0.8c0,0-0.1,0.1-0.1,0.1c0.3-0.3,0.6-0.5,0.9-0.8l-0.1,0.1c0.3-0.3,0.6-0.6,0.8-0.8l-0.1,0.1
			c0.6-0.3,1.2-0.6,1-1.5l-0.1,0.1c0.8,0.2,1-0.1,0.8-0.9l0,0.1c1.7,0,1.2-1.9,2.2-2.6l0,0c0.5-0.1,0.8-0.3,0.8-0.8l0,0
			c0.7-0.3,0.9-0.9,0.9-1.6c3.6-2.8,4.6-7.1,6.6-10.8c4-7.3,2.3-14.9-4.3-20.3c0-0.5,0-1,0-1.5l0,0c1.1-1.4,2.1,0.3,3.2,0.1l-0.1,0
			c0.3,0.3,0.6,0.5,0.9,0.8l0,0c0.7,0.8,1.5,1.5,2.2,2.3c0.1,0.5,0.1,1.1,0.4,1.5c5.6,7.3,3.9,14.9-0.1,21.9
			c-7.4,12.9-17.2,23.8-29.1,32.8c-12.4,9.4-25.9,16.6-40.6,21.6c-14.1,4.7-28.5,7.5-43.4,8.2c-5.4,0.2-10.6-0.5-15.9-0.2
			c-6.5,0.3-12.8-1.5-19.1-2.6c-1-0.2-1.8-0.6-2.9-0.2c-9.8,3.5-20,6-29.6,10.1c-1.9,0.8-4.4,0.9-4.6,3.7c-0.2,2.9,1,5.1,3.4,6.9
			c3.6,2.7,8,3.7,12,5.5c5.2,2.4,5.4,4.5,1.4,8.5c-3.9,4-8.7,6.6-13.6,8.9c-0.8,0.4-2.3,0.4-2.2,1.8c0.1,1.4,1.3,1.6,2.5,1.9
			c4.2,0.9,8.3,3.2,12.9,1.1c1.2-0.5,3.4-0.7,4.1,1.1c0.6,1.8-1.5,1.8-2.4,2.3c-3.3,1.7-0.9,3,0.3,3.7c2.2,1.3,2.7,2.4,0.8,4.4
			c-1,1.1-1.6,2.6-2.4,3.9c-3.1,5.4-2.6,7.4,2.4,10.8c3.9,2.6,4,3.4,0.7,7.1c-3.3,3.6-6.2,7.5-5,12.7c0.5,2.2,0.9,4.4,0.9,6.7
			c-0.2,7.1-9.8,13.5-16.3,11.1c-7.3-2.7-14.4-5.9-22-8c-0.8-0.2-1.6-0.7-2.1,0c-0.5,0.7-0.3,1.5,0.4,2.4c5.2,6.6,12,10.3,20.3,11.5
			c2.3,1.7,5.1,1.6,7.7,2.1c1.9,1.1,3.5,2.5,4.3,4.6c0.6,1.5,2.2,2.8,0.7,4.5c-1.5,1.7-3.6,1.2-5.4,0.7c-7.2-2.3-14.6-2.5-21.9-1.7
			c-4.4,0.5-9.1,1.2-13.3,3.6c-2.7,1.5-6.4,6.4-6.1,8.7c0.4,3.2,4,5.7,8.1,7c4.1,1.3,7.8-0.3,11.7-0.1c8.6,0.5,15.7-4.2,23.5-6.6
			c1.6-0.5,3-1.8,4.7-0.7c1.8,1.3,1.4,3.5,0.8,5c-1.7,3.9-2,8.1-3.2,12.1c-1.3,4.1,0.5,8.1,2.9,11.5c1.2,1.6,3.5,3,5.4,2.2
			c4.4-1.9,3.9,0.9,3.8,3.5c0,1.9,0,3.9-0.1,5.8c-0.1,2.8,0.5,5.3,3.1,7c5.1,1.5,10.2,1.3,15.3,0.1c0.8,0,1.5,0,2.3-0.1
			c5.1-0.5,6.7-3,4.9-7.8c-1.5-4.2-4.8-6.8-8.1-9.5c-4.7-4-11.2-5.5-14.9-11.2c-2.3-3.5-3.8-13.6,0.2-16.5c0.4,1.8,0.6,3.6-0.1,5.3
			c-0.8,2,0.3,2.6,1.9,2.2c1-0.3,2-0.3,3-0.3c0.9,1.4,2.3,1.9,3.9,2.1l0.1,0.1c0,0.6,0.4,0.7,0.9,0.8c0.3,0.2,0.5,0.4,0.8,0.6
			l0.3,0.2l0.3-0.1c0.2,0.1,0.3,0.2,0.6,0.2c0.2,0.2,0.4,0.4,0.6,0.6c0,0.2,0.1,0.3,0.3,0.3c0.1,0.5,0.3,1,0.9,1l0.1,0.2
			c0.2,0.2,0.4,0.4,0.6,0.6l0.2,0.1c0.1,0.6,0.5,0.8,1,0.9c0,0.2,0.1,0.3,0.3,0.3c0,0.3,0.2,0.4,0.5,0.4c0,0.2,0.1,0.3,0.3,0.3
			c0.3,0.3,0.6,0.7,0.9,1l0.2,0.2c0.2,0.2,0.4,0.4,0.6,0.6l0.2,0.2c0.2,0.2,0.4,0.4,0.6,0.6l0.2,0.2c0.1,0.6,0.5,0.8,1.1,0.9
			l0.2,0.3c0,0.3,0.1,0.5,0.4,0.5c0.1,0.2,0.2,0.3,0.4,0.4c0.2,0.8,0.9,0.9,1.6,0.9l0.2,0.2c0.1,0.6,0.5,0.8,1,0.9
			c0,0.2,0.1,0.3,0.3,0.3c0.2,0.2,0.4,0.3,0.6,0.5c3.4,2.2,6.9,4.5,11.1,2.7c3-1.3,5.7-3.3,8.2-5.5c1.4-1.2,2.9-2.7,4.9-0.7
			c-0.9,0.4-1.8,0.6-2.5,1.1c-2.7,1.9-5.2,4.4-4.8,7.8c0.4,2.8,1.7,5.8,4.9,7.2c2.3,1,3.9-0.7,5.9-0.6c3.4,0.2,7.5-3.5,8.3-6.8
			c1.8-7.8,0.8-9.8-6.4-14.1c-8.6-5-18.3-5.1-27.7-5.9c-3.1-0.3-6.1-0.2-8.9-1.7c-1.7-0.9-5.1-1.3-4.7-3.2c0.5-2.7,3.7-1.1,5.7-1.3
			c5.9,3.2,12.1,2.1,18.3,1.5c0.7-0.1,1.9-0.3,2.1-1.5c1.7-1.6,2.9-1.1,4.6,0.3c3.4,2.8,6.8,5.6,11.3,6.7c7.4,2,9.3,0.5,7.8-6.8
			c-2-9.6-11.6-15-20.9-11.7c-4.8,1.7-9.8,2.6-14.9,2.6c-2.6,0-5.4-0.5-7.7,0.3c-3.5,1.3-6.1-0.5-9.1-1.1c-1.3-0.3-1.6-1.1-1.6-2.2
			c0-2.7-0.2-5.5,0.1-8.1c1.5-11.8,3.2-23.6,4.8-35.5c1.5-1.8,1.4-4.1,1.9-6.2c0.1-0.6,0.2-1.2,0.3-1.7c0.7-0.2,0.7-0.7,0.6-1.3
			c1.6-4.2,3.1-8.5,4.7-12.7c0.4-1.1,1.4-1.1,2.4-1.5c4.3-1.3,8.7-2.5,12.7-4.5c9.4-4.8,17.4-11.4,23.3-20.4
			c-1.7-0.2-2.9-1.5-4.7-1.6c-2.1-0.1-1.9-1.8-1.7-3.1c0.3-1.3,1.2-2.6,2.7-2c4.6,1.6,9,0.7,13.6-0.1c10.3-1.8,20.1-4.6,27.7-12.5
			c0.5-0.6,1.1-2.3,2.4-1c0.9,0.9,1,1.9,0,3c-7.3,8.1-16.3,12.9-27,15.1c-2.3,0.5-4.9-0.2-6.8,1.7c-2.7,2.6-5.2,5.4-7.8,8.1
			c-0.6,0.6-1.2,1.2-0.9,2.3c1,3.7,9.5,8.3,13.3,7.3c2.4-0.6,4.6-1.3,6.6-2.7c1.3-0.9,3-1.1,3.9-0.1c0.9,1.1-0.6,1.8-1.3,2.7
			c-1.2,1.6-1.8,3.2-1.4,5.5c1.4,7.4,6.1,12.7,10.7,18.1c4.6,5.4,9.3,10.9,12.2,17.4c1.9,4.2,3.1,8.7,0.5,13.2
			c-0.7,1.2-3.6,1-2.6,3.1c1,2,3.2,0.4,4.9,0.8c0.7,0.2,1.5-0.3,2.2-0.4c5.2-0.8,10.5-1.5,14.8,2.7c3.6,3.5,2.9,8-1.7,10
			c-1.7,0.7-3.4,1.5-5.3,1.8c-5.8,0.9-11.2,3-16.3,5.8c-1.6,0.9-3.6,1.8-3.2,4.3c0.6,3.1,5.1,7.2,8.4,6.8c7.1-0.7,13.8-2.9,19.6-7.4
			c5.7-4.4,6.9-4.4,12.2,0.5c1.2,1.2,2.3,2.4,3.5,3.6c2.2,2.1,4,4.8,7.4,5.2c3.7,1.9,7.4,1.8,11.1,0c5.3-0.4,8.9,1.7,8.8,6.1
			c0,2.2,1.4,3.9,1.2,6.1c-0.1,1,0.7,2.2,2.3,1.1c4.9-3.2,8.6-13.3,6.7-18.9c-0.7-2-1.4-3.1-3.8-1.6c-2.2,1.4-4.5,2.8-7.5,2.4
			c-1.4-0.2-2.4-0.3-2.9-1.7c-0.5-1.5,0.9-2,1.6-2.7c1.8-1.5,4.1-1,6.3-1.1c2.6-0.1,3.7-2.1,4.7-3.9c0.7-1.2-0.5-2.5-1.7-3.1
			c-1.4-0.7-3.1-1.7-4.6-1.5c-5.3,0.7-10.6,1.6-15.7,2.7c-7.2,1.5-14,0.8-20.9-1.2c-2.8-0.8-3.6-2.8-3.6-5.6c0-2.6,1.8-4.5,2.1-6.9
			c0.5-3.3,2.1-4,5-2.3c2.5,1.5,4.9,3.1,7.8,3.9c8.9,2.5,17.8,3.2,26.9,0.9c2.3-0.6,4.8-0.4,6.9-1.8c3.1-2.1,6.3-2.6,10.1-1.5
			c5.4,1.5,8.3-1.1,8.4-6.7c0-1.3-0.5-2.8,0.9-4.3c0.6,2.4,1.8,4.2,2,6.5c0.3,2.2,1.6,3.5,3.4,1.1c1.5-2,3.9-2.1,5.8-3.2
			c2.2-4,0.5-8.2,1-12.3c0.1-0.7-0.2-1.2-1.1-1.2c-3.9-4.8-9.7-3-12.9-0.1c-2.1,1.9-3.3,4.8-5.4,6.3c-6.4,4.4-13.1,8.5-20,12.3
			c-3.2,1.8-6.9,3-10.8,2.7c-1.2-0.1-2.9,0.8-3.4-0.7c-0.6-1.9,1.5-2,2.6-2.7c6.1-4.1,11.5-8.7,13.7-16.3c1-3.7,3-7.3,7.7-8
			c1.3-0.2,2.9-0.8,3.8-2.3c1-0.8,1.9-1.6,2.5-2.9c0.9-1.9,2.3-2.1,4-0.8c0.9,0.7,1.6,2.7,3,1.5c1.4-1.2-0.2-2.6-0.7-3.8
			c-0.4-1-1.1-2.1-1.8-2.9c-1.6-1.8-3.2-2.9-6-1.9c-2.8,1-2.5,2.6-1.8,4.7c0.4,1.1-0.1,2.3-0.8,3.2c-2.5,0.1-3.2-2.2-4.7-3.5
			c-5.4-4.6-8.8-4.3-12.1,1.9c-2.7,5-4.6,10.4-7,15.5c-1.9,4-4.1,7.9-8.3,10.2c-3.1,1.7-6,1.3-9.5,0.6c-8.5-1.7-15.6-5.6-21.7-11.3
			c-6.7-6.3-11.1-13.8-13.4-23c-2-8.2-3.1-16.4-2.5-24.7c0.2-2.5,0.1-3.4-2.6-3.4c-2.7,0-2.9-1.3-1.3-3.3c1.9,0.1,3.6-0.3,4.8-2
			c0.2,0,0.4,0,0.5-0.2c0.7,0.1,1.2,0,1.5-0.7c3.3-1.1,6.1-3.1,9.1-4.7c8.8-4.8,17.4-10,24.7-16.8c9.7-9,18.7-18.7,26.7-29.3
			c1.3-1.7,2.2-3.6,0.5-4.9c-1.7-1.2-3.4-0.3-4.8,1.6c-2.8,3.7-5.4,7.7-9,10.8c-0.5,0.5-0.9,1.6-1.7,1c-0.9-0.7-0.3-1.6,0.3-2.3
			c2.3-2.9,4.8-5.6,6.8-8.7c1.2-1.8,4.1-3.6,2.5-5.8c-2.6-3.6-0.9-3.4,1.9-3.1c1.1,0.1,1.7-0.6,2.5-1.2c1.3-1,3.6-0.7,3.2,1.3
			c-0.4,2.2,0.6,1.8,1.9,2.1c7.9,1.9,15.1-0.1,22.6-3c15.7-6,27.2-16.9,37.5-29.6c1.3-1.6,3.3-3.1,2.7-5.7c0-1.5,0.6-3.2-0.5-4.6
			c-0.1-0.6-0.3-1.1-0.4-1.7c-0.1-5.2-0.1-10.3-0.2-15.5c1.9-2.8,0.4-6.2,1.8-9.1c0.5-1.1-0.8-1.5-1.6-0.7c-0.7,0.7-1,1.7-1.5,2.6
			l0.1,0.2c-0.9-0.3-1,0.2-0.8,0.9l0.1-0.1c-0.8-0.2-0.7,0.5-0.9,0.9c-5.5,5.2-10.9,10.7-18.5,12.8c-1,0.3-1.9,1.3-2.8,0.3
			c-0.7-0.8,0.1-1.8,0.5-2.8c1.7-4.6,3.3-9.3,3.1-14.4c1.7-3.6,0.4-7.4,0.7-11.1c-1.5,0.2-2.1,1.1-2.6,1.9
			c-4.5,5.9-10.4,9.7-17.6,11.5c-1.8,0.4-2.3,0.5-1.6-1.9c1.4-5.2,4.3-9.8,5.1-15.2c2.1-4.8,2.9-9.6,1.2-14.7
			c-0.3-0.8-0.4-2.5-1.8-0.8c-4.2,7.9-8.7,15.4-16.5,20.4c-0.7-4,0.9-8.1-0.9-12c-0.7-3.8-1.9-7.3-5.7-9.7
			c-1.6,4.5-3.9,8.6-7.4,11.9c-2.1,2-3.8,4.6-6.7,5c-2.3,0.3-2.9-2.5-4.1-4c-0.2-0.2-0.4-0.3-0.6-0.5c-3.6-3.1-6.4-6.7-7.5-11.4
			c-0.7-3-2-3.9-5.2-3.1c-7.6,1.8-15.4,2.2-22.8-0.4c-4.3-1.5-8-4.6-12.9-3.7c-1.7,0.3-3.5,0.7-5.2,0.8c-8.3,0.4-15.7,3.3-22.6,7.7
			c-6.9,4.4-12.1,10.8-18,16.3c-9.6,9-21,13.8-33.6,16.5c-3.1,0.7-6.6,0-9.3,2.3c-0.8,0.1-1.2,0.5-1.1,1.3l0.2,0
			c-0.8-0.2-1,0.2-0.8,0.9l0.1-0.1c-0.7-0.2-1,0.2-0.8,0.9l0.1-0.1c-0.7-0.1-1,0.1-0.9,0.9l0.1-0.1c-0.7-0.1-1.1,0.1-0.9,0.9
			l0.1-0.1c-0.7-0.2-1.1,0.1-0.9,0.8l0.1-0.1c-0.8-0.2-1,0.1-0.8,0.9l0.1-0.1c-0.8-0.2-1,0.2-0.8,0.9l0.1-0.1
			c-0.7-0.1-1,0.1-0.9,0.9l0.1-0.1c-0.7-0.1-1,0.1-0.9,0.9l0.1-0.1c-0.7-0.1-1.1,0.1-0.9,0.9l0.1-0.1c-0.7-0.2-1.1,0.1-0.9,0.8
			l0.1-0.1c-0.8-0.2-1,0.2-0.8,0.9l0.1-0.1c-0.7-0.2-1,0.2-0.8,0.9l0.1-0.1c-0.7-0.1-1,0.1-0.9,0.9l0.1-0.1
			c-0.7-0.1-1.1,0.1-0.9,0.9l0.1-0.1c-0.7-0.2-1.1,0.1-0.9,0.9l0.1-0.1c-0.8-0.2-1,0.1-0.8,0.9l0.1-0.1c-0.8-0.2-1,0.2-0.8,0.9
			l0.1-0.1c-0.8-0.2-0.8,0.4-1,0.9c-0.4,0.3-0.9,0.6-1.1,1c-1,1.5-2.5,3.2-1.4,4.8c0.9,1.3,2.8,1.1,4.8,0.9
			c4.4-0.4,8.7-0.6,12.8-2.3c2.2,0.4,3.8-0.3,5.1-2.1l-0.1,0c1,0,2.1,0.6,2.8-0.8c4.1-0.6,7.4-3,11.1-4.6c0.8-0.3,1.8-1.8,2.6-0.5
			c0.8,1.3-0.2,2.3-1.3,3.1c-2.8,2.1-6.1,3-9.2,4.3c-9.8,4.2-20,6.8-30.8,6c-3.3-0.2-5.7,0.9-8,2.7c-2.2,1.8-4,4-6,6.1
			c-1.7,1.8-2.5,3.9-1.9,6.3c0,0.5-0.1,1.2,0.6,1.2c4.7,0,9.4,0.7,14.1-0.4c0.5-0.2,1-0.5,1.5-0.7c1.4,0.3,2.9,0.7,3.9-0.9
			c4.8-1.3,9.3-3.4,13.7-5.9c3.2-1.8,5.3-5.6,9-6.2c6.1-0.9,11.9-2.5,17.1-6.1c0.9-0.6,2.1-1.7,2.9-0.2c0.6,1.1-0.2,2.4-1.3,2.9
			c-2.8,1.4-5.6,2.7-8.7,3.7c-5.3,1.7-10.8,2.4-15.6,6.2c-6.5,5.1-14.4,7.8-22.7,9.3c-5.8,1.1-11.5,0.3-17.3,0.7
			c-1.5,0.1-3,0.1-4,0.9c-3.7,2.8-7.6,5.5-10,9.6c-1.1,1.9-3.6,3.9-2.4,6.1c1.3,2.4,4.2,0.6,6.3,0.6c5.3,0,10.6-0.4,13.9-5.5
			c0.5-0.1,0.9-0.3,1-0.9l0.3-0.1c4.1-0.1,8.3,0.6,12.4-0.4c0.5-0.2,1-0.5,1.5-0.7c1.6,0.2,3.4,1,4.7-0.8c2.1-0.5,4.2-0.8,6.3-1.5
			c5.1-1.5,9.9-3.6,14.3-6.6c1.1-0.8,2.2-1,3,0.2c1.1,1.6-0.8,2-1.5,2.5c-1.1,0.8-2.5,1.2-3.7,1.8c-6.5,3.3-13.2,5.9-20.4,7.2
			c-7.3,1.3-15,0.4-21.6,5.4c-4.7,3.5-10.8,3.2-16.5,3.1c-1.1,0-2.3-0.5-3.3,0.4c-4.6,4.4-9.6,8.1-15.8,9.8
			c-0.8,0.2-1.3,1.1-1.2,1.8c0.1,0.7,0.8,1.2,1.7,1.2c1.6,0,3.1,0.1,4.7,0.1c0.5,0.8,1.3,0.8,2,0.8c7.5,0,15,0,22.5,0
			c0.8,0,1.6,0,2-0.8c2.1-1,4.4-0.8,6.6-1c3.5,0.5,6.6-1,9.7-2.1c9.4-2.7,18.1-6.9,26.5-11.9c1.7-1,3.4-2.2,5.3-2.9
			c0.9-0.3,2.7-1,3.3,0.7c0.5,1.5-0.8,2.1-1.9,2.8c-8,5.1-16.6,8.9-25.6,11.9c-10.4,3.5-21.1,6-32.2,6c-0.8,0-1.5,0.3-2.2,0.5
			c-3.7,1-7.5,0.7-11.3,0.1c-4.8-0.9-9.9-1.9-14,1.6c-3.5,3.1-7.3,6-9.8,10.2c-1,1.1-1.5,2.7,0.3,2.7c3.4,0.1,7,1.1,10.4-0.7
			c7.8,0,15.3-1.4,22.9-3.1c10.1-2.3,20.1-5.3,30.1-8.2c2.3-0.7,3.9-2.8,6.5-2.9c0.6,0.2,1.3,0.3,1.7-0.4c0.2-0.1,0.4-0.2,0.5-0.4
			c2,0.4,3.4-0.7,4.7-2c0.8-0.4,1.6-0.7,2.5-1.1c0.8,0.2,1.6,0.4,2.1-0.6l0.2-0.1c3.5-1.1,7-2.5,10.7-0.1c0.7,0.5,2,0.1,3,0.1
			c2.3,1.4,5.2,1.4,7.6,1.5c10.3,0.5,20.7,0.8,30.8-0.9c3.7-0.6,7.3-0.4,11-1.1c4.5-0.9,8.6-3,13.1-3.5c1,0.1,2.1,0.6,2.9-0.6
			l0.2-0.1c0.8-0.1,1.7,0.4,2.3-0.5c0.5-0.2,1-0.4,1.5-0.6c0.9,0.5,1.4,0.1,1.8-0.7c0.7-0.3,1.3-0.8,2.1-1
			c11.1-2.6,21.1-7.6,30.5-13.9c0.5-0.4,0.9-0.8,1.4-1.2l0,0c1.6,0,2.2-1.1,2.9-2.3l-0.1,0.1c0.6,0,1.3,0.3,1.3-0.7l0,0.1
			c1,0.3,1.2-0.5,1.6-1.1c4.7-3.5,9.3-7,11.8-12.5c0.6,0.1,1.1,0.1,1.3-0.6c0,0,0,0,0,0C384.5,306.2,384.8,305.9,385,305.7
			L385,305.7z M370.3,60.7c0.6,0,0.8-0.3,0.8-0.8l0,0c2.2-0.1,3.5-1.6,4.9-3c0.2-0.2,0.4-0.4,0.6-0.6c2.9-0.8,5.7-1.9,7.9-4.1
			c12.2-5.2,24.3-4.9,36.5,0.1c4.1,1.7,7.9,4.6,12.1,0.3c0.4-0.4,1.5-0.2,2.3-0.2c1,0,2.1-0.1,2.3-1.1c0.9-4,4-7.1,4.4-11.2
			c1.3-4,1.3-8,0-12c-3.5-9.4-7.8-9.2-14.8-9.9c-1.5-0.2-2.2,1-2.1,1.5c0.5,2.2-1.2,3.8-1.1,5.8c-2.8,1.5-5.5,1.2-8-0.8
			c0-0.3-0.1-0.5-0.3-0.6c0.1-0.1,0.1-0.1,0.2-0.2c-0.1-0.1-0.3-0.2-0.4-0.3c0-3.9-1.6-7.4-3.1-10.9c-0.8-1.9-2.2-2.7-4.2-2.8
			c-1.2-1.3-2.1-1-3,0.9l0,0c-2.6,2.1-2.9,5.1-1,7.6c-0.2,3.8-0.3,7.6-2,11.2c-1.1,2.2-2.8,4.1-5.2,3.6c-2.7-0.5-4.7-3.5-4.5-5.6
			c0.5-4.1-0.8-7.7-1.4-11.5c-0.8-4.4-3-7.1-7.3-8.3c-3,0.6-3.8,5.8-1.3,8.7c0,0.5,0.1,0.9,0.1,1.4c-1.4,3.5,0.7,7.6-1.9,10.9
			c-1.5,0.8-2.6,1.4-4.7,0.3c-2.2-1.2-3.5-2.9-5-4.6c0.5-1.5-0.1-2.7-1.5-3.4l0,0c-0.5-1.5-0.7-3.3-2.7-3.8c-2.6-5-5.4-9.6-12.2-8.7
			c-0.5,0.1-1-0.2-1.5-0.3c-6.9-1.6-13,0.2-18.8,3.9c-1.4,0.9-1.6,1.7-1.5,3.2c0.5,5.4,1.7,6.7,7.9,7.6c2,2.5,4.6,0.8,7,0.9
			c0.8,0.7,1.7,0.8,2.7,1c2.8,0.8,5.8,1.4,7.6,4c0.5,0.7,1,1.4,1.5,2.1c0.1,0.5,0.2,0.9,0.3,1.4c-0.1,0.6-0.3,1.2-0.4,1.9l0,0
			c-0.5,0-0.7,0.3-0.7,0.8l0,0c-0.5,0-0.7,0.3-0.7,0.8l0,0c-2.7,1.8-5.9,0.5-8.7,1.7c-0.3-0.3-0.5-0.6-0.8-0.9
			c-5.1-2.5-10.5-1.4-15.8-1.5c-1.1,0-2.7,0.4-3.3,2c-4.5,1.6-7.3,7.5-5.5,11.6c0,0.7-0.2,1.4,0.7,1.7l0,0c0.1,0.9,0,2,1.5,1.6l0,0
			c-0.2,0.7,0,1,0.8,0.8l0,0c-0.4,0.9,0.2,1.2,0.9,1.5l0,0c0,0.5,0.2,0.8,0.7,0.8l0,0c0.2,0.9,0.8,1.2,1.5,1.4
			c1.6,0.9,3.4,1.3,5.2,1.3c2.7,2.5,5.8,0.8,8.8,0.8c4.7,0.5,8.8,2.8,13.2,4.3c0.9,0.3,1.6,0.8,1.7,1.8c0,0.9-0.1,1.9,1.4,1.4l0,0
			c-0.4,1.5,0.7,1.3,1.5,1.3c0.9,0,2.2,0.3,1.9-1.4l0,0c1,0.5,1.2-0.2,1.5-0.9l0,0c0.5,0,0.7-0.3,0.8-0.7l0,0c0.5,0,0.8-0.2,0.8-0.7
			l0,0c0.5,0,0.8-0.3,0.7-0.8l0,0c1-0.1,2.1-0.2,2.3-1.5l0,0C370.1,61.5,370.2,61.2,370.3,60.7L370.3,60.7z M228.7,165.6
			L228.7,165.6c-0.1-1.1-0.1-2.2-0.2-3.3c-0.1-2,1.1-4.2-0.8-6.1c-0.3-2.8-0.6-5.5-1.1-8.3c-1.9-10.9-5-21.4-9.9-31.2
			c-6.2-12.5-16.4-21.4-27.9-28.7c-8.7-5.6-18.1-10.1-26.9-15.5c-11.5-7-22.7-14.5-32.8-23.6c-10.1-9.1-19.3-18.8-27.3-29.9
			c-2.2-3.1-3.9-6.7-7.2-9.3c-1,4.7-0.4,9.2-1.6,12.9c-1.9,5.8,0.9,10.9,0.4,16.3c-0.2,2,1.1,4.1,1.8,6.1c1.8,5.2,4.8,9.7,8.4,13.8
			c7.1,8.2,15.5,14.6,25.5,18.9c5.5,2.4,11.5,3.9,16.7,6.9c8.3,4.7,16.5,9.6,24,15.9c9.1,7.7,17,16.2,22.7,26.6
			c5.3,9.5,8.7,19.7,10.5,30.5c1.7,10.3,3.5,20.6,3.5,31.1c0,2.2,0.3,4.5,0.5,6.7c2.5-4.7,3.4-9.9,3.4-14.8
			c0.1-9.2,0.9-18.4-0.7-27.7c-1.6-9.3-4.3-18.1-8.4-26.4c-4.6-9.3-11.2-17.3-18.3-24.9c-0.8-0.9-2.9-1.7-1.1-3.3
			c1.4-1.3,2.6,0.2,3.4,1c4.6,4.5,9.3,8.8,12.9,14.2c4.6,7,8.6,14.3,12,22c2.6,5.8,4.3,12,4.5,18.2c0.3,8.6,0.5,17.3-0.5,26
			c-1.2,10.1-2.2,20.2-3.9,30.3c-1,5.7-1.8,11.4-2.5,17.1c-0.4,2.9-1.2,5.7-1.3,8.6c-0.1,1.7,0.6,3.2,2.4,3.4
			c1.5,0.1,2.4-0.9,2.8-2.6c0.7-2.9,1.9-5.8,2.8-8.7c2.8-9.1,5.1-18.3,8.7-27.1c3-7.4,5.6-14.9,5.6-23.1c1.9-3.6,0.5-7.4,0.7-11.2
			C229.4,166.2,229.3,165.7,228.7,165.6z M147.2,284.5c-0.3-0.6-0.7-1.1-1.3-0.6c-0.8,0.7,0.3,0.9,0.6,1.3
			c5.1,4.4,10.4,8.8,14.7,14.3c0.5-2.7,1.2-5.6-0.7-7.7C156.9,287.9,152.6,285.2,147.2,284.5z M187.3,146.4c0.3,0.5,0.5,1.3,1.3,0.7
			c0.7-0.6,0-1-0.5-1.4c-1.5-5-4.7-9.1-8-12.9c-9.9-11.2-22.9-15.9-37.5-16.6c-2.9-0.1-5.8,0.8-8.6,0.9c-9,0.5-17.1,3.6-24.9,7.5
			c-11,5.6-20.1,13.6-26.9,24c-4.2,6.4-6.3,13.5-7.8,20.9c-0.2,1.1-0.2,2.6,0.8,3.2c1.4,0.8,2-0.8,2.7-1.6c4.9-5.3,10.4-9.9,16.3-14
			c11.5-8,24.2-13.6,38.2-15.1c11.4-1.2,23,0,33.2,5.7c17.3,9.7,27.4,24.2,26.8,44.8c0,1.2,0.1,2.3,0.2,3.5c0.1,0.6,0,1.3,1,1.4
			c0.9,0,1-0.7,1.1-1.3c0.2-0.7,0.6-1.4,0.8-2.1c1.7-10.5,1.6-20.8-2.5-31c-7-17.3-18.1-29.4-37.3-32.6c-1-0.2-2.3-0.1-2.1-1.6
			c0.2-1.2,1.4-1.3,2.5-1.3c4.1,0,7.5,1.9,11.1,3.4C175,134.4,181.1,140.5,187.3,146.4z M465.9,78.5c0.8,0.1,1.5,0.1,2.3,0.2
			c3.1,1.7,6.1,3.5,9.4,5.3c0.4-4-0.9-7.1-3.5-9.6c-8-7.6-17.4-8.2-27.6-5.8c-2.4,0.6-5.1,2.6-7.6,0.8c-2.3-1.7,0-4,0.1-6
			c0.1-2.5-0.3-4.5-2.8-5.8c-2.3-1.3-4.2-0.4-5.3,1.2c-1.7,2.2-3.1,1.5-5,0.5c-7.5-4.1-15.4-6.6-24.1-6.3
			c-6.1,0.2-11.8,1.7-17.5,3.8c-9.8,3.7-16.7,10.2-21.9,19.1c-4.7,8.1-5.1,17.1-5.8,26.1c-0.7,8.8,0.3,17.6-0.7,26.5
			c-1.1,10.4-1.1,21-1.9,31.5c-0.4,4.9-1,9.8-1.7,14.7c-0.1,0.7-0.4,1.6,0.5,2c0.7,0.4,1.2-0.3,1.6-0.7c4.8-3.9,7.9-9,10.1-14.7
			c2.4-6.1,3.3-12.7,5.1-18.9c0.4-1.2,0-3.8,1.9-3.7c1.7,0.1,0.9,2.9,2.2,4c0.2,0.1-0.1,0.7-0.1,1.1c0,14.8,0.3,29.6-0.2,44.3
			c-0.2,5.1-1.3,10.4-3.8,15.2c-3.5,6.5-9.1,11.2-14.5,15.8c-2.9,2.4-1.7,3.1,0.5,3.9c6,2.1,12.3,2.5,18.5,1.8
			c3.8-0.5,7.4-1.9,9.7-5.4c1.5-2.3,2.9-4.8,4.5-7c0.8-1.1,1.4-3.2,3.4-2c1.9,1.2,0.4,2.5-0.2,3.6c-1.2,2.4-2.6,4.7-3.8,7
			c-1.4,2.7-1.2,5.8-0.3,8.4c1.5,4.2,4.5,7.7,7.7,10.9c1.5,1.5,2.8,1.4,4.1,0.2c1.2-1,2.1-2.1,3-3.4c4.1-6.3,4-13.4,4.6-20.5
			c0.1-1.8-0.1-3.9,2.6-3.8c2.5,0.1,1.9,2.2,2.1,3.8c0.6,3.9,0.2,8.2,2.9,11.5c3,3.8,6.5,7.2,5.6,13.1c7.3-6,8.6-14.1,10.5-21.9
			c0.2-0.9-0.7-2.3,0.6-2.7c1.3-0.4,1.9,1.1,2.7,1.9c0.5,0.5,0.8,1.3,1.2,1.9c3.7,5.7,4,12.5,5.8,18.8c0.3,0.9-0.2,1.9-0.5,2.9
			c-1.3,4.2-1.3,8.7-3.8,13.3c6.3-2.9,8.3-5.7,11-11.8c2.5-5.7,1-11.8,2.8-17.4c0.3-0.9-0.5-2.3,1.2-2.3c1.6-0.1,2,1,2.5,2.4
			c1.5,4.7,1,9.4,0.9,14.1c-0.2,6.5,0.6,13-0.7,19.6c-0.6,3.2-1.2,6.7-1.2,10.1c0,1.8,0.7,2.7,2.5,1.1c6-5.5,11.4-11.5,14.3-19.2
			c2.4-6.3,2.8-12.8,2.5-19.4c-0.1-1.3-0.6-2.4,0.6-3.4c0.4-0.3,1-0.8,1.3-0.2c0.5,1.1,1.8,1.7,1.5,3.4c-0.3,1.7-0.4,3.7,0,5.4
			c2.4,9.2,0.8,18.3-0.2,27.4c-0.7,6.6-2.3,13.1-0.3,20.7c11.9-16.7,15.6-34,9-53.2c4.2,2.6,3.6,7.5,6.6,10.7
			c0.5-9.2-0.9-17.8-2.8-26.1c-2.6-11.5-6.6-22.6-12-33.1c-6.2-12.1-13.8-23.3-22.3-33.8c-0.6-0.8-1.6-2.1-2.4,0.2
			c-3.5,9.5-16.2,11.7-24.3,5.6c-3.6-2.7-5.5-7.3-4.6-11.3c0.7-3.3-0.8-3.5-2.5-4.2c-3.3-1.3-5.4-4-5.9-7c-0.7-4-1.5-8.1,0.5-12.3
			c0.9-1.8,0.9-4.2,2.7-5.3c2.7-1.6,1.4-2.9,0.1-4.4c-1.7-2-4.2-1.9-6.1-1.3c-6.4,2.1-11-0.4-15.2-5c-0.8-0.9-1.8-1.4-0.5-2.7
			c1-1,1.4-0.5,2.5,0.1c2.9,1.7,5.7,3.7,9.3,4c6,0.5,9.2-4.1,13.5-6.9c0.4-0.3,0.2-1.9,1.4-0.7c0.7,0.7,1.3,1.4,0.1,2.1
			c-1.5,0.9-1.8,2.7-3.1,3.9c-1.1,1-0.9,1.9,0.1,2.9c1.1,1.2,2.3,1.9,3.7,0.8c1.3-1,2.3-2.4,3.2-3.8c2.7-3.9,5.8-7.6,11.2-6
			c7.2,2.2,12.7-0.4,17.5-5.2c2.7-2.7,5.9-4.8,8.8-7.3c0.9-0.7,2.9-0.3,2.6-2.2c-0.3-1.5-1.9-1.5-3-2.2c-0.7-0.4-1.8-0.3-2.6-0.3
			c-6,0-12-0.4-17.9,1.6c-1,0.4-2.6,0.4-3.1-0.8c-0.5-1.3,1.1-1.7,1.8-2.5c1.4-1.5,3.7-0.5,5.1-2c5.6-1.1,11.4-1,17.1-1.2
			C464.4,77.8,464.8,79,465.9,78.5z M318.8,492.4c2.7-4,6.6-6.1,11-7.3c1.9-0.5,3.3-1.4,4.4-2.8c1.6-2,3.9-3.1,6.1-3.9
			c5.1-1.9,10.3-3.3,15.5-4.9c1-0.3,2.8,0.7,2.7-1.1c-0.1-1.2-0.6-2.8-2.1-3.5c-1.5-0.7-3-1.3-4.8-1.3c-4.9,0.1-9.9-0.2-14.8,0.1
			c-4.1,0.3-6.4-2.1-8.8-4.7c-1.4-1.5-0.2-2.4,1.1-2.8c1.1-0.3,2.3-0.1,3.5-0.1c4.2,0,6.3-2.4,5.1-6.5c-1.7-5.4-4.1-10.7-8.3-14.6
			c-7.7-7.3-12.3-16.4-15.9-26c-0.9-2.4-1.8-3.3-3.9-3c-6.2,0.8-11.3-1.5-15.6-5.7c-1.1-1-1.7-1-2.9,0c-7.1,6.1-15.1,10.6-24.1,13.3
			c-1.4,0.4-3.1,0.9-3.6,2.6c-2,6.3-4.1,12.6-5.7,19c-1.5,5.9-2.1,11.9-3,17.9c-1,7.1-1.8,14.1-1.8,21.3c0,1.2-0.2,2.3,1.6,2.4
			c6.4,0.4,12.8-0.7,19.1-1.4c4.2-0.5,8.4-1.8,12.6-2.2c6-0.6,11.3,1.2,15.5,5.7c1.3,1.4,2.4,3.5,4.7,3.7
			C311.2,487,315.2,488.9,318.8,492.4z M264.4,127.2c0.4-5.2,0.4-12-1.1-18.4c-2.8-11.8-6.4-23.3-11.8-34.3
			c-8.7-18-21.2-31.8-40-39.5c-10-4.1-20.5-6.1-31.3-6.5c-5.6-0.2-11.2,0.2-16.8,0.7c-8.6,0.7-17.2,1.3-25.6,2.9
			c-4.3,0.8-8.4,2.2-12.6,3.5c-2.2,0.7-3,1.7-0.9,3.6c3.7,3.4,6.7,7.4,11,10.2c1.2,0.7,1.8,1.1,3.4,0.5c12.1-5,24.5-7.8,37.8-6.4
			c10.1,1.1,19.4,3.8,28.2,8.6c10.2,5.5,18.2,13.3,24.5,22.9c9.2,14,13.5,29.7,14.9,46.1c0.9,10.5,0,21.1-2,31.3
			c-1.8,8.8-3.3,17.6-6.2,26.3c-3.6,10.9-6.9,22-11.2,32.7c-1.6,4-5,8-0.5,12.8c2,2.1,2.7,1.7,4.4,0.2c4.7-4.4,8.7-9.4,12.1-14.8
			c7.6-11.7,13.2-24.2,17.1-37.8C262,157.6,264.6,143.4,264.4,127.2z M192.7,246.6c0.2-3-0.7-5.8-1.1-8.7
			c-0.9-6.1-1.8-12.2-3.8-18.2c-4.5-13.3-10.3-25.9-20.6-35.7c-6.2-5.9-13.6-10.2-22-11c-9.8-0.9-19.8-0.3-29.3,3.2
			c-10.5,3.8-20.8,8-29.2,15.5c-6.4,5.7-10.5,12.8-10.4,21.8c0,0.7-0.3,1.6,0.7,2c0.7,0.2,1.2-0.2,1.7-0.7c2.6-2.7,6-4.2,9.1-6.1
			c10.2-6.1,21.2-9.6,33.1-10c3.2-0.1,6.3,0.6,9.4,0.9c9.4,1.1,17.8,4.7,24.9,10.6c11.8,9.8,20,22.5,26.8,36c1.2,2.4,2.8,4,5.3,4.3
			c2,0.2,3.1,3.6,4.7,2.1C193.2,251.5,192.5,248.6,192.7,246.6z M72.5,255.2c1.6-0.8,2.2-1.7,2.9-2.6c5.6-7.4,11.4-14.6,20.1-19
			c9.4-4.8,18.8-7.1,29.6-6c8.5,0.9,15.9,4,22.7,8.1c7,4.2,13.7,9.3,18.5,16.4c2.9,4.3,6.9,7.2,11.7,9.2c1,0.4,2.5,1,2.1-0.4
			c-1.4-4.6-0.8-9.7-3.1-14c-5.5-10-11.6-19.6-19.3-28c-9.9-10.8-22.2-16.1-36.7-15.7c-3.8,0.1-7.6,1.2-11.4,1.8
			c-9.6,1.6-18.3,4.9-25.4,11.6C73.1,227,69.5,240,72.5,255.2z M187.5,199.3c0.2-4.6,0.2-9.1-0.5-13.6c-1.6-10.1-6-18.6-13.1-25.7
			c-10-10.1-23-13.4-36.6-14.3c-6.3-0.4-12.4,1.3-18.4,2.9c-10.5,2.9-19.9,7.9-27.9,15.2c-8.4,7.6-14,16.9-16.5,28
			c-0.1,0.7-0.3,1.3,0.3,1.8c0.8,0.6,1.7,0.5,2.5-0.2c3.4-2.8,7.3-4.9,11.1-7.3c9.9-6.4,20-12.4,31.4-15.1c8-1.9,15.9-4.2,24.7-2.7
			c9.5,1.6,17.2,5.5,23.8,12.2c3.3,3.3,6.7,6.6,9.8,10.2c-1.8-13.6-12.1-21.1-20.7-29.8C174.1,168.2,180.8,183.7,187.5,199.3z
			 M75.8,278.9c1.9-2,2.6-4,3.5-6c2.4-5.3,6.3-9.6,10.9-12.8c11.5-7.9,24.3-8.3,37.3-4.3c12.9,3.9,23.2,11.8,32.4,21.3
			c1.9,2,3.4,4.4,6.8,3.9c0.6-0.1,1.3,1.1,2,0.2c0.5-0.6-0.2-1.1-0.4-1.7c-1.8-5.7-2.6-11.5-2-17.4c0.2-2.2-0.4-3.8-2-5.5
			c-6-6-12.2-11.8-19.2-16.4c-6.4-4.2-13.2-8.2-21.2-8.6c-9.8-0.6-18.9,0.7-27.7,6.2C83,246.1,72.9,261.9,75.8,278.9z M441,116.9
			c2.3,6.5,4.8,12.9,7,19.5c1.8,5.6,6.1,10,10.1,10.6c5.9,0.9,8.7-3.1,11.4-6.9c2.3-3.1,1.1-9.3-1.8-12.6c-3.5-4.1-8.1-6.5-12.6-9.2
			c-4.8-3-9.8-5.7-13.3-10.3c-3.2-4.2-8.1-4.4-11.3-0.1c-0.7,0.9-1.6,1.7-2.4,2.5c-3.9,3.3-7.3,7.1-9.6,11.7
			c-1.3,2.6-2.3,5.7-1.5,8.4c1.2,4.2,4.3,7.3,9.7,5.1c1.2-0.5,2.7-2,3.9-0.7c1.2,1.4-0.5,2.5-1.1,3.7c-0.6,1.2-0.9,2.7-1.6,3.9
			c-2.4,4.6-2.3,7.1,0.6,10.4c3.2,3.6,6.7,4.3,11.8,2.5c4.7-1.6,6.9-4.4,7.1-8.4c0.4-5.8-1.2-11.1-3-16.5
			C443,126.1,439.6,122.1,441,116.9z M109.4,354.7c-4.8-4.1-8.4-9-10.9-14.6c-1.8-3.9-2.7-7.8-1.6-12.4
			c2.6-11.2,14.3-16.2,23.9-16.7c9-0.4,18,0.3,26.8,2.7c7,1.9,7.1,1.5,7.1-6.1c0-0.9,0.2-1.9,0-2.7c-0.9-2.9-0.2-7-3.7-8.3
			c-7-2.6-14.4-4.1-21.9-4.8c-3.6-0.3-7.2,0.4-10.9,0.8c-11.7,1.6-21.4,5.8-27.7,16.5c-4.9,8.2-6.5,17.1-4.3,26
			C89,347,98.3,352.3,109.4,354.7z M176.5,66.1c-3.6,0.2-7.2-0.3-10.6,1.2c-0.6,0.3-1.7-0.1-1.7,1.1c0,0.9,0.9,0.7,1.4,1
			c12,6.2,23.8,12.7,34.6,20.8c6.8,5.1,12.8,10.8,17.6,17.8c4.9,7,8.3,14.7,10.7,22.9c2.8,9.4,3.5,19.1,5.5,28.6
			c0.2,0.8-0.5,2,0.8,2.2c1.4,0.2,1-1.3,1.2-2c3.7-12.3,3.6-24.8,0.6-37c-2.9-11.9-7.5-23.1-15.3-33C209.8,75,195.3,66.4,176.5,66.1
			z M236.9,105.7c-1.6-6.9-3.4-13.5-6.4-19.8c-5.1-10.6-12.5-19.2-22.1-26c-10.9-7.7-23-11.8-36.3-12.5c-8.2-0.5-16.2,0.9-24.1,2.9
			c-2,0.5-4.9,1.5-5.3,2.9c-0.5,1.7,2.1,3.1,4,4c0.4,0.2,0.7,0.8,1.2,1c4.3,2.6,7.9,6.4,13.7,5.7c1.9-0.2,3.4-1.4,5.5-1.2
			c6.6,0.7,13.2-0.2,19.9,0.9c11.4,1.8,21,6.5,29.5,14.1c7.8,7,13.3,15.7,17.9,25.1C234.8,103.7,234.7,105.6,236.9,105.7z
			 M143.8,89.8c-7.4-4.2-14.9-6.3-21.4-10.2c-0.6-0.4-1.2-0.1-1.8,0.2c-3,1.6-6.3,2.8-9.1,4.6c-12,7.8-22,17.6-29.8,29.7
			c-1.8,2.8-1.4,3.9,2,4.1c3.3,0.2,6.6-0.4,9.9-0.7c8.3-0.8,15.5-4.1,21.2-9.9c5.4-5.4,11-10,17.9-13.3
			C136.1,92.7,139.7,91.6,143.8,89.8z M113.2,259c-11.9-0.9-18.3,1.9-26.4,10.7c-5.1,5.5-9,12.1-6.6,20.2c0.5,1.7,0.2,4.6,2.5,4.7
			c2,0.1,1.7-2.6,2.2-4.1c5.7-17.8,22.1-26.5,40.4-20.2c5.3,1.9,10,5.2,15.6,6.5c6.3,1.4,11.9,4.7,17.2,8.4c0.7,0.5,1.8,1.6,2.9,0.2
			c1-1.3,0-1.9-0.7-2.6C147.5,269.1,133.5,257.9,113.2,259z M212.8,303.6c1.2-4.1-2.4-5-4.9-6.5c-9.9-5.7-18.6-12.7-23.4-23.4
			c-2-4.5-5.7-6.8-9.6-9.2c-1.6-1-2.8-1.2-3.6,1.3c-1.2,4-1.4,8-0.3,11.8c2,7.3,7.1,12.8,12.3,17.9c6,5.8,13,10.2,20.2,14.5
			c3.6,2.2,5.6,0,8-0.8C212.8,308.7,213.8,306,212.8,303.6z M215.9,242.2c-0.6,7.5,3,12.3,5.8,17.3c3.5,6.1,9.9,9.7,13.6,15.7
			c1,1.6,2.1,1.4,3.8,0.3c3.9-2.6,5.1-7.5,9.3-9.6c1.4-0.7,0.6-1.9-0.3-2.9c-4.1-4.4-8-9-12.3-13.4c-5.4-5.5-10-11.6-14.7-17.6
			c-0.7-0.9-0.7-2.8-2.4-2.3c-1.3,0.3-1.5,2-1.8,3.1C216.1,236.3,215.2,239.8,215.9,242.2z M201.1,242.3c-4.1-0.9-5.2,0.5-5.1,3.3
			c0.2,8.7,3.9,15.9,9.3,22.4c3.4,4.1,7.8,7.3,11.2,11.4c3.1,3.8,7,6.2,10.6,9.3c0.8,0.7,1.9,1.4,2.4-0.2c0.8-2.4,2.8-4,3.8-6.2
			c0.8-1.6,0.7-2.8-0.6-4c-5.4-4.4-9.5-10-13.6-15.5c-4.1-5.5-8.3-11-9.1-18.1c-0.1-1.2-0.7-1.9-1.9-2
			C205.2,242.6,202.5,243,201.1,242.3z M164,293.1c0.1,4.7,2.1,9,5.5,12.7c6.8,7.5,14.4,14.1,21.9,20.8c1.1,1,1.9,1.4,2.7,0
			c2.2-4.1,5.4-7.4,8-11.1c0.5-0.6,1.3-1.3,0.2-1.8c-2.7-1.1-4.4-3.5-6.8-4.9c-3.6-2.1-7-4.4-10.3-7c-5.3-4.1-10.3-8.6-13.9-14.6
			c-1.7-3-5.2-2.2-6.8,1C163.8,289.7,164.3,291.2,164,293.1z M182.5,257.7c1.2,7.8,4.8,15.1,9.8,21.8c6.1,8.2,13.8,14.5,22.4,19.9
			c1.6,1,2.3,0.9,3.6-0.3c5.9-5.6,6-5.5,0.1-11.2c-0.4-0.4-0.8-0.6-1.2-1c-5.1-4.8-10.2-9.8-14.1-15.6c-4.3-6.3-8.9-12.2-15.1-16.7
			c-1.4-1.1-2.7-2.2-4.4-1.4C182,254,183.1,255.8,182.5,257.7z M140.1,287.1c-8.8-9.7-18.8-15.1-32.3-12.3
			c-11.3,2.4-20.1,13.4-16.8,25.2c5.7-7.9,13.9-10.7,22.5-12.5C122.3,285.8,131.2,286,140.1,287.1z M166.1,316.3
			c-1.5,0.4-2.9,0.3-4.3-0.6c-0.6-0.4-1.6-0.3-2.2,0.3c-0.5,0.5,0,1.2,0.3,1.8c4.4,9.2,12,15.1,21.2,18.9c3.4,1.4,6.7,0,8.9-3.7
			c1.7-2.9-1.6-4.1-2.9-5.5c-4.9-5.2-10-10.3-15.3-15c-3.7-3.3-7.9-6-11.9-9c-0.6-0.4-1.5-0.5-2,0.4c-1.4,2.5-0.7,4.9,0.2,7.3
			c0.7,1.9,1.7,2.9,4,2.8C163.7,314,165.5,314.2,166.1,316.3z M76.5,87.6c1.7-0.8,2.8-1.2,3.7-1.9c7.3-5.3,14.4-10.8,21.7-15.9
			c2.1-1.4,2.1-2.5,0.9-4.2c-1.9-2.6-3.8-5.1-5.6-7.8c-2.5-3.7-3.3-3.9-6.4-0.7C82.7,65.4,78.9,75.8,76.5,87.6z M202.9,197.4
			c0-0.7,0.1-1.1,0-1.5c-0.2-0.9,0.6-2.4-0.6-2.8c-1.7-0.6-1.7,1.3-2.2,2.1c-2.1,4.2-3.9,8.5-6.2,12.6c-1.3,2.2-2.1,4.5-1.6,6.9
			c1.3,7.1,3,14.2,4,21.3c0.3,1.9,3,1.7,4.8,2.1c0.8,0.2,2.1,0.1,1.9-1.2c-0.7-3,1.1-5.6,1-8.5C203.3,218,204.8,207.5,202.9,197.4z
			 M410.6,459.1c0.8,0.1,1.4,0.3,1.8,0.1c7.1-3.5,12.9-8.7,17.9-14.8c0.7-0.9,2.7-2.6,0.2-4.1c-2.3-1.4-3.3,0.7-3.8,1.7
			c-2.1,4-6,5.3-9.7,6.8c-0.9,0.4-1.4,0.5-1.7,1.6C414.4,453.5,412.7,456.3,410.6,459.1z M390.8,476.6c-2.9-0.8-5.4-1.7-8-2.2
			c-2.6-0.5-5.1-1.3-7.4-2.6c-0.8-0.5-2-0.7-2.3,0.3c-0.4,1.2-0.9,2.8,0.3,3.9C375.9,478.2,386.8,479.5,390.8,476.6z M321.7,497.3
			c0.2,0.7-0.4,1.9,0.8,2.5c1.3,0.6,2.1-0.4,3-1.2c0.9-0.8,1.5-2.2,2.9-2.4c1.4-0.2,3.4-0.6,3.3-1.7c-0.1-1.9-1.3-3.7-2.1-5.5
			c-0.2-0.5-0.7-0.4-1.3-0.2C325.8,489.5,321.7,494.4,321.7,497.3z M263.6,554.4c1.7-3.2,0.5-5.5,0.9-7.7c0.3-1.9-0.3-3.6-1.5-5
			c-1.8-2.1-4.1-1.7-6.2-0.4c-2.6,1.7,0.1,2.6,0.7,3.5C259.4,547.8,261.9,550.3,263.6,554.4z M307.4,496c0,2.8,2.6,5.5,5.4,5.5
			c1.2,0,1.4-1.2,1.4-2.2c-0.2-3.2-2.9-7-5-6.9C306.4,492.5,307.8,494.8,307.4,496z M173.1,502.6c1.5-1.2,1.8-2.8,2.7-3.9
			c2.1-2.4,1-4.6-0.1-6.9c-0.8-1.6-1.4-1.8-2.4,0.1C171.3,495.4,170.6,498.8,173.1,502.6z M259,515.5c-3.5-5.1-8.5-8.2-13.1-11.6
			c-0.6-0.5-1.9-0.7-2.3,0.4c-0.4,1.2,0.2,2.1,1.3,2.9c2.9,1.8,5.5,4.2,8.5,5.5C255.2,513.6,256,516.5,259,515.5z M443.1,465.9
			c2.2,1.2,3.6,2.4,4.5,4.3c0.5,1.2,1.4,1.5,2.2-0.3c0.9-2.1,0.7-4.2-0.8-5.6C447,462.5,445.4,464.6,443.1,465.9z M310.4,527.3
			c-0.7-1.5-1.1-2.8-1.8-4c-0.4-0.8-0.9-2.2-2.2-1.5c-1,0.5-1.7,2-1.4,2.9c0.7,2.1,3.1,2.4,4.7,3.5
			C310.2,528.3,310.5,527.6,310.4,527.3z"/>
		<path class="st2" d="M433.4,247.2c-0.8,5.4-3.7,10-5.1,15.2c-0.6,2.4-0.2,2.3,1.6,1.9c7.2-1.7,13.1-5.6,17.6-11.5
			c1.9-0.1,1.9,1.2,1.9,2.6c0,2.2,0,4.4,0,6.6c0.2,5.1-1.4,9.7-3.1,14.4c-0.4,1-1.1,2-0.5,2.8c0.8,1,1.8-0.1,2.8-0.3
			c7.7-2.2,13-7.6,18.5-12.8c0.3-0.3,0.6-0.6,0.9-0.9c0,0-0.1,0.1-0.1,0.1c0.5-0.1,0.8-0.4,0.8-0.9c0,0-0.1-0.2-0.1-0.2
			c2.2,1.9,0.6,4.6,1.3,6.8c-0.2,0.7-0.5,1.5-0.5,2.2c-0.2,4.6-1.6,9.3,0.8,13.7c0.1,0.6,0.3,1.1,0.4,1.7c-1.3,1.7-1.2,3.2,0.5,4.6
			c0.6,2.6-1.4,4.1-2.7,5.7c-10.3,12.6-21.9,23.5-37.5,29.6c-7.5,2.9-14.6,4.8-22.6,3c-1.2-0.3-2.3,0.1-1.9-2.1
			c0.4-2-1.9-2.3-3.2-1.3c-0.8,0.6-1.4,1.4-2.5,1.2c-2.8-0.3-4.5-0.5-1.9,3.1c1.6,2.2-1.4,4.1-2.5,5.8c-2,3.1-4.5,5.8-6.8,8.7
			c-0.6,0.8-1.2,1.7-0.3,2.3c0.9,0.6,1.2-0.5,1.7-1c3.5-3.1,6.1-7.1,9-10.8c1.4-1.9,3.2-2.8,4.8-1.6c1.8,1.3,0.8,3.3-0.5,4.9
			c-8,10.6-17,20.3-26.7,29.3c-7.4,6.8-15.9,12-24.7,16.8c-3,1.6-5.8,3.6-9.1,4.7c-0.6-0.1-1.2,0.1-1.5,0.7
			c-0.1,0.2-0.3,0.2-0.5,0.2c-1.8,0.3-3.7,0.1-4.8,2c-1.6,1.9-1.4,3.3,1.3,3.3c2.7,0,2.8,0.8,2.6,3.4c-0.7,8.3,0.5,16.5,2.5,24.7
			c2.2,9.2,6.7,16.7,13.4,23c6.1,5.8,13.2,9.7,21.7,11.3c3.5,0.7,6.4,1.1,9.5-0.6c4.2-2.2,6.4-6.1,8.3-10.2c2.4-5.1,4.3-10.5,7-15.5
			c3.3-6.2,6.7-6.5,12.1-1.9c1.5,1.2,2.2,3.6,4.7,3.5c1.1,0.6,1.8,1.4,1.6,2.8c-0.8,1.5-2.5,2.1-3.8,2.3c-4.8,0.7-6.7,4.3-7.7,8
			c-2.2,7.6-7.5,12.2-13.7,16.3c-1.1,0.7-3.2,0.8-2.6,2.7c0.5,1.5,2.2,0.7,3.4,0.7c3.9,0.3,7.6-1,10.8-2.7c6.8-3.8,13.6-7.8,20-12.3
			c2.1-1.5,3.3-4.4,5.4-6.3c3.2-2.9,8.9-4.7,12.9,0.1c0,4.5,0.1,9,0.1,13.5c-1.9,1-4.3,1.2-5.8,3.2c-1.8,2.5-3.2,1.2-3.4-1.1
			c-0.3-2.3-1.4-4.1-2-6.5c-1.4,1.5-0.8,3-0.9,4.3c-0.1,5.5-3,8.2-8.4,6.7c-3.8-1-7-0.5-10.1,1.5c-2.1,1.4-4.6,1.3-6.9,1.8
			c-9.1,2.2-18,1.6-26.9-0.9c-2.9-0.8-5.3-2.4-7.8-3.9c-2.9-1.7-4.5-1-5,2.3c-0.4,2.4-2.1,4.3-2.1,6.9c0,2.8,0.8,4.8,3.6,5.6
			c6.9,2,13.6,2.7,20.9,1.2c5.2-1.1,10.5-2,15.7-2.7c1.4-0.2,3.1,0.8,4.6,1.5c1.2,0.6,2.3,1.9,1.7,3.1c-1,1.8-2.1,3.8-4.7,3.9
			c-2.1,0.1-4.5-0.4-6.3,1.1c-0.8,0.6-2.1,1.2-1.6,2.7c0.5,1.5,1.5,1.6,2.9,1.7c2.9,0.3,5.3-1,7.5-2.4c2.4-1.5,3.2-0.4,3.8,1.6
			c1.8,5.6-1.9,15.8-6.7,18.9c-1.7,1.1-2.4-0.1-2.3-1.1c0.2-2.2-1.2-3.8-1.2-6.1c0-4.4-3.5-6.5-8.8-6.1c-3.7,0-7.4,0-11.1,0
			c-3.4-0.4-5.2-3.2-7.4-5.2c-1.2-1.1-2.3-2.4-3.5-3.6c-5.2-4.9-6.5-4.9-12.2-0.5c-5.7,4.4-12.4,6.7-19.6,7.4
			c-3.3,0.3-7.8-3.7-8.4-6.8c-0.5-2.5,1.5-3.5,3.2-4.3c5.1-2.8,10.5-4.9,16.3-5.8c1.9-0.3,3.6-1.1,5.3-1.8c4.6-2,5.3-6.5,1.7-10
			c-4.3-4.2-9.6-3.5-14.8-2.7c-0.7,0.1-1.5,0.6-2.2,0.4c-1.6-0.4-3.9,1.2-4.9-0.8c-1-2.1,1.9-1.9,2.6-3.1c2.6-4.5,1.4-9-0.5-13.2
			c-2.9-6.6-7.6-12-12.2-17.4c-4.6-5.4-9.3-10.7-10.7-18.1c-0.4-2.3,0.2-3.9,1.4-5.5c0.7-0.9,2.2-1.7,1.3-2.7
			c-0.9-1-2.6-0.8-3.9,0.1c-2,1.4-4.2,2.1-6.6,2.7c-3.8,0.9-12.3-3.6-13.3-7.3c-0.3-1.2,0.3-1.7,0.9-2.3c2.6-2.7,5.2-5.4,7.8-8.1
			c1.9-1.9,4.6-1.2,6.8-1.7c10.6-2.2,19.7-6.9,27-15.1c1-1.1,0.9-2.1,0-3c-1.3-1.3-1.8,0.4-2.4,1c-7.6,7.9-17.4,10.7-27.7,12.5
			c-4.6,0.8-9,1.7-13.6,0.1c-1.5-0.5-2.5,0.7-2.7,2c-0.3,1.4-0.4,3.1,1.7,3.1c1.8,0,3,1.4,4.7,1.6c-6,9-13.9,15.6-23.3,20.4
			c-4,2-8.4,3.2-12.7,4.5c-1,0.3-2,0.4-2.4,1.5c-1.6,4.2-3.2,8.5-4.7,12.7c-0.2,0.4-0.4,0.9-0.6,1.3c-0.1,0.6-0.2,1.2-0.3,1.7
			c-1.9,1.7-2,3.9-1.9,6.2c-1.6,11.8-3.3,23.6-4.8,35.5c-0.3,2.7-0.1,5.4-0.1,8.1c0,1.1,0.3,1.9,1.6,2.2c3,0.6,5.6,2.4,9.1,1.1
			c2.3-0.9,5.1-0.3,7.7-0.3c5.1-0.1,10-0.9,14.9-2.6c9.2-3.3,18.9,2.1,20.9,11.7c1.5,7.2-0.3,8.8-7.8,6.8c-4.4-1.2-7.9-4-11.3-6.7
			c-1.7-1.4-3-1.9-4.6-0.3c-1.6,0.2-3.3,0.4-4.9,0.7c-5.2,0.8-10.3-0.6-15.5-0.7c-2,0.2-5.2-1.3-5.7,1.3c-0.4,1.9,2.9,2.3,4.7,3.2
			c2.8,1.5,5.8,1.4,8.9,1.7c9.5,0.8,19.1,0.9,27.7,5.9c7.3,4.2,8.2,6.2,6.4,14.1c-0.8,3.3-4.9,7.1-8.3,6.8c-2.1-0.2-3.7,1.6-5.9,0.6
			c-3.3-1.5-4.5-4.4-4.9-7.2c-0.5-3.4,2.1-5.9,4.8-7.8c0.7-0.5,1.6-0.7,2.5-1.1c-2-2-3.5-0.5-4.9,0.7c-2.5,2.2-5.2,4.2-8.2,5.5
			c-4.2,1.8-7.7-0.5-11.1-2.7c0-0.4-0.2-0.6-0.6-0.5c-0.2,0-0.3-0.1-0.3-0.3c0-0.7-0.4-0.9-1-0.9c0,0-0.2-0.2-0.2-0.2
			c-0.1-1.1-0.8-1.1-1.6-0.9c-0.2-0.1-0.3-0.2-0.4-0.4c0.1-0.4,0-0.5-0.4-0.5c0,0-0.2-0.3-0.2-0.3c0-0.7-0.5-0.9-1.1-0.9
			c0,0-0.2-0.2-0.2-0.2c-0.2-0.2-0.4-0.4-0.6-0.6c0,0-0.2-0.2-0.2-0.2c-0.2-0.2-0.4-0.4-0.6-0.6c0,0-0.2-0.2-0.2-0.2
			c0-0.6-0.2-1-0.9-1c-0.2,0-0.3-0.1-0.3-0.3c0.1-0.4,0-0.6-0.5-0.4c-0.2,0-0.3-0.1-0.3-0.3c0.1-0.8-0.4-0.9-1-0.9
			c0,0-0.2-0.1-0.2-0.1c-0.2-0.2-0.4-0.4-0.6-0.6c0,0-0.1-0.2-0.1-0.2c0-0.6-0.1-1.1-0.9-1c-0.2,0-0.3-0.1-0.3-0.3
			c0.1-0.5-0.1-0.7-0.6-0.6c-0.2,0-0.4-0.1-0.6-0.2c-0.2-0.3-0.3-0.5-0.6-0.1c-0.3-0.2-0.5-0.4-0.8-0.6c0.3-0.8-0.4-0.7-0.9-0.8
			c0,0-0.1-0.1-0.1-0.1c-0.6-2-2.2-2.1-3.9-2.1c-1,0-2,0-3,0.3c-1.6,0.5-2.7-0.2-1.9-2.2c0.7-1.7,0.5-3.5,0.1-5.3
			c-3.9,2.9-2.4,13-0.2,16.5c3.7,5.7,10.2,7.1,14.9,11.2c3.2,2.8,6.5,5.4,8.1,9.5c1.7,4.8,0.1,7.3-4.9,7.8c-0.8,0.1-1.5,0.1-2.3,0.1
			c-5.1,0-10.2-0.1-15.3-0.1c-2.6-1.6-3.2-4.1-3.1-7c0.1-1.9,0.1-3.9,0.1-5.8c0.1-2.6,0.6-5.4-3.8-3.5c-1.9,0.8-4.2-0.5-5.4-2.2
			c-2.4-3.4-4.2-7.4-2.9-11.5c1.2-4,1.5-8.2,3.2-12.1c0.6-1.5,1.1-3.7-0.8-5c-1.6-1.1-3.1,0.2-4.7,0.7c-7.8,2.4-14.9,7.1-23.5,6.6
			c-3.9-0.2-7.6,1.4-11.7,0.1c-4.1-1.3-7.7-3.8-8.1-7c-0.3-2.2,3.4-7.1,6.1-8.7c4.1-2.4,8.8-3.1,13.3-3.6c7.3-0.8,14.7-0.6,21.9,1.7
			c1.7,0.5,3.8,1,5.4-0.7c1.5-1.7-0.1-3-0.7-4.5c-0.8-2.1-2.4-3.5-4.3-4.6c-2.1-2.6-5-2.1-7.7-2.1c-8.3-1.2-15.1-5-20.3-11.5
			c-0.7-0.8-0.9-1.7-0.4-2.4c0.5-0.7,1.3-0.2,2.1,0c7.6,2,14.7,5.3,22,8c6.5,2.4,16.1-4.1,16.3-11.1c0.1-2.3-0.3-4.5-0.9-6.7
			c-1.2-5.3,1.7-9.1,5-12.7c3.3-3.7,3.2-4.5-0.7-7.1c-5-3.4-5.5-5.4-2.4-10.8c0.8-1.3,1.3-2.9,2.4-3.9c1.9-2,1.4-3.1-0.8-4.4
			c-1.3-0.8-3.6-2.1-0.3-3.7c0.9-0.5,3-0.5,2.4-2.3c-0.7-1.9-2.9-1.7-4.1-1.1c-4.6,2.1-8.6-0.1-12.9-1.1c-1.2-0.3-2.4-0.5-2.5-1.9
			c-0.1-1.4,1.4-1.4,2.2-1.8c5-2.3,9.7-4.9,13.6-8.9c4-4.1,3.9-6.2-1.4-8.5c-4-1.8-8.3-2.8-12-5.5c-2.4-1.8-3.6-3.9-3.4-6.9
			c0.2-2.8,2.7-2.9,4.6-3.7c9.6-4,19.8-6.6,29.6-10.1c1.1-0.4,1.9,0,2.9,0.2c6.3,1.2,12.6,2.9,19.1,2.6c5.3-0.2,10.6,0.5,15.9,0.2
			c14.9-0.7,29.3-3.5,43.4-8.2c14.7-4.9,28.3-12.1,40.6-21.6c11.9-9.1,21.7-19.9,29.1-32.8c4-6.9,5.7-14.6,0.1-21.9
			c-0.3-0.4-0.3-1-0.4-1.5c-0.1-1.4-1-2-2.2-2.3c0,0,0,0,0,0c-0.3-0.3-0.6-0.5-0.9-0.8c0,0,0.1,0,0.1,0c-1-1.3-2.1-3.8-3.2-0.1
			c0,0,0,0,0,0c-0.5,0.5-0.6,1,0,1.5c6.6,5.4,8.3,13,4.3,20.3c-2,3.7-3,8.1-6.6,10.8c-0.7,0.3-0.7,1-0.9,1.6c0,0,0,0,0,0
			c-0.3,0.3-0.5,0.6-0.8,0.8c0,0,0,0,0,0c-1.3,0.4-1.9,1.4-2.2,2.6c0,0,0-0.1,0-0.1c-0.5,0.1-0.8,0.4-0.8,0.9c0,0,0.1-0.1,0.1-0.1
			c-1,0.1-0.9,0.8-1,1.5c0,0,0.1-0.1,0.1-0.1c-0.3,0.3-0.6,0.6-0.8,0.8c0,0,0.1-0.1,0.1-0.1c-0.3,0.3-0.6,0.5-0.9,0.8
			c0,0,0.1-0.1,0.1-0.1c-0.3,0.3-0.6,0.6-0.8,0.8c0,0,0-0.1,0-0.1c-0.3,0.3-0.5,0.6-0.8,0.8c0,0,0.1-0.1,0.1-0.1
			c-0.3,0.3-0.5,0.6-0.8,0.8c0,0,0,0,0,0c-0.4,0.2-0.9,0.4-1.3,0.6c-2.5,5.5-7.1,9-11.8,12.5c-0.7,0.1-1.5,0.1-1.6,1.1
			c0,0,0-0.1,0-0.1c-0.4,0.2-0.9,0.5-1.3,0.7c0,0,0.1-0.1,0.1-0.1c-1.1,0.6-2.5,0.8-2.9,2.3c0,0,0,0,0,0c-0.6,0.2-1.2,0.4-1.4,1.2
			c-9.4,6.3-19.4,11.3-30.5,13.9c-0.7,0.2-1.4,0.6-2.1,1c-0.8-0.3-1.5-0.2-1.8,0.7c-0.5,0.2-1,0.4-1.5,0.6c-1-1.1-1.9-1.2-2.3,0.5
			c0,0-0.2,0.1-0.2,0.1c-1,0.1-2-0.2-2.9,0.6c-4.5,0.5-8.6,2.6-13.1,3.5c-3.7,0.7-7.3,0.5-11,1.1c-10.2,1.7-20.6,1.4-30.8,0.9
			c-2.4-0.1-5.3-0.1-7.6-1.5c-2.7-2.4-6-2.4-9.3-2.2c-1.7,0.1-3.7-0.1-4.4,2.2c0,0-0.2,0.1-0.2,0.1c-0.7,0-1.5-0.1-2.1,0.6
			c-0.8,0.4-1.6,0.7-2.5,1.1c-1.8,0.1-3.6,0.2-4.7,2c-0.1,0.2-0.3,0.3-0.5,0.4c-0.6-0.1-1.2-0.2-1.7,0.4c-2.6,0-4.3,2.2-6.5,2.9
			c-10,2.9-19.9,5.9-30.1,8.2c-7.6,1.8-15.1,3.1-22.9,3.1c-2.7,0-5.4-0.1-8.1-0.1c-1.4,0-2.6-0.2-2.5-2c2.5-4.1,6.3-7.1,9.8-10.2
			c4.1-3.5,9.2-2.5,14-1.6c3.8,0.7,7.6,0.9,11.3-0.1c0.7-0.2,1.4-0.5,2.2-0.5c11.1,0,21.8-2.5,32.2-6c9-3,17.6-6.8,25.6-11.9
			c1.2-0.8,2.4-1.3,1.9-2.8c-0.6-1.7-2.4-1-3.3-0.7c-1.9,0.7-3.6,1.9-5.3,2.9c-8.4,5-17.1,9.2-26.5,11.9c-3.4-0.1-6.7,0.2-9.7,2.1
			c-2.2,0.2-4.5,0-6.6,1c-8.9,0-17.7,0-26.6,0c-1.6,0-3.1-0.1-4.7-0.1c-0.9,0-1.6-0.5-1.7-1.2c-0.1-0.7,0.5-1.5,1.2-1.8
			c6.2-1.7,11.2-5.4,15.8-9.8c1-0.9,2.2-0.5,3.3-0.4c5.7,0.1,11.8,0.4,16.5-3.1c6.6-5,14.3-4.1,21.6-5.4c7.3-1.3,14-3.8,20.4-7.2
			c1.2-0.6,2.7-1,3.7-1.8c0.7-0.6,2.6-0.9,1.5-2.5c-0.8-1.2-1.9-1-3-0.2c-4.4,2.9-9.2,5.1-14.3,6.6c-2,0.6-4.2,1-6.3,1.5
			c-1.6,0.2-3.4-0.9-4.7,0.8c-0.5,0.2-1,0.5-1.5,0.7c-2.7-1.8-5.7-0.6-8.5-0.8c-1.3-0.1-3.2-1-3.9,1.2c0,0-0.3,0.1-0.3,0.1
			c-0.6,0-1,0.3-1,0.9c-3.3,5.1-8.6,5.5-13.9,5.5c-2.1,0-5,1.8-6.3-0.6c-1.2-2.2,1.3-4.2,2.4-6.1c2.4-4.2,6.3-6.8,10-9.6
			c1.1-0.8,2.6-0.8,4-0.9c5.8-0.4,11.5,0.4,17.3-0.7c8.3-1.5,16.3-4.2,22.7-9.3c4.8-3.8,10.3-4.5,15.6-6.2c3-1,5.9-2.3,8.7-3.7
			c1.1-0.5,1.9-1.8,1.3-2.9c-0.8-1.5-2-0.4-2.9,0.2c-5.1,3.6-10.9,5.2-17.1,6.1c-3.8,0.6-5.8,4.3-9,6.2c-4.4,2.5-8.8,4.6-13.7,5.9
			c-1.3,0.2-2.9-0.7-3.9,0.9c-0.5,0.2-1,0.5-1.5,0.7c-4.8-1.8-9.8-0.4-14.7-0.8c-0.5-2.5,0.3-4.6,1.9-6.3c2-2.1,3.8-4.2,6-6.1
			c2.2-1.9,4.7-3,8-2.7c10.7,0.7,20.9-1.9,30.8-6c3.1-1.3,6.4-2.2,9.2-4.3c1.1-0.9,2.2-1.8,1.3-3.1c-0.8-1.3-1.9,0.2-2.6,0.5
			c-3.7,1.5-7,4-11.1,4.6c-1,0-2-0.1-2.8,0.8c0,0,0.1,0,0.1,0c-1.8,0.4-3.7,0.8-5.1,2.1c-4.1,1.7-8.4,1.9-12.8,2.3
			c-1.9,0.2-3.9,0.4-4.8-0.9c-1.1-1.6,0.5-3.3,1.4-4.8c0.3-0.4,0.8-0.7,1.1-1c0.3-0.3,0.6-0.6,1-0.9c0,0-0.1,0.1-0.1,0.1
			c0.3-0.3,0.6-0.6,0.8-0.9c0,0-0.1,0.1-0.1,0.1c0.3-0.3,0.6-0.6,0.8-0.9c0,0-0.1,0.1-0.1,0.1c0.5-0.1,0.8-0.3,0.9-0.9
			c0,0-0.1,0.1-0.1,0.1c0.3-0.3,0.6-0.6,0.9-0.9c0,0-0.1,0.1-0.1,0.1c0.3-0.3,0.6-0.6,0.9-0.9c0,0-0.1,0.1-0.1,0.1
			c0.3-0.3,0.6-0.6,0.8-0.9c0,0-0.1,0.1-0.1,0.1c0.3-0.3,0.6-0.6,0.8-0.9c0,0-0.1,0.1-0.1,0.1c0.5-0.1,0.8-0.3,0.9-0.8
			c0,0-0.1,0.1-0.1,0.1c0.5-0.1,0.8-0.3,0.9-0.9c0,0-0.1,0.1-0.1,0.1c0.3-0.3,0.6-0.6,0.9-0.9c0,0-0.1,0.1-0.1,0.1
			c0.3-0.3,0.6-0.6,0.9-0.9c0,0-0.1,0.1-0.1,0.1c0.3-0.3,0.6-0.6,0.8-0.9c0,0-0.1,0.1-0.1,0.1c0.3-0.3,0.6-0.6,0.8-0.9
			c0,0-0.1,0.1-0.1,0.1c0.5-0.1,0.8-0.3,0.9-0.8c0,0-0.1,0.1-0.1,0.1c0.5-0.1,0.8-0.3,0.9-0.9c0,0-0.1,0.1-0.1,0.1
			c0.3-0.3,0.6-0.6,0.9-0.9c0,0-0.1,0.1-0.1,0.1c0.3-0.3,0.6-0.6,0.8-0.9c0,0-0.1,0.1-0.1,0.1c0.3-0.3,0.6-0.6,0.8-0.9
			c0,0-0.2,0-0.2,0c0.9,0,0.9-0.7,1.1-1.3c2.7-2.3,6.2-1.6,9.3-2.3c12.6-2.7,24.1-7.6,33.6-16.5c5.9-5.5,11-11.9,18-16.3
			c6.9-4.4,14.3-7.3,22.6-7.7c1.8-0.1,3.5-0.5,5.2-0.8c4.9-0.9,8.7,2.2,12.9,3.7c7.5,2.6,15.2,2.3,22.8,0.4c3.2-0.8,4.5,0.1,5.2,3.1
			c1,4.7,3.9,8.3,7.5,11.4c0.2,0.2,0.4,0.3,0.6,0.5c1.2,1.6,1.8,4.3,4.1,4c2.9-0.4,4.7-3,6.7-5c3.5-3.3,5.8-7.3,7.4-11.9
			c3.8,2.4,5,6,5.7,9.7c0,3.6-0.1,7.1-0.1,10.7c0,0.5-0.5,1.7,1,1.3c7.7-5,12.3-12.5,16.5-20.4c1.7,0.5,1.4,2,1.4,3.2
			C434.2,239,434.4,243.1,433.4,247.2z M389.5,275.5c0.6,3.9,0.2,6.7-1.1,9.3c-1.9,3.8-3.8,7.7-5.9,11.3c-0.7,1.2-0.6,2,0.2,2.6
			c1,0.7,1.4-0.6,1.9-1.2c3.5-4.3,5.9-9.1,7-14.6C392.1,280.2,391.4,278.5,389.5,275.5z M287.5,273.2c-2.2,2-4.2,3.1-6.5,3.8
			c-0.7,0.2-1.1,0.6-1.1,1.3c0,0.3,0.4,0.7,0.6,0.8C282.6,279.8,287.5,276.1,287.5,273.2z"/>
		<path class="st0" d="M446.5,78.7c-1.4,1.5-3.7,0.5-5.1,2c-0.7,0.8-2.3,1.1-1.8,2.5c0.5,1.3,2.1,1.2,3.1,0.8
			c5.8-2,11.9-1.6,17.9-1.6c0.9,0,1.9-0.1,2.6,0.3c1,0.6,2.7,0.7,3,2.2c0.3,1.9-1.7,1.5-2.6,2.2c-2.9,2.5-6.1,4.6-8.8,7.3
			c-4.8,4.8-10.4,7.4-17.5,5.2c-5.4-1.6-8.5,2.1-11.2,6c-1,1.4-1.9,2.8-3.2,3.8c-1.4,1.1-2.6,0.3-3.7-0.8c-1-1-1.2-1.9-0.1-2.9
			c1.2-1.1,1.5-2.9,3.1-3.9c1.2-0.7,0.6-1.5-0.1-2.1c-1.2-1.2-1,0.4-1.4,0.7c-4.2,2.8-7.4,7.4-13.5,6.9c-3.6-0.3-6.4-2.4-9.3-4
			c-1.1-0.6-1.5-1.1-2.5-0.1c-1.3,1.3-0.3,1.8,0.5,2.7c4.1,4.6,8.7,7.1,15.2,5c1.9-0.6,4.4-0.7,6.1,1.3c1.3,1.5,2.6,2.8-0.1,4.4
			c-1.9,1.1-1.9,3.5-2.7,5.3c-2,4.1-1.2,8.3-0.5,12.3c0.5,3,2.6,5.7,5.9,7c1.8,0.7,3.3,0.8,2.5,4.2c-0.9,4.1,1,8.6,4.6,11.3
			c8.1,6,20.8,3.8,24.3-5.6c0.8-2.2,1.8-0.9,2.4-0.2c8.6,10.5,16.2,21.6,22.3,33.8c5.4,10.6,9.4,21.7,12,33.1
			c1.9,8.4,3.4,17,2.8,26.1c-3-3.2-2.4-8.1-6.6-10.7c6.6,19.2,2.9,36.4-9,53.2c-2-7.6-0.4-14.1,0.3-20.7c1-9.1,2.6-18.2,0.2-27.4
			c-0.4-1.7-0.4-3.7,0-5.4c0.3-1.6-1-2.3-1.5-3.4c-0.3-0.6-0.9-0.2-1.3,0.2c-1.1,1-0.6,2.1-0.6,3.4c0.3,6.6-0.1,13.2-2.5,19.4
			c-2.9,7.8-8.4,13.7-14.3,19.2c-1.8,1.7-2.5,0.8-2.5-1.1c-0.1-3.4,0.5-6.8,1.2-10.1c1.3-6.6,0.5-13.1,0.7-19.6
			c0.1-4.7,0.6-9.5-0.9-14.1c-0.4-1.4-0.9-2.4-2.5-2.4c-1.7,0.1-0.9,1.5-1.2,2.3c-1.8,5.7-0.3,11.8-2.8,17.4c-2.7,6-4.7,8.8-11,11.8
			c2.5-4.6,2.5-9.1,3.8-13.3c0.3-1,0.7-2,0.5-2.9c-1.8-6.3-2.1-13.1-5.8-18.8c-0.4-0.6-0.7-1.4-1.2-1.9c-0.8-0.8-1.4-2.3-2.7-1.9
			c-1.3,0.4-0.4,1.8-0.6,2.7c-1.9,7.8-3.2,15.9-10.5,21.9c0.9-6-2.6-9.4-5.6-13.1c-2.7-3.3-2.3-7.5-2.9-11.5
			c-0.2-1.6,0.4-3.7-2.1-3.8c-2.7-0.1-2.4,1.9-2.6,3.8c-0.5,7-0.5,14.2-4.6,20.5c-0.9,1.3-1.9,2.5-3,3.4c-1.4,1.2-2.6,1.2-4.1-0.2
			c-3.3-3.2-6.2-6.6-7.7-10.9c-1-2.6-1.1-5.7,0.3-8.4c1.2-2.4,2.6-4.7,3.8-7c0.6-1.1,2.1-2.5,0.2-3.6c-2.1-1.3-2.7,0.8-3.4,2
			c-1.6,2.3-3,4.7-4.5,7c-2.3,3.4-5.9,4.9-9.7,5.4c-6.2,0.8-12.5,0.3-18.5-1.8c-2.3-0.8-3.4-1.5-0.5-3.9c5.5-4.6,11.1-9.3,14.5-15.8
			c2.5-4.7,3.7-10,3.8-15.2c0.5-14.8,0.2-29.5,0.2-44.3c0-0.4,0.3-1,0.1-1.1c-1.3-1.1-0.5-3.9-2.2-4c-1.9-0.1-1.5,2.4-1.9,3.7
			c-1.8,6.3-2.7,12.8-5.1,18.9c-2.2,5.7-5.3,10.8-10.1,14.7c-0.5,0.4-0.9,1.1-1.6,0.7c-0.9-0.5-0.6-1.3-0.5-2
			c0.8-4.9,1.3-9.7,1.7-14.7c0.8-10.5,0.8-21.1,1.9-31.5c1-8.9,0-17.7,0.7-26.5c0.7-9,1.1-18,5.8-26.1c5.2-8.9,12.1-15.4,21.9-19.1
			c5.7-2.2,11.4-3.6,17.5-3.8c8.7-0.3,16.6,2.2,24.1,6.3c1.9,1.1,3.3,1.8,5-0.5c1.2-1.5,3-2.5,5.3-1.2c2.4,1.4,2.9,3.4,2.8,5.8
			c-0.1,2-2.4,4.3-0.1,6c2.5,1.8,5.1-0.2,7.6-0.8c10.2-2.4,19.6-1.9,27.6,5.8c2.6,2.5,3.9,5.6,3.5,9.6c-3.2-1.8-6.3-3.6-9.4-5.3
			c0-0.8-0.2-1.6-1.2-1.5c-0.8,0-0.9,0.7-1.1,1.3c-1.1,0.5-1.5-0.7-2.3-0.9c-3.5-2.8-7.6-1.4-11.2-0.9
			C450.5,76.9,447.4,75.3,446.5,78.7z M420.4,84.7c2.9-2.2,5.4-0.9,7.8,1.3c0.4-1.6,0.6-3-0.7-4.1c-7.5-6.1-13.8-13.8-24.1-15.9
			c-2-0.4-3.5-0.8-5.2,0.4c2,2.4,2,2.4,0.4,5c-3.7,5.8-3,12,2.1,15.6c3.8,2.6,8.2,2.3,12.5,1.4c1.6-0.3,3.8-0.3,3.9-2.8
			C418.4,85.9,419.4,85,420.4,84.7z M463.2,222.4c-2.1,0.9-1.4,2.8-1.5,4.4c-1,11.7,2.5,23.9-4.2,34.9c-0.7,1.1,0.3,2.1,1,2.6
			c0.9,0.6,1.4-0.6,2-1.3c3.5-4.5,4.5-9.8,4.7-15.3c0.2-6.6,0-13.2,0.1-19.8C465.3,225.8,464.6,224,463.2,222.4z M421.6,224.6
			c0.4,0,0.7-0.1,1.1-0.1c0-2.5,0-5,0-7.5c0-0.5-0.1-1.1-0.6-1.3c-0.6-0.2-1,0.3-1,0.8C421,219.2,420.6,222,421.6,224.6z"/>
		<path class="st0" d="M318.8,492.4c-3.5-3.5-7.5-5.3-12.3-5.7c-2.3-0.2-3.4-2.2-4.7-3.7c-4.3-4.5-9.5-6.4-15.5-5.7
			c-4.2,0.4-8.4,1.7-12.6,2.2c-6.3,0.7-12.7,1.8-19.1,1.4c-1.8-0.1-1.6-1.2-1.6-2.4c0-7.1,0.8-14.2,1.8-21.3c0.9-6,1.5-12.1,3-17.9
			c1.6-6.4,3.7-12.7,5.7-19c0.5-1.7,2.2-2.2,3.6-2.6c9-2.7,17-7.2,24.1-13.3c1.2-1,1.8-1,2.9,0c4.4,4.2,9.4,6.5,15.6,5.7
			c2.2-0.3,3.1,0.6,3.9,3c3.6,9.6,8.2,18.7,15.9,26c4.2,3.9,6.6,9.2,8.3,14.6c1.2,4.1-0.9,6.4-5.1,6.5c-1.2,0-2.4-0.2-3.5,0.1
			c-1.3,0.4-2.5,1.2-1.1,2.8c2.4,2.5,4.7,4.9,8.8,4.7c4.9-0.3,9.8,0,14.8-0.1c1.8-0.1,3.3,0.5,4.8,1.3c1.4,0.7,2,2.3,2.1,3.5
			c0.1,1.8-1.8,0.8-2.7,1.1c-5.2,1.6-10.4,3-15.5,4.9c-2.2,0.8-4.5,1.9-6.1,3.9c-1.1,1.4-2.6,2.3-4.4,2.8
			C325.4,486.3,321.4,488.4,318.8,492.4z"/>
		<path class="st3" d="M228.4,162.3c0.1,1.1,0.2,2.2,0.2,3.4c-0.9,4.1-0.8,8.2-0.1,12.2c0,8.1-2.5,15.6-5.6,23.1
			c-3.6,8.8-5.9,18-8.7,27.1c-0.9,2.9-2.1,5.7-2.8,8.7c-0.4,1.7-1.3,2.7-2.8,2.6c-1.8-0.2-2.5-1.7-2.4-3.4c0.1-2.9,1-5.7,1.3-8.6
			c0.8-5.7,1.6-11.4,2.5-17.1c1.7-10.1,2.8-20.2,3.9-30.3c1-8.7,0.8-17.4,0.5-26c-0.2-6.1-2-12.3-4.5-18.2c-3.4-7.7-7.4-15-12-22
			c-3.6-5.4-8.3-9.8-12.9-14.2c-0.8-0.8-2-2.3-3.4-1c-1.8,1.6,0.2,2.4,1.1,3.3c7.1,7.5,13.7,15.5,18.3,24.9
			c4.1,8.3,6.8,17.2,8.4,26.4c1.6,9.2,0.8,18.5,0.7,27.7c-0.1,4.9-0.9,10.1-3.4,14.8c-0.2-2.2-0.5-4.5-0.5-6.7
			c0-10.5-1.7-20.8-3.5-31.1c-1.8-10.8-5.2-20.9-10.5-30.5c-5.8-10.4-13.7-18.9-22.7-26.6c-7.4-6.3-15.7-11.2-24-15.9
			c-5.1-2.9-11.1-4.5-16.7-6.9c-10-4.3-18.4-10.7-25.5-18.9C100,54.7,97,50.3,95.2,45c-0.7-2-1.9-4.1-1.8-6.1
			c0.5-5.4-2.3-10.5-0.4-16.3c1.2-3.7,0.6-8.3,1.6-12.9c3.2,2.7,4.9,6.3,7.2,9.3c7.9,11,17.2,20.8,27.3,29.9
			c10.1,9.1,21.3,16.6,32.8,23.6c8.8,5.4,18.2,9.9,26.9,15.5c11.6,7.4,21.7,16.3,27.9,28.7c4.9,9.8,8.1,20.3,9.9,31.2
			c0.5,2.8,0.8,5.5,1.1,8.3C227.7,158.3,226.4,160.5,228.4,162.3z M163.3,85.1c-0.7-0.7-1.2-1.4-1.9-2c-8.5-6.9-17.1-13.7-27-18.7
			c-1.1-0.6-2.1-3.1-3.6-0.7c-1.3,2.2,1.2,2.6,2.3,3.4c2.8,2,5.7,3.7,8.6,5.5c6.5,3.9,12.9,8.2,18.7,13.1c0.7,0.6,1.4,0.7,2.1,0.4
			C162.8,85.9,163,85.5,163.3,85.1z"/>
		<path class="st3" d="M264.4,127.2c0.3,16.2-2.4,30.4-6.4,44.5c-3.9,13.5-9.5,26.1-17.1,37.8c-3.5,5.4-7.4,10.4-12.1,14.8
			c-1.7,1.5-2.3,1.9-4.4-0.2c-4.6-4.8-1.1-8.8,0.5-12.8c4.3-10.7,7.6-21.8,11.2-32.7c2.9-8.6,4.4-17.5,6.2-26.3
			c2-10.2,3-20.8,2-31.3c-1.5-16.4-5.8-32.1-14.9-46.1c-6.3-9.6-14.4-17.3-24.5-22.9c-8.9-4.8-18.2-7.5-28.2-8.6
			c-13.3-1.4-25.7,1.4-37.8,6.4c-1.5,0.6-2.2,0.3-3.4-0.5c-4.3-2.8-7.3-6.8-11-10.2c-2.2-2-1.4-3,0.9-3.6c4.2-1.2,8.4-2.6,12.6-3.5
			c8.5-1.6,17-2.3,25.6-2.9c5.6-0.5,11.2-0.8,16.8-0.7c10.7,0.3,21.2,2.3,31.3,6.5c18.8,7.7,31.3,21.5,40,39.5
			c5.3,11,9,22.5,11.8,34.3C264.8,115.3,264.7,122,264.4,127.2z M249,140.9c0.8,5-0.9,10.2-1.1,15.4c-0.2,4.3-1.6,8.5-1.5,12.9
			c0,0.7-0.4,1.7,0.8,1.8c1.1,0.1,1.1-1.1,1.2-1.6c0.6-2.6,0.8-5.5,1.6-8c1.9-6.5,2.3-13.2,2.6-19.7c0.6-11.6,0.5-23.2-1.6-34.8
			c-1.4-8-2.6-15.9-5.9-23.4c-0.4-0.8-0.5-1.9-1.5-1.5c-0.8,0.3-1,1.2-0.7,2.3c1,3.3,1.7,6.6,2.7,9.9c1.8,5.7,2.8,11.5,3.2,17.3
			c0.4,6.5,2,13,1.2,19.4C249.5,134.1,249.4,137.4,249,140.9z M234.6,206.6c0.6-0.2,1.2-0.3,1.5-0.6c4.2-5.5,6.9-11.7,9-18.2
			c0.1-0.4,0.1-1.1-0.5-1.3c-0.6-0.2-1,0.1-1.3,0.6c-3,6-6.2,11.9-9.8,17.5C232.8,205.7,233.7,206.4,234.6,206.6z M242,77.4
			c0.1-4.7-2.1-8.8-3.3-13.2c-0.2-0.5-0.7-0.8-1.2-0.5c-0.6,0.3-1.3,0.8-1,1.4C238.2,69.3,238.9,73.8,242,77.4z"/>
		<path class="st4" d="M376.6,56.3c-0.2,0.2-0.4,0.4-0.6,0.6c-2.3-0.1-3.9,0.9-4.9,3c0,0,0,0,0,0c-0.6-0.1-0.8,0.2-0.8,0.8
			c0,0,0,0,0,0c-0.6-0.1-0.9,0.1-0.8,0.7l0,0c-1.1,0-2.4-0.3-2.3,1.5c0,0,0,0,0,0c-0.6-0.1-0.8,0.2-0.7,0.8c0,0,0,0,0,0
			c-0.6-0.1-0.9,0.1-0.8,0.7c0,0,0,0,0,0c-0.6-0.1-0.9,0.1-0.8,0.7c0,0,0,0,0,0c-0.8-0.3-1.3,0.1-1.5,0.9c0,0,0,0,0,0
			c-1.1,0-2.2,0.1-3.3,0.1c0,0,0,0,0,0c-0.1-0.9-0.3-1.5-1.4-1.4c-0.1-1-0.8-1.5-1.7-1.8c-4.4-1.5-8.5-3.8-13.2-4.3
			c-2.7-2.4-5.8-0.8-8.8-0.8c-1.9,0-3.6-0.5-5.2-1.3c-0.1-0.9-0.3-1.8-1.5-1.4c0,0,0,0,0,0c0.1-0.6-0.1-0.9-0.7-0.8c0,0,0,0,0,0
			c0.3-0.8-0.1-1.2-0.9-1.5c0,0,0,0,0,0c0-0.5-0.3-0.7-0.8-0.8c0,0,0,0,0,0c0-1-0.1-1.9-1.5-1.6c0,0,0,0,0,0
			c0.3-0.8-0.1-1.3-0.7-1.7c-1.9-4.1,0.9-10.1,5.5-11.6c4.4-0.5,8.8-0.9,13.2-0.6c1.9,0.1,3.9,1.9,5.9,0c0.3,0.3,0.5,0.6,0.8,0.9
			c2.7,1.3,5.4-0.4,8.1-0.2c0.6,0.1,0.9-0.8,0.7-1.5c0,0,0,0,0,0c0.7,0.2,0.9-0.1,0.7-0.8c0,0,0,0,0,0c0.6,0.1,0.9-0.1,0.7-0.8
			c0,0,0,0,0,0c0.7,0.3,1.2,0.1,1.4-0.6c0.2-0.8-0.4-1-1-1.3c-0.1-0.5-0.2-0.9-0.3-1.4c-0.3-0.8,0.1-2.1-1.5-2.1
			c-1.8-2.7-4.8-3.3-7.6-4c-1-0.3-1.9-0.4-2.7-1c-2.1-2.4-4.6-0.9-7-0.9c-6.1-0.9-7.4-2.2-7.9-7.6c-0.1-1.6,0.1-2.4,1.5-3.2
			c5.8-3.7,11.9-5.5,18.8-3.9c0.5,0.1,1,0.4,1.5,0.3c6.8-0.9,9.6,3.7,12.2,8.7c0.6,1.5,0.2,3.6,2.7,3.8c0,0,0,0,0,0
			c-0.4,1.5,0.3,2.5,1.5,3.4c1.5,1.8,2.8,3.4,5,4.6c2.1,1.1,3.2,0.5,4.7-0.3c0.6,0.1,1.5,0.2,1.7-0.4c0.9-3.5,2.3-7,0.2-10.5
			c0-0.5-0.1-0.9-0.1-1.4c0.9-2.8-0.7-6,1.3-8.7c4.2,1.2,6.5,3.9,7.3,8.3c0.7,3.8,1.9,7.4,1.4,11.5c-0.3,2.1,1.8,5.1,4.5,5.6
			c2.4,0.5,4.1-1.4,5.2-3.6c1.8-3.5,1.9-7.4,2.1-11.2c-0.1-2.6,1.3-5,1-7.6c0,0,0,0,0,0c1.2,0.5,2-0.7,3-0.9c2,0.1,3.4,0.9,4.2,2.8
			c1.4,3.5,3,7,3.1,10.9c0.1,0.2,0.1,0.3,0.2,0.5c0.2,0.1,0.4,0.3,0.3,0.6c0.1,2.1,1.2,3.3,3.3,3.4c2,0.1,4.1,0.1,4.7-2.6
			c-0.1-2,1.7-3.6,1.1-5.8c-0.1-0.6,0.6-1.7,2.1-1.5c7,0.7,11.3,0.5,14.8,9.9c0,4,0,8,0,12c-0.4,4.2-3.6,7.2-4.4,11.2
			c-0.2,1-1.3,1.1-2.3,1.1c-0.8,0-1.9-0.2-2.3,0.2c-4.2,4.3-8,1.4-12.1-0.3c-12.1-5-24.3-5.3-36.5-0.1
			C381.3,52.7,378.5,53.5,376.6,56.3z"/>
		<path class="st3" d="M192.7,246.6c-0.1,2.1,0.5,4.9-0.6,6c-1.6,1.5-2.8-1.8-4.7-2.1c-2.6-0.3-4.1-1.9-5.3-4.3
			c-6.9-13.5-15.1-26.2-26.8-36c-7.1-5.9-15.5-9.5-24.9-10.6c-3.1-0.4-6.2-1.1-9.4-0.9c-11.9,0.5-23,4-33.1,10
			c-3.1,1.9-6.5,3.4-9.1,6.1c-0.5,0.5-1,0.9-1.7,0.7c-1-0.3-0.7-1.3-0.7-2c-0.1-9,4-16.1,10.4-21.8c8.4-7.5,18.8-11.7,29.2-15.5
			c9.5-3.5,19.5-4,29.3-3.2c8.4,0.7,15.8,5.1,22,11c10.4,9.9,16.1,22.4,20.6,35.7c2,5.9,2.9,12,3.8,18.2
			C192,240.8,192.9,243.6,192.7,246.6z M181.6,230.1c1.2-18-35.6-48-52.6-42.4C154.2,192.3,171.6,206.6,181.6,230.1z"/>
		<path class="st3" d="M187.3,146.4c-6.2-5.9-12.2-12-20.3-15.3c-3.6-1.5-7-3.4-11.1-3.4c-1.1,0-2.3,0.1-2.5,1.3
			c-0.2,1.4,1.1,1.4,2.1,1.6c19.2,3.2,30.3,15.3,37.3,32.6c4.1,10.2,4.2,20.5,2.5,31c-0.1,0.7-0.5,1.4-0.8,2.1
			c-0.2,0.6-0.3,1.3-1.1,1.3c-0.9,0-0.9-0.8-1-1.4c-0.1-1.2-0.2-2.3-0.2-3.5c0.5-20.6-9.5-35.1-26.8-44.8c-10.2-5.8-21.8-7-33.2-5.7
			c-13.9,1.5-26.7,7.1-38.2,15.1c-5.9,4.1-11.4,8.7-16.3,14c-0.7,0.7-1.3,2.4-2.7,1.6c-1-0.6-1-2.1-0.8-3.2
			c1.5-7.4,3.6-14.5,7.8-20.9c6.8-10.4,15.9-18.4,26.9-24c7.8-3.9,15.9-7,24.9-7.5c2.8-0.2,5.7-1.1,8.6-0.9
			c14.7,0.6,27.6,5.3,37.5,16.6c3.4,3.8,6.5,7.9,8,12.9C187.8,146,187.5,146.2,187.3,146.4z"/>
		<path class="st3" d="M72.5,255.2c-3.1-15.3,0.6-28.2,11.7-38.6c7.1-6.7,15.8-9.9,25.4-11.6c3.8-0.6,7.6-1.7,11.4-1.8
			c14.5-0.4,26.8,5,36.7,15.7c7.8,8.4,13.8,18,19.3,28c2.4,4.3,1.8,9.4,3.1,14c0.4,1.4-1.1,0.8-2.1,0.4c-4.8-1.9-8.8-4.9-11.7-9.2
			c-4.8-7.1-11.5-12.2-18.5-16.4c-6.8-4-14.2-7.2-22.7-8.1c-10.8-1.1-20.2,1.3-29.6,6c-8.6,4.4-14.5,11.5-20.1,19
			C74.7,253.5,74.1,254.5,72.5,255.2z M122.8,217.5c0.6,1.7,1.5,1.7,2.4,1.9c6.9,1,13.2,3.7,19.3,7c8.8,4.7,16.1,11.2,22.5,18.8
			c0.6,0.7,1.1,2.3,2.3,1.3c1.1-1-0.4-1.7-1-2.5c-5.5-7.6-12.3-13.7-20.3-18.4C140.4,221.1,132.2,217.9,122.8,217.5z"/>
		<path class="st3" d="M187.5,199.3c-6.7-15.6-13.4-31.1-30.1-38.4c8.7,8.7,18.9,16.2,20.7,29.8c-3.1-3.6-6.5-6.9-9.8-10.2
			c-6.6-6.7-14.3-10.6-23.8-12.2c-8.7-1.5-16.7,0.8-24.7,2.7c-11.5,2.7-21.6,8.7-31.4,15.1c-3.7,2.4-7.6,4.5-11.1,7.3
			c-0.8,0.6-1.7,0.7-2.5,0.2c-0.6-0.4-0.5-1.1-0.3-1.8c2.4-11.1,8.1-20.4,16.5-28c8.1-7.3,17.5-12.3,27.9-15.2
			c6-1.7,12.2-3.3,18.4-2.9c13.6,0.9,26.6,4.1,36.6,14.3c7.1,7.1,11.4,15.7,13.1,25.7C187.7,190.2,187.7,194.6,187.5,199.3z"/>
		<path class="st3" d="M75.8,278.9c-2.9-17,7.1-32.8,20.3-41c8.8-5.5,17.9-6.8,27.7-6.2c7.9,0.5,14.7,4.4,21.2,8.6
			c7.1,4.6,13.2,10.4,19.2,16.4c1.6,1.6,2.3,3.2,2,5.5c-0.6,5.9,0.2,11.7,2,17.4c0.2,0.6,0.9,1.1,0.4,1.7c-0.7,0.9-1.4-0.3-2-0.2
			c-3.3,0.5-4.8-1.9-6.8-3.9c-9.2-9.5-19.5-17.3-32.4-21.3c-13.1-4-25.8-3.6-37.3,4.3c-4.6,3.1-8.5,7.5-10.9,12.8
			C78.5,274.9,77.7,276.9,75.8,278.9z M119.1,239.6c0.9,0.5,1.5,0.9,2.1,1.2c0.5,0.2,1,0.2,1.5,0.2c7.9,0.3,14.5,3.5,20.8,8
			c4,2.8,7.4,6.2,10.6,9.9c0.8,0.8,1.8,1.5,2.7,0.7c0.9-0.8,0.5-1.9-0.2-2.7c-0.4-0.5-0.8-1-1.3-1.5c-7.1-7.6-15.1-14-25.4-16.7
			C126.6,237.8,122.6,235.4,119.1,239.6z"/>
		<path class="st5" d="M441,116.9c-1.4,5.2,1.9,9.2,3.4,13.7c1.8,5.4,3.4,10.7,3,16.5c-0.2,4-2.5,6.7-7.1,8.4
			c-5.1,1.8-8.6,1-11.8-2.5c-2.9-3.3-3-5.8-0.6-10.4c0.6-1.2,0.9-2.6,1.6-3.9c0.6-1.2,2.3-2.3,1.1-3.7c-1.2-1.3-2.7,0.2-3.9,0.7
			c-5.4,2.2-8.5-0.9-9.7-5.1c-0.8-2.7,0.2-5.9,1.5-8.4c2.3-4.6,5.7-8.4,9.6-11.7c0.9-0.8,1.8-1.6,2.4-2.5c3.2-4.3,8.1-4.1,11.3,0.1
			c3.5,4.6,8.5,7.3,13.3,10.3c4.4,2.7,9.1,5.2,12.6,9.2c2.8,3.3,4,9.5,1.8,12.6c-2.7,3.7-5.6,7.8-11.4,6.9c-4-0.6-8.2-5-10.1-10.6
			C445.9,129.8,443.4,123.4,441,116.9z"/>
		<path class="st3" d="M109.4,354.7c-11.2-2.5-20.4-7.7-23.3-19.5c-2.2-9-0.6-17.8,4.3-26c6.3-10.6,16-14.9,27.7-16.5
			c3.6-0.5,7.3-1.2,10.9-0.8c7.5,0.7,14.9,2.2,21.9,4.8c3.5,1.3,2.8,5.4,3.7,8.3c0.2,0.8,0,1.8,0,2.7c0,7.5-0.1,7.9-7.1,6.1
			c-8.9-2.4-17.8-3.1-26.8-2.7c-9.6,0.5-21.2,5.5-23.9,16.7c-1.1,4.5-0.1,8.5,1.6,12.4C101,345.7,104.6,350.6,109.4,354.7z
			 M136.4,302.1c2.4,1.7,5.3,2.2,7.6,4c4.7,3.6,4.7,3.6,7.7,3.1C146.6,306.3,142.5,302.1,136.4,302.1z"/>
		<path class="st3" d="M176.5,66.1c18.9,0.4,33.3,9,44.8,23.6c7.8,9.9,12.5,21.1,15.3,33c3,12.2,3.1,24.8-0.6,37
			c-0.2,0.7,0.2,2.2-1.2,2c-1.3-0.2-0.6-1.4-0.8-2.2c-2-9.5-2.7-19.2-5.5-28.6c-2.4-8.3-5.8-15.9-10.7-22.9
			C213,101,207,95.2,200.2,90.1c-10.8-8.1-22.7-14.5-34.6-20.8c-0.5-0.3-1.4-0.1-1.4-1c0-1.2,1.1-0.8,1.7-1.1
			C169.3,65.8,172.9,66.2,176.5,66.1z"/>
		<path class="st3" d="M236.9,105.7c-2.2-0.1-2.1-2-2.6-3c-4.6-9.4-10.1-18.1-17.9-25.1c-8.4-7.6-18.1-12.3-29.5-14.1
			c-6.7-1-13.3-0.2-19.9-0.9c-2.1-0.2-3.6,0.9-5.5,1.2c-5.8,0.8-9.4-3.1-13.7-5.7c-0.4-0.3-0.7-0.8-1.2-1c-1.9-0.9-4.4-2.3-4-4
			c0.4-1.4,3.3-2.4,5.3-2.9c7.9-1.9,15.9-3.3,24.1-2.9c13.3,0.8,25.4,4.8,36.3,12.5c9.6,6.8,17,15.4,22.1,26
			C233.5,92.2,235.3,98.9,236.9,105.7z"/>
		<path class="st3" d="M143.8,89.8c-4.1,1.8-7.7,2.9-11.1,4.5c-6.9,3.3-12.6,8-17.9,13.3c-5.8,5.7-12.9,9-21.2,9.9
			c-3.3,0.3-6.6,0.9-9.9,0.7c-3.4-0.2-3.8-1.3-2-4.1c7.7-12.1,17.8-21.9,29.8-29.7c2.8-1.8,6.1-3,9.1-4.6c0.6-0.3,1.2-0.6,1.8-0.2
			C128.9,83.5,136.4,85.6,143.8,89.8z"/>
		<path class="st3" d="M113.2,259c20.3-1.1,34.3,10.1,47,23.8c0.6,0.7,1.7,1.4,0.7,2.6c-1.1,1.4-2.3,0.3-2.9-0.2
			c-5.3-3.7-10.9-7-17.2-8.4c-5.6-1.3-10.2-4.6-15.6-6.5c-18.2-6.3-34.6,2.4-40.4,20.2c-0.5,1.5-0.2,4.2-2.2,4.1
			c-2.3-0.1-2-3-2.5-4.7c-2.4-8.1,1.5-14.7,6.6-20.2C94.9,261,101.3,258.2,113.2,259z"/>
		<path class="st5" d="M212.8,303.6c1,2.4,0,5.1-1.4,5.6c-2.4,0.8-4.4,3-8,0.8c-7.2-4.3-14.2-8.8-20.2-14.5
			c-5.2-5-10.3-10.6-12.3-17.9c-1-3.8-0.9-7.8,0.3-11.8c0.8-2.5,2-2.3,3.6-1.3c3.8,2.4,7.6,4.7,9.6,9.2
			c4.9,10.7,13.5,17.7,23.4,23.4C210.4,298.6,214,299.5,212.8,303.6z M201.4,301l-0.1-0.1L201.4,301c1.5,1.6,2.7,3.5,5.1,4.3
			c0.9,0.3,1.4,0.9,2-0.1c0.6-1.2-0.2-1.5-1.1-1.8C205.4,302.6,203.4,301.8,201.4,301z"/>
		<path class="st5" d="M215.9,242.2c-0.7-2.5,0.2-5.9,1.1-9.4c0.3-1.2,0.5-2.8,1.8-3.1c1.7-0.4,1.7,1.4,2.4,2.3
			c4.8,6,9.3,12.1,14.7,17.6c4.2,4.3,8.2,8.9,12.3,13.4c0.9,1,1.7,2.2,0.3,2.9c-4.2,2.2-5.5,7.1-9.3,9.6c-1.7,1.1-2.8,1.3-3.8-0.3
			c-3.7-5.9-10.1-9.6-13.6-15.7C218.9,254.5,215.3,249.7,215.9,242.2z M232,264.5c0.4-0.3,0.7-0.6,1.1-0.9c-2.2-3.4-4.3-6.7-6.5-10
			c-0.3-0.5-1-1-1.5-0.4c-0.3,0.3-0.4,1.1-0.1,1.4C227.2,257.9,229.6,261.2,232,264.5z"/>
		<path class="st5" d="M201.1,242.3c1.4,0.7,4.1,0.3,6.8,0.4c1.2,0.1,1.8,0.8,1.9,2c0.8,7.1,5,12.6,9.1,18.1
			c4.1,5.5,8.3,11.1,13.6,15.5c1.4,1.1,1.4,2.4,0.6,4c-1.1,2.2-3.1,3.8-3.8,6.2c-0.5,1.6-1.6,0.9-2.4,0.2c-3.5-3.1-7.5-5.5-10.6-9.3
			c-3.3-4.1-7.8-7.2-11.2-11.4c-5.4-6.5-9.1-13.7-9.3-22.4C195.9,242.7,197,241.4,201.1,242.3z M226.9,279.1c0-0.3,0.1-0.6,0-0.8
			c-5-5.2-10.1-10.4-15.1-15.6c-0.4-0.4-0.7-0.6-1.2-0.1c-0.8,0.7-0.1,1.1,0.3,1.6c3.1,4.5,7.1,8.3,11.1,11.9
			C223.2,277.2,224,280.3,226.9,279.1z"/>
		<path class="st5" d="M164,293.1c0.3-1.9-0.2-3.4,0.6-5c1.6-3.1,5.1-3.9,6.8-1c3.5,6,8.5,10.5,13.9,14.6c3.3,2.5,6.7,4.9,10.3,7
			c2.4,1.4,4.1,3.8,6.8,4.9c1.1,0.5,0.3,1.2-0.2,1.8c-2.7,3.7-5.9,7.1-8,11.1c-0.8,1.5-1.7,1-2.7,0c-7.4-6.8-15.1-13.4-21.9-20.8
			C166.1,302.1,164.1,297.8,164,293.1z"/>
		<path class="st5" d="M182.5,257.7c0.6-1.9-0.5-3.7,1.1-4.5c1.7-0.9,3,0.3,4.4,1.4c6.2,4.6,10.8,10.4,15.1,16.7
			c4,5.8,9,10.7,14.1,15.6c0.4,0.4,0.8,0.6,1.2,1c5.8,5.6,5.8,5.6-0.1,11.2c-1.3,1.3-2.1,1.3-3.6,0.3c-8.6-5.4-16.3-11.7-22.4-19.9
			C187.4,272.8,183.7,265.5,182.5,257.7z M211.5,290.2c0.4,0.7,0.9,1.5,1.4,2.2c0,0,0.6-0.1,0.6-0.3c0.4-1.3-0.8-1.7-1.5-2.4
			c-5.8-6.4-12.8-11.7-17.6-19.1c-0.7-1-1.3-0.6-1.8,0c-0.7,0.8-0.9,1.6,0.2,2.5c1.9,1.5,3.6,3.3,5.2,5.1
			C202.1,282.8,206.5,286.8,211.5,290.2z"/>
		<path class="st3" d="M140.1,287.1c-8.9-1.1-17.8-1.3-26.5,0.5c-8.6,1.7-16.9,4.5-22.5,12.5c-3.4-11.8,5.4-22.8,16.8-25.2
			C121.4,272,131.3,277.4,140.1,287.1z"/>
		<path class="st5" d="M166.1,316.3c-0.6-2.2-2.4-2.3-4-2.2c-2.2,0.1-3.2-0.9-4-2.8c-0.9-2.4-1.6-4.8-0.2-7.3c0.5-0.9,1.4-0.8,2-0.4
			c4,2.9,8.2,5.7,11.9,9c5.3,4.8,10.4,9.8,15.3,15c1.4,1.4,4.6,2.6,2.9,5.5c-2.2,3.8-5.4,5.2-8.9,3.7c-9.2-3.9-16.7-9.7-21.2-18.9
			c-0.3-0.6-0.7-1.2-0.3-1.8c0.5-0.6,1.6-0.7,2.2-0.3C163.2,316.7,164.6,316.8,166.1,316.3z"/>
		<path class="st3" d="M76.5,87.6c2.4-11.7,6.2-22.1,14.3-30.4c3.1-3.2,3.9-3,6.4,0.7c1.8,2.6,3.8,5.2,5.6,7.8
			c1.2,1.7,1.2,2.8-0.9,4.2c-7.4,5.1-14.5,10.6-21.7,15.9C79.3,86.3,78.2,86.7,76.5,87.6z"/>
		<path class="st3" d="M202.9,197.4c1.8,10.1,0.4,20.6,0.9,31.1c0.1,2.9-1.6,5.5-1,8.5c0.3,1.3-1,1.4-1.9,1.2
			c-1.7-0.4-4.5-0.2-4.8-2.1c-1-7.2-2.7-14.2-4-21.3c-0.4-2.4,0.4-4.6,1.6-6.9c2.3-4.1,4.1-8.4,6.2-12.6c0.4-0.8,0.5-2.7,2.2-2.1
			c1.2,0.4,0.4,1.8,0.6,2.8C203,196.3,202.9,196.7,202.9,197.4z"/>
		<path class="st3" d="M410.6,459.1c2.2-2.8,3.8-5.6,4.7-8.8c0.3-1.1,0.7-1.2,1.7-1.6c3.7-1.5,7.6-2.7,9.7-6.8
			c0.5-1.1,1.5-3.1,3.8-1.7c2.5,1.6,0.5,3.3-0.2,4.1c-5,6.1-10.7,11.3-17.9,14.8C412,459.4,411.4,459.2,410.6,459.1z"/>
		<path class="st3" d="M147.2,284.5c5.4,0.7,9.7,3.4,13.3,7.2c1.9,2.1,1.2,5,0.7,7.7c-4.3-5.6-9.6-9.9-14.7-14.3
			C146.7,284.9,146.9,284.7,147.2,284.5z"/>
		<path class="st3" d="M421.5,438.3c0.3-1.4-0.4-2.2-1.6-2.8c0.7-1,1.2-2.1,0.8-3.2c-0.7-2.1-1-3.6,1.8-4.7c2.8-1,4.4,0.1,6,1.9
			c0.8,0.8,1.4,1.9,1.8,2.9c0.5,1.2,2.1,2.6,0.7,3.8c-1.4,1.2-2.1-0.8-3-1.5c-1.7-1.3-3.2-1.1-4,0.8
			C423.4,436.7,422.5,437.5,421.5,438.3z"/>
		<path class="st3" d="M390.8,476.6c-4,2.9-14.8,1.6-17.4-0.6c-1.2-1.1-0.8-2.7-0.3-3.9c0.3-1,1.5-0.8,2.3-0.3
			c2.3,1.4,4.7,2.2,7.4,2.6C385.3,474.9,387.8,475.8,390.8,476.6z"/>
		<path class="st3" d="M321.7,497.3c0-2.9,4.1-7.8,6.6-8.5c0.6-0.2,1-0.3,1.3,0.2c0.8,1.8,2,3.6,2.1,5.5c0.1,1.1-1.9,1.5-3.3,1.7
			c-1.4,0.2-1.9,1.6-2.9,2.4c-0.9,0.8-1.7,1.8-3,1.2C321.4,499.3,321.9,498,321.7,497.3z"/>
		<path class="st3" d="M263.6,554.4c-1.7-4.1-4.2-6.6-6-9.6c-0.6-0.9-3.3-1.8-0.7-3.5c2.1-1.3,4.3-1.7,6.2,0.4
			c1.2,1.4,1.7,3.1,1.5,5C264.1,548.9,265.2,551.2,263.6,554.4z"/>
		<path class="st3" d="M307.4,496c0.4-1.2-1-3.5,1.8-3.7c2.1-0.1,4.8,3.7,5,6.9c0.1,1.1-0.2,2.2-1.4,2.2
			C310.1,501.5,307.4,498.8,307.4,496z"/>
		<path class="st3" d="M173.1,502.6c-2.5-3.9-1.8-7.2,0.2-10.7c1-1.8,1.6-1.7,2.4-0.1c1.1,2.2,2.3,4.4,0.1,6.9
			C174.9,499.8,174.6,501.5,173.1,502.6z"/>
		<path class="st0" d="M259,515.5c-3,0.9-3.8-2-5.6-2.8c-3.1-1.4-5.7-3.7-8.5-5.5c-1.1-0.7-1.7-1.7-1.3-2.9c0.4-1.1,1.7-0.9,2.3-0.4
			C250.5,507.4,255.5,510.4,259,515.5z"/>
		<path class="st3" d="M443.1,465.9c2.2-1.2,3.8-3.4,5.8-1.5c1.5,1.4,1.7,3.4,0.8,5.6c-0.7,1.8-1.6,1.5-2.2,0.3
			C446.8,468.3,445.4,467.1,443.1,465.9z"/>
		<path class="st5" d="M258.2,493.4c5.2,0.2,10.3,1.5,15.5,0.7c1.6-0.3,3.3-0.5,4.9-0.7c-0.2,1.2-1.4,1.4-2.1,1.5
			C270.3,495.5,264.1,496.6,258.2,493.4z"/>
		<path class="st2" d="M348.2,36.6c-2,1.8-3.9,0.1-5.9,0c-4.4-0.3-8.8,0.1-13.2,0.6c0.5-1.6,2.1-2,3.3-2
			C337.7,35.2,343.2,34.1,348.2,36.6z"/>
		<path class="st3" d="M446.5,78.7c0.9-3.4,4-1.8,5.8-2c3.7-0.5,7.7-1.9,11.2,0.9C457.9,77.7,452.1,77.6,446.5,78.7z"/>
		<path class="st5" d="M217.1,309c4.9,0.5,9.9-1,14.7,0.8c-4.7,1.1-9.4,0.4-14.1,0.4C217,310.2,217.1,309.5,217.1,309z"/>
		<path class="st3" d="M310.4,527.3c0,0.3-0.3,1.1-0.7,0.8c-1.7-1.1-4-1.4-4.7-3.5c-0.3-0.9,0.4-2.3,1.4-2.9
			c1.3-0.7,1.8,0.7,2.2,1.5C309.3,524.4,309.8,525.8,310.4,527.3z"/>
		<path class="st5" d="M470.4,286.9c-2.4-4.5-0.9-9.1-0.8-13.7c0-0.7,0.3-1.5,0.5-2.2c0.1,0.1,0.1,0.3,0.1,0.4
			C470.2,276.5,470.3,281.7,470.4,286.9z"/>
		<path class="st5" d="M433.4,247.2c1-4,0.8-8.1,0.8-12.2c0-1.2,0.3-2.7-1.4-3.2c1.5-1.7,1.6,0,1.8,0.8
			C436.3,237.5,435.5,242.4,433.4,247.2z"/>
		<path class="st3" d="M183.9,347c8.9,0,17.7,0,26.6,0c-0.4,0.8-1.2,0.8-2,0.8c-7.5,0-15,0-22.5,0
			C185.2,347.8,184.4,347.8,183.9,347z"/>
		<path class="st5" d="M246.7,346.1c0.7-2.3,2.6-2.1,4.4-2.2c3.3-0.2,6.6-0.1,9.3,2.2c-1,0-2.3,0.4-3-0.1
			C253.7,343.6,250.2,344.9,246.7,346.1z"/>
		<path class="st5" d="M219.4,323.4c0.7-2.2,2.6-1.3,3.9-1.2c2.8,0.2,5.8-1,8.5,0.8C227.7,324.1,223.5,323.4,219.4,323.4z"/>
		<path class="st5" d="M228.6,177.9c-0.8-4.1-0.8-8.2,0.1-12.2c0,0,0,0,0,0c0.2,0.4,0.5,0.7,0.7,1.1
			C229.1,170.4,230.6,174.3,228.6,177.9z"/>
		<path class="st3" d="M470.2,271.4c0-0.2,0-0.3-0.1-0.4c-0.7-2.2,0.9-4.9-1.3-6.8c0.5-0.9,0.8-1.9,1.5-2.6c0.8-0.8,2.1-0.4,1.6,0.7
			C470.6,265.2,472.1,268.6,470.2,271.4z"/>
		<path class="st2" d="M382.5,17.9c2.1,3.5,0.7,7-0.2,10.5c-0.2,0.6-1.1,0.5-1.7,0.4C383.2,25.5,381.1,21.4,382.5,17.9z"/>
		<path class="st5" d="M384.9,498.1c3.7,0,7.4,0,11.1,0C392.3,499.9,388.6,499.9,384.9,498.1z"/>
		<path class="st2" d="M423.9,25.5c-0.6,2.7-2.7,2.6-4.7,2.6c-2.1-0.1-3.1-1.3-3.3-3.4C418.4,26.6,421,27,423.9,25.5z"/>
		<path class="st2" d="M383.7,7.8c-2,2.7-0.4,5.9-1.3,8.7C379.9,13.6,380.7,8.4,383.7,7.8z"/>
		<path class="st5" d="M335,57.9c2.9,0,6.1-1.6,8.8,0.8C340.8,58.7,337.7,60.4,335,57.9z"/>
		<path class="st5" d="M217.1,346c3-1.8,6.3-2.2,9.7-2.1C223.7,345,220.6,346.5,217.1,346z"/>
		<path class="st2" d="M357.8,35.8c0.2,0.7,0,1.6-0.7,1.5c-2.7-0.3-5.4,1.4-8.1,0.2C351.8,36.3,355.1,37.5,357.8,35.8z"/>
		<path class="st5" d="M213,466.9c2.8,0,5.7-0.5,7.7,2.1C218.1,468.5,215.3,468.6,213,466.9z"/>
		<path class="st3" d="M449.6,262c0-2.2,0-4.4,0-6.6c0-1.4,0-2.7-1.9-2.6c0.6-0.8,1.1-1.7,2.6-1.9C450,254.6,451.2,258.3,449.6,262z
			"/>
		<path class="st3" d="M239.6,535.9c5.1,0,10.2,0.1,15.3,0.1C249.7,537.2,244.6,537.3,239.6,535.9z"/>
		<path class="st2" d="M405.2,10.8c0.4,2.6-1,5-1,7.6C402.2,15.9,402.6,13,405.2,10.8z"/>
		<path class="st5" d="M376.6,56.3c1.9-2.8,4.8-3.6,7.9-4.1C382.2,54.4,379.5,55.4,376.6,56.3z"/>
		<path class="st5" d="M340.7,22.9c2.4,0,4.9-1.5,7,0.9C345.3,23.7,342.7,25.5,340.7,22.9z"/>
		<path class="st3" d="M446.4,460.7c0-4.5-0.1-9-0.1-13.5c0.8,0,1.2,0.5,1.1,1.2C446.9,452.4,448.6,456.7,446.4,460.7z"/>
		<path class="st3" d="M416.3,252.1c-1.4,0.4-1-0.7-1-1.3c0-3.6,0.1-7.1,0.1-10.7C417.3,244,415.7,248.1,416.3,252.1z"/>
		<path class="st3" d="M164.9,362.8c-0.1,1.8,1.1,2,2.5,2c2.7,0,5.4,0,8.1,0.1c-3.3,1.8-6.9,0.8-10.4,0.7
			C163.4,365.5,163.9,363.9,164.9,362.8z"/>
		<path class="st5" d="M228.4,162.3c-2.1-1.8-0.8-4-0.8-6.1C229.6,158,228.3,160.2,228.4,162.3z"/>
		<path class="st3" d="M441.9,40c0-4,0-8,0-12C443.2,32,443.1,36,441.9,40z"/>
		<path class="st5" d="M253.1,438c-0.1-2.3,0-4.5,1.9-6.2C254.5,433.9,254.6,436.2,253.1,438z"/>
		<path class="st5" d="M371,59.9c1-2.1,2.6-3.1,4.9-3C374.6,58.3,373.2,59.8,371,59.9z"/>
		<path class="st3" d="M252.8,288.3c1.5-1.3,3.3-1.6,5.1-2.1C256.6,288,254.9,288.7,252.8,288.3z"/>
		<path class="st5" d="M337,394.4c1.1-1.9,3-1.8,4.8-2C340.6,394,338.9,394.5,337,394.4z"/>
		<path class="st5" d="M237.2,349.9c1.1-1.8,2.9-1.9,4.7-2C240.6,349.2,239.3,350.3,237.2,349.9z"/>
		<path class="st5" d="M471.2,293.1c-1.6-1.4-1.7-2.9-0.5-4.6C471.9,290,471.2,291.6,471.2,293.1z"/>
		<path class="st5" d="M233.4,322.3c1.3-1.7,3.1-0.6,4.7-0.8C236.7,323.3,235,322.5,233.4,322.3z"/>
		<path class="st5" d="M244.1,498c1.7-0.1,3.3,0,3.9,2.1C246.4,499.9,245,499.4,244.1,498z"/>
		<path class="st2" d="M369.4,21c-2.5-0.1-2.1-2.3-2.7-3.8C368.7,17.7,368.9,19.5,369.4,21z"/>
		<path class="st5" d="M233.4,309.1c1-1.5,2.6-0.7,3.9-0.9C236.2,309.8,234.8,309.4,233.4,309.1z"/>
		<path class="st2" d="M408.1,9.9c-1,0.2-1.8,1.4-3,0.9C406,8.9,407,8.6,408.1,9.9z"/>
		<path class="st5" d="M359.9,66.3c1.1,0,2.2-0.1,3.3-0.1c0.3,1.7-1,1.4-1.9,1.4C360.7,67.6,359.5,67.8,359.9,66.3z"/>
		<path class="st3" d="M395.8,262.8c1.1-3.7,2.2-1.2,3.2,0.1C398,263.1,396.9,261.5,395.8,262.8z"/>
		<path class="st3" d="M465.9,78.5c0.1-0.6,0.2-1.3,1.1-1.3c1.1,0,1.2,0.7,1.2,1.5C467.4,78.6,466.6,78.5,465.9,78.5z"/>
		<path class="st3" d="M365.5,323.5c0.4-1.5,1.8-1.7,2.9-2.3C367.7,322.3,367,323.5,365.5,323.5z"/>
		<path class="st5" d="M326,341.4c0.4-1.7,1.2-1.6,2.3-0.5C327.7,341.8,326.8,341.3,326,341.4z"/>
		<path class="st2" d="M370.9,24.4c-1.1-0.9-1.9-1.9-1.5-3.4C370.9,21.7,371.4,22.9,370.9,24.4z"/>
		<path class="st3" d="M399.8,263.6c1.2,0.3,2.1,0.9,2.2,2.3C401.3,265.1,400.5,264.4,399.8,263.6z"/>
		<path class="st5" d="M367.1,63c-0.1-1.8,1.2-1.5,2.3-1.5C369.2,62.8,368.1,62.9,367.1,63z"/>
		<path class="st2" d="M358,28.9c1.6,0,1.1,1.3,1.5,2.1C358.9,30.3,358.5,29.6,358,28.9z"/>
		<path class="st3" d="M389.8,300.4c0.4-1.2,0.9-2.2,2.2-2.6C391,298.5,391.4,300.4,389.8,300.4z"/>
		<path class="st5" d="M322.9,342.1c0.8-0.8,1.9-0.5,2.9-0.6C325,342.8,323.9,342.3,322.9,342.1z"/>
		<path class="st5" d="M358.6,64.9c1-0.1,1.3,0.6,1.4,1.4C358.5,66.8,358.7,65.8,358.6,64.9z"/>
		<path class="st5" d="M329.8,340.2c0.3-0.9,1-1,1.8-0.7C331.2,340.3,330.7,340.7,329.8,340.2z"/>
		<path class="st2" d="M359.8,32.3c0.6,0.2,1.2,0.4,1,1.3c-0.2,0.7-0.8,0.9-1.4,0.6C359.5,33.6,359.6,33,359.8,32.3z"/>
		<path class="st5" d="M260.4,511.5c0.8-0.3,1.5-0.2,1.6,0.9C261.4,512.4,260.7,512.4,260.4,511.5z"/>
		<path class="st5" d="M324.4,50.5c1.4-0.2,1.4,0.7,1.5,1.6C324.3,52.5,324.4,51.5,324.4,50.5z"/>
		<path class="st3" d="M257.8,286.3c0.8-0.9,1.8-0.8,2.8-0.8C260,286.8,258.8,286.3,257.8,286.3z"/>
		<path class="st3" d="M364.1,324.6c0.2-0.7,0.7-1,1.4-1.2C365,323.9,364.6,324.3,364.1,324.6z"/>
		<path class="st5" d="M328.2,55.2c1.3-0.4,1.4,0.4,1.5,1.4C329,56.4,328.4,56.1,328.2,55.2z"/>
		<path class="st5" d="M244.4,346.8c0.6-0.7,1.3-0.6,2.1-0.6C246,347.2,245.2,347,244.4,346.8z"/>
		<path class="st3" d="M395.8,264.4c-0.6-0.5-0.5-1,0-1.5C395.8,263.4,395.8,263.9,395.8,264.4z"/>
		<path class="st5" d="M218,324.5c0.1-0.6,0.4-0.9,1-0.9C219,324.2,218.6,324.4,218,324.5z"/>
		<path class="st5" d="M255.2,430c0.2-0.4,0.4-0.9,0.6-1.3C256,429.3,256,429.8,255.2,430z"/>
		<path class="st5" d="M323.7,48.8c0.6,0.5,1,1,0.7,1.7C323.5,50.2,323.7,49.4,323.7,48.8z"/>
		<path class="st3" d="M369.5,320.6c0.1-1,1-0.9,1.6-1.1C370.8,320.1,370.5,321,369.5,320.6z"/>
		<path class="st5" d="M248.1,500.2c0.5,0.1,1.1,0,0.9,0.8C248.5,501,248.1,500.8,248.1,500.2z"/>
		<path class="st3" d="M383,307.1c0.4-0.2,0.9-0.4,1.3-0.6C384.1,307.1,383.5,307.2,383,307.1z"/>
		<path class="st3" d="M188,145.7c0.5,0.3,1.2,0.8,0.5,1.4c-0.7,0.6-1-0.2-1.3-0.7C187.5,146.2,187.8,146,188,145.7z"/>
		<path class="st5" d="M251.8,502.9c0.7,0,0.9,0.5,0.9,1C252.1,503.8,251.9,503.4,251.8,502.9z"/>
		<path class="st5" d="M363.3,66.2c0.2-0.7,0.6-1.2,1.5-0.9C364.5,66,364.2,66.7,363.3,66.2z"/>
		<path class="st5" d="M253.6,504.9c0.6,0,1.1,0.1,1,0.9C254.1,505.7,253.7,505.5,253.6,504.9z"/>
		<path class="st3" d="M146.4,285.1c-0.2-0.4-1.3-0.6-0.6-1.3c0.6-0.5,1.1,0,1.3,0.6C146.9,284.7,146.7,284.9,146.4,285.1z"/>
		<path class="st5" d="M235,350.6c0.5-0.6,1.1-0.5,1.7-0.4C236.3,351,235.7,350.8,235,350.6z"/>
		<path class="st5" d="M255.7,506.8c0.7,0,0.9,0.4,0.9,1C256.3,507.4,256,507.1,255.7,506.8z"/>
		<path class="st3" d="M388.1,302.6c0.1-0.7,0-1.4,1-1.5C389.3,302,388.7,302.3,388.1,302.6z"/>
		<path class="st5" d="M342.3,392.1c0.3-0.6,0.8-0.8,1.5-0.7C343.5,392.2,343,392.3,342.3,392.1z"/>
		<path class="st5" d="M258.3,509.5c0.6,0,1.1,0.2,1.1,0.9C258.8,510.4,258.4,510.1,258.3,509.5z"/>
		<path class="st5" d="M326.6,52.9c0.7,0.2,1.2,0.6,0.9,1.5C326.8,54.2,326.2,53.8,326.6,52.9z"/>
		<path class="st3" d="M392.7,297.1c0.2-0.6,0.1-1.3,0.9-1.6C393.6,296.2,393.4,296.8,392.7,297.1z"/>
		<path class="st3" d="M253.7,267.7c-0.2,0.6-0.2,1.3-1.1,1.3C252.5,268.2,252.9,267.8,253.7,267.7z"/>
		<path class="st5" d="M262.3,512.6c0.6,0,1.1,0.1,1,0.9C262.8,513.4,262.3,513.2,262.3,512.6z"/>
		<path class="st0" d="M196.7,149.8c0.3,0.4,0.6,0.8,0.1,1.1c-0.6,0.4-0.7-0.2-0.9-0.6C196.2,150.1,196.4,149.9,196.7,149.8z"/>
		<path class="st3" d="M468.2,265.1c-0.3,0.3-0.6,0.6-0.9,0.9C467.4,265.6,467.3,264.9,468.2,265.1z"/>
		<path class="st3" d="M252.7,269c-0.3,0.3-0.6,0.6-0.8,0.9C251.8,269.2,251.9,268.8,252.7,269z"/>
		<path class="st5" d="M365.6,64.5c-0.1-0.6,0.1-0.9,0.8-0.7C366.3,64.3,366.1,64.6,365.6,64.5z"/>
		<path class="st3" d="M252,269.8c-0.3,0.3-0.6,0.6-0.8,0.9C251,269.9,251.2,269.6,252,269.8z"/>
		<path class="st3" d="M468.9,264.3c0,0.5-0.3,0.8-0.8,0.9C468,264.5,468.1,264,468.9,264.3z"/>
		<path class="st5" d="M364.8,65.3c-0.1-0.6,0.2-0.8,0.8-0.7C365.5,65,365.3,65.4,364.8,65.3z"/>
		<path class="st5" d="M249.8,501.6c0.3-0.3,0.5-0.2,0.6,0.1c0,0-0.3,0.1-0.3,0.1L249.8,501.6z"/>
		<path class="st5" d="M250.9,501.9c0.4,0,0.7,0.2,0.6,0.6C251.3,502.4,251.1,502.2,250.9,501.9z"/>
		<path class="st5" d="M252.8,504.1c0.2,0.2,0.4,0.4,0.6,0.6C253.3,504.5,253,504.3,252.8,504.1z"/>
		<path class="st5" d="M255,506.1c0.4-0.2,0.6,0,0.5,0.4C255.1,506.5,255,506.4,255,506.1z"/>
		<path class="st5" d="M256.8,508c0.2,0.2,0.4,0.4,0.6,0.6C257.2,508.4,257,508.2,256.8,508z"/>
		<path class="st5" d="M257.5,508.8c0.2,0.2,0.4,0.4,0.6,0.6C257.9,509.2,257.7,509,257.5,508.8z"/>
		<path class="st5" d="M259.6,510.7c0.4-0.1,0.5,0.1,0.4,0.5C259.7,511.1,259.6,511,259.6,510.7z"/>
		<path class="st5" d="M263.5,513.8c0.4-0.1,0.6,0.1,0.6,0.5C264,514.1,263.8,513.9,263.5,513.8z"/>
		<path class="st0" d="M259.2,516.8c-0.4-0.3-0.9-0.7-0.3-1.2c0.6-0.5,0.8,0.1,1.2,0.4C259.8,516.3,259.5,516.6,259.2,516.8z"/>
		<path class="st3" d="M399,262.9c0.3,0.3,0.6,0.5,0.9,0.8C399.5,263.4,399.3,263.1,399,262.9z"/>
		<path class="st5" d="M325.8,52.2c0.5,0,0.7,0.3,0.8,0.8C325.9,53.2,325.6,52.9,325.8,52.2z"/>
		<path class="st3" d="M245.7,276c-0.1,0.5-0.3,0.8-0.9,0.9C244.7,276,245,275.8,245.7,276z"/>
		<path class="st3" d="M385.7,304.9c0.3-0.3,0.6-0.6,0.8-0.8C386.3,304.4,386,304.6,385.7,304.9z"/>
		<path class="st3" d="M386.5,304.1c0.3-0.3,0.6-0.5,0.9-0.8C387.1,303.6,386.8,303.9,386.5,304.1z"/>
		<path class="st3" d="M387.3,303.4c0.3-0.3,0.6-0.6,0.8-0.8C387.9,302.8,387.6,303.1,387.3,303.4z"/>
		<path class="st3" d="M244.9,276.8c-0.1,0.5-0.3,0.8-0.9,0.8C243.9,276.8,244.2,276.6,244.9,276.8z"/>
		<path class="st3" d="M244.2,277.5c-0.3,0.3-0.6,0.6-0.8,0.9C243.2,277.7,243.4,277.3,244.2,277.5z"/>
		<path class="st3" d="M389,301.1c0.1-0.5,0.3-0.8,0.8-0.9C390,301,389.8,301.4,389,301.1z"/>
		<path class="st3" d="M392,297.9c0.3-0.3,0.5-0.6,0.8-0.8C392.7,297.5,392.4,297.8,392,297.9z"/>
		<path class="st3" d="M243.4,278.3c-0.3,0.3-0.6,0.6-0.8,0.9C242.4,278.5,242.6,278.2,243.4,278.3z"/>
		<path class="st3" d="M242.6,279.1c-0.3,0.3-0.6,0.6-0.9,0.9C241.6,279.2,241.9,279,242.6,279.1z"/>
		<path class="st3" d="M241.8,279.9c-0.3,0.3-0.6,0.6-0.9,0.9C240.8,280,241.1,279.7,241.8,279.9z"/>
		<path class="st2" d="M359.3,34.2c0.1,0.6-0.1,0.9-0.7,0.8C358.6,34.5,358.8,34.2,359.3,34.2z"/>
		<path class="st3" d="M238.7,283c-0.3,0.3-0.6,0.6-1,0.9C237.9,283.4,237.9,282.8,238.7,283z"/>
		<path class="st3" d="M239.5,282.2c-0.3,0.3-0.6,0.6-0.8,0.9C238.5,282.4,238.7,282,239.5,282.2z"/>
		<path class="st3" d="M240.3,281.4c-0.3,0.3-0.6,0.6-0.8,0.9C239.2,281.5,239.5,281.2,240.3,281.4z"/>
		<path class="st3" d="M241.1,280.6c-0.1,0.5-0.3,0.8-0.9,0.9C240,280.7,240.3,280.5,241.1,280.6z"/>
		<path class="st3" d="M251.2,270.5c-0.3,0.3-0.6,0.6-0.9,0.9C250.1,270.6,250.5,270.4,251.2,270.5z"/>
		<path class="st3" d="M250.4,271.3c-0.1,0.5-0.3,0.8-0.9,0.9C249.3,271.4,249.7,271.2,250.4,271.3z"/>
		<path class="st2" d="M415.6,24.1c0-0.2-0.1-0.3-0.2-0.5c0.1,0.1,0.3,0.2,0.4,0.3C415.7,24,415.6,24,415.6,24.1z"/>
		<path class="st3" d="M229.4,166.7c-0.2-0.4-0.5-0.7-0.7-1.1C229.3,165.7,229.4,166.2,229.4,166.7z"/>
		<path class="st3" d="M249.6,272.1c-0.1,0.5-0.3,0.8-0.9,0.8C248.5,272.2,248.9,271.9,249.6,272.1z"/>
		<path class="st3" d="M248.8,272.9c-0.3,0.3-0.6,0.6-0.8,0.9C247.8,273,248.1,272.7,248.8,272.9z"/>
		<path class="st5" d="M366.4,63.8c-0.1-0.6,0.1-0.9,0.7-0.8C367.1,63.5,366.8,63.7,366.4,63.8z"/>
		<path class="st3" d="M248.1,273.7c-0.3,0.3-0.6,0.6-0.8,0.9C247.1,273.8,247.3,273.5,248.1,273.7z"/>
		<path class="st5" d="M327.5,54.4c0.6-0.1,0.9,0.1,0.7,0.8C327.7,55.2,327.5,54.9,327.5,54.4z"/>
		<path class="st5" d="M369.5,61.5c-0.1-0.6,0.2-0.8,0.8-0.7C370.2,61.2,370.1,61.5,369.5,61.5z"/>
		<path class="st3" d="M247.3,274.4c-0.3,0.3-0.6,0.6-0.9,0.9C246.3,274.6,246.6,274.3,247.3,274.4z"/>
		<path class="st3" d="M246.5,275.2c-0.3,0.3-0.6,0.6-0.9,0.9C245.5,275.3,245.8,275.1,246.5,275.2z"/>
		<path class="st3" d="M368.3,321.3c0.4-0.2,0.9-0.5,1.3-0.7C369.6,321.6,368.8,321.3,368.3,321.3z"/>
		<path class="st5" d="M370.3,60.7c-0.1-0.6,0.2-0.8,0.8-0.8C371,60.4,370.8,60.7,370.3,60.7z"/>
		<path class="st2" d="M358.5,35c0.1,0.6-0.1,0.9-0.7,0.8C357.8,35.3,358.1,35,358.5,35z"/>
		<path class="st3" d="M384.2,306.5c0.3-0.3,0.5-0.6,0.8-0.8C384.8,305.9,384.5,306.2,384.2,306.5z"/>
		<path class="st3" d="M385,305.7c0.3-0.3,0.5-0.6,0.8-0.8C385.5,305.1,385.2,305.4,385,305.7z"/>
		<path class="st1" d="M389.5,275.5c1.9,2.9,2.6,4.7,2.1,7.4c-1.1,5.5-3.5,10.3-7,14.6c-0.4,0.5-0.8,1.9-1.9,1.2
			c-0.8-0.6-0.9-1.4-0.2-2.6c2.2-3.7,4-7.5,5.9-11.3C389.7,282.2,390.1,279.5,389.5,275.5z"/>
		<path class="st1" d="M287.5,273.2c0,2.9-4.9,6.6-6.9,5.9c-0.3-0.1-0.6-0.5-0.6-0.8c0-0.7,0.4-1.1,1.1-1.3
			C283.2,276.3,285.2,275.2,287.5,273.2z"/>
		<path class="st1" d="M417.2,85.5c-0.1,2.5-2.3,2.5-3.9,2.8c-4.3,0.9-8.7,1.2-12.5-1.4c-5.1-3.6-5.8-9.8-2.1-15.6
			c1.6-2.5,1.6-2.5-0.4-5c1.7-1.2,3.3-0.8,5.2-0.4c10.2,2.1,16.6,9.9,24.1,15.9c1.3,1,1,2.4,0.7,4.1c-2.4-2.2-4.9-3.5-7.8-1.3
			c1.8-5.1,0.9-7.1-3.5-8.6c0,2,0,4.1,0,6.2C417,83.4,415.3,84.6,417.2,85.5z M406.2,79.3c-0.2,2.9,0.4,5.1,3.5,5.3
			c2.7,0.2,4.5-1.9,4.5-5.5c0-2.8-0.5-5.4-4-5.3C406.2,73.8,406.5,77.1,406.2,79.3z M398.2,79.2c-0.1,2.9,0.7,5.2,3.7,6.5
			c0.9,0.4,1.8,0.9,2.5,0.4c1-0.7-0.1-1.7-0.4-2.3c-1.5-3.6-1.5-6.9,0.9-10.1c0.6-0.8,2.8-1.5,1.1-3c-1.4-1.2-3-0.9-4.5,0.4
			C398.9,73.2,398.4,76.1,398.2,79.2z"/>
		<path class="st1" d="M463.2,222.4c1.4,1.6,2,3.3,2,5.5c-0.1,6.6,0.1,13.2-0.1,19.8c-0.1,5.5-1.1,10.8-4.7,15.3
			c-0.6,0.7-1.1,1.8-2,1.3c-0.6-0.4-1.6-1.4-1-2.6c6.6-11,3.2-23.2,4.2-34.9C461.8,225.3,461.2,223.4,463.2,222.4z"/>
		<path class="st3" d="M417.2,85.5c-1.9-0.9-0.3-2.1-0.2-3.2c0-2.1,0-4.2,0-6.2c4.4,1.5,5.2,3.5,3.5,8.6
			C419.4,85,418.4,85.9,417.2,85.5z"/>
		<path class="st1" d="M421.6,224.6c-1-2.6-0.7-5.4-0.6-8.1c0-0.5,0.4-1,1-0.8c0.6,0.2,0.6,0.7,0.6,1.3c0,2.5,0,5,0,7.5
			C422.4,224.5,422,224.6,421.6,224.6z"/>
		<path class="st1" d="M163.3,85.1c-0.3,0.4-0.5,0.8-0.8,0.9c-0.8,0.3-1.4,0.2-2.1-0.4c-5.8-4.9-12.2-9.1-18.7-13.1
			c-2.9-1.8-5.8-3.5-8.6-5.5c-1.1-0.8-3.6-1.1-2.3-3.4c1.5-2.4,2.5,0.1,3.6,0.7c9.9,5,18.5,11.8,27,18.7
			C162.1,83.6,162.6,84.4,163.3,85.1z"/>
		<path class="st1" d="M249,140.9c0.4-3.5,0.5-6.8,0.9-10.1c0.8-6.4-0.8-12.9-1.2-19.4c-0.4-5.8-1.4-11.7-3.2-17.3
			c-1-3.3-1.7-6.6-2.7-9.9c-0.3-1.1-0.2-2,0.7-2.3c1-0.4,1.2,0.7,1.5,1.5c3.2,7.5,4.4,15.4,5.9,23.4c2.1,11.6,2.2,23.2,1.6,34.8
			c-0.3,6.5-0.7,13.2-2.6,19.7c-0.7,2.5-0.9,5.4-1.6,8c-0.1,0.6,0,1.8-1.2,1.6c-1.2-0.1-0.8-1.1-0.8-1.8c-0.1-4.4,1.4-8.6,1.5-12.9
			C248.2,151.1,249.8,145.9,249,140.9z"/>
		<path class="st1" d="M234.6,206.6c-0.9-0.3-1.8-0.9-1.1-2c3.6-5.7,6.8-11.5,9.8-17.5c0.2-0.5,0.7-0.8,1.3-0.6
			c0.6,0.2,0.7,0.8,0.5,1.3c-2.2,6.5-4.9,12.7-9,18.2C235.8,206.3,235.1,206.4,234.6,206.6z"/>
		<path class="st1" d="M242,77.4c-3.1-3.6-3.8-8.2-5.6-12.3c-0.3-0.6,0.5-1.1,1-1.4c0.5-0.3,1.1,0,1.2,0.5
			C239.9,68.6,242,72.7,242,77.4z"/>
		<path class="st1" d="M181.6,230.1c-10-23.5-27.4-37.7-52.6-42.4C145.9,182.1,182.8,212.1,181.6,230.1z"/>
		<path class="st1" d="M122.8,217.5c9.4,0.4,17.5,3.7,25.1,8.1c8,4.7,14.8,10.8,20.3,18.4c0.5,0.7,2.1,1.5,1,2.5
			c-1.1,1-1.7-0.7-2.3-1.3c-6.4-7.6-13.7-14.1-22.5-18.8c-6.1-3.3-12.4-6-19.3-7C124.3,219.2,123.5,219.2,122.8,217.5z"/>
		<path class="st1" d="M119.1,239.6c3.5-4.2,7.5-1.8,10.8-0.9c10.3,2.7,18.3,9.1,25.4,16.7c0.4,0.5,0.9,1,1.3,1.5
			c0.7,0.9,1.2,2,0.2,2.7c-0.9,0.7-1.9,0.1-2.7-0.7c-3.2-3.6-6.6-7-10.6-9.9c-6.3-4.4-13-7.7-20.8-8c-0.5,0-1,0-1.5-0.2
			C120.6,240.5,120,240.1,119.1,239.6z"/>
		<path class="st1" d="M136.4,302.1c6.1,0,10.2,4.2,15.2,7c-2.9,0.5-3,0.6-7.7-3.1C141.7,304.3,138.8,303.8,136.4,302.1z"/>
		<path class="st1" d="M201.4,301c2,0.8,4,1.6,6,2.3c0.9,0.3,1.8,0.7,1.1,1.8c-0.6,1-1.1,0.4-2,0.1
			C204.2,304.5,202.9,302.6,201.4,301L201.4,301z"/>
		<polygon class="st1" points="201.4,301 201.3,300.9 201.4,301 		"/>
		<path class="st1" d="M232,264.5c-2.4-3.3-4.8-6.6-7.1-9.9c-0.2-0.3-0.1-1.1,0.1-1.4c0.6-0.7,1.2-0.2,1.5,0.4
			c2.2,3.3,4.4,6.7,6.5,10C232.7,263.8,232.4,264.1,232,264.5z"/>
		<path class="st1" d="M226.9,279.1c-2.9,1.2-3.8-1.9-5-3c-4-3.6-7.9-7.4-11.1-11.9c-0.3-0.5-1-0.8-0.3-1.6c0.5-0.5,0.8-0.3,1.2,0.1
			c5,5.2,10.1,10.4,15.1,15.6C227,278.5,226.9,278.8,226.9,279.1z"/>
		<path class="st1" d="M211.5,290.2c-5-3.4-9.4-7.4-13.4-12c-1.6-1.8-3.3-3.6-5.2-5.1c-1.1-0.9-0.9-1.7-0.2-2.5c0.5-0.6,1.1-1,1.8,0
			c4.8,7.4,11.8,12.7,17.6,19.1C211.8,289.8,211.7,290,211.5,290.2z"/>
		<path class="st1" d="M212,289.6c0.6,0.7,1.9,1.1,1.5,2.4c0,0.2-0.6,0.3-0.6,0.3c-0.5-0.7-0.9-1.4-1.4-2.2
			C211.7,290,211.8,289.8,212,289.6z"/>
		<path class="st5" d="M406.2,79.3c0.4-2.2,0-5.5,3.9-5.6c3.5,0,4,2.6,4,5.3c0,3.6-1.8,5.7-4.5,5.5C406.5,84.4,406,82.2,406.2,79.3z
			"/>
		<path class="st3" d="M398.2,79.2c0.2-3.1,0.7-6,3.3-8.2c1.5-1.2,3.1-1.5,4.5-0.4c1.7,1.5-0.4,2.1-1.1,3c-2.5,3.2-2.4,6.5-0.9,10.1
			c0.2,0.6,1.3,1.6,0.4,2.3c-0.7,0.5-1.6,0-2.5-0.4C398.9,84.4,398.1,82.1,398.2,79.2z"/>
	</g>
</g>
</svg>
